/* XPM */
static char *result[] = {
/* columns rows colors chars-per-pixel */
"64 61 16 1 ",
"  c black",
". c #7B1029",
"X c #107B29",
"o c #734221",
"O c #DE2929",
"+ c #A57B42",
"@ c #42A529",
"# c #10FF08",
"$ c yellow",
"% c #DEAD52",
"& c #3152FF",
"* c #D6B58C",
"= c #BDFFA5",
"- c #FFE7BD",
"; c white",
": c None",
/* pixels */
"::::::::::::::::::::::::::+++ooo::::::::::::::::::::::::::::::::",
"::::::::::::::::::::::::::+++ooo::::::::::::::::::::::::::::::::",
"::::::::::::::::::::::::::+++ooo::::::::::::::::::::::::::::::::",
"::::::::::::   XXXXXXXX   ---***::::::::::::::::::::::::::::::::",
"::::::::::::   XXXXXXXX   ---***::::::::::::::::::::::::::::::::",
"::::::::::::   XXXXXXXX   ---***::::::::::::::::::::::::::::::::",
":::::::::   @@@#####@@@XXX------ooo:::::::::::::::::::::::::::::",
":::::::::   @@@#####@@@XXX------ooo:::::::::::::::::::::::::::::",
":::::::::   @@@#####@@@XXX------ooo:::::::::::::::::::::::::::::",
"::::::   ######$$$$$%%%%%%$$$$$$   :::::::::     :::::::::::::::",
"::::::   ######$$$$$%%%%%%$$$$$$   :::::::::     :::::::::::::::",
"::::::   ######$$$$$%%%%%%$$$$$$   :::::::::     :::::::::::::::",
":::   @@@###$$$$$$$$$$$++++++ooo$$$   :::   -----   ::::::::::::",
":::   @@@###$$$$$$$$$$$++++++ooo$$$   :::   -----   ::::::::::::",
":::   @@@###$$$$$$$$$$$++++++ooo$$$   :::   -----   ::::::::::::",
":::   ###$$$$$$$$$$$%%%******;;;+++$$$      ---**   ::::::::::::",
":::   ###$$$$$$$$$$$%%%******;;;+++$$$      ---**   ::::::::::::",
":::   ###$$$$$$$$$$$+++***;;;&&&;;;+++%%%   =====   ::::::::::::",
":::   ###$$$$$$$$$$$+++***;;;&&&;;;+++%%%   =====   ::::::::::::",
":::   ###$$$$$$$$$$$+++***;;;&&&;;;+++%%%   =====   ::::::::::::",
"   @@@$$$$$$%%%$$$$$+++------;;;***+++   ======  :::::::::::::::",
"   @@@$$$$$$%%%$$$$$+++------;;;***+++   ======  :::::::::::::::",
"   @@@$$$$$$%%%$$$$$+++------;;;***+++   ======  :::::::::::::::",
"   @@@$$$$$$+++$$%%%;;;;;;---------+++XXX======  :::::::::::::::",
"   @@@$$$$$$+++$$%%%;;;;;;---------+++XXX======  :::::::::::::::",
"   @@@$$$$$$+++$$%%%;;;;;;---------+++XXX======  :::::::::::::::",
":::   %%%$$$%%%++;;;&&&&&&;;;---+++ooo@@@XXXoooXX      :::   :::",
":::   %%%$$$%%%++;;;&&&&&&;;;---+++ooo@@@XXXoooXX      :::   :::",
":::   %%%$$$%%%++;;;&&&&&&;;;---+++ooo@@@XXXoooXX      :::   :::",
":::   XXX%%%$$$%%;;;&&&&&&;;;++++++ooo@@@@@@ooo@@###@@@   OOO   ",
":::   XXX%%%$$$%%;;;&&&&&&;;;++++++ooo@@@@@@ooo@@###@@@   OOO   ",
":::   XXX%%%$$$%%;;;&&&&&&;;;++++++ooo@@@@@@ooo@@###@@@   OOO   ",
"::::::   XXX%%%oo***;;;;;;---+++ooo@@@@@@###ooo#####@@@OOOOOO   ",
"::::::   XXX%%%oo***;;;;;;---+++ooo@@@@@@###ooo#####@@@OOOOOO   ",
"::::::   XXX%%%oo***;;;;;;---+++ooo@@@@@@###ooo#####@@@OOOOOO   ",
"::::::ooo---+++$$ooo*********ooo@@@@@@###$$$$$$#####...OOOOOO   ",
"::::::ooo---+++$$ooo*********ooo@@@@@@###$$$$$$#####...OOOOOO   ",
"::::::ooo---+++$$ooo*********ooo@@@@@@###$$$$$$#####...OOOOOO   ",
":::+++------***  $$$ooooooooo@@@@@@@@@###$$$$$$##XXX......   :::",
":::+++------***  $$$ooooooooo@@@@@@@@@###$$$$$$##XXX......   :::",
":::+++------***  $$$ooooooooo@@@@@@@@@###$$$$$$##XXX......   :::",
"::::::ooooooooo::   %%%   ===XXX@@@###ooo@@@#####         ::::::",
"::::::ooooooooo::   %%%   ===XXX@@@###ooo@@@#####         ::::::",
"::::::ooooooooo::   %%%   ===XXX@@@###ooo@@@#####         ::::::",
":::::::::::::::::      =========   ooo#########  :::::::::::::::",
":::::::::::::::::      =========   ooo#########  :::::::::::::::",
":::::::::::::::  ------===ooo      @@@######@@@..   ::::::::::::",
":::::::::::::::  ------===ooo      @@@######@@@..   ::::::::::::",
":::::::::::::::  ------===ooo      @@@######@@@..   ::::::::::::",
":::::::::::::::  ---***      ::::::   @@@XXX   ..OOO   :::::::::",
":::::::::::::::  ---***      ::::::   @@@XXX   ..OOO   :::::::::",
":::::::::::::::  ---***      ::::::   @@@XXX   ..OOO   :::::::::",
":::::::::::::::::      :::::::::::::::      ...OOOOO   :::::::::",
":::::::::::::::::      :::::::::::::::      ...OOOOO   :::::::::",
":::::::::::::::::      :::::::::::::::      ...OOOOO   :::::::::",
"::::::::::::::::::::::::::::::::::::::::::::   OO   ::::::::::::",
"::::::::::::::::::::::::::::::::::::::::::::   OO   ::::::::::::",
"::::::::::::::::::::::::::::::::::::::::::::   OO   ::::::::::::",
":::::::::::::::::::::::::::::::::::::::::::::::  :::::::::::::::",
":::::::::::::::::::::::::::::::::::::::::::::::  :::::::::::::::",
":::::::::::::::::::::::::::::::::::::::::::::::  :::::::::::::::"
};
