/* XPM */
static char *result[] = {
/* columns rows colors chars-per-pixel */
"64 61 15 1 ",
"  c black",
". c #7B1029",
"X c #107B29",
"o c #734221",
"O c #DE2929",
"+ c #A57B42",
"@ c #42A529",
"# c #10FF08",
"$ c yellow",
"% c #DEAD52",
"& c #3152FF",
"* c #D6B58C",
"= c #BDFFA5",
"- c #FFE7BD",
"; c None",
/* pixels */
";;;;;;;;;;;;;;;;;;;;;;;;;;;;;;;;;;;;;;;;;;;;;;;;;;;;;;;;;;;;;;;;",
";;;;;;;;;;;;;;;;;;;;;;;;;;;;;;;;;;;;;;;;;;;;;;;;;;;;;;;;;;;;;;;;",
";;;;;;;;;;;;;;;;;;;;;;;;;;;;;;;;;;;;;;;;;;;;;;;;;;;;;;;;;;;;;;;;",
";;;;;;;;;;;;;;;;;;;;;;;;;;;;;;;;;;;;;;;;;;;;;;;;;;;;;;;;;;;;;;;;",
";;;;;;;;;;;;;;;;;;;;;;;;;;;;;;;;;;;;;;;;;;;;;;;;;;;;;;;;;;;;;;;;",
";;;;;;;;;;;;;;;;;;;;;;;;;;;;;;;;;;;;;;;;;;;;;;;;;;;;;;;;;;;;;;;;",
";;;;;;;;;;;;;;;;;;;;;;;;;;;;;;;;;;;;;;;;;;;;;;;;;;;;;;;;;;;;;;;;",
";;;;;;;;;;;;;;;;;;;;;;;;;;;;;;;;;;;;;;;;;;;;;;;;;;;;;;;;;;;;;;;;",
";;;;;;;;;;;;;;;;;;;;;;;;;;;;;;;;;;;;;;;;;;;;;;;;;;;;;;;;;;;;;;;;",
";;;;;;;;;;;;;;;;;;;;;;;;;;;;;;;;;;;;;;;;;;;;;;;;;;;;;;;;;;;;;;;;",
";;;;;;;;;;;;;;;;;;;;;;;;;;;;;;;;;;;;;;;;;;;;;;;;;;;;;;;;;;;;;;;;",
";;;;;;;;;;;;;;;;;;;;;;;;;;;;;;;;;;;;;;;;;;;;;;;;;;;;;;;;;;;;;;;;",
";;;;;;;;;;;;;;;;;@@@@@@   ;;;ooo;;;;;;;;;;;;;;;;;;;;;;;;;;;;;;;;",
";;;;;;;;;;;;;;;;;@@@@@@   ;;;ooo;;;;;;;;;;;;;;;;;;;;;;;;;;;;;;;;",
";;;;;;;;;;;;;;;;;@@@@@@   ;;;ooo;;;;;;;;;;;;;;;;;;;;;;;;;;;;;;;;",
";;;;;;;;;;;;;;;@@###%%%oooooo---   ;;;      ;;;;;;;;;;;;;;;;;;;;",
";;;;;;;;;;;;;;;@@###%%%oooooo---   ;;;      ;;;;;;;;;;;;;;;;;;;;",
";;;;;;;;;;;;@@@@@%%%$$$%%%******%%%   ---   ;;;;;;;;;;;;;;;;;;;;",
";;;;;;;;;;;;@@@@@%%%$$$%%%******%%%   ---   ;;;;;;;;;;;;;;;;;;;;",
";;;;;;;;;;;;@@@@@%%%$$$%%%******%%%   ---   ;;;;;;;;;;;;;;;;;;;;",
";;;;;;;;;;;;@@@##$$$$$$$$$***&&&***ooo===   ;;;;;;;;;;;;;;;;;;;;",
";;;;;;;;;;;;@@@##$$$$$$$$$***&&&***ooo===   ;;;;;;;;;;;;;;;;;;;;",
";;;;;;;;;;;;@@@##$$$$$$$$$***&&&***ooo===   ;;;;;;;;;;;;;;;;;;;;",
";;;;;;;;;;;;   ##$$$***$$$------+++@@@===@@@     ;;;;;;;;;;;;;;;",
";;;;;;;;;;;;   ##$$$***$$$------+++@@@===@@@     ;;;;;;;;;;;;;;;",
";;;;;;;;;;;;   ##$$$***$$$------+++@@@===@@@     ;;;;;;;;;;;;;;;",
";;;;;;;;;;;;   XX$$$%%%&&&***++++++###ooo###OOOOO   ;;;;;;;;;;;;",
";;;;;;;;;;;;   XX$$$%%%&&&***++++++###ooo###OOOOO   ;;;;;;;;;;;;",
";;;;;;;;;;;;   XX$$$%%%&&&***++++++###ooo###OOOOO   ;;;;;;;;;;;;",
";;;;;;;;;;;;;;;  ***$$$------+++@@@###$$$###OOOOO   ;;;;;;;;;;;;",
";;;;;;;;;;;;;;;  ***$$$------+++@@@###$$$###OOOOO   ;;;;;;;;;;;;",
";;;;;;;;;;;;;;;  ***$$$------+++@@@###$$$###OOOOO   ;;;;;;;;;;;;",
";;;;;;;;;;;;;;;oo++++++***ooo@@@######$$$###...  ;;;;;;;;;;;;;;;",
";;;;;;;;;;;;;;;oo++++++***ooo@@@######$$$###...  ;;;;;;;;;;;;;;;",
";;;;;;;;;;;;;;;oo++++++***ooo@@@######$$$###...  ;;;;;;;;;;;;;;;",
";;;;;;;;;;;;;;;;;;;;;;;   ======   ooo######   ;;;;;;;;;;;;;;;;;",
";;;;;;;;;;;;;;;;;;;;;;;   ======   ooo######   ;;;;;;;;;;;;;;;;;",
";;;;;;;;;;;;;;;;;;;;;;;   ======   ooo######   ;;;;;;;;;;;;;;;;;",
";;;;;;;;;;;;;;;;;;;;   ---===      @@@OOOOOO   ;;;;;;;;;;;;;;;;;",
";;;;;;;;;;;;;;;;;;;;   ---===      @@@OOOOOO   ;;;;;;;;;;;;;;;;;",
";;;;;;;;;;;;;;;;;;;;   ---===      @@@OOOOOO   ;;;;;;;;;;;;;;;;;",
";;;;;;;;;;;;;;;;;;;;;;;      ;;;;;;   ...OOO   ;;;;;;;;;;;;;;;;;",
";;;;;;;;;;;;;;;;;;;;;;;      ;;;;;;   ...OOO   ;;;;;;;;;;;;;;;;;",
";;;;;;;;;;;;;;;;;;;;;;;      ;;;;;;   ...OOO   ;;;;;;;;;;;;;;;;;",
";;;;;;;;;;;;;;;;;;;;;;;;;;;;;;;;;;;;;;      ;;;;;;;;;;;;;;;;;;;;",
";;;;;;;;;;;;;;;;;;;;;;;;;;;;;;;;;;;;;;      ;;;;;;;;;;;;;;;;;;;;",
";;;;;;;;;;;;;;;;;;;;;;;;;;;;;;;;;;;;;;;;;;;;;;;;;;;;;;;;;;;;;;;;",
";;;;;;;;;;;;;;;;;;;;;;;;;;;;;;;;;;;;;;;;;;;;;;;;;;;;;;;;;;;;;;;;",
";;;;;;;;;;;;;;;;;;;;;;;;;;;;;;;;;;;;;;;;;;;;;;;;;;;;;;;;;;;;;;;;",
";;;;;;;;;;;;;;;;;;;;;;;;;;;;;;;;;;;;;;;;;;;;;;;;;;;;;;;;;;;;;;;;",
";;;;;;;;;;;;;;;;;;;;;;;;;;;;;;;;;;;;;;;;;;;;;;;;;;;;;;;;;;;;;;;;",
";;;;;;;;;;;;;;;;;;;;;;;;;;;;;;;;;;;;;;;;;;;;;;;;;;;;;;;;;;;;;;;;",
";;;;;;;;;;;;;;;;;;;;;;;;;;;;;;;;;;;;;;;;;;;;;;;;;;;;;;;;;;;;;;;;",
";;;;;;;;;;;;;;;;;;;;;;;;;;;;;;;;;;;;;;;;;;;;;;;;;;;;;;;;;;;;;;;;",
";;;;;;;;;;;;;;;;;;;;;;;;;;;;;;;;;;;;;;;;;;;;;;;;;;;;;;;;;;;;;;;;",
";;;;;;;;;;;;;;;;;;;;;;;;;;;;;;;;;;;;;;;;;;;;;;;;;;;;;;;;;;;;;;;;",
";;;;;;;;;;;;;;;;;;;;;;;;;;;;;;;;;;;;;;;;;;;;;;;;;;;;;;;;;;;;;;;;",
";;;;;;;;;;;;;;;;;;;;;;;;;;;;;;;;;;;;;;;;;;;;;;;;;;;;;;;;;;;;;;;;",
";;;;;;;;;;;;;;;;;;;;;;;;;;;;;;;;;;;;;;;;;;;;;;;;;;;;;;;;;;;;;;;;",
";;;;;;;;;;;;;;;;;;;;;;;;;;;;;;;;;;;;;;;;;;;;;;;;;;;;;;;;;;;;;;;;",
";;;;;;;;;;;;;;;;;;;;;;;;;;;;;;;;;;;;;;;;;;;;;;;;;;;;;;;;;;;;;;;;"
};
