/* XPM */
static char *result[] = {
/* columns rows colors chars-per-pixel */
"49 65 15 1 ",
"  c black",
". c #7B1029",
"X c #107B29",
"o c #734221",
"O c #DE2929",
"+ c #A57B42",
"@ c #42A529",
"# c #10FF08",
"$ c ##363243",
"% c yellow",
"& c #DEAD52",
"* c #D6B58C",
"= c #BDFFA5",
"- c #FFE7BD",
"; c None",
/* pixels */
";;;;;;;;;;;;;;;;;++%%%%%%%%%%+++  ;;;;;;;;;;;;;;;",
";;;;;;;;;;;;;;;;;++%%%%%%%%%%+++  ;;;;;;;;;;;;;;;",
";;;;;;;;;;;;;;+++%%%%%%%%%%%%%%%++   ;;;;;;;;;;;;",
";;;;;;;;;;;;;;+++%%%%%%%%%%%%%%%++   ;;;;;;;;;;;;",
";;;;;;;;;;;;;;+++%%%%%%%%%%%%%%%++   ;;;;;;;;;;;;",
";;;;;;;;;;;;&&%%%%%%%%%%%%%&&&&&%%@@@  ;;;;;;;;;;",
";;;;;;;;;;;;&&%%%%%%%%%%%%%&&&&&%%@@@  ;;;;;;;;;;",
";;;;;;;;;+++%%+++%%%%%&&+++**+++&&%%%@@   ;;;;;;;",
";;;;;;;;;+++%%+++%%%%%&&+++**+++&&%%%@@   ;;;;;;;",
";;;;;;;;;+++%%+++%%%%%&&+++**+++&&%%%@@   ;;;;;;;",
";;;;;;;;;ooo&&%%%%%&&&oo***--***++%%%%%XXX;;;;;;;",
";;;;;;;;;ooo&&%%%%%&&&oo***--***++%%%%%XXX;;;;;;;",
";;;;;;;;;;;;  ooo++ooo**---**ooo  +++%%@@@  ;;;;;",
";;;;;;;;;;;;  ooo++ooo**---**ooo  +++%%@@@  ;;;;;",
";;;;;;;;;;;;  ooo++ooo**---**ooo  +++%%@@@  ;;;;;",
";;;;;;;       ***oo***-----oo***--***&&@@@  ;;;;;",
";;;;;;;       ***oo***-----oo***--***&&@@@  ;;;;;",
";;;;   -----  ooooo--------ooooooo+++%%ooooo***++",
";;;;   -----  ooooo--------ooooooo+++%%ooooo***++",
";;;;   -----  ooooo--------ooooooo+++%%ooooo***++",
";;;;   --***==   -----**----------+++%%-----ooo;;",
";;;;   --***==   -----**----------+++%%-----ooo;;",
";;;;;;;  ========  oooooooo++---**ooo%%***oo;;;;;",
";;;;;;;  ========  oooooooo++---**ooo%%***oo;;;;;",
";;;;;;;  ========  oooooooo++---**ooo%%***oo;;;;;",
";;;;;;;;;   =======   oo+++-----**ooo&&ooo;;;;;;;",
";;;;;;;;;   =======   oo+++-----**ooo&&ooo;;;;;;;",
";;;;;;;;;;;;  =====XXX  ********oo     ooo;;;;;;;",
";;;;;;;;;;;;  =====XXX  ********oo     ooo;;;;;;;",
";;;;;;;;;;;;  =====XXX  ********oo     ooo;;;;;;;",
";;;;;;;;;;;;  XXX@@@@@XXooooo     -----   ;;;;;;;",
";;;;;;;;;;;;  XXX@@@@@XXooooo     -----   ;;;;;;;",
";;;;;;;     oo@@@@@@@@@@@@@XX=====-----   ;;;;;;;",
";;;;;;;     oo@@@@@@@@@@@@@XX=====-----   ;;;;;;;",
";;;;;;;     oo@@@@@@@@@@@@@XX=====-----   ;;;;;;;",
";;;;   @@XXXoo###@@@@@@@@@@@@ooo=====  ;;;;;;;;;;",
";;;;   @@XXXoo###@@@@@@@@@@@@ooo=====  ;;;;;;;;;;",
";;;;   @@###oo########@@@@@@@        ;;;;;;;;;;;;",
";;;;   @@###oo########@@@@@@@        ;;;;;;;;;;;;",
";;;;   @@###oo########@@@@@@@        ;;;;;;;;;;;;",
";;;;   XX###@@ooo##########XX   ;;;;;;;;;;;;;;;;;",
";;;;   XX###@@ooo##########XX   ;;;;;;;;;;;;;;;;;",
";;  .....@@@##ooo%%%%%ooooooo   ;;;;;;;;;;;;;;;;;",
";;  .....@@@##ooo%%%%%ooooooo   ;;;;;;;;;;;;;;;;;",
";;  .....@@@##ooo%%%%%ooooooo   ;;;;;;;;;;;;;;;;;",
"  OOOOO.....@@###%%%%%#####  ;;;;;;;;;;;;;;;;;;;;",
"  OOOOO.....@@###%%%%%#####  ;;;;;;;;;;;;;;;;;;;;",
"  OOOOOOO     @@@#####@@   $$$$$;;;;;;;;;;;;;;;;;",
"  OOOOOOO     @@@#####@@   $$$$$;;;;;;;;;;;;;;;;;",
"  OOOOOOO     @@@#####@@   $$$$$;;;;;;;;;;;;;;;;;",
";;       $$$  +++**        $$$$$$$$$$;;;;;;;;;;;;",
";;       $$$  +++**        $$$$$$$$$$;;;;;;;;;;;;",
";;;;$$$$$$$$  ........OOOOO  $$$$$$$$$$;;;;;;;;;;",
";;;;$$$$$$$$  ........OOOOO  $$$$$$$$$$;;;;;;;;;;",
";;;;$$$$$$$$  ........OOOOO  $$$$$$$$$$;;;;;;;;;;",
";;;;$$$$$$$$$$   ..OOOOOOOO  $$$$$$$$$$;;;;;;;;;;",
";;;;$$$$$$$$$$   ..OOOOOOOO  $$$$$$$$$$;;;;;;;;;;",
";;;;$$$$$$$$$$$$$          $$$$$$$$$$$$;;;;;;;;;;",
";;;;$$$$$$$$$$$$$          $$$$$$$$$$$$;;;;;;;;;;",
";;;;$$$$$$$$$$$$$          $$$$$$$$$$$$;;;;;;;;;;",
";;;;;;;$$$$$$$$$$$$$$$$$$$$$$$$$$$$$$;;;;;;;;;;;;",
";;;;;;;$$$$$$$$$$$$$$$$$$$$$$$$$$$$$$;;;;;;;;;;;;",
";;;;;;;;;;;;$$$$$$$$$$$$$$$$$$$$;;;;;;;;;;;;;;;;;",
";;;;;;;;;;;;$$$$$$$$$$$$$$$$$$$$;;;;;;;;;;;;;;;;;",
";;;;;;;;;;;;$$$$$$$$$$$$$$$$$$$$;;;;;;;;;;;;;;;;;"
};
