/* XPM */
static char *result[] = {
/* columns rows colors chars-per-pixel */
"52 55 15 1 ",
"  c black",
". c #7B1029",
"X c #107B29",
"o c #734221",
"O c #DE2929",
"+ c #A57B42",
"@ c #42A529",
"# c #10FF08",
"$ c ##363243",
"% c yellow",
"& c #DEAD52",
"* c #D6B58C",
"= c #BDFFA5",
"- c #FFE7BD",
"; c None",
/* pixels */
";;;;;;;;;;;;;;;;;;;;;;;;        &&&&&&&;;;;;;;;;;;;;",
";;;;;;;;;;;;;;;;;;;;;;;;        &&&&&&&;;;;;;;;;;;;;",
";;;;;;;;;;;;;;;;;+++++  XXX@@###&&%%%%%&&&++;;;;;;;;",
";;;;;;;;;;;;;;;;;+++++  XXX@@###&&%%%%%&&&++;;;;;;;;",
";;;;;;;;;;;;;;;;;+++++  XXX@@###&&%%%%%&&&++;;;;;;;;",
";;;;;;;;;;;;;;;;;oo***++@@@&&%%%%%%%%%%%%%%%+++;;;;;",
";;;;;;;;;;;;;;;;;oo***++@@@&&%%%%%%%%%%%%%%%+++;;;;;",
";;;;;;;;;;;;;;;;;oo***++@@@&&%%%%%%%%%%%%%%%+++;;;;;",
";;;;;;;;;;;;;;;;;oo-----ooo%%   &&ooooo&&&%%%%%++;;;",
";;;;;;;;;;;;;;;;;oo-----ooo%%   &&ooooo&&&%%%%%++;;;",
";;;;;;;;;;;;;;   oo***oo%%%  *****ooo**&&&%%%%%%%ooo",
";;;;;;;;;;;;;;   oo***oo%%%  *****ooo**&&&%%%%%%%ooo",
";;;;;;;;;;;;;;     ooo%%   **ooo**ooo++&&&&&%%%%%ooo",
";;;;;;;;;;;;;;     ooo%%   **ooo**ooo++&&&&&%%%%%ooo",
";;;;;;;;;;;;;;     ooo%%   **ooo**ooo++&&&&&%%%%%ooo",
";;;;;;;;;;;;  @@@**        -----ooooo++oooooooo&&ooo",
";;;;;;;;;;;;  @@@**        -----ooooo++oooooooo&&ooo",
";;;;;;;;;;;;  @@@**        -----ooooo++oooooooo&&ooo",
";;;;;;;;;;;;  XXXXX   -----  -----ooo**-----***&&ooo",
";;;;;;;;;;;;  XXXXX   -----  -----ooo**-----***&&ooo",
";;;;;;;;;;;;     XX   **---  -------------ooooooo;;;",
";;;;;;;;;;;;     XX   **---  -------------ooooooo;;;",
";;;;;;;;;;;;     XX   **---  -------------ooooooo;;;",
";;;;;;;;;   XXooo     =====  -----ooo**---++   oo;;;",
";;;;;;;;;   XXooo     =====  -----ooo**---++   oo;;;",
";;;;;;;;;   ##ooo##   =====  ***-----oo*****   oo;;;",
";;;;;;;;;   ##ooo##   =====  ***-----oo*****   oo;;;",
";;;;;;;;;   ##ooo##   =====  ***-----oo*****   oo;;;",
";;;;;;;     ##@@@oo@@@=====XX+++*****       &&&;;;;;",
";;;;;;;     ##@@@oo@@@=====XX+++*****       &&&;;;;;",
";;;;   ..---#####oo@@@@@@@@@@XXX     -----     ;;;;;",
";;;;   ..---#####oo@@@@@@@@@@XXX     -----     ;;;;;",
";;  OOOOO***#####@@ooo@@@@@@@XXX=====--***  ;;;;;;;;",
";;  OOOOO***#####@@ooo@@@@@@@XXX=====--***  ;;;;;;;;",
";;  OOOOO***#####@@ooo@@@@@@@XXX=====--***  ;;;;;;;;",
"  OOOOO..   #####@@oooXX@@@XX   =====     ;;;;;;;;;;",
"  OOOOO..   #####@@oooXX@@@XX   =====     ;;;;;;;;;;",
"  OO...  ...++@@@@@%%%%%XXX          ;;;;;;;;;;;;;;;",
"  OO...  ...++@@@@@%%%%%XXX          ;;;;;;;;;;;;;;;",
"  OO...  ...++@@@@@%%%%%XXX          ;;;;;;;;;;;;;;;",
"         ...  XXXXXXXX     $$$$$$$$$$;;;;;;;;;;;;;;;",
"         ...  XXXXXXXX     $$$$$$$$$$;;;;;;;;;;;;;;;",
";;;;$$$$$   $$        $$$$$$$$$$$$$$$$$;;;;;;;;;;;;;",
";;;;$$$$$   $$        $$$$$$$$$$$$$$$$$;;;;;;;;;;;;;",
";;;;$$$$$   $$        $$$$$$$$$$$$$$$$$;;;;;;;;;;;;;",
";;;;$$$$$$$$$$$$$$$$$$$$$$$$$$$$$$$$$$$;;;;;;;;;;;;;",
";;;;$$$$$$$$$$$$$$$$$$$$$$$$$$$$$$$$$$$;;;;;;;;;;;;;",
";;;;$$$$$$$$$$$$$$$$$$$$$$$$$$$$$$$$$$$;;;;;;;;;;;;;",
";;;;$$$$$$$$$$$$$$$$$$$$$$$$$$$$$$$$$$$;;;;;;;;;;;;;",
";;;;$$$$$$$$$$$$$$$$$$$$$$$$$$$$$$$$$$$;;;;;;;;;;;;;",
";;;;;;;$$$$$$$$$$$$$$$$$$$$$$$$$$$$$$;;;;;;;;;;;;;;;",
";;;;;;;$$$$$$$$$$$$$$$$$$$$$$$$$$$$$$;;;;;;;;;;;;;;;",
";;;;;;;$$$$$$$$$$$$$$$$$$$$$$$$$$$$$$;;;;;;;;;;;;;;;",
";;;;;;;;;;;;$$$$$$$$$$$$$$$$$$$$;;;;;;;;;;;;;;;;;;;;",
";;;;;;;;;;;;$$$$$$$$$$$$$$$$$$$$;;;;;;;;;;;;;;;;;;;;"
};
