/* XPM */
static char *result[] = {
/* columns rows colors chars-per-pixel */
"60 45 15 1 ",
"  c black",
". c #7B1029",
"X c #107B29",
"o c #734221",
"O c #DE2929",
"+ c #A57B42",
"@ c #42A529",
"# c #10FF08",
"$ c ##363243",
"% c yellow",
"& c #DEAD52",
"* c #D6B58C",
"= c #BDFFA5",
"- c #FFE7BD",
"; c None",
/* pixels */
";;;;;;;;;;;;;;;;;;;;;;;;;;;;;;;;XXX@@@@@@@@@@;;;;;;;;;;;;;;;",
";;;;;;;;;;;;;;;;;;;;;;;;;;;;;;;;XXX@@@@@@@@@@;;;;;;;;;;;;;;;",
";;;;;;;;;;;;;;;;;;;;;;;;;;;XXXXX@@@@@##########@@@;;;;;;;;;;",
";;;;;;;;;;;;;;;;;;;;;;;;;;;XXXXX@@@@@##########@@@;;;;;;;;;;",
";;;;;;;;;;;;;;;;;;;;;;;;;;;XXXXX@@@@@##########@@@;;;;;;;;;;",
";;;;;;;;;;;;;;;;;;;;;;;;;  @@@@@@@@#####+++++++&&&##@@@;;;;;",
";;;;;;;;;;;;;;;;;;;;;;;;;  @@@@@@@@#####+++++++&&&##@@@;;;;;",
";;;;;;;;;;;;;;;;;;;;;;;;;  @@@@@@@@#####+++++++&&&##@@@;;;;;",
";;;;;;;;;;;;;;;;;;;;;;   oo---**XXXoo%%%%%%%%%%%%%%%&&&;;;;;",
";;;;;;;;;;;;;;;;;;;;;;   oo---**XXXoo%%%%%%%%%%%%%%%&&&;;;;;",
";;;;;;;;;;;;;;;;;;;;  @@@oo-----ooo++%%%%%&&&%%%%%%%%%%oo;;;",
";;;;;;;;;;;;;;;;;;;;  @@@oo-----ooo++%%%%%&&&%%%%%%%%%%oo;;;",
";;;;;;;;;;;;;;;;;;;;  @@@oo-----ooo++%%%%%&&&%%%%%%%%%%oo;;;",
";;;;;;;;;;;;;;;;;;;;  @@@oo-----&&&oo+++oo%%%%%%%%&&%%%%%ooo",
";;;;;;;;;;;;;;;;;;;;  @@@oo-----&&&oo+++oo%%%%%%%%&&%%%%%ooo",
";;;;;;;;;;;;;;;;;;;;       +++oo%%%  *****ooooo&&&%%%%%%%&&&",
";;;;;;;;;;;;;;;;;;;;       +++oo%%%  *****ooooo&&&%%%%%%%&&&",
";;;;;;;;;;;;;;;;;;;;       +++oo%%%  *****ooooo&&&%%%%%%%&&&",
";;;;;;;;;;;;;;;;;;;;;;;;;;;ooo%%%%%  ***--***oo***%%%%%%%&&&",
";;;;;;;;;;;;;;;;;;;;;;;;;;;ooo%%%%%  ***--***oo***%%%%%%%&&&",
";;;;;;;;;;;;;;;;;          %%%%%   **---oo***oo+++++%%%%%+++",
";;;;;;;;;;;;;;;;;          %%%%%   **---oo***oo+++++%%%%%+++",
";;;;;;;          @@@XX   XX&&&  ***-------ooooo***oo&&&++;;;",
";;;;;;;          @@@XX   XX&&&  ***-------ooooo***oo&&&++;;;",
";;;;;;;          @@@XX   XX&&&  ***-------ooooo***oo&&&++;;;",
";;     ...     ++#####ooo@@          ***------------ooo;;;;;",
";;     ...     ++#####ooo@@          ***------------ooo;;;;;",
"  .....   ..OOO  #####ooo@@=====-----   oo+++-----**   ;;;;;",
"  .....   ..OOO  #####ooo@@=====-----   oo+++-----**   ;;;;;",
"  .....   ..OOO  #####ooo@@=====-----   oo+++-----**   ;;;;;",
";;     ...OOOOO**#####ooo@@=====-----   ooooo++***  ;;;;;;;;",
";;     ...OOOOO**#####ooo@@=====-----   ooooo++***  ;;;;;;;;",
";;   ..OOOOOOOO--########oo@@@       =====---**   ;;;;;;;;;;",
";;   ..OOOOOOOO--########oo@@@       =====---**   ;;;;;;;;;;",
";;   ..OOOOOOOO--########oo@@@       =====---**   ;;;;;;;;;;",
"  ...OOOOO       @@@#####oo@@@XX   $$          ;;;;;;;;;;;;;",
"  ...OOOOO       @@@#####oo@@@XX   $$          ;;;;;;;;;;;;;",
"  ...OOOOO       @@@#####oo@@@XX   $$          ;;;;;;;;;;;;;",
";;        $$$$$$$   @@%%%%%     $$$$$$$$$$;;;;;;;;;;;;;;;;;;",
";;        $$$$$$$   @@%%%%%     $$$$$$$$$$;;;;;;;;;;;;;;;;;;",
";;;;;;;;;;$$$$$$$$$$       $$$$$$$$$$$$$;;;;;;;;;;;;;;;;;;;;",
";;;;;;;;;;$$$$$$$$$$       $$$$$$$$$$$$$;;;;;;;;;;;;;;;;;;;;",
";;;;;;;;;;$$$$$$$$$$       $$$$$$$$$$$$$;;;;;;;;;;;;;;;;;;;;",
";;;;;;;;;;;;;;;$$$$$$$$$$$$$$$$$$$$;;;;;;;;;;;;;;;;;;;;;;;;;",
";;;;;;;;;;;;;;;$$$$$$$$$$$$$$$$$$$$;;;;;;;;;;;;;;;;;;;;;;;;;"
};
