/* XPM */
static char *result[] = {
/* columns rows colors chars-per-pixel */
"62 47 14 1 ",
"  c black",
". c #107B29",
"X c #734221",
"o c #DE2929",
"O c #A57B42",
"+ c #42A529",
"@ c #10FF08",
"# c ##363243",
"$ c yellow",
"% c #DEAD52",
"& c #D6B58C",
"* c #BDFFA5",
"= c #FFE7BD",
"- c None",
/* pixels */
"-----------------------------------..........-----------------",
"-----------------------------------..........-----------------",
"------------------------------  ...++@@@@@@@@..   ------------",
"------------------------------  ...++@@@@@@@@..   ------------",
"------------------------------  ...++@@@@@@@@..   ------------",
"--------------------------------   ..+++++@@@@@@@@++   -------",
"--------------------------------   ..+++++@@@@@@@@++   -------",
"-----------------------------------  ...+++++@@@@@@@@@@-------",
"-----------------------------------  ...+++++@@@@@@@@@@-------",
"-----------------------------------  ...+++++@@@@@@@@@@-------",
"-------------------------------------   ..+++++@@@@@@@@@@-----",
"-------------------------------------   ..+++++@@@@@@@@@@-----",
"-----------------     ----------     ...  ...+++++@@@@@@@+++--",
"-----------------     ----------     ...  ...+++++@@@@@@@+++--",
"-----------------     ----------     ...  ...+++++@@@@@@@+++--",
"-------          +++@@          %%%  .....   +++++@@@@@@@@@@--",
"-------          +++@@          %%%  .....   +++++@@@@@@@@@@--",
"--     OOO&&OOO  @@@@@XXX@@+++..$$$..........++@@@@@@@@@@@@@++",
"--     OOO&&OOO  @@@@@XXX@@+++..$$$..........++@@@@@@@@@@@@@++",
"  OOO&&&&&&&ooo  @@@@@XXX@@@@@++%%%  ...+++++++@@@@@@@@@@@@@@@",
"  OOO&&&&&&&ooo  @@@@@XXX@@@@@++%%%  ...+++++++@@@@@@@@@@@@@@@",
"  OOO&&&&&&&ooo  @@@@@XXX@@@@@++%%%  ...+++++++@@@@@@@@@@@@@@@",
"  XXXooooo       @@@@@XXX@@@@@++   &&&&&+++++@@@@@@@@@@@@@@@@@",
"  XXXooooo       @@@@@XXX@@@@@++   &&&&&+++++@@@@@@@@@@@@@@@@@",
"--        OOOOO  @@@@@XXX++@@@  &&&=====+++++@@@@@@@@@@@@@@@@@",
"--        OOOOO  @@@@@XXX++@@@  &&&=====+++++@@@@@@@@@@@@@@@@@",
"--        OOOOO  @@@@@XXX++@@@  &&&=====+++++@@@@@@@@@@@@@@@@@",
"-----  OOO&&&&&  +++@@+++XX@@@@@        OO$$$++@@@@@@@@@@@@@@@",
"-----  OOO&&&&&  +++@@+++XX@@@@@        OO$$$++@@@@@@@@@@@@@@@",
"--   OO&&&&&ooo     @@@@@XX+++@@   %%$$$$$$$$$$%%%@@@@@@@@@@++",
"--   OO&&&&&ooo     @@@@@XX+++@@   %%$$$$$$$$$$%%%@@@@@@@@@@++",
"--   OO&&&&&ooo     @@@@@XX+++@@   %%$$$$$$$$$$%%%@@@@@@@@@@++",
"--   &&OOOoo   ##   ++@@@@@   ..+++  XXXXXOOO$$$$$$$$$$$$$$$OO",
"--   &&OOOoo   ##   ++@@@@@   ..+++  XXXXXOOO$$$$$$$$$$$$$$$OO",
"--   &&OOOoo   ##   ++@@@@@   ..+++  XXXXXOOO$$$$$$$$$$$$$$$OO",
"-----       ########  +++..   XX*****   &&&&&OO$$$OO$$$$$$$$XX",
"-----       ########  +++..   XX*****   &&&&&OO$$$OO$$$$$$$$XX",
"---------------#######          ********     &&OOO%%$$$$$%%%--",
"---------------#######          ********     &&OOO%%$$$$$%%%--",
"---------------#######          ********     &&OOO%%$$$$$%%%--",
"--------------------############   *****=====  %%%$$$$$$$XXX--",
"--------------------############   *****=====  %%%$$$$$$$XXX--",
"-----------------------------------  XXX&&&&&  $$$$$%%%XX-----",
"-----------------------------------  XXX&&&&&  $$$$$%%%XX-----",
"-----------------------------------  XXX&&&&&  $$$$$%%%XX-----",
"-------------------------------------        --XXXXX----------",
"-------------------------------------        --XXXXX----------"
};
