/* XPM */
static char *result[] = {
/* columns rows colors chars-per-pixel */
"59 42 15 1 ",
"  c black",
". c #7B1029",
"X c #107B29",
"o c #734221",
"O c #DE2929",
"+ c #A57B42",
"@ c #42A529",
"# c #10FF08",
"$ c ##363243",
"% c yellow",
"& c #DEAD52",
"* c #D6B58C",
"= c #BDFFA5",
"- c #FFE7BD",
"; c None",
/* pixels */
";;;;;;;;;;;;;;;;;;;;;;;;;;;;;;;;;;;;;XXXXXXXXXX;;;;;;;;;;;;",
";;;;;;;;;;;;;;;;;;;;;;;;;;;;;;;;;;;;;XXXXXXXXXX;;;;;;;;;;;;",
";;;;;;;;;;;;;;;;;;;;;;;;;;;;;;;;  XXX@@########@@XXX;;;;;;;",
";;;;;;;;;;;;;;;;;;;;;;;;;;;;;;;;  XXX@@########@@XXX;;;;;;;",
";;;;;;;;;;;;;;;;;;;;;;;;;;;;;;;;  XXX@@########@@XXX;;;;;;;",
";;;;;;;;;;;;;;;;;;;;;;;;;;;;;   @@##################@@;;;;;",
";;;;;;;;;;;;;;;;;;;;;;;;;;;;;   @@##################@@;;;;;",
";;;;;;;;;;;;;;     ;;;;;;;;;;        @@@@@@@##########@@@;;",
";;;;;;;;;;;;;;     ;;;;;;;;;;        @@@@@@@##########@@@;;",
";;;;;;;;;;;;;;     ;;;;;;;;;;        @@@@@@@##########@@@;;",
";;;;;;;;;;;;  @@@##          +++  @@@     @@@@@##########;;",
";;;;;;;;;;;;  @@@##          +++  @@@     @@@@@##########;;",
";;;;          #####ooo##@@@XX%%%@@@@@@@XXX     @@########@@",
";;;;          #####ooo##@@@XX%%%@@@@@@@XXX     @@########@@",
";;;;          #####ooo##@@@XX%%%@@@@@@@XXX     @@########@@",
";;  +++**+++  #####ooo#####@@%%%@@@@@@@@@@XXXXX############",
";;  +++**+++  #####ooo#####@@%%%@@@@@@@@@@XXXXX############",
"  ++*****OOO  #####ooo#####  +++XX   XX@@@@@###############",
"  ++*****OOO  #####ooo#####  +++XX   XX@@@@@###############",
"  ++*****OOO  #####ooo#####  +++XX   XX@@@@@###############",
"  *****OO     #####ooo#####  +++  -----@@@#################",
"  *****OO     #####ooo#####  +++  -----@@@#################",
";;       +++  #####oooXX###@@   **---  ooo++#############@@",
";;       +++  #####oooXX###@@   **---  ooo++#############@@",
";;       +++  #####oooXX###@@   **---  ooo++#############@@",
";;;;   ++***  @@@#####oo@@@@@XXX     %%%%%&&@@@#######&&&%%",
";;;;   ++***  @@@#####oo@@@@@XXX     %%%%%&&@@@#######&&&%%",
";;  +++**OOO..   @@###@@ooo@@   &&%%%&&+++++%%%%%%%%%%%%%%%",
";;  +++**OOO..   @@###@@ooo@@   &&%%%&&+++++%%%%%%%%%%%%%%%",
";;  +++**OOO..   @@###@@ooo@@   &&%%%&&+++++%%%%%%%%%%%%%%%",
"  ++***OO...       @@@XX   =====  ooooo***++%%%%%%%%%%%%%oo",
"  ++***OO...       @@@XX   =====  ooooo***++%%%%%%%%%%%%%oo",
"  ++OOO     $$$$$$$        oo=====        *****%%+++%%%%%oo",
"  ++OOO     $$$$$$$        oo=====        *****%%+++%%%%%oo",
"  ++OOO     $$$$$$$        oo=====        *****%%+++%%%%%oo",
";;     ;;;;;$$$$$$$$$$$$$$$  ========-----  %%%++&&&%%ooo;;",
";;     ;;;;;$$$$$$$$$$$$$$$  ========-----  %%%++&&&%%ooo;;",
";;;;;;;;;;;;;;;;;$$$$$$$$$$$$   oo===*****  ooo&&%%%oo;;;;;",
";;;;;;;;;;;;;;;;;$$$$$$$$$$$$   oo===*****  ooo&&%%%oo;;;;;",
";;;;;;;;;;;;;;;;;$$$$$$$$$$$$   oo===*****  ooo&&%%%oo;;;;;",
";;;;;;;;;;;;;;;;;;;;;;;;;;;;;;;;          ;;;;;ooooo;;;;;;;",
";;;;;;;;;;;;;;;;;;;;;;;;;;;;;;;;          ;;;;;ooooo;;;;;;;"
};
