/* XPM */
static char *result[] = {
/* columns rows colors chars-per-pixel */
"46 58 15 1 ",
"  c black",
". c #7B1029",
"X c #363243",
"o c #107B29",
"O c #734221",
"+ c #DE2929",
"@ c #A57B42",
"# c #42A529",
"$ c #10FF08",
"% c yellow",
"& c #DEAD52",
"* c #D6B58C",
"= c #BDFFA5",
"- c #FFE7BD",
"; c None",
/* pixels */
";;;;;;;;;;;;;;;;;;OO@@@@@@@@OO;;;;;;;;;;;;;;;;",
";;;;;;;;;;;;;;;;;;OO@@@@@@@@OO;;;;;;;;;;;;;;;;",
";;;;;;;;;;;;;;;;;;OO@@@@@@@@OO;;;;;;;;;;;;;;;;",
";;;;;;;;;;;;;;;   &&%%%%%%%%%%%%%@@;;;;;;;;;;;",
";;;;;;;;;;;;;;;   &&%%%%%%%%%%%%%@@;;;;;;;;;;;",
";;;;;;;;;;;;;  $$$$$$$$$$$$$$$%%%%%@@@;;;;;;;;",
";;;;;;;;;;;;;  $$$$$$$$$$$$$$$%%%%%@@@;;;;;;;;",
";;;;;;;;;;;;;  $$$$$$$$$$$$$$$%%%%%@@@;;;;;;;;",
";;;;;;;;;;   $$$$$$$$$$$$$$$$$$$$&&%%%OO;;;;;;",
";;;;;;;;;;   $$$$$$$$$$$$$$$$$$$$&&%%%OO;;;;;;",
";;;;;;;;  ###$$$$$$$$$$$$$$$$$$$$##   @@;;;;;;",
";;;;;;;;  ###$$$$$$$$$$$$$$$$$$$$##   @@;;;;;;",
";;;;;;;;  ###$$$$$$$$$$$$$$$$$$$$##   @@;;;;;;",
";;;;;;;;  ###$$$$$$$$$$$$$$$$$$$$##   ;;;;;;;;",
";;;;;;;;  ###$$$$$$$$$$$$$$$$$$$$##   ;;;;;;;;",
";;;@@***oo#####$$$$$$$$$$$$$$$#####ooo**@@@;;;",
";;;@@***oo#####$$$$$$$$$$$$$$$#####ooo**@@@;;;",
";;;@@***oo#####$$$$$$$$$$$$$$$#####ooo**@@@;;;",
"OOO-----oo#####$$$$$$$$$$$$$$$#####ooo-----OOO",
"OOO-----oo#####$$$$$$$$$$$$$$$#####ooo-----OOO",
";;;OO@@@oo###oo###$$$$$$$$$$##ooo##ooo@@OOO;;;",
";;;OO@@@oo###oo###$$$$$$$$$$##ooo##ooo@@OOO;;;",
";;;OO@@@oo###oo###$$$$$$$$$$##ooo##ooo@@OOO;;;",
";;;;;OOOOOooo  #####$$$$$#####   ooOOOOO;;;;;;",
";;;;;OOOOOooo  #####$$$$$#####   ooOOOOO;;;;;;",
";;;;;   %%OOO  ###############   OO%%%  ;;;;;;",
";;;;;   %%OOO  ###############   OO%%%  ;;;;;;",
";;;;;   %%OOO  ###############   OO%%%  ;;;;;;",
";;;;;;;;  @@@  ooo##########oo   @@   ;;;;;;;;",
";;;;;;;;  @@@  ooo##########oo   @@   ;;;;;;;;",
";;;;;;;;;;        ##########       ;;;;;;;;;;;",
";;;;;;;;;;        ##########       ;;;;;;;;;;;",
";;;;;;;;  ===oo   oo#####ooo  ooo==   ;;;;;;;;",
";;;;;;;;  ===oo   oo#####ooo  ooo==   ;;;;;;;;",
";;;;;;;;  ===oo   oo#####ooo  ooo==   ;;;;;;;;",
";;;;;   =====oo###  #####   ##ooo=====  ;;;;;;",
";;;;;   =====oo###  #####   ##ooo=====  ;;;;;;",
";;;  -----   OO###  ooooo   ##OOO  -----   ;;;",
";;;  -----   OO###  ooooo   ##OOO  -----   ;;;",
";;;  -----   OO###  ooooo   ##OOO  -----   ;;;",
";;;  ---**ooo$$OOOOO     OOOOO$$$oo***--   ;;;",
";;;  ---**ooo$$OOOOO     OOOOO$$$oo***--   ;;;",
";;;;;        $$$$$$$$$$$$$$$$$$$$       ;;;;;;",
";;;;;        $$$$$$$$$$$$$$$$$$$$       ;;;;;;",
";;;;;        $$$$$$$$$$$$$$$$$$$$       ;;;;;;",
";;;;;XXX  ...  ###$$$$$$$$$$##   ..   XX;;;;;;",
";;;;;XXX  ...  ###$$$$$$$$$$##   ..   XX;;;;;;",
";;;;;XXXXX   ..+++++     +++++...  XXXXX;;;;;;",
";;;;;XXXXX   ..+++++     +++++...  XXXXX;;;;;;",
";;;;;XXXXX   ..+++++     +++++...  XXXXX;;;;;;",
";;;;;XXXXXXXX       XXXXX        XXXXXXX;;;;;;",
";;;;;XXXXXXXX       XXXXX        XXXXXXX;;;;;;",
";;;;;;;;XXXXXXXXXXXXXXXXXXXXXXXXXXXXXX;;;;;;;;",
";;;;;;;;XXXXXXXXXXXXXXXXXXXXXXXXXXXXXX;;;;;;;;",
";;;;;;;;XXXXXXXXXXXXXXXXXXXXXXXXXXXXXX;;;;;;;;",
";;;;;;;;;;;;;XXXXXXXXXXXXXXXXXXXX;;;;;;;;;;;;;",
";;;;;;;;;;;;;XXXXXXXXXXXXXXXXXXXX;;;;;;;;;;;;;",
";;;;;;;;;;;;;XXXXXXXXXXXXXXXXXXXX;;;;;;;;;;;;;"
};
