/* XPM */
static char *result[] = {
/* columns rows colors chars-per-pixel */
"46 58 15 1 ",
"  c black",
". c #7B1029",
"X c #363243",
"o c #107B29",
"O c #734221",
"+ c #DE2929",
"@ c #A57B42",
"# c #42A529",
"$ c #10FF08",
"% c yellow",
"& c #DEAD52",
"* c #D6B58C",
"= c #BDFFA5",
"- c #FFE7BD",
"; c None",
/* pixels */
";;;;;;;;;;;;;;;;;;OO@@@@@@@@OO;;;;;;;;;;;;;;;;",
";;;;;;;;;;;;;;;;;;OO@@@@@@@@OO;;;;;;;;;;;;;;;;",
";;;;;;;;;;;;;;;;;;OO@@@@@@@@OO;;;;;;;;;;;;;;;;",
";;;;;;;;;;;;;;;   &&%%%%%%%%%%&&&@@;;;;;;;;;;;",
";;;;;;;;;;;;;;;   &&%%%%%%%%%%&&&@@;;;;;;;;;;;",
";;;;;;;;;;;;;  $$$$$$$$$$$$$$$%%%&&@@@;;;;;;;;",
";;;;;;;;;;;;;  $$$$$$$$$$$$$$$%%%&&@@@;;;;;;;;",
";;;;;;;;;;;;;  $$$$$$$$$$$$$$$%%%&&@@@;;;;;;;;",
";;;;;;;;;;   $$$$$$$$$$$$$$$$$$$$%%&&&OO;;;;;;",
";;;;;;;;;;   $$$$$$$$$$$$$$$$$$$$%%&&&OO;;;;;;",
";;;;;;;;  ###$$$$$$$$$$$$$$$$$$$$##%%%@@;;;;;;",
";;;;;;;;  ###$$$$$$$$$$$$$$$$$$$$##%%%@@;;;;;;",
";;;;;;;;  ###$$$$$$$$$$$$$$$$$$$$##%%%@@;;;;;;",
";;;;;;;;  #####$$$$$$$$$$$$$$$$$$##ooo;;;;;;;;",
";;;;;;;;  #####$$$$$$$$$$$$$$$$$$##ooo;;;;;;;;",
";;;@@***oo##########$$$$$$$$$$$$$  ooo**@@@;;;",
";;;@@***oo##########$$$$$$$$$$$$$  ooo**@@@;;;",
";;;@@***oo##########$$$$$$$$$$$$$  ooo**@@@;;;",
"OOO-----oo#####   #######$$$$$###  ooo-----OOO",
"OOO-----oo#####   #######$$$$$###  ooo-----OOO",
";;;OO@@@oo#####ooo  ooo##########  ooo@@OOO;;;",
";;;OO@@@oo#####ooo  ooo##########  ooo@@OOO;;;",
";;;OO@@@oo#####ooo  ooo##########  ooo@@OOO;;;",
";;;;;OOOOOoooooooooo     ooo##ooo  OOOOO;;;;;;",
";;;;;OOOOOoooooooooo     ooo##ooo  OOOOO;;;;;;",
";;;;;   %%OOOoooooooooooo   ooooo  %%%  ;;;;;;",
";;;;;   %%OOOoooooooooooo   ooooo  %%%  ;;;;;;",
";;;;;   %%OOOoooooooooooo   ooooo  %%%  ;;;;;;",
";;;;;;;;  @@@%%ooooooooooooo     @@   ;;;;;;;;",
";;;;;;;;  @@@%%ooooooooooooo     @@   ;;;;;;;;",
";;;;;;;;;;     %%%%%ooooo%%%%%     ;;;;;;;;;;;",
";;;;;;;;;;     %%%%%ooooo%%%%%     ;;;;;;;;;;;",
";;;;;;;;  ===ooooo  %%%%%   ooooo==   ;;;;;;;;",
";;;;;;;;  ===ooooo  %%%%%   ooooo==   ;;;;;;;;",
";;;;;;;;  ===ooooo  %%%%%   ooooo==   ;;;;;;;;",
";;;     =====  ###############   =====     ;;;",
";;;     =====  ###############   =====     ;;;",
"   -----==OOO  ###############   OO===-----   ",
"   -----==OOO  ###############   OO===-----   ",
"   -----==OOO  ###############   OO===-----   ",
"   *****     ##OOOOOOOOOOOOOOO###     *****   ",
"   *****     ##OOOOOOOOOOOOOOO###     *****   ",
";;;       ###$$$$$$$$$$$$$$$$$$$$##        ;;;",
";;;       ###$$$$$$$$$$$$$$$$$$$$##        ;;;",
";;;       ###$$$$$$$$$$$$$$$$$$$$##        ;;;",
";;;;;XXX     ##$$$$$$$$$$$$$$$###  XXXXX;;;;;;",
";;;;;XXX     ##$$$$$$$$$$$$$$$###  XXXXX;;;;;;",
";;;;;XXX  ...                         XX;;;;;;",
";;;;;XXX  ...                         XX;;;;;;",
";;;;;XXX  ...                         XX;;;;;;",
";;;;;XXXXX        XXXXXXX   +++++..   XX;;;;;;",
";;;;;XXXXX        XXXXXXX   +++++..   XX;;;;;;",
";;;;;;;;XXXXXXXXXXXXXXXXXXXX       XXX;;;;;;;;",
";;;;;;;;XXXXXXXXXXXXXXXXXXXX       XXX;;;;;;;;",
";;;;;;;;XXXXXXXXXXXXXXXXXXXX       XXX;;;;;;;;",
";;;;;;;;;;;;;XXXXXXXXXXXXXXXXXXXX;;;;;;;;;;;;;",
";;;;;;;;;;;;;XXXXXXXXXXXXXXXXXXXX;;;;;;;;;;;;;",
";;;;;;;;;;;;;XXXXXXXXXXXXXXXXXXXX;;;;;;;;;;;;;"
};
