/* XPM */
static char *result[] = {
/* columns rows colors chars-per-pixel */
"46 58 14 1 ",
"  c black",
". c #7B1029",
"X c #363243",
"o c #107B29",
"O c #734221",
"+ c #A57B42",
"@ c #42A529",
"# c #10FF08",
"$ c yellow",
"% c #DEAD52",
"& c #D6B58C",
"* c #BDFFA5",
"= c #FFE7BD",
"- c None",
/* pixels */
"------------------  ++++++++OO----------------",
"------------------  ++++++++OO----------------",
"------------------  ++++++++OO----------------",
"---------------   %%$$$$$$$$%%+++-------------",
"---------------   %%$$$$$$$$%%+++-------------",
"-------------  ###############$$$++OOO--------",
"-------------  ###############$$$++OOO--------",
"-------------  ###############$$$++OOO--------",
"----------   ####################oo%%%++------",
"----------   ####################oo%%%++------",
"--------  @@@####################@@$$$++------",
"--------  @@@####################@@$$$++------",
"--------  @@@####################@@$$$++------",
"--------  @@@@@##################@@ooo--------",
"--------  @@@@@##################@@ooo--------",
"---++&&&oo@@@@@@@@############@@@@@ooo&&+++---",
"---++&&&oo@@@@@@@@############@@@@@ooo&&+++---",
"---++&&&oo@@@@@@@@############@@@@@ooo&&+++---",
"OOO=====oo@@@  @@@@@@@@#####@@@@@  ooo=====OOO",
"OOO=====oo@@@  @@@@@@@@#####@@@@@  ooo=====OOO",
"---OO+++ooooo  @@@@@@@@@@@@@@@ooo  ooo++OOO---",
"---OO+++ooooo  @@@@@@@@@@@@@@@ooo  ooo++OOO---",
"---OO+++ooooo  @@@@@@@@@@@@@@@ooo  ooo++OOO---",
"-----OOOOOooooo   oo@@@@@@@@@@   ooOOOOO------",
"-----OOOOOooooo   oo@@@@@@@@@@   ooOOOOO------",
"-----   $$OOOooooo  ooo@@@@@@@   OO$$$  ------",
"-----   $$OOOooooo  ooo@@@@@@@   OO$$$  ------",
"-----   $$OOOooooo  ooo@@@@@@@   OO$$$  ------",
"--------  +++$$ooooo   oo@@@oo   ++   --------",
"--------  +++$$ooooo   oo@@@oo   ++   --------",
"----------     $$$$$ooo  ooooo     -----------",
"----------     $$$$$ooo  ooooo     -----------",
"-------------  ooo  $$$       OOO  -----------",
"-------------  ooo  $$$       OOO  -----------",
"-------------  ooo  $$$       OOO  -----------",
"----------   OOOOO  @@@@@   @@*****   --------",
"----------   OOOOO  @@@@@   @@*****   --------",
"--------  *****   @@@@@@@@@@oo   ==   --------",
"--------  *****   @@@@@@@@@@oo   ==   --------",
"--------  *****   @@@@@@@@@@oo   ==   --------",
"-----   &&===OO   OOOOOOOOOOOO@@@  -----------",
"-----   &&===OO   OOOOOOOOOOOO@@@  -----------",
"-----   =====  ooo###############@@   --------",
"-----   =====  ooo###############@@   --------",
"-----   =====  ooo###############@@   --------",
"-----XXX       @@@#####@@          XXXXX------",
"-----XXX       @@@#####@@          XXXXX------",
"-----XXXXXXXXXX          ========  XXXXX------",
"-----XXXXXXXXXX          ========  XXXXX------",
"-----XXXXXXXXXX          ========  XXXXX------",
"-----XXXXXXXXXXXXXXXXXXXX   +++++..   XX------",
"-----XXXXXXXXXXXXXXXXXXXX   +++++..   XX------",
"--------XXXXXXXXXXXXXXXXXXXX       XXX--------",
"--------XXXXXXXXXXXXXXXXXXXX       XXX--------",
"--------XXXXXXXXXXXXXXXXXXXX       XXX--------",
"-------------XXXXXXXXXXXXXXXXXXXX-------------",
"-------------XXXXXXXXXXXXXXXXXXXX-------------",
"-------------XXXXXXXXXXXXXXXXXXXX-------------"
};
