/* XPM */
static char *result[] = {
/* columns rows colors chars-per-pixel */
"46 62 13 1 ",
"  c black",
". c #363243",
"X c #107B29",
"o c #734221",
"O c #A57B42",
"+ c #42A529",
"@ c #10FF08",
"# c yellow",
"$ c #DEAD52",
"% c #D6B58C",
"& c #BDFFA5",
"* c #FFE7BD",
"= c None",
/* pixels */
"===============   OOOOOOOooo==================",
"===============   OOOOOOOooo==================",
"=============  OOO##########$$OOO=============",
"=============  OOO##########$$OOO=============",
"=============  OOO##########$$OOO=============",
"==========   ++@@@@@@@@@@@@@@@+++OO===========",
"==========   ++@@@@@@@@@@@@@@@+++OO===========",
"==========   @@@@@@@@@@@@@@@@@@@@XXooo========",
"==========   @@@@@@@@@@@@@@@@@@@@XXooo========",
"==========   @@@@@@@@@@@@@@@@@@@@XXooo========",
"========  XXX@@@@@@@@@@@@@@@@@@@@++OOO========",
"========  XXX@@@@@@@@@@@@@@@@@@@@++OOO========",
"========  +++++@@@@@@@@@@@@@@@+++++XXXoo======",
"========  +++++@@@@@@@@@@@@@@@+++++XXXoo======",
"========  +++++@@@@@@@@@@@@@@@+++++XXXoo======",
"===OO%%%XX++++++++@@@@@@@@@@@@+++++XXX%%OOO===",
"===OO%%%XX++++++++@@@@@@@@@@@@+++++XXX%%OOO===",
"ooo*****XX+++  +++++@@@@@@@@+++++  XXX*****ooo",
"ooo*****XX+++  +++++@@@@@@@@+++++  XXX*****ooo",
"ooo*****XX+++  +++++@@@@@@@@+++++  XXX*****ooo",
"===ooOOOXXXXX  ++++++++@@@@@++   XXXXXOOooo===",
"===ooOOOXXXXX  ++++++++@@@@@++   XXXXXOOooo===",
"=====oooooXXX  XXX++++++++++++   XXooooo======",
"=====oooooXXX  XXX++++++++++++   XXooooo======",
"=====oooooXXX  XXX++++++++++++   XXooooo======",
"=====   ##oooXX   XX++++++++XX   oo###  ======",
"=====   ##oooXX   XX++++++++XX   oo###  ======",
"========  OOO##XXX  ++++++++  ###OO   ========",
"========  OOO##XXX  ++++++++  ###OO   ========",
"========  OOO##XXX  ++++++++  ###OO   ========",
"==========     ###  XXX++XXX       ===========",
"==========     ###  XXX++XXX       ===========",
"==========   XX+++++   XXXXX  ooo  ===========",
"==========   XX+++++   XXXXX  ooo  ===========",
"==========   &&++++++++     ++&&&  ===========",
"==========   &&++++++++     ++&&&  ===========",
"==========   &&++++++++     ++&&&  ===========",
"========  &&&&&oooXX++++++++oo   =============",
"========  &&&&&oooXX++++++++oo   =============",
"=====   %%***%%   oooooooooo@@+++  ===========",
"=====   %%***%%   oooooooooo@@+++  ===========",
"=====   %%***%%   oooooooooo@@+++  ===========",
"=====   *****  XXX@@@@@@@@@@@@+++  ===========",
"=====   *****  XXX@@@@@@@@@@@@+++  ===========",
"========       +++@@@@@@@        =============",
"========       +++@@@@@@@        =============",
"========       +++@@@@@@@        =============",
"========.......          ***%%   .....========",
"========.......          ***%%   .....========",
"=====..................  *****%%%  .....======",
"=====..................  *****%%%  .....======",
"=====..................  *****%%%  .....======",
"=====..................  *****%%%  .....======",
"=====..................  *****%%%  .....======",
"=====..................  %%%%%ooo  .....======",
"=====..................  %%%%%ooo  .....======",
"=====..................  %%%%%ooo  .....======",
"========.................        .....========",
"========.................        .....========",
"=============....................=============",
"=============....................=============",
"=============....................============="
};
