/* XPM */
static char *result[] = {
/* columns rows colors chars-per-pixel */
"46 62 13 1 ",
"  c black",
". c #363243",
"X c #107B29",
"o c #734221",
"O c #A57B42",
"+ c #42A529",
"@ c #10FF08",
"# c yellow",
"$ c #DEAD52",
"% c #D6B58C",
"& c #BDFFA5",
"* c #FFE7BD",
"= c None",
/* pixels */
"==================  OOOOOOOOoo================",
"==================  OOOOOOOOoo================",
"===============   $$########$$OOO=============",
"===============   $$########$$OOO=============",
"===============   $$########$$OOO=============",
"=============  @@@@@@@@@@@@@@@###OO===========",
"=============  @@@@@@@@@@@@@@@###OO===========",
"==========   @@@@@@@@@@@@@@@@@@@@XXooo========",
"==========   @@@@@@@@@@@@@@@@@@@@XXooo========",
"==========   @@@@@@@@@@@@@@@@@@@@XXooo========",
"========  XXX@@@@@@@@@@@@@@@@@@@@++OOO========",
"========  XXX@@@@@@@@@@@@@@@@@@@@++OOO========",
"========  +++@@@@@@@@@@@@@@@@@@@@++OOO========",
"========  +++@@@@@@@@@@@@@@@@@@@@++OOO========",
"========  +++@@@@@@@@@@@@@@@@@@@@++OOO========",
"===OO%%%XX+++@@@@@@@@@@@@@@@@@@@@++XXX%%OOO===",
"===OO%%%XX+++@@@@@@@@@@@@@@@@@@@@++XXX%%OOO===",
"ooo*****XX+++++@@@@@@@@@@@@@@@   ++XXX*****ooo",
"ooo*****XX+++++@@@@@@@@@@@@@@@   ++XXX*****ooo",
"ooo*****XX+++++@@@@@@@@@@@@@@@   ++XXX*****ooo",
"===ooOOOXXXXX+++++@@@@@@@@@@++   XXXXXOOooo===",
"===ooOOOXXXXX+++++@@@@@@@@@@++   XXXXXOOooo===",
"=====oooooXXX  +++++@@@@@+++XX   XXooooo======",
"=====oooooXXX  +++++@@@@@+++XX   XXooooo======",
"=====oooooXXX  +++++@@@@@+++XX   XXooooo======",
"=====   ##ooo  XXX++++++++++  XXXoo###  ======",
"=====   ##ooo  XXX++++++++++  XXXoo###  ======",
"========  OOO##   XX++++++++  ###OO   ========",
"========  OOO##   XX++++++++  ###OO   ========",
"========  OOO##   XX++++++++  ###OO   ========",
"==========     ###  +++++XXX       ===========",
"==========     ###  +++++XXX       ===========",
"=============  XXX  XXXXX   ++&&&  ===========",
"=============  XXX  XXXXX   ++&&&  ===========",
"==========   ooXXXXX     +++++ooo&&   ========",
"==========   ooXXXXX     +++++ooo&&   ========",
"==========   ooXXXXX     +++++ooo&&   ========",
"==========   &&ooo++++++++++++ooo&&   ========",
"==========   &&ooo++++++++++++ooo&&   ========",
"========  &&&&&   oooooooooooo+++  ===========",
"========  &&&&&   oooooooooooo+++  ===========",
"========  &&&&&   oooooooooooo+++  ===========",
"=====   %%***  XXX@@@@@@@     @@@  ===========",
"=====   %%***  XXX@@@@@@@     @@@  ===========",
"=====   *****  +++@@@@@  ***%%XXX  ===========",
"=====   *****  +++@@@@@  ***%%XXX  ===========",
"=====   *****  +++@@@@@  ***%%XXX  ===========",
"========     ..        oo*****   .....========",
"========     ..        oo*****   .....========",
"=====...............   oo*****%%%  .....======",
"=====...............   oo*****%%%  .....======",
"=====...............   oo*****%%%  .....======",
"=====..................  ********  .....======",
"=====..................  ********  .....======",
"=====..................  %%%*****oo   ..======",
"=====..................  %%%*****oo   ..======",
"=====..................  %%%*****oo   ..======",
"========...............  ooo%%%%%oo   ========",
"========...............  ooo%%%%%oo   ========",
"=============............          ===========",
"=============............          ===========",
"=============............          ==========="
};
