/* XPM */
static char *result[] = {
/* columns rows colors chars-per-pixel */
"46 60 13 1 ",
"  c black",
". c #363243",
"X c #107B29",
"o c #734221",
"O c #A57B42",
"+ c #42A529",
"@ c #10FF08",
"# c yellow",
"$ c #DEAD52",
"% c #D6B58C",
"& c #BDFFA5",
"* c #FFE7BD",
"= c None",
/* pixels */
"==================  OOOOOOOOoo================",
"==================  OOOOOOOOoo================",
"==================  OOOOOOOOoo================",
"===============   @@@@@@@@@@@@OOO=============",
"===============   @@@@@@@@@@@@OOO=============",
"=============  @@@@@@@@@@@@@@@###OO===========",
"=============  @@@@@@@@@@@@@@@###OO===========",
"=============  @@@@@@@@@@@@@@@###OO===========",
"==========   @@@@@@@@@@@@@@@@@@@@$$ooo========",
"==========   @@@@@@@@@@@@@@@@@@@@$$ooo========",
"========  +++@@@@@@@@@@@@@@@@@@@@++ooo========",
"========  +++@@@@@@@@@@@@@@@@@@@@++ooo========",
"========  +++@@@@@@@@@@@@@@@@@@@@++ooo========",
"========  +++@@@@@@@@@@@@@@@@@+++++OOO========",
"========  +++@@@@@@@@@@@@@@@@@+++++OOO========",
"========  +++@@@@@@@@@@@@@@@+++++++XXXoo======",
"========  +++@@@@@@@@@@@@@@@+++++++XXXoo======",
"========  +++@@@@@@@@@@@@@@@+++++++XXXoo======",
"===OO%%%XX   ++@@@@@@@@@@+++++   ++XXX%%OOO===",
"===OO%%%XX   ++@@@@@@@@@@+++++   ++XXX%%OOO===",
"ooo*****XX   ++@@@@@@@@+++++XX   ++XXX*****ooo",
"ooo*****XX   ++@@@@@@@@+++++XX   ++XXX*****ooo",
"ooo*****XX   ++@@@@@@@@+++++XX   ++XXX*****ooo",
"===ooOOOXX   XX+++@@@@@++XXX  XXX++XXXOOooo===",
"===ooOOOXX   XX+++@@@@@++XXX  XXX++XXXOOooo===",
"=====oooooXXX  ++++++++XX   XXXXXXXooooo======",
"=====oooooXXX  ++++++++XX   XXXXXXXooooo======",
"=====oooooXXX  ++++++++XX   XXXXXXXooooo======",
"========  ###  XXX+++++  XXXXXooo##   ========",
"========  ###  XXX+++++  XXXXXooo##   ========",
"==========        XXXXX  #####     ===========",
"==========        XXXXX  #####     ===========",
"==========   XX   XXXXX  XXXXXooo  ===========",
"==========   XX   XXXXX  XXXXXooo  ===========",
"==========   XX   XXXXX  XXXXXooo  ===========",
"========  &&&&&XXX     +++++XX&&&&&   ========",
"========  &&&&&XXX     +++++XX&&&&&   ========",
"=====   &&&&&oo+++++++++++++++   &&   ========",
"=====   &&&&&oo+++++++++++++++   &&   ========",
"=====   &&&&&oo+++++++++++++++   &&   ========",
"===  %%%**&&&  +++++++++++++++ooo     ========",
"===  %%%**&&&  +++++++++++++++ooo     ========",
"===  *****   XXooooooooooooooo@@@  ===========",
"===  *****   XXooooooooooooooo@@@  ===========",
"===  *****   XXooooooooooooooo@@@  ===========",
"=====     XXX++@@@@@@@@@@@@@@@+++  ...========",
"=====     XXX++@@@@@@@@@@@@@@@+++  ...========",
"=====.....   ++@@@@@@@@@@@@@++   .......======",
"=====.....   ++@@@@@@@@@@@@@++   .......======",
"=====.....   ++@@@@@@@@@@@@@++   .......======",
"=====........                    .......======",
"=====........                    .......======",
"=====..................  ooo%%%%%  .....======",
"=====..................  ooo%%%%%  .....======",
"=====..................  ooo%%%%%  .....======",
"========.................   OOOOO  ...========",
"========.................   OOOOO  ...========",
"=============...............     =============",
"=============...............     =============",
"=============...............     ============="
};
