/* XPM */
static char *result[] = {
/* columns rows colors chars-per-pixel */
"46 58 15 1 ",
"  c black",
". c #7B1029",
"X c #363243",
"o c #107B29",
"O c #734221",
"+ c #DE2929",
"@ c #A57B42",
"# c #42A529",
"$ c #10FF08",
"% c yellow",
"& c #DEAD52",
"* c #D6B58C",
"= c #BDFFA5",
"- c #FFE7BD",
"; c None",
/* pixels */
";;;;;;;;;;;;;;;;;;OO@@@@@@@@OO;;;;;;;;;;;;;;;;",
";;;;;;;;;;;;;;;;;;OO@@@@@@@@OO;;;;;;;;;;;;;;;;",
";;;;;;;;;;;;;;;;;;OO@@@@@@@@OO;;;;;;;;;;;;;;;;",
";;;;;;;;;;;;;;;   &&%%%%%%%%%%&&&OO;;;;;;;;;;;",
";;;;;;;;;;;;;;;   &&%%%%%%%%%%&&&OO;;;;;;;;;;;",
";;;;;;;;;;;;;  $$$$$$$$$$$$$$$%%%&&OOO;;;;;;;;",
";;;;;;;;;;;;;  $$$$$$$$$$$$$$$%%%&&OOO;;;;;;;;",
";;;;;;;;;;;;;  $$$$$$$$$$$$$$$%%%&&OOO;;;;;;;;",
";;;;;;;;;;   $$$$$$$$$$$$$$$$$ooo%%&&&OO;;;;;;",
";;;;;;;;;;   $$$$$$$$$$$$$$$$$ooo%%&&&OO;;;;;;",
";;;;;;;;  ###$$$$$$$$$$$$$$$$$#####%%%@@;;;;;;",
";;;;;;;;  ###$$$$$$$$$$$$$$$$$#####%%%@@;;;;;;",
";;;;;;;;  ###$$$$$$$$$$$$$$$$$#####%%%@@;;;;;;",
";;;;;;;;  ###$$$$$$$$$$$$$$$#######ooo;;;;;;;;",
";;;;;;;;  ###$$$$$$$$$$$$$$$#######ooo;;;;;;;;",
";;;@@***oo   ##$$$$$$$$$$#####   ##ooo**@@@;;;",
";;;@@***oo   ##$$$$$$$$$$#####   ##ooo**@@@;;;",
";;;@@***oo   ##$$$$$$$$$$#####   ##ooo**@@@;;;",
"OOO-----oo   ##$$$$$########  #####ooo-----OOO",
"OOO-----oo   ##$$$$$########  #####ooo-----OOO",
";;;OO@@@oo   ##########oo   oo###ooooo@@OOO;;;",
";;;OO@@@oo   ##########oo   oo###ooooo@@OOO;;;",
";;;OO@@@oo   ##########oo   oo###ooooo@@OOO;;;",
";;;;;OOOOO   #######ooo  ooooooooooOOOOO;;;;;;",
";;;;;OOOOO   #######ooo  ooooooooooOOOOO;;;;;;",
";;;;;   %%   ooooo     ooooooooooOO%%%  ;;;;;;",
";;;;;   %%   ooooo     ooooooooooOO%%%  ;;;;;;",
";;;;;   %%   ooooo     ooooooooooOO%%%  ;;;;;;",
";;;;;;;;  @@@     oooooooooo%%%%%@@   ;;;;;;;;",
";;;;;;;;  @@@     oooooooooo%%%%%@@   ;;;;;;;;",
";;;;;;;;;;        %%ooooo%%%       ;;;;;;;;;;;",
";;;;;;;;;;        %%ooooo%%%       ;;;;;;;;;;;",
";;;;;;;;  ===ooooo  %%%%%   ooooo==   ;;;;;;;;",
";;;;;;;;  ===ooooo  %%%%%   ooooo==   ;;;;;;;;",
";;;;;;;;  ===ooooo  %%%%%   ooooo==   ;;;;;;;;",
";;;     =====  ###############   =====     ;;;",
";;;     =====  ###############   =====     ;;;",
"   -----==OOO  ###############   OO===-----   ",
"   -----==OOO  ###############   OO===-----   ",
"   -----==OOO  ###############   OO===-----   ",
"   *****     ##OOOOOOOOOOOOOOO###     *****   ",
"   *****     ##OOOOOOOOOOOOOOO###     *****   ",
";;;       ###$$$$$$$$$$$$$$$$$$$$##        ;;;",
";;;       ###$$$$$$$$$$$$$$$$$$$$##        ;;;",
";;;       ###$$$$$$$$$$$$$$$$$$$$##        ;;;",
";;;;;XXXXX   ##$$$$$$$$$$$$$$$###     XX;;;;;;",
";;;;;XXXXX   ##$$$$$$$$$$$$$$$###     XX;;;;;;",
";;;;;XXX                         ..   XX;;;;;;",
";;;;;XXX                         ..   XX;;;;;;",
";;;;;XXX                         ..   XX;;;;;;",
";;;;;XXX  ...+++++  XXXXXXXX       XXXXX;;;;;;",
";;;;;XXX  ...+++++  XXXXXXXX       XXXXX;;;;;;",
";;;;;;;;XX        XXXXXXXXXXXXXXXXXXXX;;;;;;;;",
";;;;;;;;XX        XXXXXXXXXXXXXXXXXXXX;;;;;;;;",
";;;;;;;;XX        XXXXXXXXXXXXXXXXXXXX;;;;;;;;",
";;;;;;;;;;;;;XXXXXXXXXXXXXXXXXXXX;;;;;;;;;;;;;",
";;;;;;;;;;;;;XXXXXXXXXXXXXXXXXXXX;;;;;;;;;;;;;",
";;;;;;;;;;;;;XXXXXXXXXXXXXXXXXXXX;;;;;;;;;;;;;"
};
