/* XPM */
static char *result[] = {
/* columns rows colors chars-per-pixel */
"46 58 14 1 ",
"  c black",
". c #7B1029",
"X c #363243",
"o c #107B29",
"O c #734221",
"+ c #A57B42",
"@ c #42A529",
"# c #10FF08",
"$ c yellow",
"% c #DEAD52",
"& c #D6B58C",
"* c #BDFFA5",
"= c #FFE7BD",
"- c None",
/* pixels */
"------------------  ++++++++OO----------------",
"------------------  ++++++++OO----------------",
"------------------  ++++++++OO----------------",
"---------------   %%$$$$$$$$%%+++-------------",
"---------------   %%$$$$$$$$%%+++-------------",
"-------------  ###############$$$++OOO--------",
"-------------  ###############$$$++OOO--------",
"-------------  ###############$$$++OOO--------",
"----------   ####################oo%%%++------",
"----------   ####################oo%%%++------",
"--------  @@@####################@@$$$++------",
"--------  @@@####################@@$$$++------",
"--------  @@@####################@@$$$++------",
"--------  @@@#################@@@@@ooo--------",
"--------  @@@#################@@@@@ooo--------",
"---++&&&oo@@@@@#############@@@@@@@ooo&&+++---",
"---++&&&oo@@@@@#############@@@@@@@ooo&&+++---",
"---++&&&oo@@@@@#############@@@@@@@ooo&&+++---",
"OOO=====ooooo@@########@@@@@@@   @@ooo=====OOO",
"OOO=====ooooo@@########@@@@@@@   @@ooo=====OOO",
"---OO+++oo   @@@@@@@@@@@@@@@@@   ooooo++OOO---",
"---OO+++oo   @@@@@@@@@@@@@@@@@   ooooo++OOO---",
"---OO+++oo   @@@@@@@@@@@@@@@@@   ooooo++OOO---",
"-----OOOOO   oo@@@@@@@@@@ooo  oooooOOOOO------",
"-----OOOOO   oo@@@@@@@@@@ooo  oooooOOOOO------",
"-----   $$OOO  @@@@@@@@oo   oooooOO$$$  ------",
"-----   $$OOO  @@@@@@@@oo   oooooOO$$$  ------",
"-----   $$OOO  @@@@@@@@oo   oooooOO$$$  ------",
"--------  +++  @@@@@ooo  ooo$$$$$++   --------",
"--------  +++  @@@@@ooo  ooo$$$$$++   --------",
"----------     ooooo   oo$$$       -----------",
"----------     ooooo   oo$$$       -----------",
"----------     ooooo   $$   oo   -------------",
"----------     ooooo   $$   oo   -------------",
"----------     ooooo   $$   oo   -------------",
"--------  ***       ooo@@@@@OOOOO  -----------",
"--------  ***       ooo@@@@@OOOOO  -----------",
"--------  ===  ooo@@@@@@@@@@  *****   --------",
"--------  ===  ooo@@@@@@@@@@  *****   --------",
"--------  ===  ooo@@@@@@@@@@  *****   --------",
"----------   @@OOOOOOOOOOOOO  OOO==&&&  ------",
"----------   @@OOOOOOOOOOOOO  OOO==&&&  ------",
"--------  @@@###############oo   =====  ------",
"--------  @@@###############oo   =====  ------",
"--------  @@@###############oo   =====  ------",
"-----XXXXX          @@@#####@@        XX------",
"-----XXXXX          @@@#####@@        XX------",
"-----XXXXX   =======          XXXXXXXXXX------",
"-----XXXXX   =======          XXXXXXXXXX------",
"-----XXXXX   =======          XXXXXXXXXX------",
"-----XXX  ...+++++  XXXXXXXXXXXXXXXXXXXX------",
"-----XXX  ...+++++  XXXXXXXXXXXXXXXXXXXX------",
"--------XX        XXXXXXXXXXXXXXXXXXXX--------",
"--------XX        XXXXXXXXXXXXXXXXXXXX--------",
"--------XX        XXXXXXXXXXXXXXXXXXXX--------",
"-------------XXXXXXXXXXXXXXXXXXXX-------------",
"-------------XXXXXXXXXXXXXXXXXXXX-------------",
"-------------XXXXXXXXXXXXXXXXXXXX-------------"
};
