/* XPM */
static char *result[] = {
/* columns rows colors chars-per-pixel */
"46 62 13 1 ",
"  c black",
". c #363243",
"X c #107B29",
"o c #734221",
"O c #A57B42",
"+ c #42A529",
"@ c #10FF08",
"# c yellow",
"$ c #DEAD52",
"% c #D6B58C",
"& c #BDFFA5",
"* c #FFE7BD",
"= c None",
/* pixels */
"===============   OOOOOOOooo==================",
"===============   OOOOOOOooo==================",
"=============  $$$##########$$OOO=============",
"=============  $$$##########$$OOO=============",
"=============  $$$##########$$OOO=============",
"==========   ++@@@@@@@@@@@@@@@+++OO===========",
"==========   ++@@@@@@@@@@@@@@@+++OO===========",
"==========   @@@@@@@@@@@@@@@@@@@@XXooo========",
"==========   @@@@@@@@@@@@@@@@@@@@XXooo========",
"==========   @@@@@@@@@@@@@@@@@@@@XXooo========",
"========  XXX@@@@@@@@@@@@@@@@@@@@++OOO========",
"========  XXX@@@@@@@@@@@@@@@@@@@@++OOO========",
"========  +++@@@@@@@@@@@@@@@+++++++XXX========",
"========  +++@@@@@@@@@@@@@@@+++++++XXX========",
"========  +++@@@@@@@@@@@@@@@+++++++XXX========",
"===OO%%%XX+++++@@@@@@@@@@@@@+++++++XXX%%OOO===",
"===OO%%%XX+++++@@@@@@@@@@@@@+++++++XXX%%OOO===",
"ooo*****XX   +++++@@@@@@@+++++   ++XXX*****ooo",
"ooo*****XX   +++++@@@@@@@+++++   ++XXX*****ooo",
"ooo*****XX   +++++@@@@@@@+++++   ++XXX*****ooo",
"===ooOOOXX   XX+++++++++++++XX   XXXXXOOooo===",
"===ooOOOXX   XX+++++++++++++XX   XXXXXOOooo===",
"=====oooooXXX  ++++++++++XXX  XXXXXooooo======",
"=====oooooXXX  ++++++++++XXX  XXXXXooooo======",
"=====oooooXXX  ++++++++++XXX  XXXXXooooo======",
"=====   ##ooo  XXX+++++++XXX  XXXoo###  ======",
"=====   ##ooo  XXX+++++++XXX  XXXoo###  ======",
"========  OOO##   +++++XX   #####OO   ========",
"========  OOO##   +++++XX   #####OO   ========",
"========  OOO##   +++++XX   #####OO   ========",
"==========        +++++  ###       ===========",
"==========        +++++  ###       ===========",
"==========   oo   XXXXX  XXXXXXXX  ===========",
"==========   oo   XXXXX  XXXXXXXX  ===========",
"==========   &&+++     XXXXX++&&&  ===========",
"==========   &&+++     XXXXX++&&&  ===========",
"==========   &&+++     XXXXX++&&&  ===========",
"=============  ooo++++++++++oo&&&&&   ========",
"=============  ooo++++++++++oo&&&&&   ========",
"==========   @@@@@oooooooooo  %%%**%%%  ======",
"==========   @@@@@oooooooooo  %%%**%%%  ======",
"==========   @@@@@oooooooooo  %%%**%%%  ======",
"==========   ++@@@@@@@@@@@@@XX   *****  ======",
"==========   ++@@@@@@@@@@@@@XX   *****  ======",
"=============       @@@@@@@@++        ========",
"=============       @@@@@@@@++        ========",
"=============       @@@@@@@@++        ========",
"========.....  %%%**          ........========",
"========.....  %%%**          ........========",
"=====.....   %%*****   .................======",
"=====.....   %%*****   .................======",
"=====.....   %%*****   .................======",
"=====.....   %%*****   .................======",
"=====.....   %%*****   .................======",
"=====.....   oo%%%%%   .................======",
"=====.....   oo%%%%%   .................======",
"=====.....   oo%%%%%   .................======",
"========.....       ..................========",
"========.....       ..................========",
"=============....................=============",
"=============....................=============",
"=============....................============="
};
