/* XPM */
static char *result[] = {
/* columns rows colors chars-per-pixel */
"46 62 13 1 ",
"  c black",
". c #363243",
"X c #107B29",
"o c #734221",
"O c #A57B42",
"+ c #42A529",
"@ c #10FF08",
"# c yellow",
"$ c #DEAD52",
"% c #D6B58C",
"& c #BDFFA5",
"* c #FFE7BD",
"= c None",
/* pixels */
"==================  OOOOOOOOoo================",
"==================  OOOOOOOOoo================",
"===============   $$########$$OOO=============",
"===============   $$########$$OOO=============",
"===============   $$########$$OOO=============",
"=============  @@@@@@@@@@@@@@@###OO===========",
"=============  @@@@@@@@@@@@@@@###OO===========",
"==========   @@@@@@@@@@@@@@@@@@@@++ooo========",
"==========   @@@@@@@@@@@@@@@@@@@@++ooo========",
"==========   @@@@@@@@@@@@@@@@@@@@++ooo========",
"========  XXX@@@@@@@@@@@@@@@@@@@@++OOO========",
"========  XXX@@@@@@@@@@@@@@@@@@@@++OOO========",
"========  +++@@@@@@@@@@@@@@@@@@@@++OOO========",
"========  +++@@@@@@@@@@@@@@@@@@@@++OOO========",
"========  +++@@@@@@@@@@@@@@@@@@@@++OOO========",
"===OO%%%XX+++++@@@@@@@@@@@@@@@+++++XXX%%OOO===",
"===OO%%%XX+++++@@@@@@@@@@@@@@@+++++XXX%%OOO===",
"ooo*****XX++++++++@@@@@@@@@@+++++++XXX*****ooo",
"ooo*****XX++++++++@@@@@@@@@@+++++++XXX*****ooo",
"ooo*****XX++++++++@@@@@@@@@@+++++++XXX*****ooo",
"===ooOOOXXXXX  +++@@@@@@@@@@++   XXXXXOOooo===",
"===ooOOOXXXXX  +++@@@@@@@@@@++   XXXXXOOooo===",
"=====oooooXXX  +++++@@@@@+++++   XXooooo======",
"=====oooooXXX  +++++@@@@@+++++   XXooooo======",
"=====oooooXXX  +++++@@@@@+++++   XXooooo======",
"=====   ##ooo  XXX++++++++++XX   oo###  ======",
"=====   ##ooo  XXX++++++++++XX   oo###  ======",
"========  $$$##   XX+++++XXX  ###$$   ========",
"========  $$$##   XX+++++XXX  ###$$   ========",
"========  $$$##   XX+++++XXX  ###$$   ========",
"==========     XXX  +++++   XX     ===========",
"==========     XXX  +++++   XX     ===========",
"==========   &&+++  XXXXX   XX   =============",
"==========   &&+++  XXXXX   XX   =============",
"========  &&&oo+++XX     XXX++ooo  ===========",
"========  &&&oo+++XX     XXX++ooo  ===========",
"========  &&&oo+++XX     XXX++ooo  ===========",
"========  &&&oo+++++++++++++oo&&&  ===========",
"========  &&&oo+++++++++++++oo&&&  ===========",
"==========   ++ooooooooooooo  &&&&&   ========",
"==========   ++ooooooooooooo  &&&&&   ========",
"==========   ++ooooooooooooo  &&&&&   ========",
"==========   @@     @@@@@@@@XX   **%%%  ======",
"==========   @@     @@@@@@@@XX   **%%%  ======",
"==========   XX%%%**   @@@@@++   *****  ======",
"==========   XX%%%**   @@@@@++   *****  ======",
"==========   XX%%%**   @@@@@++   *****  ======",
"========.....  *****ooo       ...     ========",
"========.....  *****ooo       ...     ========",
"=====.....   %%*****ooo  ...............======",
"=====.....   %%*****ooo  ...............======",
"=====.....   %%*****ooo  ...............======",
"=====.....   *******   .................======",
"=====.....   *******   .................======",
"=====...  ooo*****%%   .................======",
"=====...  ooo*****%%   .................======",
"=====...  ooo*****%%   .................======",
"========  ooo%%%%%oo   ...............========",
"========  ooo%%%%%oo   ...............========",
"==========          .............=============",
"==========          .............=============",
"==========          .............============="
};
