/* XPM */
static char *result[] = {
/* columns rows colors chars-per-pixel */
"46 60 13 1 ",
"  c black",
". c #363243",
"X c #107B29",
"o c #734221",
"O c #A57B42",
"+ c #42A529",
"@ c #10FF08",
"# c yellow",
"$ c #DEAD52",
"% c #D6B58C",
"& c #BDFFA5",
"* c #FFE7BD",
"= c None",
/* pixels */
"==================  OOOOOOOOoo================",
"==================  OOOOOOOOoo================",
"==================  OOOOOOOOoo================",
"===============   @@@@@@@@@@@@OOO=============",
"===============   @@@@@@@@@@@@OOO=============",
"=============  @@@@@@@@@@@@@@@###OO===========",
"=============  @@@@@@@@@@@@@@@###OO===========",
"=============  @@@@@@@@@@@@@@@###OO===========",
"==========   @@@@@@@@@@@@@@@@@@@@$$ooo========",
"==========   @@@@@@@@@@@@@@@@@@@@$$ooo========",
"========  XXX@@@@@@@@@@@@@@@@@@@@++ooo========",
"========  XXX@@@@@@@@@@@@@@@@@@@@++ooo========",
"========  XXX@@@@@@@@@@@@@@@@@@@@++ooo========",
"========  +++@@@@@@@@@@@@@@@@@@@@++OOO========",
"========  +++@@@@@@@@@@@@@@@@@@@@++OOO========",
"========  +++  @@@@@@@@@@@@@@@@@@  XXXoo======",
"========  +++  @@@@@@@@@@@@@@@@@@  XXXoo======",
"========  +++  @@@@@@@@@@@@@@@@@@  XXXoo======",
"===OO%%%XX+++  +++@@@@@@@@@@@@+++  XXX%%OOO===",
"===OO%%%XX+++  +++@@@@@@@@@@@@+++  XXX%%OOO===",
"ooo*****XX+++++   ++@@@@@@@@@@+++  XXX*****ooo",
"ooo*****XX+++++   ++@@@@@@@@@@+++  XXX*****ooo",
"ooo*****XX+++++   ++@@@@@@@@@@+++  XXX*****ooo",
"===ooOOOXXXXX++   XX+++@@@@@++   XXXXXOOooo===",
"===ooOOOXXXXX++   XX+++@@@@@++   XXXXXOOooo===",
"=====oooooXXXXXXXX  XXX+++++++   XXooooo======",
"=====oooooXXXXXXXX  XXX+++++++   XXooooo======",
"=====oooooXXXXXXXX  XXX+++++++   XXooooo======",
"========  ###ooXXXXX   +++++++   ##   ========",
"========  ###ooXXXXX   +++++++   ##   ========",
"==========   $$#####   XX+++++     ===========",
"==========   $$#####   XX+++++     ===========",
"==========   ooXXXXXXXX  XXXXX     ===========",
"==========   ooXXXXXXXX  XXXXX     ===========",
"==========   ooXXXXXXXX  XXXXX     ===========",
"========  &&&&&XXX+++++++     &&&&&   ========",
"========  &&&&&XXX+++++++     &&&&&   ========",
"========  &&&  +++++++++++++++ooo&&&&&  ======",
"========  &&&  +++++++++++++++ooo&&&&&  ======",
"========  &&&  +++++++++++++++ooo&&&&&  ======",
"========     oo+++++++++++++++   &&***%%   ===",
"========     oo+++++++++++++++   &&***%%   ===",
"==========   @@oooooooooooooooXXX  *****   ===",
"==========   @@oooooooooooooooXXX  *****   ===",
"==========   @@oooooooooooooooXXX  *****   ===",
"========..   ++@@@@@@@@@@@@@@@+++XX     ======",
"========..   ++@@@@@@@@@@@@@@@+++XX     ======",
"=====........  +++@@@@@@@@@@@@+++  .....======",
"=====........  +++@@@@@@@@@@@@+++  .....======",
"=====........  +++@@@@@@@@@@@@+++  .....======",
"=====........                    .......======",
"=====........                    .......======",
"=====.....   %%%%%oo   .................======",
"=====.....   %%%%%oo   .................======",
"=====.....   %%%%%oo   .................======",
"========..   OOOOO  ..................========",
"========..   OOOOO  ..................========",
"=============     ...............=============",
"=============     ...............=============",
"=============     ...............============="
};
