/* XPM */
static char *result[] = {
/* columns rows colors chars-per-pixel */
"51 58 17 1 ",
"  c black",
". c #7B1029",
"X c #363243",
"o c #107B29",
"O c #734221",
"+ c #DE2929",
"@ c #A57B42",
"# c #42A529",
"$ c #10FF08",
"% c yellow",
"& c #DEAD52",
"* c #3152FF",
"= c #D6B58C",
"- c #BDFFA5",
"; c #FFE7BD",
": c white",
"> c None",
/* pixels */
">>>>>>>>>>>>>>>>>>>>###$$$$$$$###OO@@@>>>>>>>>>>>>>",
">>>>>>>>>>>>>>>>>>>>###$$$$$$$###OO@@@>>>>>>>>>>>>>",
">>>>>>>>>>>>>>>>>>>>###$$$$$$$###OO@@@>>>>>>>>>>>>>",
">>>>>>>>>>>>>>>###$$$$$$$$$$$$$$$%%%%%&&@@@>>>>>>>>",
">>>>>>>>>>>>>>>###$$$$$$$$$$$$$$$%%%%%&&@@@>>>>>>>>",
">>>>>>>>>>ooo##$$$$$$$$$$$$$$$$$$&&%%%%%%%%@@>>>>>>",
">>>>>>>>>>ooo##$$$$$$$$$$$$$$$$$$&&%%%%%%%%@@>>>>>>",
">>>>>>>>>>ooo##$$$$$$$$$$$$$$$$$$&&%%%%%%%%@@>>>>>>",
">>>>>>>>oo###$$$$$$$$$$$$$$$$$%%%%%&&&&&%%%%%@@@>>>",
">>>>>>>>oo###$$$$$$$$$$$$$$$$$%%%%%&&&&&%%%%%@@@>>>",
">>>>>ooo#####$$$$$$$$$$$$$$$$$%%%%%@@@OO&&&%%OOO>>>",
">>>>>ooo#####$$$$$$$$$$$$$$$$$%%%%%@@@OO&&&%%OOO>>>",
">>>>>ooo#####$$$$$$$$$$$$$$$$$%%%%%@@@OO&&&%%OOO>>>",
">>>>>ooo##########$$$$$$$$$$%%%%%@@=====@@@OO>>>>>>",
">>>>>ooo##########$$$$$$$$$$%%%%%@@=====@@@OO>>>>>>",
">>>oo#######################%%%%%==;;;==   >>>>>>>>",
">>>oo#######################%%%%%==;;;==   >>>>>>>>",
">>>oo#######################%%%%%==;;;==   >>>>>>>>",
">>>oo#############oooooooOOO@@%%%;;   OO   >>>>>>>>",
">>>oo#############oooooooOOO@@%%%;;   OO   >>>>>>>>",
"   oo###oo   ooooo;;;;;==OOO&&@@@;;:::**===  >>>>>>",
"   oo###oo   ooooo;;;;;==OOO&&@@@;;:::**===  >>>>>>",
"   oo###oo   ooooo;;;;;==OOO&&@@@;;:::**===  >>>>>>",
"   ooooo  >>>     @@;;;;;OOO%%OOO;;:::**===  >>>>>>",
"   ooooo  >>>     @@;;;;;OOO%%OOO;;:::**===  >>>>>>",
"   oo   >>>>>>>     @@@@@===%%OOO;;;;;==   >>>>>>>>",
"   oo   >>>>>>>     @@@@@===%%OOO;;;;;==   >>>>>>>>",
"   oo   >>>>>>>     @@@@@===%%OOO;;;;;==   >>>>>>>>",
">>>  >>>>>>>>>>%%%&&     %%%OO========  >>>>>>>>>>>",
">>>  >>>>>>>>>>%%%&&     %%%OO========  >>>>>>>>>>>",
">>>>>>>>>>>>>>>     ooo  &&&  ooooo   >>>>>>>>>>>>>",
">>>>>>>>>>>>>>>     ooo  &&&  ooooo   >>>>>>>>>>>>>",
">>>>>>>>>>>>>>>>>>  ###-----  ########  >>>>>>>>>>>",
">>>>>>>>>>>>>>>>>>  ###-----  ########  >>>>>>>>>>>",
">>>>>>>>>>>>>>>>>>  ###-----  ########  >>>>>>>>>>>",
">>>>>>>>>>>>>>>>>>     -----  ########%%   >>      ",
">>>>>>>>>>>>>>>>>>     -----  ########%%   >>      ",
">>>>>>>>>>>>>>>   ##   -----  #####OOO%%     +++   ",
">>>>>>>>>>>>>>>   ##   -----  #####OOO%%     +++   ",
">>>>>>>>>>>>>>>   ##   -----  #####OOO%%     +++   ",
">>>>>>>>>>>>>  ###  ;;;;;@@@  OOOOO$$$##   +++++   ",
">>>>>>>>>>>>>  ###  ;;;;;@@@  OOOOO$$$##   +++++   ",
">>>>>>>>>>>>>  ###  ===;;   ##$$$$$$$$  ...++   >>>",
">>>>>>>>>>>>>  ###  ===;;   ##$$$$$$$$  ...++   >>>",
">>>>>>>>>>>>>  ###  ===;;   ##$$$$$$$$  ...++   >>>",
">>>>>>>>>>>>>XX               #####   .....  XXX>>>",
">>>>>>>>>>>>>XX               #####   .....  XXX>>>",
">>>>>>>>>>>>>XX   .....            XXX     XXXXX>>>",
">>>>>>>>>>>>>XX   .....            XXX     XXXXX>>>",
">>>>>>>>>>>>>XX   .....            XXX     XXXXX>>>",
">>>>>>>>>>>>>XXXXX       XXXXXXXXXXXXXXXXXXXXXXX>>>",
">>>>>>>>>>>>>XXXXX       XXXXXXXXXXXXXXXXXXXXXXX>>>",
">>>>>>>>>>>>>>>XXXXXXXXXXXXXXXXXXXXXXXXXXXXXX>>>>>>",
">>>>>>>>>>>>>>>XXXXXXXXXXXXXXXXXXXXXXXXXXXXXX>>>>>>",
">>>>>>>>>>>>>>>XXXXXXXXXXXXXXXXXXXXXXXXXXXXXX>>>>>>",
">>>>>>>>>>>>>>>>>>>>XXXXXXXXXXXXXXXXXXXX>>>>>>>>>>>",
">>>>>>>>>>>>>>>>>>>>XXXXXXXXXXXXXXXXXXXX>>>>>>>>>>>",
">>>>>>>>>>>>>>>>>>>>XXXXXXXXXXXXXXXXXXXX>>>>>>>>>>>"
};
