/* XPM */
static char *result[] = {
/* columns rows colors chars-per-pixel */
"51 60 17 1 ",
"  c black",
". c #7B1029",
"X c #363243",
"o c #107B29",
"O c #734221",
"+ c #DE2929",
"@ c #A57B42",
"# c #42A529",
"$ c #10FF08",
"% c yellow",
"& c #DEAD52",
"* c #3152FF",
"= c #D6B58C",
"- c #BDFFA5",
"; c #FFE7BD",
": c white",
"> c None",
/* pixels */
">>>>>>>>>>>>>>>>>>>>>>>>>###$$$$$OO@@@@@>>>>>>>>>>>",
">>>>>>>>>>>>>>>>>>>>>>>>>###$$$$$OO@@@@@>>>>>>>>>>>",
">>>>>>>>>>>>>>>>>>>>>>>>>###$$$$$OO@@@@@>>>>>>>>>>>",
">>>>>>>>>>>>>>>>>>##$$$$$$$$$$$$$%%%%%%%&&&@@>>>>>>",
">>>>>>>>>>>>>>>>>>##$$$$$$$$$$$$$%%%%%%%&&&@@>>>>>>",
">>>>>>>>>>ooo#####$$$$$$$$$$$$$$$%%%%%%%%%%%%@@@>>>",
">>>>>>>>>>ooo#####$$$$$$$$$$$$$$$%%%%%%%%%%%%@@@>>>",
">>>>>>>>>>ooo#####$$$$$$$$$$$$$$$%%%%%%%%%%%%@@@>>>",
">>>>>>>>oo#####$$$$$$$$$$$$$$$&&&&&%%%&&&&&%%%%%@@@",
">>>>>>>>oo#####$$$$$$$$$$$$$$$&&&&&%%%&&&&&%%%%%@@@",
">>>>>ooo#######$$$$$$$$$$$$$$$%%%%%@@@OO&&&OOOOO>>>",
">>>>>ooo#######$$$$$$$$$$$$$$$%%%%%@@@OO&&&OOOOO>>>",
">>>>>ooo#######$$$$$$$$$$$$$$$%%%%%@@@OO&&&OOOOO>>>",
">>>>>###############$$$$$$$$%%%%%@@=====   >>>>>>>>",
">>>>>###############$$$$$$$$%%%%%@@=====   >>>>>>>>",
">>>  #######################%%%%%==;;;==   >>>>>>>>",
">>>  #######################%%%%%==;;;==   >>>>>>>>",
">>>  #######################%%%%%==;;;==   >>>>>>>>",
"   oo##################oo&&&@@%%%;;   OO   >>>>>>>>",
"   oo##################oo&&&@@%%%;;   OO   >>>>>>>>",
"   oo###oo   ooooo;;;;;==OOO&&@@@;;:::**===  >>>>>>",
"   oo###oo   ooooo;;;;;==OOO&&@@@;;:::**===  >>>>>>",
"   oo###oo   ooooo;;;;;==OOO&&@@@;;:::**===  >>>>>>",
"   oo###  >>>     @@;;;;;OOO%%OOO;;:::**===  >>>>>>",
"   oo###  >>>     @@;;;;;OOO%%OOO;;:::**===  >>>>>>",
">>>  ooo  >>>>>     @@@@@&&&%%OOO;;;;;==   >>>>>>>>",
">>>  ooo  >>>>>     @@@@@&&&%%OOO;;;;;==   >>>>>>>>",
">>>  ooo  >>>>>     @@@@@&&&%%OOO;;;;;==   >>>>>>>>",
">>>>>   >>>>>>>%%%==     %%%OO========  >>>>>>>>>>>",
">>>>>   >>>>>>>%%%==     %%%OO========  >>>>>>>>>>>",
">>>>>>>>>>>>>>>     ooo  &&&  ooooo     >>>>>>>>>>>",
">>>>>>>>>>>>>>>     ooo  &&&  ooooo     >>>>>>>>>>>",
">>>>>>>>>>>>>>>>>>  #####   ==   ##   OO   >>>>>>>>",
">>>>>>>>>>>>>>>>>>  #####   ==   ##   OO   >>>>>>>>",
">>>>>>>>>>>>>>>>>>  #####   ==   ##   OO   >>>>>>>>",
">>>>>>>>>>>>>>>>>>  ###  ---  #####%%%  ---  >>>>>>",
">>>>>>>>>>>>>>>>>>  ###  ---  #####%%%  ---  >>>>>>",
">>>>>>>>>>>>>>>   OO   OO-----   ##%%%$$   ==   >>>",
">>>>>>>>>>>>>>>   OO   OO-----   ##%%%$$   ==   >>>",
">>>>>>>>>>>>>>>   OO   OO-----   ##%%%$$   ==   >>>",
">>>>>>>>>>>>>  #####   -----  OOOOO$$$$$     >>>>>>",
">>>>>>>>>>>>>  #####   -----  OOOOO$$$$$     >>>>>>",
">>>>>>>>>>>>>       ;;;;;@@@  ###$$$$$##   >>>>>>>>",
">>>>>>>>>>>>>       ;;;;;@@@  ###$$$$$##   >>>>>>>>",
">>>>>>>>>>>>>       ;;;;;@@@  ###$$$$$##   >>>>>>>>",
">>>>>>>>>>>>>>>     ;;;;;   ##$$$$$:::     XX>>>>>>",
">>>>>>>>>>>>>>>     ;;;;;   ##$$$$$:::     XX>>>>>>",
">>>>>>>>>>>>>XXXXX     ..             ..+++  XXX>>>",
">>>>>>>>>>>>>XXXXX     ..             ..+++  XXX>>>",
">>>>>>>>>>>>>XXXXX     ..             ..+++  XXX>>>",
">>>>>>>>>>>>>XXXXXXX        XX   .....+++++  XXX>>>",
">>>>>>>>>>>>>XXXXXXX        XX   .....+++++  XXX>>>",
">>>>>>>>>>>>>XXXXXXXXXXXXXXXXXXXX          XXXXX>>>",
">>>>>>>>>>>>>XXXXXXXXXXXXXXXXXXXX          XXXXX>>>",
">>>>>>>>>>>>>XXXXXXXXXXXXXXXXXXXX          XXXXX>>>",
">>>>>>>>>>>>>>>XXXXXXXXXXXXXXXXXXXXXXXXXXXXXX>>>>>>",
">>>>>>>>>>>>>>>XXXXXXXXXXXXXXXXXXXXXXXXXXXXXX>>>>>>",
">>>>>>>>>>>>>>>>>>>>XXXXXXXXXXXXXXXXXXXX>>>>>>>>>>>",
">>>>>>>>>>>>>>>>>>>>XXXXXXXXXXXXXXXXXXXX>>>>>>>>>>>",
">>>>>>>>>>>>>>>>>>>>XXXXXXXXXXXXXXXXXXXX>>>>>>>>>>>"
};
