/* XPM */
static char *result[] = {
/* columns rows colors chars-per-pixel */
"57 58 17 1 ",
"  c black",
". c #7B1029",
"X c #363243",
"o c #107B29",
"O c #734221",
"+ c #DE2929",
"@ c #A57B42",
"# c #42A529",
"$ c #10FF08",
"% c yellow",
"& c #DEAD52",
"* c #3152FF",
"= c #D6B58C",
"- c #BDFFA5",
"; c #FFE7BD",
": c white",
"> c None",
/* pixels */
">>>>>>>>>>>>>>>>>>>>>>>>>>>###$$$$$$$###OO@@@@@>>>>>>>>>>",
">>>>>>>>>>>>>>>>>>>>>>>>>>>###$$$$$$$###OO@@@@@>>>>>>>>>>",
">>>>>>>>>>>>>>>>>>>>>>>>>>>###$$$$$$$###OO@@@@@>>>>>>>>>>",
">>>>>>>>>>>>>>>>>>>>oo###$$$$$$$$$$$$$$$%%%%%%%&&&@@>>>>>",
">>>>>>>>>>>>>>>>>>>>oo###$$$$$$$$$$$$$$$%%%%%%%&&&@@>>>>>",
">>>>>>>>>>>>ooooo###$$$$$$$$$$$$$$$$$$$$&&%%%%%%%%%%@@@>>",
">>>>>>>>>>>>ooooo###$$$$$$$$$$$$$$$$$$$$&&%%%%%%%%%%@@@>>",
">>>>>>>>>>>>ooooo###$$$$$$$$$$$$$$$$$$$$&&%%%%%%%%%%@@@>>",
">>>>>>>>>>oo#####$$$$$$$$$$$$$$$$$$$$%%%%%&&&&&&&&%%%%%OO",
">>>>>>>>>>oo#####$$$$$$$$$$$$$$$$$$$$%%%%%&&&&&&&&%%%%%OO",
">>>>>>>   ##########$$$$$$$$$$$$$$$$$%%%%%@@@@@@@@&&OOO>>",
">>>>>>>   ##########$$$$$$$$$$$$$$$$$%%%%%@@@@@@@@&&OOO>>",
">>>>>>>   ##########$$$$$$$$$$$$$$$$$%%%%%@@@@@@@@&&OOO>>",
">>>>>  ##################$$$$$$$$$$%%%%%@@=====   >>>>>>>",
">>>>>  ##################$$$$$$$$$$%%%%%@@=====   >>>>>>>",
">>>>>  ############################%%%%%==;;;==   >>>>>>>",
">>>>>  ############################%%%%%==;;;==   >>>>>>>",
">>>>>  ############################%%%%%==;;;==   >>>>>>>",
">>   #####ooooo  oooooooooo###ooOOO@@%%%;;   OO   >>>>>>>",
">>   #####ooooo  oooooooooo###ooOOO@@%%%;;   OO   >>>>>>>",
"  oooooooo     >>   ooooo;;;;;==OOO&&@@@;;:::**===  >>>>>",
"  oooooooo     >>   ooooo;;;;;==OOO&&@@@;;:::**===  >>>>>",
"  oooooooo     >>   ooooo;;;;;==OOO&&@@@;;:::**===  >>>>>",
">>        >>>>>>>>>>     @@;;;;;OOO%%OOO;;:::**===  >>>>>",
">>        >>>>>>>>>>     @@;;;;;OOO%%OOO;;:::**===  >>>>>",
">>>>>>>>>>>>>>>>>>>>>>     @@@@@&&&%%OOO;;;;;==   >>>>>>>",
">>>>>>>>>>>>>>>>>>>>>>     @@@@@&&&%%OOO;;;;;==   >>>>>>>",
">>>>>>>>>>>>>>>>>>>>>>     @@@@@&&&%%OOO;;;;;==   >>>>>>>",
">>>>>>>>>>>>>>>>>>>>>>%%%&&     %%%OO========  >>>>>>>>>>",
">>>>>>>>>>>>>>>>>>>>>>%%%&&     %%%OO========  >>>>>>>>>>",
">>>>>>>>>>>>>>>>>>>>>>     ooo  &&&  ooooo   >>>>>>>>>>>>",
">>>>>>>>>>>>>>>>>>>>>>     ooo  &&&  ooooo   >>>>>>>>>>>>",
">>>>>>>>>>>>>>>>>>>>>>>>>  #####   ##########  >>>>>>>>>>",
">>>>>>>>>>>>>>>>>>>>>>>>>  #####   ##########  >>>>>>>>>>",
">>>>>>>>>>>>>>>>>>>>>>>>>  #####   ##########  >>>>>>>>>>",
">>>>>>>>>>>>>>>>>>>>>>>>>  ###  -----   #####%%   >>>>>>>",
">>>>>>>>>>>>>>>>>>>>>>>>>  ###  -----   #####%%   >>>>>>>",
">>>>>>>>>>>>>>>>>>>>>>   ##OOO  -----   OOOOO%%   >>>>>>>",
">>>>>>>>>>>>>>>>>>>>>>   ##OOO  -----   OOOOO%%   >>>>>>>",
">>>>>>>>>>>>>>>>>>>>>>   ##OOO  -----   OOOOO%%   >>>>>>>",
">>>>>>>>>>>>>>>>>>>>>>   ##$$$  -----   $$$$$$$   >>>>>>>",
">>>>>>>>>>>>>>>>>>>>>>   ##$$$  -----   $$$$$$$   >>>>>>>",
">>>>>>>>>>>>>>>>>>>>>>XXX  $$$  ;;;;;   $$$$$     XX>>>>>",
">>>>>>>>>>>>>>>>>>>>>>XXX  $$$  ;;;;;   $$$$$     XX>>>>>",
">>>>>>>>>>>>>>>>>>>>>>XXX  $$$  ;;;;;   $$$$$     XX>>>>>",
">>>>>>>>>>>>>>>>>>>>XXXXXXX     ===;;          XXXXXXXX>>",
">>>>>>>>>>>>>>>>>>>>XXXXXXX     ===;;          XXXXXXXX>>",
">>>>>>>>>>>>>>>>>>>>XXXXXXXXXX          ..+++  XXXXXXXX>>",
">>>>>>>>>>>>>>>>>>>>XXXXXXXXXX          ..+++  XXXXXXXX>>",
">>>>>>>>>>>>>>>>>>>>XXXXXXXXXX          ..+++  XXXXXXXX>>",
">>>>>>>>>>>>>>>>>>>>XXXXXXXXXXXX     ...+++++  XXXXXXXX>>",
">>>>>>>>>>>>>>>>>>>>XXXXXXXXXXXX     ...+++++  XXXXXXXX>>",
">>>>>>>>>>>>>>>>>>>>>>XXXXXXXXXXXXXXX        XXXXXXX>>>>>",
">>>>>>>>>>>>>>>>>>>>>>XXXXXXXXXXXXXXX        XXXXXXX>>>>>",
">>>>>>>>>>>>>>>>>>>>>>XXXXXXXXXXXXXXX        XXXXXXX>>>>>",
">>>>>>>>>>>>>>>>>>>>>>>>>>>XXXXXXXXXXXXXXXXXXXX>>>>>>>>>>",
">>>>>>>>>>>>>>>>>>>>>>>>>>>XXXXXXXXXXXXXXXXXXXX>>>>>>>>>>",
">>>>>>>>>>>>>>>>>>>>>>>>>>>XXXXXXXXXXXXXXXXXXXX>>>>>>>>>>"
};
