/* XPM */
static char *result[] = {
/* columns rows colors chars-per-pixel */
"49 58 17 1 ",
"  c black",
". c #7B1029",
"X c #363243",
"o c #107B29",
"O c #734221",
"+ c #DE2929",
"@ c #A57B42",
"# c #42A529",
"$ c #10FF08",
"% c yellow",
"& c #DEAD52",
"* c #3152FF",
"= c #D6B58C",
"- c #BDFFA5",
"; c #FFE7BD",
": c white",
"> c None",
/* pixels */
">>>>>>>>>>>>>>>>>>>>>##$$$$$$$$##OOO@@>>>>>>>>>>>",
">>>>>>>>>>>>>>>>>>>>>##$$$$$$$$##OOO@@>>>>>>>>>>>",
">>>>>>>>>>>>>>>>>>>>>##$$$$$$$$##OOO@@>>>>>>>>>>>",
">>>>>>>>>>>>>>>>##$$$$$$$$$$$$$$$%%%%%&&&@@>>>>>>",
">>>>>>>>>>>>>>>>##$$$$$$$$$$$$$$$%%%%%&&&@@>>>>>>",
">>>>>>>>>>>oo###$$$$$$$$$$$$$$$$$&&&%%%%%%%@@@>>>",
">>>>>>>>>>>oo###$$$$$$$$$$$$$$$$$&&&%%%%%%%@@@>>>",
">>>>>>>>>>>oo###$$$$$$$$$$$$$$$$$&&&%%%%%%%@@@>>>",
">>>>>>>>ooo##$$$$$$$$$$$$$$$$$$%%%%%&&&&&%%%%%@@@",
">>>>>>>>ooo##$$$$$$$$$$$$$$$$$$%%%%%&&&&&%%%%%@@@",
">>>>>>oo#####$$$$$$$$$$$$$$$$$$%%%%%@@OOO&&%%%OOO",
">>>>>>oo#####$$$$$$$$$$$$$$$$$$%%%%%@@OOO&&%%%OOO",
">>>>>>oo#####$$$$$$$$$$$$$$$$$$%%%%%@@OOO&&%%%OOO",
">>>>>>oo##########$$$$$$$$$$%%%%%@@@=====@@OOO>>>",
">>>>>>oo##########$$$$$$$$$$%%%%%@@@=====@@OOO>>>",
">>>ooo######################%%%%%===;;===  >>>>>>",
">>>ooo######################%%%%%===;;===  >>>>>>",
">>>ooo######################%%%%%===;;===  >>>>>>",
">>>ooo############ooooooooOO@@@%%;;;  OOO  >>>>>>",
">>>ooo############ooooooooOO@@@%%;;;  OOO  >>>>>>",
"   ooo##ooo     oo;;;;;===OO&&&@@;;;::***==   >>>",
"   ooo##ooo     oo;;;;;===OO&&&@@;;;::***==   >>>",
"   ooo##ooo     oo;;;;;===OO&&&@@;;;::***==   >>>",
"   ooooo   >>>>>  @@@;;;;;OO%%%OO;;;::***==   >>>",
"   ooooo   >>>>>  @@@;;;;;OO%%%OO;;;::***==   >>>",
"   ooo  >>>>>>>>     @@@@@&&%%%OO;;;;;===  >>>>>>",
"   ooo  >>>>>>>>     @@@@@&&%%%OO;;;;;===  >>>>>>",
"   ooo  >>>>>>>>     @@@@@&&%%%OO;;;;;===  >>>>>>",
">>>   >>>>>>>>>>%%&&&     %%OOO=======   >>>>>>>>",
">>>   >>>>>>>>>>%%&&&     %%OOO=======   >>>>>>>>",
">>>>>>>>>>>>>>>>     oo   &&   ooooo  >>>>>>>>>>>",
">>>>>>>>>>>>>>>>     oo   &&   ooooo  >>>>>>>>>>>",
">>>>>>>>>>>>>>>>>>   #####  ##########   >>>>>>>>",
">>>>>>>>>>>>>>>>>>   #####  ##########   >>>>>>>>",
">>>>>>>>>>>>>>>>>>   #####  ##########   >>>>>>>>",
">>>>>>>>>>>>>>>>  ---#####OO-----   ##%%%  >>>>>>",
">>>>>>>>>>>>>>>>  ---#####OO-----   ##%%%  >>>>>>",
">>>>>>>>>>>>>   ;;   OO###OO-----   ##%%%        ",
">>>>>>>>>>>>>   ;;   OO###OO-----   ##%%%        ",
">>>>>>>>>>>>>   ;;   OO###OO-----   ##%%%        ",
">>>>>>>>>>>>>>>>  ###$$OOO  ---@@;;;  ###  +++   ",
">>>>>>>>>>>>>>>>  ###$$OOO  ---@@;;;  ###  +++   ",
">>>>>>>>>>>>>     ###$$$$$$$   ;;;;;;;   ..   >>>",
">>>>>>>>>>>>>     ###$$$$$$$   ;;;;;;;   ..   >>>",
">>>>>>>>>>>>>     ###$$$$$$$   ;;;;;;;   ..   >>>",
">>>>>>>>>>>>>   ++     $$$$$ooo  ;;;  ...  XXXXXX",
">>>>>>>>>>>>>   ++     $$$$$ooo  ;;;  ...  XXXXXX",
">>>>>>>>>>>>>   ++.....                  XXXXXXXX",
">>>>>>>>>>>>>   ++.....                  XXXXXXXX",
">>>>>>>>>>>>>   ++.....                  XXXXXXXX",
">>>>>>>>>>>>>XXX  +++.....  XXXXXXXXXXXXXXXXXXXXX",
">>>>>>>>>>>>>XXX  +++.....  XXXXXXXXXXXXXXXXXXXXX",
">>>>>>>>>>>>>>>>XX        XXXXXXXXXXXXXXXXXXXX>>>",
">>>>>>>>>>>>>>>>XX        XXXXXXXXXXXXXXXXXXXX>>>",
">>>>>>>>>>>>>>>>XX        XXXXXXXXXXXXXXXXXXXX>>>",
">>>>>>>>>>>>>>>>>>>>>XXXXXXXXXXXXXXXXXXXX>>>>>>>>",
">>>>>>>>>>>>>>>>>>>>>XXXXXXXXXXXXXXXXXXXX>>>>>>>>",
">>>>>>>>>>>>>>>>>>>>>XXXXXXXXXXXXXXXXXXXX>>>>>>>>"
};
