/* XPM */
static char *result[] = {
/* columns rows colors chars-per-pixel */
"49 62 17 1 ",
"  c black",
". c #7B1029",
"X c #363243",
"o c #107B29",
"O c #734221",
"+ c #DE2929",
"@ c #A57B42",
"# c #42A529",
"$ c #10FF08",
"% c yellow",
"& c #DEAD52",
"* c #3152FF",
"= c #D6B58C",
"- c #BDFFA5",
"; c #FFE7BD",
": c white",
"> c None",
/* pixels */
">>>>>>>>>>>>>>>>#####$$$$$$$$$$##OOO@@>>>>>>>>>>>",
">>>>>>>>>>>>>>>>#####$$$$$$$$$$##OOO@@>>>>>>>>>>>",
">>>>>>>>>>>>>###$$$$$$$$$$$$$$$%%%%%%%&&&@@>>>>>>",
">>>>>>>>>>>>>###$$$$$$$$$$$$$$$%%%%%%%&&&@@>>>>>>",
">>>>>>>>>>>>>###$$$$$$$$$$$$$$$%%%%%%%&&&@@>>>>>>",
">>>>>>>>ooo##$$$$$$$$$$$$$$$&&&&&&&&%%%%%%%@@@>>>",
">>>>>>>>ooo##$$$$$$$$$$$$$$$&&&&&&&&%%%%%%%@@@>>>",
">>>>>>oo#####$$$$$$$$$$$$$$$%%%%%@@@&&&&&%%%%%@@@",
">>>>>>oo#####$$$$$$$$$$$$$$$%%%%%@@@&&&&&%%%%%@@@",
">>>>>>oo#####$$$$$$$$$$$$$$$%%%%%@@@&&&&&%%%%%@@@",
">>>   ##########$$$$$$$$$$$$%%%%%@@@OO&&&&&%%%@@@",
">>>   ##########$$$$$$$$$$$$%%%%%@@@OO&&&&&%%%@@@",
">>>   ############$$$$$$$$%%%%%@@=====@@@@@OOO>>>",
">>>   ############$$$$$$$$%%%%%@@=====@@@@@OOO>>>",
">>>   ############$$$$$$$$%%%%%@@=====@@@@@OOO>>>",
"   ooo####################%%%%%==;;;==   >>>>>>>>",
"   ooo####################%%%%%==;;;==   >>>>>>>>",
"   ooo#################&&&@@%%%;;   OO   >>>>>>>>",
"   ooo#################&&&@@%%%;;   OO   >>>>>>>>",
"   ooo#################&&&@@%%%;;   OO   >>>>>>>>",
"   ooo#####ooooo;;;;;==OOO&&@@@;;:::**===  >>>>>>",
"   ooo#####ooooo;;;;;==OOO&&@@@;;:::**===  >>>>>>",
"   ooo##ooo     @@;;;;;OOO%%OOO;;:::**===  >>>>>>",
"   ooo##ooo     @@;;;;;OOO%%OOO;;:::**===  >>>>>>",
"   ooo##ooo     @@;;;;;OOO%%OOO;;:::**===  >>>>>>",
"   ooo##   >>     @@@@@&&&%%OOO;;;;;==   >>>>>>>>",
"   ooo##   >>     @@@@@&&&%%OOO;;;;;==   >>>>>>>>",
">>>   oo   >>%%%&&     %%%OO========  >>>>>>>>>>>",
">>>   oo   >>%%%&&     %%%OO========  >>>>>>>>>>>",
">>>   oo   >>%%%&&     %%%OO========  >>>>>>>>>>>",
">>>>>>  >>>>>     ooo  &&&  ooooo   >>>>>>>>>>>>>",
">>>>>>  >>>>>     ooo  &&&  ooooo   >>>>>>>>>>>>>",
">>>>>>>>>>>>>   OO########  #####%%%  >>>>>>>>>>>",
">>>>>>>>>>>>>   OO########  #####%%%  >>>>>>>>>>>",
">>>>>>>>>>>  ---  OOO##OOO-----  %%%$$   >>>>>>>>",
">>>>>>>>>>>  ---  OOO##OOO-----  %%%$$   >>>>>>>>",
">>>>>>>>>>>  ---  OOO##OOO-----  %%%$$   >>>>>>>>",
">>>>>>>>   ==   #####OO   -------   $$        >>>",
">>>>>>>>   ==   #####OO   -------   $$        >>>",
">>>>>>>>>>>     oo$$$$$###  ---;;;;;  ...+++++   ",
">>>>>>>>>>>     oo$$$$$###  ---;;;;;  ...+++++   ",
">>>>>>>>>>>     oo$$$$$###  ---;;;;;  ...+++++   ",
">>>>>>>>   ++...  ooo$$$$$##   ==;;;  ...++   >>>",
">>>>>>>>   ++...  ooo$$$$$##   ==;;;  ...++   >>>",
">>>>>>>>   ++...                    .....  >>>>>>",
">>>>>>>>   ++...                    .....  >>>>>>",
">>>>>>>>   ++...                    .....  >>>>>>",
">>>>>>>>   .....  XXXXXXXXXXXXX          XX>>>>>>",
">>>>>>>>   .....  XXXXXXXXXXXXX          XX>>>>>>",
">>>>>>>>   .....  XXXXXXXXXXXXXXXXXXXXXXXXXXXX>>>",
">>>>>>>>   .....  XXXXXXXXXXXXXXXXXXXXXXXXXXXX>>>",
">>>>>>>>   .....  XXXXXXXXXXXXXXXXXXXXXXXXXXXX>>>",
">>>>>>>>>>>     XXXXXXXXXXXXXXXXXXXXXXXXXXXXXX>>>",
">>>>>>>>>>>     XXXXXXXXXXXXXXXXXXXXXXXXXXXXXX>>>",
">>>>>>>>>>>XXXXXXXXXXXXXXXXXXXXXXXXXXXXXXXXXXX>>>",
">>>>>>>>>>>XXXXXXXXXXXXXXXXXXXXXXXXXXXXXXXXXXX>>>",
">>>>>>>>>>>XXXXXXXXXXXXXXXXXXXXXXXXXXXXXXXXXXX>>>",
">>>>>>>>>>>>>XXXXXXXXXXXXXXXXXXXXXXXXXXXXXX>>>>>>",
">>>>>>>>>>>>>XXXXXXXXXXXXXXXXXXXXXXXXXXXXXX>>>>>>",
">>>>>>>>>>>>>>>>>>XXXXXXXXXXXXXXXXXXXX>>>>>>>>>>>",
">>>>>>>>>>>>>>>>>>XXXXXXXXXXXXXXXXXXXX>>>>>>>>>>>",
">>>>>>>>>>>>>>>>>>XXXXXXXXXXXXXXXXXXXX>>>>>>>>>>>"
};
