/* XPM */
static char *result[] = {
/* columns rows colors chars-per-pixel */
"44 58 17 1 ",
"  c black",
". c #7B1029",
"X c #363243",
"o c #107B29",
"O c #734221",
"+ c #DE2929",
"@ c #A57B42",
"# c #42A529",
"$ c #10FF08",
"% c yellow",
"& c #DEAD52",
"* c #3152FF",
"= c #D6B58C",
"- c #BDFFA5",
"; c #FFE7BD",
": c white",
"> c None",
/* pixels */
">>>>>>>>>>>@@OOO##$$$$$$$$$$###>>>>>>>>>>>>>",
">>>>>>>>>>>@@OOO##$$$$$$$$$$###>>>>>>>>>>>>>",
">>>>>>>>>>>@@OOO##$$$$$$$$$$###>>>>>>>>>>>>>",
">>>>>>@@&&&%%%%%$$$$$$$$$$$$$$$#####>>>>>>>>",
">>>>>>@@&&&%%%%%$$$$$$$$$$$$$$$#####>>>>>>>>",
">>>@@@%%%%%%%&&&&&$$$$$$$$$$$$$$$###oo>>>>>>",
">>>@@@%%%%%%%&&&&&$$$$$$$$$$$$$$$###oo>>>>>>",
">>>@@@%%%%%%%&&&&&$$$$$$$$$$$$$$$###oo>>>>>>",
"@@@%%%%%&&&@@%%%%%$$$$$$$$$$$$$#######ooo>>>",
"@@@%%%%%&&&@@%%%%%$$$$$$$$$$$$$#######ooo>>>",
"OOO%%%&&OOO==%%%%%%%%$$$$$$$##########ooo>>>",
"OOO%%%&&OOO==%%%%%%%%$$$$$$$##########ooo>>>",
"OOO%%%&&OOO==%%%%%%%%$$$$$$$##########ooo>>>",
">>>@@@OO=====@@@%%%%%####################ooo",
">>>@@@OO=====@@@%%%%%####################ooo",
">>>>>>  ===;;===%%%%%@@########ooooo#####ooo",
">>>>>>  ===;;===%%%%%@@########ooooo#####ooo",
">>>>>>  ===;;===%%%%%@@########ooooo#####ooo",
">>>>>>  OOO  ;;;%%@@@OOooo##ooooo   oo###   ",
">>>>>>  OOO  ;;;%%@@@OOooo##ooooo   oo###   ",
">>>   ==***::;;;@@&&&OO===;;;;;oo   oo###   ",
">>>   ==***::;;;@@&&&OO===;;;;;oo   oo###   ",
">>>   ==***::;;;@@&&&OO===;;;;;oo   oo###   ",
">>>   ==***::;;;OO%%%  ;;;;;@@@  >>>  ###   ",
">>>   ==***::;;;OO%%%  ;;;;;@@@  >>>  ###   ",
">>>>>>  ===;;;;;OO%%%  ===@@     >>>  ooo   ",
">>>>>>  ===;;;;;OO%%%  ===@@     >>>  ooo   ",
">>>>>>  ===;;;;;OO%%%  ===@@     >>>  ooo   ",
">>>>>>>>   =====OO%%%       &&&%%>>>>>   >>>",
">>>>>>>>   =====OO%%%       &&&%%>>>>>   >>>",
">>>>>>>>>>>  ooo  &&&  ###oo   >>>>>>>>>>>>>",
">>>>>>>>>>>  ooo  &&&  ###oo   >>>>>>>>>>>>>",
">>>>>>>>   #######   OO   ##   >>>>>>>>>>>>>",
">>>>>>>>   #######   OO   ##   >>>>>>>>>>>>>",
">>>>>>>>   #######   OO   ##   >>>>>>>>>>>>>",
">>>>>>  %%%#####  -----   ##   >>>>>>>>>>>>>",
">>>>>>  %%%#####  -----   ##   >>>>>>>>>>>>>",
">>>>>>  %%%OOOOO  -----   OO###  >>>>>>>>>>>",
">>>>>>  %%%OOOOO  -----   OO###  >>>>>>>>>>>",
">>>>>>  %%%OOOOO  -----   OO###  >>>>>>>>>>>",
">>>>>>  $$$$$$$$  -----   $$###  >>>>>>>>>>>",
">>>>>>  $$$$$$$$  -----   $$###  >>>>>>>>>>>",
">>>XXXXX   $$$$$  ;;;;;   $$   XX>>>>>>>>>>>",
">>>XXXXX   $$$$$  ;;;;;   $$   XX>>>>>>>>>>>",
">>>XXXXX   $$$$$  ;;;;;   $$   XX>>>>>>>>>>>",
"XXXXXXXXXXX       ;;;==     XXXXXXXX>>>>>>>>",
"XXXXXXXXXXX       ;;;==     XXXXXXXX>>>>>>>>",
"XXXXXXXX   ++.....        XXXXXXXXXX>>>>>>>>",
"XXXXXXXX   ++.....        XXXXXXXXXX>>>>>>>>",
"XXXXXXXX   ++.....        XXXXXXXXXX>>>>>>>>",
"XXXXXXXX   +++++..     XXXXXXXXXXXXX>>>>>>>>",
"XXXXXXXX   +++++..     XXXXXXXXXXXXX>>>>>>>>",
">>>XXXXXXXX       XXXXXXXXXXXXXXX>>>>>>>>>>>",
">>>XXXXXXXX       XXXXXXXXXXXXXXX>>>>>>>>>>>",
">>>XXXXXXXX       XXXXXXXXXXXXXXX>>>>>>>>>>>",
">>>>>>>>XXXXXXXXXXXXXXXXXXXX>>>>>>>>>>>>>>>>",
">>>>>>>>XXXXXXXXXXXXXXXXXXXX>>>>>>>>>>>>>>>>",
">>>>>>>>XXXXXXXXXXXXXXXXXXXX>>>>>>>>>>>>>>>>"
};
