/* XPM */
static char *result[] = {
/* columns rows colors chars-per-pixel */
"57 58 17 1 ",
"  c black",
". c #7B1029",
"X c #363243",
"o c #107B29",
"O c #734221",
"+ c #DE2929",
"@ c #A57B42",
"# c #42A529",
"$ c #10FF08",
"% c yellow",
"& c #DEAD52",
"* c #3152FF",
"= c #D6B58C",
"- c #BDFFA5",
"; c #FFE7BD",
": c white",
"> c None",
/* pixels */
">>>>>>>>>>@@@@@OO###$$$$$$$###>>>>>>>>>>>>>>>>>>>>>>>>>>>",
">>>>>>>>>>@@@@@OO###$$$$$$$###>>>>>>>>>>>>>>>>>>>>>>>>>>>",
">>>>>>>>>>@@@@@OO###$$$$$$$###>>>>>>>>>>>>>>>>>>>>>>>>>>>",
">>>>>@@&&&%%%%%%%$$$$$$$$$$$$$$$$$$#####>>>>>>>>>>>>>>>>>",
">>>>>@@&&&%%%%%%%$$$$$$$$$$$$$$$$$$#####>>>>>>>>>>>>>>>>>",
">>@@@%%%%%%%%%%&&$$$$$$$$$$$$$$$$$$$$#####ooo>>>>>>>>>>>>",
">>@@@%%%%%%%%%%&&$$$$$$$$$$$$$$$$$$$$#####ooo>>>>>>>>>>>>",
">>@@@%%%%%%%%%%&&$$$$$$$$$$$$$$$$$$$$#####ooo>>>>>>>>>>>>",
"OO%%%%%&&&&&&&&%%%%%$$$$$$$$$$$$$$$$$$$$#####oo>>>>>>>>>>",
"OO%%%%%&&&&&&&&%%%%%$$$$$$$$$$$$$$$$$$$$#####oo>>>>>>>>>>",
">>OOO&&@@@@@@@@%%%%%$$$$$$$$$$$$$$$$$##########ooo>>>>>>>",
">>OOO&&@@@@@@@@%%%%%$$$$$$$$$$$$$$$$$##########ooo>>>>>>>",
">>OOO&&@@@@@@@@%%%%%$$$$$$$$$$$$$$$$$##########ooo>>>>>>>",
">>>>>>>   =====@@%%%%%$$$$$$$$$$##################  >>>>>",
">>>>>>>   =====@@%%%%%$$$$$$$$$$##################  >>>>>",
">>>>>>>   ==;;;==%%%%%############################  >>>>>",
">>>>>>>   ==;;;==%%%%%############################  >>>>>",
">>>>>>>   ==;;;==%%%%%############################  >>>>>",
">>>>>>>   OO   ;;%%%@@OOOoo###oooooooooo  ooooo#####   >>",
">>>>>>>   OO   ;;%%%@@OOOoo###oooooooooo  ooooo#####   >>",
">>>>>  ===**:::;;@@@&&OOO==;;;;;ooooo   >>     oooooooo  ",
">>>>>  ===**:::;;@@@&&OOO==;;;;;ooooo   >>     oooooooo  ",
">>>>>  ===**:::;;@@@&&OOO==;;;;;ooooo   >>     oooooooo  ",
">>>>>  ===**:::;;OOO%%OOO;;;;;@@     >>>>>>>>>>        >>",
">>>>>  ===**:::;;OOO%%OOO;;;;;@@     >>>>>>>>>>        >>",
">>>>>>>   ==;;;;;OOO%%===@@@@@     >>>>>>>>>>>>>>>>>>>>>>",
">>>>>>>   ==;;;;;OOO%%===@@@@@     >>>>>>>>>>>>>>>>>>>>>>",
">>>>>>>   ==;;;;;OOO%%===@@@@@     >>>>>>>>>>>>>>>>>>>>>>",
">>>>>>>>>>  ========OO%%%     ==%%%>>>>>>>>>>>>>>>>>>>>>>",
">>>>>>>>>>  ========OO%%%     ==%%%>>>>>>>>>>>>>>>>>>>>>>",
">>>>>>>>>>>>   ooooo  &&&  ooo     >>>>>>>>>>>>>>>>>>>>>>",
">>>>>>>>>>>>   ooooo  &&&  ooo     >>>>>>>>>>>>>>>>>>>>>>",
">>>>>>>>>>  ##########   #####  >>>>>>>>>>>>>>>>>>>>>>>>>",
">>>>>>>>>>  ##########   #####  >>>>>>>>>>>>>>>>>>>>>>>>>",
">>>>>>>>>>  ##########   #####  >>>>>>>>>>>>>>>>>>>>>>>>>",
">>>>>>>   %%#####   -----  ###  >>>>>>>>>>>>>>>>>>>>>>>>>",
">>>>>>>   %%#####   -----  ###  >>>>>>>>>>>>>>>>>>>>>>>>>",
">>>>>>>   %%OOOOO   -----  OOO##   >>>>>>>>>>>>>>>>>>>>>>",
">>>>>>>   %%OOOOO   -----  OOO##   >>>>>>>>>>>>>>>>>>>>>>",
">>>>>>>   %%OOOOO   -----  OOO##   >>>>>>>>>>>>>>>>>>>>>>",
">>>>>>>   $$$$$$$   -----  $$$##   >>>>>>>>>>>>>>>>>>>>>>",
">>>>>>>   $$$$$$$   -----  $$$##   >>>>>>>>>>>>>>>>>>>>>>",
">>>>>XXXXX  $$$$$   ;;;;;  $$$  XXX>>>>>>>>>>>>>>>>>>>>>>",
">>>>>XXXXX  $$$$$   ;;;;;  $$$  XXX>>>>>>>>>>>>>>>>>>>>>>",
">>>>>XXXXX  $$$$$   ;;;;;  $$$  XXX>>>>>>>>>>>>>>>>>>>>>>",
">>XXXXXXXX          ;;===     XXXXXXX>>>>>>>>>>>>>>>>>>>>",
">>XXXXXXXX          ;;===     XXXXXXX>>>>>>>>>>>>>>>>>>>>",
">>XXXXXXXX  +++.....     ..   XXXXXXX>>>>>>>>>>>>>>>>>>>>",
">>XXXXXXXX  +++.....     ..   XXXXXXX>>>>>>>>>>>>>>>>>>>>",
">>XXXXXXXX  +++.....     ..   XXXXXXX>>>>>>>>>>>>>>>>>>>>",
">>XXXXXXXXXX          ...  XXXXXXXXXX>>>>>>>>>>>>>>>>>>>>",
">>XXXXXXXXXX          ...  XXXXXXXXXX>>>>>>>>>>>>>>>>>>>>",
">>>>>XXXXXXXXXXXXXXX     XXXXXXXXXX>>>>>>>>>>>>>>>>>>>>>>",
">>>>>XXXXXXXXXXXXXXX     XXXXXXXXXX>>>>>>>>>>>>>>>>>>>>>>",
">>>>>XXXXXXXXXXXXXXX     XXXXXXXXXX>>>>>>>>>>>>>>>>>>>>>>",
">>>>>>>>>>XXXXXXXXXXXXXXXXXXXX>>>>>>>>>>>>>>>>>>>>>>>>>>>",
">>>>>>>>>>XXXXXXXXXXXXXXXXXXXX>>>>>>>>>>>>>>>>>>>>>>>>>>>",
">>>>>>>>>>XXXXXXXXXXXXXXXXXXXX>>>>>>>>>>>>>>>>>>>>>>>>>>>"
};
