/* XPM */
static char *result[] = {
/* columns rows colors chars-per-pixel */
"51 58 17 1 ",
"  c black",
". c #7B1029",
"X c #363243",
"o c #107B29",
"O c #734221",
"+ c #DE2929",
"@ c #A57B42",
"# c #42A529",
"$ c #10FF08",
"% c yellow",
"& c #DEAD52",
"* c #3152FF",
"= c #D6B58C",
"- c #BDFFA5",
"; c #FFE7BD",
": c white",
"> c None",
/* pixels */
">>>>>>>>>>>>>@@@OO###$$$$$$$###>>>>>>>>>>>>>>>>>>>>",
">>>>>>>>>>>>>@@@OO###$$$$$$$###>>>>>>>>>>>>>>>>>>>>",
">>>>>>>>>>>>>@@@OO###$$$$$$$###>>>>>>>>>>>>>>>>>>>>",
">>>>>>>>@@@&&%%%%%$$$$$$$$$$$$$$$###>>>>>>>>>>>>>>>",
">>>>>>>>@@@&&%%%%%$$$$$$$$$$$$$$$###>>>>>>>>>>>>>>>",
">>>>>>@@%%%%%%%%&&$$$$$$$$$$$$$$$$$$##ooo>>>>>>>>>>",
">>>>>>@@%%%%%%%%&&$$$$$$$$$$$$$$$$$$##ooo>>>>>>>>>>",
">>>>>>@@%%%%%%%%&&$$$$$$$$$$$$$$$$$$##ooo>>>>>>>>>>",
">>>@@@%%%%%&&&&&%%%%%$$$$$$$$$$$$$$$$$###oo>>>>>>>>",
">>>@@@%%%%%&&&&&%%%%%$$$$$$$$$$$$$$$$$###oo>>>>>>>>",
">>>OOO%%&&&OO@@@%%%%%$$$$$$$$$$$$$$$$$#####ooo>>>>>",
">>>OOO%%&&&OO@@@%%%%%$$$$$$$$$$$$$$$$$#####ooo>>>>>",
">>>OOO%%&&&OO@@@%%%%%$$$$$$$$$$$$$$$$$#####ooo>>>>>",
">>>>>>OO@@@=====@@%%%%%$$$$$$$$$$##########ooo>>>>>",
">>>>>>OO@@@=====@@%%%%%$$$$$$$$$$##########ooo>>>>>",
">>>>>>>>   ==;;;==%%%%%#######################oo>>>",
">>>>>>>>   ==;;;==%%%%%#######################oo>>>",
">>>>>>>>   ==;;;==%%%%%#######################oo>>>",
">>>>>>>>   OO   ;;%%%@@OOOooooooo#############oo>>>",
">>>>>>>>   OO   ;;%%%@@OOOooooooo#############oo>>>",
">>>>>>  ===**:::;;@@@&&OOO==;;;;;ooooo   oo###oo   ",
">>>>>>  ===**:::;;@@@&&OOO==;;;;;ooooo   oo###oo   ",
">>>>>>  ===**:::;;@@@&&OOO==;;;;;ooooo   oo###oo   ",
">>>>>>  ===**:::;;OOO%%OOO;;;;;@@     >>>  ooooo   ",
">>>>>>  ===**:::;;OOO%%OOO;;;;;@@     >>>  ooooo   ",
">>>>>>>>   ==;;;;;OOO%%===@@@@@     >>>>>>>   oo   ",
">>>>>>>>   ==;;;;;OOO%%===@@@@@     >>>>>>>   oo   ",
">>>>>>>>   ==;;;;;OOO%%===@@@@@     >>>>>>>   oo   ",
">>>>>>>>>>>  ========OO%%%     &&%%%>>>>>>>>>>  >>>",
">>>>>>>>>>>  ========OO%%%     &&%%%>>>>>>>>>>  >>>",
">>>>>>>>>>>>>   ooooo  &&&  ooo     >>>>>>>>>>>>>>>",
">>>>>>>>>>>>>   ooooo  &&&  ooo     >>>>>>>>>>>>>>>",
">>>>>>>>>>>  ########  -----###  >>>>>>>>>>>>>>>>>>",
">>>>>>>>>>>  ########  -----###  >>>>>>>>>>>>>>>>>>",
">>>>>>>>>>>  ########  -----###  >>>>>>>>>>>>>>>>>>",
"      >>   %%########  -----     >>>>>>>>>>>>>>>>>>",
"      >>   %%########  -----     >>>>>>>>>>>>>>>>>>",
"   +++     %%OOO#####  -----   ##   >>>>>>>>>>>>>>>",
"   +++     %%OOO#####  -----   ##   >>>>>>>>>>>>>>>",
"   +++     %%OOO#####  -----   ##   >>>>>>>>>>>>>>>",
"   +++++   ##$$$OOOOO  @@@;;;;;  ###  >>>>>>>>>>>>>",
"   +++++   ##$$$OOOOO  @@@;;;;;  ###  >>>>>>>>>>>>>",
">>>   ++...  $$$$$$$$##   ;;===  ###  >>>>>>>>>>>>>",
">>>   ++...  $$$$$$$$##   ;;===  ###  >>>>>>>>>>>>>",
">>>   ++...  $$$$$$$$##   ;;===  ###  >>>>>>>>>>>>>",
">>>XXX  .....   #####               XX>>>>>>>>>>>>>",
">>>XXX  .....   #####               XX>>>>>>>>>>>>>",
">>>XXXXX     XXX            .....   XX>>>>>>>>>>>>>",
">>>XXXXX     XXX            .....   XX>>>>>>>>>>>>>",
">>>XXXXX     XXX            .....   XX>>>>>>>>>>>>>",
">>>XXXXXXXXXXXXXXXXXXXXXXX       XXXXX>>>>>>>>>>>>>",
">>>XXXXXXXXXXXXXXXXXXXXXXX       XXXXX>>>>>>>>>>>>>",
">>>>>>XXXXXXXXXXXXXXXXXXXXXXXXXXXXXX>>>>>>>>>>>>>>>",
">>>>>>XXXXXXXXXXXXXXXXXXXXXXXXXXXXXX>>>>>>>>>>>>>>>",
">>>>>>XXXXXXXXXXXXXXXXXXXXXXXXXXXXXX>>>>>>>>>>>>>>>",
">>>>>>>>>>>XXXXXXXXXXXXXXXXXXXX>>>>>>>>>>>>>>>>>>>>",
">>>>>>>>>>>XXXXXXXXXXXXXXXXXXXX>>>>>>>>>>>>>>>>>>>>",
">>>>>>>>>>>XXXXXXXXXXXXXXXXXXXX>>>>>>>>>>>>>>>>>>>>"
};
