/* XPM */
static char *result[] = {
/* columns rows colors chars-per-pixel */
"51 62 17 1 ",
"  c black",
". c #7B1029",
"X c #363243",
"o c #107B29",
"O c #734221",
"+ c #DE2929",
"@ c #A57B42",
"# c #42A529",
"$ c #10FF08",
"% c yellow",
"& c #DEAD52",
"* c #3152FF",
"= c #D6B58C",
"- c #BDFFA5",
"; c #FFE7BD",
": c white",
"> c None",
/* pixels */
">>>>>>>>>>>>>>>>@@OOO##$$$$$$$$$$###>>>>>>>>>>>>>>>",
">>>>>>>>>>>>>>>>@@OOO##$$$$$$$$$$###>>>>>>>>>>>>>>>",
">>>>>>>>>>>>>@@@&&%%%%%$$$$$$$$$$$$$$$###oo>>>>>>>>",
">>>>>>>>>>>>>@@@&&%%%%%$$$$$$$$$$$$$$$###oo>>>>>>>>",
">>>>>>>>>>>>>@@@&&%%%%%$$$$$$$$$$$$$$$###oo>>>>>>>>",
">>>>>>>>>>>@@%%%%%%%%&&&&&$$$$$$$$$$$$$$$##ooo>>>>>",
">>>>>>>>>>>@@%%%%%%%%&&&&&$$$$$$$$$$$$$$$##ooo>>>>>",
">>>>>>>>@@@%%%%%&&&&&%%%%%$$$$$$$$$$$$$$$##ooo>>>>>",
">>>>>>>>@@@%%%%%&&&&&%%%%%$$$$$$$$$$$$$$$##ooo>>>>>",
">>>>>>>>@@@%%%%%&&&&&%%%%%$$$$$$$$$$$$$$$##ooo>>>>>",
">>>>>>>>@@@%%&&&OO@@@%%%%%$$$$$$$$$$$$$$$#####oo>>>",
">>>>>>>>@@@%%&&&OO@@@%%%%%$$$$$$$$$$$$$$$#####oo>>>",
">>>>>>>>@@@&&OOO=====@@%%%%%$$$$$$$$$$########oo   ",
">>>>>>>>@@@&&OOO=====@@%%%%%$$$$$$$$$$########oo   ",
">>>>>>>>@@@&&OOO=====@@%%%%%$$$$$$$$$$########oo   ",
">>>>>>>>>>>OO   ==;;;==%%%%%##################oo   ",
">>>>>>>>>>>OO   ==;;;==%%%%%##################oo   ",
">>>>>>>>>>>>>   OO   ;;%%%@@&&&oo#############oo   ",
">>>>>>>>>>>>>   OO   ;;%%%@@&&&oo#############oo   ",
">>>>>>>>>>>>>   OO   ;;%%%@@&&&oo#############oo   ",
">>>>>>>>>>>  ===**:::;;@@@&&OOO==;;;;;ooooo###  >>>",
">>>>>>>>>>>  ===**:::;;@@@&&OOO==;;;;;ooooo###  >>>",
">>>>>>>>>>>  ===**:::;;OOO%%OOO;;;;;@@   oo###  >>>",
">>>>>>>>>>>  ===**:::;;OOO%%OOO;;;;;@@   oo###  >>>",
">>>>>>>>>>>  ===**:::;;OOO%%OOO;;;;;@@   oo###  >>>",
">>>>>>>>>>>>>   ==;;;;;OOO%%&&&@@@@@       ooo  >>>",
">>>>>>>>>>>>>   ==;;;;;OOO%%&&&@@@@@       ooo  >>>",
">>>>>>>>>>>>>     ========OO%%%     ==%%%>>   >>>>>",
">>>>>>>>>>>>>     ========OO%%%     ==%%%>>   >>>>>",
">>>>>>>>>>>>>     ========OO%%%     ==%%%>>   >>>>>",
">>>>>>>>>>>  ;;;--   ooooo  &&&  ooo     >>>>>>>>>>",
">>>>>>>>>>>  ;;;--   ooooo  &&&  ooo     >>>>>>>>>>",
">>>>>>>>>>>>>     ########  ###  OOO  >>>>>>>>>>>>>",
">>>>>>>>>>>>>     ########  ###  OOO  >>>>>>>>>>>>>",
"        >>>>>   $$%%%#####OO-----   oo     >>>>>>>>",
"        >>>>>   $$%%%#####OO-----   oo     >>>>>>>>",
"        >>>>>   $$%%%#####OO-----   oo     >>>>>>>>",
"   +++++        $$%%%OOOOO  -----;;;     ++   >>>>>",
"   +++++        $$%%%OOOOO  -----;;;     ++   >>>>>",
"   ++++++++::   ##$$$$$$$$##   ==;;;;;   +++++  >>>",
"   ++++++++::   ##$$$$$$$$##   ==;;;;;   +++++  >>>",
"   ++++++++::   ##$$$$$$$$##   ==;;;;;   +++++  >>>",
">>>   +++++..===     ##$$$$$###  ;;;     ..+++  >>>",
">>>   +++++..===     ##$$$$$###  ;;;     ..+++  >>>",
">>>>>>  ........  XXX               >>   .....  >>>",
">>>>>>  ........  XXX               >>   .....  >>>",
">>>>>>  ........  XXX               >>   .....  >>>",
">>>>>>>>        XXXXXXXXXXXXXXXXXXXXXX   .....  >>>",
">>>>>>>>        XXXXXXXXXXXXXXXXXXXXXX   .....  >>>",
">>>>>>>>XXXXXXXXXXXXXXXXXXXXXXXXXXXXXXXXX     >>>>>",
">>>>>>>>XXXXXXXXXXXXXXXXXXXXXXXXXXXXXXXXX     >>>>>",
">>>>>>>>XXXXXXXXXXXXXXXXXXXXXXXXXXXXXXXXX     >>>>>",
">>>>>>>>XXXXXXXXXXXXXXXXXXXXXXXXXXXXXXXXXXX>>>>>>>>",
">>>>>>>>XXXXXXXXXXXXXXXXXXXXXXXXXXXXXXXXXXX>>>>>>>>",
">>>>>>>>XXXXXXXXXXXXXXXXXXXXXXXXXXXXXXXXXXX>>>>>>>>",
">>>>>>>>XXXXXXXXXXXXXXXXXXXXXXXXXXXXXXXXXXX>>>>>>>>",
">>>>>>>>XXXXXXXXXXXXXXXXXXXXXXXXXXXXXXXXXXX>>>>>>>>",
">>>>>>>>>>>XXXXXXXXXXXXXXXXXXXXXXXXXXXXXX>>>>>>>>>>",
">>>>>>>>>>>XXXXXXXXXXXXXXXXXXXXXXXXXXXXXX>>>>>>>>>>",
">>>>>>>>>>>>>>>>XXXXXXXXXXXXXXXXXXXX>>>>>>>>>>>>>>>",
">>>>>>>>>>>>>>>>XXXXXXXXXXXXXXXXXXXX>>>>>>>>>>>>>>>",
">>>>>>>>>>>>>>>>XXXXXXXXXXXXXXXXXXXX>>>>>>>>>>>>>>>"
};
