/* XPM */
static char *result[] = {
/* columns rows colors chars-per-pixel */
"51 62 17 1 ",
"  c black",
". c #7B1029",
"X c #363243",
"o c #107B29",
"O c #734221",
"+ c #DE2929",
"@ c #A57B42",
"# c #42A529",
"$ c #10FF08",
"% c yellow",
"& c #DEAD52",
"* c #3152FF",
"= c #D6B58C",
"- c #BDFFA5",
"; c #FFE7BD",
": c white",
"> c None",
/* pixels */
">>>>>>>>>>>>>@@@OO###$$$$$$$$$$##>>>>>>>>>>>>>>>>>>",
">>>>>>>>>>>>>@@@OO###$$$$$$$$$$##>>>>>>>>>>>>>>>>>>",
">>>>>>>>@@@&&%%%%%%%%$$$$$$$$$$$$#####>>>>>>>>>>>>>",
">>>>>>>>@@@&&%%%%%%%%$$$$$$$$$$$$#####>>>>>>>>>>>>>",
">>>>>>>>@@@&&%%%%%%%%$$$$$$$$$$$$#####>>>>>>>>>>>>>",
">>>>>>@@%%%%%%%%&&&&&&&$$$$$$$$$$$$$$$###oo>>>>>>>>",
">>>>>>@@%%%%%%%%&&&&&&&$$$$$$$$$$$$$$$###oo>>>>>>>>",
">>>@@@%%%%%&&&&&@@%%%%%$$$$$$$$$$$$$$$#####ooo>>>>>",
">>>@@@%%%%%&&&&&@@%%%%%$$$$$$$$$$$$$$$#####ooo>>>>>",
">>>@@@%%%%%&&&&&@@%%%%%$$$$$$$$$$$$$$$#####ooo>>>>>",
">>>@@@%%&&&&&OOO@@%%%%%$$$$$$$$$$$$$#######ooo  >>>",
">>>@@@%%&&&&&OOO@@%%%%%$$$$$$$$$$$$$#######ooo  >>>",
">>>>>>OO@@@@@=====@@@%%%%%$$$$$$$#############  >>>",
">>>>>>OO@@@@@=====@@@%%%%%$$$$$$$#############  >>>",
">>>>>>OO@@@@@=====@@@%%%%%$$$$$$$#############  >>>",
">>>>>>>>>>>  ===;;===%%%%%####################  >>>",
">>>>>>>>>>>  ===;;===%%%%%####################  >>>",
">>>>>>>>>>>  OOO  ;;;%%@@@&&###ooooo##########oo   ",
">>>>>>>>>>>  OOO  ;;;%%@@@&&###ooooo##########oo   ",
">>>>>>>>>>>  OOO  ;;;%%@@@&&###ooooo##########oo   ",
">>>>>>>>   ==***::;;;@@&&&OO===;;;;;ooooo#####oo   ",
">>>>>>>>   ==***::;;;@@&&&OO===;;;;;ooooo#####oo   ",
">>>>>>>>   ==***::;;;OO%%%OO;;;;;@@@     oo###  >>>",
">>>>>>>>   ==***::;;;OO%%%OO;;;;;@@@     oo###  >>>",
">>>>>>>>   ==***::;;;OO%%%OO;;;;;@@@     oo###  >>>",
">>>>>>>>>>>  ===;;;;;OO%%%&&@@@@@     >>>  ooo  >>>",
">>>>>>>>>>>  ===;;;;;OO%%%&&@@@@@     >>>  ooo  >>>",
">>>>>>>>>>>>>   =======OOO%%     &&&%%>>>>>   >>>>>",
">>>>>>>>>>>>>   =======OOO%%     &&&%%>>>>>   >>>>>",
">>>>>>>>>>>>>   =======OOO%%     &&&%%>>>>>   >>>>>",
">>>>>>>>>>>       ooooo   &&   oo     >>>>>>>>>>>>>",
">>>>>>>>>>>       ooooo   &&   oo     >>>>>>>>>>>>>",
">>>>>>>>   ;;---  ooo##   --     >>>>>>>>>>>>>>>>>>",
">>>>>>>>   ;;---  ooo##   --     >>>>>>>>>>>>>>>>>>",
">>>>>>>>   ==   %%#####OOO-----     >>>>>>>>>>>>>>>",
">>>>>>>>   ==   %%#####OOO-----     >>>>>>>>>>>>>>>",
">>>>>>>>   ==   %%#####OOO-----     >>>>>>>>>>>>>>>",
">>>>>>>>>>>  $$$%%#####   -----;;     >>>>>>>>>>>>>",
">>>>>>>>>>>  $$$%%#####   -----;;     >>>>>>>>>>>>>",
">>>>>>>>>>>  $$$$$OOOOOOOO  ;;;;;;;;     >>>>>>>>>>",
">>>>>>>>>>>  $$$$$OOOOOOOO  ;;;;;;;;     >>>>>>>>>>",
">>>>>>>>>>>  $$$$$OOOOOOOO  ;;;;;;;;     >>>>>>>>>>",
">>>          ###$$$$$$$$$$##   ;;===++   >>>>>>>>>>",
">>>          ###$$$$$$$$$$##   ;;===++   >>>>>>>>>>",
"   ++++++++     ##$$$$$$$$$$###     ..   >>>>>>>>>>",
"   ++++++++     ##$$$$$$$$$$###     ..   >>>>>>>>>>",
"   ++++++++     ##$$$$$$$$$$###     ..   >>>>>>>>>>",
"   +++++.....:::                 ...  >>>>>>>>>>>>>",
"   +++++.....:::                 ...  >>>>>>>>>>>>>",
">>>     ........  XXXXXXXXXXXXX     XXXXX>>>>>>>>>>",
">>>     ........  XXXXXXXXXXXXX     XXXXX>>>>>>>>>>",
">>>     ........  XXXXXXXXXXXXX     XXXXX>>>>>>>>>>",
">>>>>>XX        XXXXXXXXXXXXXXXXXXXXXXXXX>>>>>>>>>>",
">>>>>>XX        XXXXXXXXXXXXXXXXXXXXXXXXX>>>>>>>>>>",
">>>>>>XXXXXXXXXXXXXXXXXXXXXXXXXXXXXXXXXXX>>>>>>>>>>",
">>>>>>XXXXXXXXXXXXXXXXXXXXXXXXXXXXXXXXXXX>>>>>>>>>>",
">>>>>>XXXXXXXXXXXXXXXXXXXXXXXXXXXXXXXXXXX>>>>>>>>>>",
">>>>>>>>XXXXXXXXXXXXXXXXXXXXXXXXXXXXXX>>>>>>>>>>>>>",
">>>>>>>>XXXXXXXXXXXXXXXXXXXXXXXXXXXXXX>>>>>>>>>>>>>",
">>>>>>>>>>>>>XXXXXXXXXXXXXXXXXXXX>>>>>>>>>>>>>>>>>>",
">>>>>>>>>>>>>XXXXXXXXXXXXXXXXXXXX>>>>>>>>>>>>>>>>>>",
">>>>>>>>>>>>>XXXXXXXXXXXXXXXXXXXX>>>>>>>>>>>>>>>>>>"
};
