/* XPM */
static char *result[] = {
/* columns rows colors chars-per-pixel */
"49 58 17 1 ",
"  c black",
". c #7B1029",
"X c #363243",
"o c #107B29",
"O c #734221",
"+ c #DE2929",
"@ c #A57B42",
"# c #42A529",
"$ c #10FF08",
"% c yellow",
"& c #DEAD52",
"* c #3152FF",
"= c #D6B58C",
"- c #BDFFA5",
"; c #FFE7BD",
": c white",
"> c None",
/* pixels */
">>>>>>>>>>>@@OOO##$$$$$$$$##>>>>>>>>>>>>>>>>>>>>>",
">>>>>>>>>>>@@OOO##$$$$$$$$##>>>>>>>>>>>>>>>>>>>>>",
">>>>>>>>>>>@@OOO##$$$$$$$$##>>>>>>>>>>>>>>>>>>>>>",
">>>>>>@@&&&%%%%%$$$$$$$$$$$$$$$##>>>>>>>>>>>>>>>>",
">>>>>>@@&&&%%%%%$$$$$$$$$$$$$$$##>>>>>>>>>>>>>>>>",
">>>@@@%%%%%%%&&&$$$$$$$$$$$$$$$$$###oo>>>>>>>>>>>",
">>>@@@%%%%%%%&&&$$$$$$$$$$$$$$$$$###oo>>>>>>>>>>>",
">>>@@@%%%%%%%&&&$$$$$$$$$$$$$$$$$###oo>>>>>>>>>>>",
"@@@%%%%%&&&&&%%%%%$$$$$$$$$$$$$$$$$$##ooo>>>>>>>>",
"@@@%%%%%&&&&&%%%%%$$$$$$$$$$$$$$$$$$##ooo>>>>>>>>",
"OOO%%%&&OOO@@%%%%%$$$$$$$$$$$$$$$$$$#####oo>>>>>>",
"OOO%%%&&OOO@@%%%%%$$$$$$$$$$$$$$$$$$#####oo>>>>>>",
"OOO%%%&&OOO@@%%%%%$$$$$$$$$$$$$$$$$$#####oo>>>>>>",
">>>OOO@@=====@@@%%%%%$$$$$$$$$$##########oo>>>>>>",
">>>OOO@@=====@@@%%%%%$$$$$$$$$$##########oo>>>>>>",
">>>>>>  ===;;===%%%%%######################ooo>>>",
">>>>>>  ===;;===%%%%%######################ooo>>>",
">>>>>>  ===;;===%%%%%######################ooo>>>",
">>>>>>  OOO  ;;;%%@@@OOoooooooo############ooo>>>",
">>>>>>  OOO  ;;;%%@@@OOoooooooo############ooo>>>",
">>>   ==***::;;;@@&&&OO===;;;;;oo     ooo##ooo   ",
">>>   ==***::;;;@@&&&OO===;;;;;oo     ooo##ooo   ",
">>>   ==***::;;;@@&&&OO===;;;;;oo     ooo##ooo   ",
">>>   ==***::;;;OO%%%OO;;;;;@@@  >>>>>   ooooo   ",
">>>   ==***::;;;OO%%%OO;;;;;@@@  >>>>>   ooooo   ",
">>>>>>  ===;;;;;OO%%%&&@@@@@     >>>>>>>>  ooo   ",
">>>>>>  ===;;;;;OO%%%&&@@@@@     >>>>>>>>  ooo   ",
">>>>>>  ===;;;;;OO%%%&&@@@@@     >>>>>>>>  ooo   ",
">>>>>>>>   =======OOO%%     &&&%%>>>>>>>>>>   >>>",
">>>>>>>>   =======OOO%%     &&&%%>>>>>>>>>>   >>>",
">>>>>>>>>>>  ooooo   &&   oo     >>>>>>>>>>>>>>>>",
">>>>>>>>>>>  ooooo   &&   oo     >>>>>>>>>>>>>>>>",
">>>>>>>>   ##########  #####   >>>>>>>>>>>>>>>>>>",
">>>>>>>>   ##########  #####   >>>>>>>>>>>>>>>>>>",
">>>>>>>>   ##########  #####   >>>>>>>>>>>>>>>>>>",
">>>>>>  %%%##   -----OO#####---  >>>>>>>>>>>>>>>>",
">>>>>>  %%%##   -----OO#####---  >>>>>>>>>>>>>>>>",
"        %%%##   -----OO###OO   ;;   >>>>>>>>>>>>>",
"        %%%##   -----OO###OO   ;;   >>>>>>>>>>>>>",
"        %%%##   -----OO###OO   ;;   >>>>>>>>>>>>>",
"   +++  ###  ;;;@@---  OOO$$###  >>>>>>>>>>>>>>>>",
"   +++  ###  ;;;@@---  OOO$$###  >>>>>>>>>>>>>>>>",
">>>   ..   ;;;;;;;   $$$$$$$###     >>>>>>>>>>>>>",
">>>   ..   ;;;;;;;   $$$$$$$###     >>>>>>>>>>>>>",
">>>   ..   ;;;;;;;   $$$$$$$###     >>>>>>>>>>>>>",
"XXXXXX  ...  ;;;  ooo$$$$$     ++   >>>>>>>>>>>>>",
"XXXXXX  ...  ;;;  ooo$$$$$     ++   >>>>>>>>>>>>>",
"XXXXXXXX                  .....++   >>>>>>>>>>>>>",
"XXXXXXXX                  .....++   >>>>>>>>>>>>>",
"XXXXXXXX                  .....++   >>>>>>>>>>>>>",
"XXXXXXXXXXXXXXXXXXXXX  .....+++  XXX>>>>>>>>>>>>>",
"XXXXXXXXXXXXXXXXXXXXX  .....+++  XXX>>>>>>>>>>>>>",
">>>XXXXXXXXXXXXXXXXXXXX        XX>>>>>>>>>>>>>>>>",
">>>XXXXXXXXXXXXXXXXXXXX        XX>>>>>>>>>>>>>>>>",
">>>XXXXXXXXXXXXXXXXXXXX        XX>>>>>>>>>>>>>>>>",
">>>>>>>>XXXXXXXXXXXXXXXXXXXX>>>>>>>>>>>>>>>>>>>>>",
">>>>>>>>XXXXXXXXXXXXXXXXXXXX>>>>>>>>>>>>>>>>>>>>>",
">>>>>>>>XXXXXXXXXXXXXXXXXXXX>>>>>>>>>>>>>>>>>>>>>"
};
