/* XPM */
static char *result[] = {
/* columns rows colors chars-per-pixel */
"49 62 17 1 ",
"  c black",
". c #7B1029",
"X c #363243",
"o c #107B29",
"O c #734221",
"+ c #DE2929",
"@ c #A57B42",
"# c #42A529",
"$ c #10FF08",
"% c yellow",
"& c #DEAD52",
"* c #3152FF",
"= c #D6B58C",
"- c #BDFFA5",
"; c #FFE7BD",
": c white",
"> c None",
/* pixels */
">>>>>>>>>>>>>@@@OO###$$$$$$$$$$##>>>>>>>>>>>>>>>>",
">>>>>>>>>>>>>@@@OO###$$$$$$$$$$##>>>>>>>>>>>>>>>>",
">>>>>>>>>>>@@&&&%%%%%$$$$$$$$$$$$$$$##ooo>>>>>>>>",
">>>>>>>>>>>@@&&&%%%%%$$$$$$$$$$$$$$$##ooo>>>>>>>>",
">>>>>>>>>>>@@&&&%%%%%$$$$$$$$$$$$$$$##ooo>>>>>>>>",
">>>>>>>>@@@%%%%%%%&&&&&$$$$$$$$$$$$$$$###oo>>>>>>",
">>>>>>>>@@@%%%%%%%&&&&&$$$$$$$$$$$$$$$###oo>>>>>>",
">>>>>>@@%%%%%&&&@@%%%%%$$$$$$$$$$$$$$$###oo>>>>>>",
">>>>>>@@%%%%%&&&@@%%%%%$$$$$$$$$$$$$$$###oo>>>>>>",
">>>>>>@@%%%%%&&&@@%%%%%$$$$$$$$$$$$$$$###oo>>>>>>",
">>>>>>OO%%%&&OOO@@%%%%%$$$$$$$$$$$$$$$#####ooo>>>",
">>>>>>OO%%%&&OOO@@%%%%%$$$$$$$$$$$$$$$#####ooo>>>",
">>>>>>>>OOOOO=====@@@%%%%%$$$$$$$$$$#######ooo   ",
">>>>>>>>OOOOO=====@@@%%%%%$$$$$$$$$$#######ooo   ",
">>>>>>>>OOOOO=====@@@%%%%%$$$$$$$$$$#######ooo   ",
">>>>>>>>OOO  ===;;===%%%%%#################ooo   ",
">>>>>>>>OOO  ===;;===%%%%%#################ooo   ",
">>>>>>>>>>>  OOO  ;;;%%@@@&&ooo############ooo   ",
">>>>>>>>>>>  OOO  ;;;%%@@@&&ooo############ooo   ",
">>>>>>>>>>>  OOO  ;;;%%@@@&&ooo############ooo   ",
">>>>>>>>   ==***::;;;@@&&&OO===;;;;;oo#####ooo   ",
">>>>>>>>   ==***::;;;@@&&&OO===;;;;;oo#####ooo   ",
">>>>>>>>   ==***::;;;OO%%%OO;;;;;@@@  ooo##   >>>",
">>>>>>>>   ==***::;;;OO%%%OO;;;;;@@@  ooo##   >>>",
">>>>>>>>   ==***::;;;OO%%%OO;;;;;@@@  ooo##   >>>",
">>>>>>>>>>>  ===;;;;;OO%%%&&@@@@@        ##   >>>",
">>>>>>>>>>>  ===;;;;;OO%%%&&@@@@@        ##   >>>",
">>>>>>>>>>>>>   =======OOO%%     ===%%   oo   >>>",
">>>>>>>>>>>>>   =======OOO%%     ===%%   oo   >>>",
">>>>>>>>>>>>>   =======OOO%%     ===%%   oo   >>>",
">>>>>>>>>>>>>>>>  ooooo   &&   oo          >>>>>>",
">>>>>>>>>>>>>>>>  ooooo   &&   oo          >>>>>>",
">>>     >>>>>   %%#####   #######OOO  ---  >>>>>>",
">>>     >>>>>   %%#####   #######OOO  ---  >>>>>>",
"   +++..     $$$     -----OO#####OOO##   ;;   >>>",
"   +++..     $$$     -----OO#####OOO##   ;;   >>>",
"   +++..     $$$     -----OO#####OOO##   ;;   >>>",
"   +++.....::   ;;--------  OOOOO$$$$$###     >>>",
"   +++.....::   ;;--------  OOOOO$$$$$###     >>>",
">>>   .....  ;;;;;;;;OO   ##$$$$$$$$##   ..      ",
">>>   .....  ;;;;;;;;OO   ##$$$$$$$$##   ..      ",
">>>   .....  ;;;;;;;;OO   ##$$$$$$$$##   ..      ",
">>>>>>  .....   ;;     ###$$$$$$$   ==;;;..+++   ",
">>>>>>  .....   ;;     ###$$$$$$$   ==;;;..+++   ",
">>>>>>>>     XXX  XXX            >>>     ..+++   ",
">>>>>>>>     XXX  XXX            >>>     ..+++   ",
">>>>>>>>     XXX  XXX            >>>     ..+++   ",
">>>>>>>>XXXXXXXXXXXXXXXXXXXXXXXXXXXXXX   .....   ",
">>>>>>>>XXXXXXXXXXXXXXXXXXXXXXXXXXXXXX   .....   ",
">>>>>>XXXXXXXXXXXXXXXXXXXXXXXXXXXXXXXX   .....   ",
">>>>>>XXXXXXXXXXXXXXXXXXXXXXXXXXXXXXXX   .....   ",
">>>>>>XXXXXXXXXXXXXXXXXXXXXXXXXXXXXXXX   .....   ",
">>>>>>XXXXXXXXXXXXXXXXXXXXXXXXXXXXXXXXXXX     >>>",
">>>>>>XXXXXXXXXXXXXXXXXXXXXXXXXXXXXXXXXXX     >>>",
">>>>>>XXXXXXXXXXXXXXXXXXXXXXXXXXXXXXXXXXX>>>>>>>>",
">>>>>>XXXXXXXXXXXXXXXXXXXXXXXXXXXXXXXXXXX>>>>>>>>",
">>>>>>XXXXXXXXXXXXXXXXXXXXXXXXXXXXXXXXXXX>>>>>>>>",
">>>>>>>>XXXXXXXXXXXXXXXXXXXXXXXXXXXXXX>>>>>>>>>>>",
">>>>>>>>XXXXXXXXXXXXXXXXXXXXXXXXXXXXXX>>>>>>>>>>>",
">>>>>>>>>>>>>XXXXXXXXXXXXXXXXXXXX>>>>>>>>>>>>>>>>",
">>>>>>>>>>>>>XXXXXXXXXXXXXXXXXXXX>>>>>>>>>>>>>>>>",
">>>>>>>>>>>>>XXXXXXXXXXXXXXXXXXXX>>>>>>>>>>>>>>>>"
};
