/* XPM */
static char *result[] = {
/* columns rows colors chars-per-pixel */
"51 60 17 1 ",
"  c black",
". c #7B1029",
"X c #363243",
"o c #107B29",
"O c #734221",
"+ c #DE2929",
"@ c #A57B42",
"# c #42A529",
"$ c #10FF08",
"% c yellow",
"& c #DEAD52",
"* c #3152FF",
"= c #D6B58C",
"- c #BDFFA5",
"; c #FFE7BD",
": c white",
"> c None",
/* pixels */
">>>>>>>>>>>@@@@@OO$$$$$###>>>>>>>>>>>>>>>>>>>>>>>>>",
">>>>>>>>>>>@@@@@OO$$$$$###>>>>>>>>>>>>>>>>>>>>>>>>>",
">>>>>>>>>>>@@@@@OO$$$$$###>>>>>>>>>>>>>>>>>>>>>>>>>",
">>>>>>@@&&&%%%%%%%$$$$$$$$$$$$$##>>>>>>>>>>>>>>>>>>",
">>>>>>@@&&&%%%%%%%$$$$$$$$$$$$$##>>>>>>>>>>>>>>>>>>",
">>>@@@%%%%%%%%%%%%$$$$$$$$$$$$$$$#####ooo>>>>>>>>>>",
">>>@@@%%%%%%%%%%%%$$$$$$$$$$$$$$$#####ooo>>>>>>>>>>",
">>>@@@%%%%%%%%%%%%$$$$$$$$$$$$$$$#####ooo>>>>>>>>>>",
"@@@%%%%%&&&&&%%%&&&&&$$$$$$$$$$$$$$$#####oo>>>>>>>>",
"@@@%%%%%&&&&&%%%&&&&&$$$$$$$$$$$$$$$#####oo>>>>>>>>",
">>>OOOOO&&&OO@@@%%%%%$$$$$$$$$$$$$$$#######ooo>>>>>",
">>>OOOOO&&&OO@@@%%%%%$$$$$$$$$$$$$$$#######ooo>>>>>",
">>>OOOOO&&&OO@@@%%%%%$$$$$$$$$$$$$$$#######ooo>>>>>",
">>>>>>>>   =====@@%%%%%$$$$$$$$$$#############  >>>",
">>>>>>>>   =====@@%%%%%$$$$$$$$$$#############  >>>",
">>>>>>>>   ==;;;==%%%%%#######################  >>>",
">>>>>>>>   ==;;;==%%%%%#######################  >>>",
">>>>>>>>   ==;;;==%%%%%#######################  >>>",
">>>>>>>>   OO   ;;%%%@@&&&oo########ooooo#####oo   ",
">>>>>>>>   OO   ;;%%%@@&&&oo########ooooo#####oo   ",
">>>>>>  ===**:::;;@@@&&OOO==;;;;;ooooo   oo###oo   ",
">>>>>>  ===**:::;;@@@&&OOO==;;;;;ooooo   oo###oo   ",
">>>>>>  ===**:::;;@@@&&OOO==;;;;;ooooo   oo###oo   ",
">>>>>>  ===**:::;;OOO%%OOO;;;;;@@     >>>  ###oo   ",
">>>>>>  ===**:::;;OOO%%OOO;;;;;@@     >>>  ###oo   ",
">>>>>>>>   ==;;;;;OOO%%&&&@@@@@     >>>>>  ooo  >>>",
">>>>>>>>   ==;;;;;OOO%%&&&@@@@@     >>>>>  ooo  >>>",
">>>>>>>>   ==;;;;;OOO%%&&&@@@@@     >>>>>  ooo  >>>",
">>>>>>>>>>>  ========OO%%%     &&%%%>>>>>>>   >>>>>",
">>>>>>>>>>>  ========OO%%%     &&%%%>>>>>>>   >>>>>",
">>>>>>>>>>>>>   ooooo  &&&  ooo     >>>>>>>>>>>>>>>",
">>>>>>>>>>>>>   ooooo  &&&  ooo     >>>>>>>>>>>>>>>",
">>>>>>>>>>>     ##   &&   #####OO   >>>>>>>>>>>>>>>",
">>>>>>>>>>>     ##   &&   #####OO   >>>>>>>>>>>>>>>",
">>>>>>>>>>>     ##   &&   #####OO   >>>>>>>>>>>>>>>",
">>>>>>>>   $$%%%##     OOO##OOO  ---  >>>>>>>>>>>>>",
">>>>>>>>   $$%%%##     OOO##OOO  ---  >>>>>>>>>>>>>",
">>>>>>>>   $$%%%  -----   OOOOOoo   ==   >>>>>>>>>>",
">>>>>>>>   $$%%%  -----   OOOOOoo   ==   >>>>>>>>>>",
">>>>>>>>   $$%%%  -----   OOOOOoo   ==   >>>>>>>>>>",
">>>>>>>>   ##   OO-----   $$$$$$$ooo     >>>>>>>>>>",
">>>>>>>>   ##   OO-----   $$$$$$$ooo     >>>>>>>>>>",
">>>>>>>>        ;;;;;  ###$$$$$##     >>>>>>>>>>>>>",
">>>>>>>>        ;;;;;  ###$$$$$##     >>>>>>>>>>>>>",
">>>>>>>>        ;;;;;  ###$$$$$##     >>>>>>>>>>>>>",
">>>     .....   ;;;;;  $$$$$###  +++  >>>>>>>>>>>>>",
">>>     .....   ;;;;;  $$$$$###  +++  >>>>>>>>>>>>>",
">>>   +++++..                  ..+++  >>>>>>>>>>>>>",
">>>   +++++..                  ..+++  >>>>>>>>>>>>>",
">>>   +++++..                  ..+++  >>>>>>>>>>>>>",
">>>XXX          XXXXXXXXXX  .....   XX>>>>>>>>>>>>>",
">>>XXX          XXXXXXXXXX  .....   XX>>>>>>>>>>>>>",
">>>XXXXXXXXXXXXXXXXXXXXXXX       XXXXX>>>>>>>>>>>>>",
">>>XXXXXXXXXXXXXXXXXXXXXXX       XXXXX>>>>>>>>>>>>>",
">>>XXXXXXXXXXXXXXXXXXXXXXX       XXXXX>>>>>>>>>>>>>",
">>>>>>XXXXXXXXXXXXXXXXXXXXXXXXXXXXXX>>>>>>>>>>>>>>>",
">>>>>>XXXXXXXXXXXXXXXXXXXXXXXXXXXXXX>>>>>>>>>>>>>>>",
">>>>>>>>>>>XXXXXXXXXXXXXXXXXXXX>>>>>>>>>>>>>>>>>>>>",
">>>>>>>>>>>XXXXXXXXXXXXXXXXXXXX>>>>>>>>>>>>>>>>>>>>",
">>>>>>>>>>>XXXXXXXXXXXXXXXXXXXX>>>>>>>>>>>>>>>>>>>>"
};
