/* XPM */
static char *result[] = {
/* columns rows colors chars-per-pixel */
"64 64 11 1 ",
"  c #B8B0A8",
". c #A8A098",
"X c #888078",
"o c #D8D0D8",
"O c #486068",
"+ c #180040",
"@ c #789878",
"# c #384040",
"$ c #383048",
"% c black",
"& c #B8C098",
/* pixels */
"      .X       .       .        ooooOOOO+@OOOOOO#$$++++O$%%++#+%",
"       X       .       .        ooooOOOO+@OOOOOO#$$++++O$%%%%#%+",
"       .       .       ..       ooooOOOO+@OOOOOO#$$+++$O$%%+++##",
"       .       .       ....     ooooOOOO+@OOOOO#$$$+++$#+++%$+%+",
"       .       .       .  ..    ooooOOOO+@@OOO#$$$$++++%#O$+%%%+",
"      ..       .       .    .   ooooOOOO+#@OO#+$$$$++%%+++O$+%%+",
"      XX      ..       X    .   ooooOOOO++$$$+++$++%%+$$$++O+%%%",
"XXXXXXXX      .........XXXXX....ooooOOOO++$O#$++++%+$$$$$$+#+$$$",
".     ..       ..               ooooOOOO++O###$++++$###$$$+%#OOO",
"       .       .                ooooOOOO++O###$++$###OO#$$%+$$++",
"       .       .                ooooOOOO++O##$++++O@OOO##+%+++++",
"       .       .                ooooOOOO++#$$++$##$+&OO#$%++++++",
"       .       .                ooooOOOO++#+++$#####+@##%+++++++",
"       .       .          .     ooooOOOO++$++$##O###$O#+++$$$$$$",
"       X.     ...          .    ooooOOOO+++$###OOOO##+$++$$$$$$$",
"       XXXXXXXXXXXXX............ooooOOOO++$##OOOOOO##++++$$$$###",
"                      .X       .ooooOOO++$##OOOOOO##$+++++$$#OOO",
"                       X       .ooo&OO$++$$##OOOO##$++$$+++#OOOO",
"                       .       .ooo&O$##O@@$##OOO#$++$##$+#OOOOO",
"                       .       .oo&&$##O@@@@$##O##++$####$OOOOOO",
"                       .       .o&ooooooo@@@@$###$++$###O$OOOOOO",
"                      ..       .oooooooooo@@@@$#$+$##OOO$$@@OOOO",
"                      XX      ..ooooooooooo@@@+$++++++++++#@@@@@",
"                XXXXXXXX      ..oooooooooooo@O++++++++++++++++++",
"                .     ..       .ooooooooooooO#++OOOOOOOOOOOOOOOO",
"                       .       .oooooooooooo##$OOOOOOOOOOOOOOOOO",
"                       .       .oooooooooooo#$OOOOOOOOOOOOOOOOOO",
"                       .       .oooooooooooo$OOOOOOOOOOOOOOOOOOO",
"                       .       .oooooooooooo&&&ooooooooooooooooo",
"                       .       .oooooooooooo&ooooooooooooooooooo",
"                       X.     .. oooooooooo&oooooooooooooooooooo",
"                       XXXXXXXXX  ooooooooooooooooooooooooo&  &o",
"                                       X.   .                   ",
"                                       X                        ",
"                                       .                        ",
"                                       .                        ",
"                                       .                        ",
"                                       ..                       ",
"                                      .....                     ",
"                                ................                ",
"                                ................                ",
"                                ................                ",
"                                ................                ",
"                                ................                ",
"                                ................                ",
"                                ................                ",
"                                XXXXXXXXXXXXXXXX                ",
"                                XXXXXXXXXXXXXXXX                ",
"........                                             . .        ",
"........                                              ..        ",
"........                                              ..        ",
"........                                               .        ",
"........                                               .        ",
".......X                                               .        ",
"XXXXXXXX.                                       .   . ..        ",
"XXXXXXXX........                                X...............",
"               .                                .               ",
"               .                                                ",
"               .                                                ",
"               .                                                ",
"               .                                                ",
"               .                                                ",
"               .                                                ",
"              ..                                                "
};
