/* XPM */
static char *result[] = {
/* columns rows colors chars-per-pixel */
"64 64 11 1 ",
"  c #B8B0A8",
". c #A8A098",
"X c #888078",
"o c #D8D0D8",
"O c #B8C098",
"+ c #486068",
"@ c #383048",
"# c #384040",
"$ c #180040",
"% c #789878",
"& c black",
/* pixels */
"                                                ..              ",
"                                                .               ",
"                                                .               ",
"                                                .               ",
"                                                .               ",
"                                                .               ",
"                                                .               ",
"               .                                .               ",
"...............X                                ........XXXXXXXX",
"        .. .   .                                       .XXXXXXXX",
"        .                                               X.......",
"        .                                               ........",
"        .                                               ........",
"        ..                                              ........",
"        ..                                              ........",
"        . .                                             ........",
"                XXXXXXXXXXXXXXXX                                ",
"                XXXXXXXXXXXXXXXX                                ",
"                ................                                ",
"                ................                                ",
"                ................                                ",
"                ................                                ",
"                ................                                ",
"                ................                                ",
"                ................                                ",
"                     .....                                      ",
"                       ..                                       ",
"                        .                                       ",
"                        .                                       ",
"                        .                                       ",
"                        X                                       ",
"                   .   .X                                       ",
"oO  Oooooooooooooooooooooooooo  XXXXXXXXX                       ",
"ooooooooooooooooooooOoooooooooo ..     .X                       ",
"oooooooooooooooooooOoooooooooooo.       .                       ",
"oooooooooooooooooOOOoooooooooooo.       .                       ",
"+++++++++++++++++++@oooooooooooo.       .                       ",
"++++++++++++++++++@#oooooooooooo.       .                       ",
"+++++++++++++++++@##oooooooooooo.       .                       ",
"++++++++++++++++$$#+oooooooooooo.       ..     .                ",
"$$$$$$$$$$$$$$$$$$+%oooooooooooo..      XXXXXXXX                ",
"%%%%%#$$$$$$$$$$@$%%%ooooooooooo..      XX                      ",
"++++%%@@+++##@$@#@%%%%oooooooooo.       ..                      ",
"++++++@+###@$$@###@%%%%oooooooOo.       .                       ",
"++++++@####@$$##+##@%%%%+##@OOoo.       .                       ",
"+++++#$@##@$$@#+++##@%%+##@+Oooo.       .                       ",
"++++#$$$@@$$@##++++##@@$$@++Oooo.       X                       ",
"+++#@@$$$$$@##++++++##@$$+++oooo.       X.                      ",
"###@@@@$$$$##++++++##@$$++++oooo............XXXXXXXXXXXXX       ",
"@@@@@@@$$@$##++++###@$$$++++oooo    .          ...     .X       ",
"@@@@@@$$$#+@###+##@$$@$$++++oooo     .          .       .       ",
"$$$$$$$&##%$#####@$$$#$$++++oooo                .       .       ",
"$$$$$$&@#++O$@##@$$@@#$$++++oooo                .       .       ",
"$$$$$&$##+++%+$$$$@##+$$++++oooo                .       .       ",
"$$@@$&@@#++###@$$@###+$$++++oooo                .       .       ",
"+++#&$@@@###@$$$$@###+$$++++oooo               ..       ..     .",
"@@@$#$@@@@@@$&$$$$@#+@$$++++oooo....XXXXX.........      XXXXXXXX",
"&&&$+$$@@@$&&$$@$$$@@@$$++++oooo   .    X       ..      XX      ",
"$&&$@+$$$&&$$@@@@$#++%#$++++oooo   .    .       .       ..      ",
"$&&&$@+#&$$$$@@@@#+++%%$++++oooo    ..  .       .       .       ",
"$&$@&$$$#@$$$@@@#+++++%$++++oooo     ....       .       .       ",
"##$$$&&@+@$$$@@#++++++%$++++oooo       ..       .       .       ",
"$&#&&&&@+$$$$@@#++++++%$++++oooo        .       .       X       ",
"&$#$$&&@+$$$$@@#++++++%$++++oooo        .       .       X.      "
};
