/* XPM */
static char *result[] = {
/* columns rows colors chars-per-pixel */
"64 64 11 1 ",
"  c black",
". c #180040",
"X c #384040",
"o c #383048",
"O c #486068",
"+ c #789878",
"@ c #D8D0D8",
"# c #B8B0A8",
"$ c #A8A098",
"% c #B8C098",
"& c #888078",
/* pixels */
" .X... oO....ooXOOOOOO+.OOOO@@@@#######################$########",
". X    oO....ooXOOOOOO+.OOOO@@@%#######################$########",
"XX..   oOo...ooXOOOOOO+.OOOO@@@########################$########",
". .o ...Xo...oooXOOOOO+.OOOO@@@########################$########",
". . .oOX ....ooooXOOO++.OOOO@@@%#######################$########",
"   .oO...  ..oooo.XOO+X.OOOO@@@@#######################$########",
"   .O..ooo. ..oo...ooo..OOOO@@@@#######################$########",
"ooo.X.ooooXo .....oXOo..OOOO@@@@#######################$########",
"OOOX .oooXXXX....oXXXO..OOOO@@@@################$$$$$$$$########",
"..oo. ooXOOOXXo..oXXXO..OOOO@@@@#################$$###$$########",
"..... .oXOOO+O....oXXO..OOOO@@@@################$######$########",
"...... oXXO%.oXXo..ooX..OOOO@@@@######################$$########",
"...... .oX+.XXXXXo...X..OOOO@@@@#######################$########",
"oooooo. .XOoXXOOXXo..o..OOOO@@@@#######################$########",
"oooooo...o.XXXOOOXXXo...OOOO@@@@#######################$########",
"XXXoooo....XXOOOOOOXXo..OOOO@@@@######################$&$#######",
"OOOXoo.....oXXOOOOOOXXo..OOO@@@@#######$$$$$$$&&################",
"OOOOX...oo..oXXOOOOXXo...oOO%@@@#######$$$$$$$&&################",
"OOOOOX.oXXo..oXOOOXXo++OXXoO%@@@#######$$$$$$$&&################",
"OOOOOOoXXXXo..XXOXXo++++OXXo%%@@$######$$$$$$$&&################",
"OOOOOOoOXXXo..oXXXo++++@@@@@@@%@#######$$$$$$$&&################",
"OOOO++ooOOOXXo.oXo++++@@@@@@@@@@######$$$$$$$$&&################",
"+++++X..........oo+++@@@@@@@@@@@######$$$$$$$$&&################",
"..................O+@@@@@@@@@@@@$####$$$$$$$$$&&################",
"OOOOOOOOOOOOOOOO..XO@@@@@@@@@@@@&&$$$$$$$$$$$$&&################",
"OOOOOOOOOOOOOOOOOoXX@@@@@@@@@@@@######$$$$$$$$&&################",
"OOOOOOOOOOOOOOOOOOoX@@@@@@@@@@@@#######$$$$$$$&&################",
"OOOOOOOOOOOOOOOOOOOo@@@@@@@@@@@@#######$$$$$$$&&################",
"@@@@@@@@@@@@@@@@@%%%@@@@@@@@@@@@#######$$$$$$$&&################",
"@@@@@@@@@@@@@@@@@@@%@@@@@@@@@@@@#######$$$$$$$&&################",
"@@@@@@@@@@@@@@@@@@@@%@@@@@@@@@@########$$$$$$$&&################",
"@@@@@@@@@@@@@@@@@@@@@@@@@@@@@@#########$$$$$$$&&################",
"#######$#######$$$$$$$$$$$$$$$$&################################",
"#######$#######$######$$######$&################################",
"#######$#######$###############&################################",
"#####$$$#######$###############&################################",
"####$##&######$$###############&################################",
"###$$##&#####$#$###############&################################",
"###$###&#######$###############&################################",
"##$$###&#######$##############$&################################",
"$$$$$$&&#######$&&$$$$&&$$$$$$&&################################",
"#######$#######$$####$&&$#######################################",
"#######$#######$#######&########################################",
"#######$#######$#######&########################################",
"#######$#######&#######&########################################",
"#######$#######&#######&########################################",
"#######$#######&#######&########################################",
"#######$$#####$&#######&$#######################################",
"$$$$$$$$$$$$$$$&#######################################$$$$$$$$$",
"######$$######$&#######################################$#######$",
"###############&#######################################$########",
"###############&#######################################$########",
"###############&#######################################$########",
"###############&#######################################$########",
"###############&#######################################$########",
"##############$&######################################$$########",
"&&$$$$&&$$$$$$&&################################$$$$$&&&########",
"$####$&&$#######################################$$$$$$&&########",
"#######&########################################$$$$$$&&########",
"#######&########################################$$$$$$&&########",
"#######&########################################$$$$$$&&########",
"#######&########################################$$$$$$&&########",
"#######&########################################$$$$$$&&########",
"#######&$#######################################$$$$$$&&########"
};
