/* XPM */
static char *result[] = {
/* columns rows colors chars-per-pixel */
"64 64 11 1 ",
"  c #B8B0A8",
". c #888078",
"X c #A8A098",
"o c #D8D0D8",
"O c #B8C098",
"+ c #383048",
"@ c #486068",
"# c #384040",
"$ c #180040",
"% c #789878",
"& c black",
/* pixels */
"        ..XXXXXX                                       X.       ",
"        ..XXXXXX                                        .       ",
"        ..XXXXXX                                        .       ",
"        ..XXXXXX                                        .       ",
"        ..XXXXXX                                        .       ",
"        ..XXXXXX                                        .       ",
"        ..XXXXXX                                       X..X    X",
"        ...XXXXX                                ..XXXXXX..XXXX..",
"        XX                                      .X              ",
"        X                                       .               ",
"        X                                       .               ",
"        X                                       .               ",
"        X                                       .               ",
"        X                                       .               ",
"X       X                                       .X      XX      ",
"XXXXXXXXX                                       .XXXXXXXXXXXXXXX",
"                                       X.       .X     XX       ",
"                                        .       .       X       ",
"                                        .       .       X       ",
"                                        .       .       X       ",
"                                        .       X       X       ",
"                                        .       X       X       ",
"                                       X..X    XX       X       ",
"                                ..XXXXXX..XXXX..X       ..XXXXXX",
"                                .X              X       .   XX  ",
"                                .               X       .   X   ",
"                                .               X X     .  XX   ",
"                                .               XX      .  X    ",
"                                .               X       XXX     ",
"                                .               X       X       ",
"                                .X      XX      X       X       ",
"                                .XXXXXXXXXXXXXXXX       X       ",
"                ..XXXXXXX         oooooooooooooooooooooooooooooo",
"                ..XXXXXXX        ooooooooooOoooooooooooooooooooo",
"                ..XXXXXXX       ooooooooooooOooooooooooooooooooo",
"                ..XXXXXXX       ooooooooooooOOOooooooooooooooooo",
"                ..XXXXXXX       oooooooooooo+@@@@@@@@@@@@@@@@@@@",
"                ..XXXXXXX       oooooooooooo#+@@@@@@@@@@@@@@@@@@",
"                ..XXXXXXXX      oooooooooooo##+@@@@@@@@@@@@@@@@@",
"                ..XXXXXXXXXXXX..oooooooooooo@#$$@@@@@@@@@@@@@@@@",
"                ..XXXXXXXXX    Xoooooooooooo%@$$$$$$$$$$$$$$$$$$",
"                ..XXXXXXXX      ooooooooooo%%%++$$$$$$$$$$#%%%%%",
"                ..XXXXXXXX      oooooooooo%%%%+#+$+##@@@++%%@@@@",
"                ..XXXXXXX       oOooooooo%%%%+###+$$+###@+@@@@@@",
"                ..XXXXXXX      XooOO+##@%%%%+##@##$$+####+@@@@@@",
"                ..XXXXXXX       oooO@+##@%%+##@@@#+$$+##+$#@@@@@",
"                ..XXXXXXX       oooO@@+$$$+##@@@@##+$$++$$$#@@@@",
"                ..XXXXXXX       oooo@@@$$+##@@@@@@##+$$$$$++#@@@",
"       X.X                      oooo@@@@$$+##@@@@@@##$$$$++++###",
"        X                       oooo@@@@$$$+###@@@###$+$$$++++++",
"        X                       oooo@@@@$$+$$+##@@##+@#$&$++++++",
"        X                       oooo@@@@$$#$$$+#####$%#+$&$$$$$$",
"        XX                      oooo@@@@$$#++$$+##+$O@##+&$$$$$$",
"        X      X                oooo@@@@$$@##+$$$$@%@@@#+$&$$$$$",
"        XX   XX                 oooo@@@@$$@###+$$+##@@@#++&$++$$",
"        XXXXXXXX                oooo@@@@$$@###+$$$$####+++$&#@@@",
"        X                       oooo@@@@$$+@#+$$$$$&+#++++$#$+++",
"        X                       oooo@@@@$$+++$$$++$$&$+++$$@$&&&",
"        X                       oooo@@@@$#%@@#$++++$$&&$$$@+$&&&",
"        X                       Oooo@@@@$%%@@@#++++$$$$&#@+$&$&$",
"        X                        ooo@@@@$%@@@@@#+++$$$+#$$$&+$&$",
"        X                        ooo@@@@$%@@@@@@#++$$$+@+&&&$$##",
"        X                       Oooo@@@@$%@@@@@@#++$$$$@+&&&&#&$",
"        X                       oooo@@@@$%@@@@@@#++$$$$@+&$$$#$&"
};
