/* XPM */
static char *result[] = {
/* columns rows colors chars-per-pixel */
"64 64 10 1 ",
"  c #5860A0",
". c #201028",
"X c #705078",
"o c #9078A0",
"O c #A098B8",
"+ c #6070B0",
"@ c #905028",
"# c #603060",
"$ c #C08828",
"% c #C0B0C0",
/* pixels */
"  ...........  ...XX......XXX.........XXXX......X......XXXX...  ",
"  ...........  ...XX......XXX.........XXXX......X......XXXX...  ",
"  XXXXXooooooooOooXXXXoooooooooooOOOOoXXXXooOOooXXXoooooooooXX..",
"  XXXXXooooooooOooXXXXoooooooooooOOOOoXXXXooOOooXXXoooooooooXX..",
"++++XXXooOOOOOOOOOOOOOOOOOOOOOOOOOOOOOOOOOOOOOOOOOOOOOOOOOOOoo..",
"++++XXXooOOOOOOOOOOOOOOOOOOOOOOOOOOOOOOOOOOOOOOOOOOOOOOOOOOOoo..",
"  XXXXXooOOOOOOOOOOOOOOOOOOOOOOOOOOOOOOOOOOOOOOOOOOOOOOOOOOOoo..",
"  XXXXXooOOOOOOOOOOOOOOOOOOOOOOOOOOOOOOOOOOOOOOOOOOOOOOOOOOOoo..",
"++XXXXXooOOOOOOOOOOOOOOOOOOOOOOOOOOOOOOOOOOOOOOOOOOOOOOOOOOOoo..",
"++XXXXXooOOOOOOOOOOOOOOOOOOOOOOOOOOOOOOOOOOOOOOOOOOOOOOOOOOOoo..",
"  XXXXXooOOOOOOOOOXX@@@@@@@@@@@@@@@@@@@@@@@@@@@@#####XXOOOOOoo..",
"  XXXXXooOOOOOOOOOXX@@@@@@@@@@@@@@@@@@@@@@@@@@@@#####XXOOOOOoo..",
"         ooOOOOOOOXX@@@@@@$$$$$$$$$$$$$$@@@@@@@@@@@@@##OOOOOoo..",
"         ooOOOOOOOXX@@@@@@$$$$$$$$$$$$$$@@@@@@@@@@@@@##OOOOOoo..",
"++  OOOXXXXXXooOOOXX@@@@$$$$$$$$$$$$$$$$$$$$@@@@@@@@@##OOOOOoo..",
"++  OOOXXXXXXooOOOXX@@@@$$$$$$$$$$$$$$$$$$$$@@@@@@@@@##OOOOOoo..",
"++XX%%%XX%%%%ooOOOXX@@@@@@@@@@@@@$$$$$$$$$$$$$$$$@@@@##OOOOOoo..",
"++XX%%%XX%%%%ooOOOXX@@@@@@@@@@@@@$$$$$$$$$$$$$$$$@@@@##OOOOOoo..",
"++XX%%%oo%%%%ooOOOXX@@@@@@$$$$$$$$$$$$$$$$@@@@@@@@@@@##OOOOOoo..",
"++XX%%%oo%%%%ooOOOXX@@@@@@$$$$$$$$$$$$$$$$@@@@@@@@@@@##OOOOOoo..",
"++XX%%%oo%%%%ooOOOXX@@$$$$$$$@@@@@@$$$@@@@@@@@@@@@@@@##OOOOOoo..",
"++XX%%%oo%%%%ooOOOXX@@$$$$$$$@@@@@@$$$@@@@@@@@@@@@@@@##OOOOOoo..",
"++++%%%oo%%%%ooOOOXX@@$$$$$$$$$$$$$$$$$$$$$$$$$$@@@@@##OOOOOoo..",
"++++%%%oo%%%%ooOOOXX@@$$$$$$$$$$$$$$$$$$$$$$$$$$@@@@@##OOOOOoo..",
"++XX%%%oo%%%%ooOOOXX@@@@@@@@@$$$$$$@@@@@@@$$$$@@@@@@@##OOOOOoo..",
"++XX%%%oo%%%%ooOOOXX@@@@@@@@@$$$$$$@@@@@@@$$$$@@@@@@@##OOOOOoo..",
"++++%%%oo%%%%ooOOOXX@@@@@@$$$$$$$$$$$$$$$$$$$$$$$@@@@##OOOOOoo..",
"++++%%%oo%%%%ooOOOXX@@@@@@$$$$$$$$$$$$$$$$$$$$$$$@@@@##OOOOOoo..",
"++XX%%%oo%%%%ooOOOXX@@$$$$$$$$$$$$$$$$@@@@@@@@$$@@@@@##OOOOOoo..",
"++XX%%%oo%%%%ooOOOXX@@$$$$$$$$$$$$$$$$@@@@@@@@$$@@@@@##OOOOOoo..",
"++XX%%%oo%%%%ooOOOXX@@@@@@@$$$$$$$$$$$$$$$$$$$$$$$$@@##OOOOOoo..",
"++XX%%%oo%%%%ooOOOXX@@@@@@@$$$$$$$$$$$$$$$$$$$$$$$$@@##OOOOOoo..",
"++XX%%%oo%%%%ooOOOXX@@@@@@@$$$$$$$$$$$$$$$$$$$$$$$$@@##OOOOOoo..",
"++XX%%%oo%%%%ooOOOXX@@@@@@@$$$$$$$$$$$$$$$$$$$$$$$$@@##OOOOOoo..",
"++XX%%%oo%%%%ooOOOXX@@$$$$$$$$$$$$$$$$@@@@@@@@$$@@@@@##OOOOOoo..",
"++XX%%%oo%%%%ooOOOXX@@$$$$$$$$$$$$$$$$@@@@@@@@$$@@@@@##OOOOOoo..",
"++++%%%oo%%%%ooOOOXX@@@@@@$$$$$$$$$$$$$$$$$$$$$$$@@@@##OOOOOoo..",
"++++%%%oo%%%%ooOOOXX@@@@@@$$$$$$$$$$$$$$$$$$$$$$$@@@@##OOOOOoo..",
"++XX%%%oo%%%%ooOOOXX@@@@@@@@@$$$$$$@@@@@@@$$$$@@@@@@@##OOOOOoo..",
"++XX%%%oo%%%%ooOOOXX@@@@@@@@@$$$$$$@@@@@@@$$$$@@@@@@@##OOOOOoo..",
"++++%%%oo%%%%ooOOOXX@@$$$$$$$$$$$$$$$$$$$$$$$$$$@@@@@##OOOOOoo..",
"++++%%%oo%%%%ooOOOXX@@$$$$$$$$$$$$$$$$$$$$$$$$$$@@@@@##OOOOOoo..",
"++XX%%%oo%%%%ooOOOXX@@$$$$$$$@@@@@@$$$@@@@@@@@@@@@@@@##OOOOOoo..",
"++XX%%%oo%%%%ooOOOXX@@$$$$$$$@@@@@@$$$@@@@@@@@@@@@@@@##OOOOOoo..",
"++XX%%%oo%%%%ooOOOXX@@@@@@$$$$$$$$$$$$$$$$@@@@@@@@@@@##OOOOOoo..",
"++XX%%%oo%%%%ooOOOXX@@@@@@$$$$$$$$$$$$$$$$@@@@@@@@@@@##OOOOOoo..",
"++XX%%%XX%%%%ooOOOXX@@@@@@@@@@@@@$$$$$$$$$$$$$$$$@@@@##OOOOOoo..",
"++XX%%%XX%%%%ooOOOXX@@@@@@@@@@@@@$$$$$$$$$$$$$$$$@@@@##OOOOOoo..",
"++  OOOXXXXXXooOOOXX@@@@$$$$$$$$$$$$$$$$$$$$@@@@@@@@@##OOOOOoo..",
"++  OOOXXXXXXooOOOXX@@@@$$$$$$$$$$$$$$$$$$$$@@@@@@@@@##OOOOOoo..",
"         ooOOOOOOOXX@@@@@@$$$$$$$$$$$$$$@@@@@@@@@@@@@##OOOOOoo..",
"         ooOOOOOOOXX@@@@@@$$$$$$$$$$$$$$@@@@@@@@@@@@@##OOOOOoo..",
"  XXXXXOOOOOOOOOOOXX@@@@@@@@@@@@@@@@@@@@@@@@@@@@#####XXOOOOOoo..",
"  XXXXXOOOOOOOOOOOXX@@@@@@@@@@@@@@@@@@@@@@@@@@@@#####XXOOOOOoo..",
"++++XXXooOOOOOOOOOOOOOOOOOOOOOOOOOOOOOOOOOOOOOOOOOOOOOOOOOOOoo..",
"++++XXXooOOOOOOOOOOOOOOOOOOOOOOOOOOOOOOOOOOOOOOOOOOOOOOOOOOOoo..",
"  XXXXXooOOOOOOOOOOOOOOOOOOOOOOOOOOOOOOOOOOOOOOOOOOOOOOOOOOOoo..",
"  XXXXXooOOOOOOOOOOOOOOOOOOOOOOOOOOOOOOOOOOOOOOOOOOOOOOOOOOOoo..",
"++XXXXXOOOOOOOOOOOOOOOOOOOOOOOOOOOOOOOOOOOOOOOOOOOOOOOOOOOOOoo..",
"++XXXXXOOOOOOOOOOOOOOOOOOOOOOOOOOOOOOOOOOOOOOOOOOOOOOOOOOOOOoo..",
"  XXXXXooooooooOooXXXXoooooooooooOOOOoXXXXooOOooXXXoooooooooXX..",
"  XXXXXooooooooOooXXXXoooooooooooOOOOoXXXXooOOooXXXoooooooooXX..",
"  ................XX......XXX.........XXXX......X......XXXX...  ",
"  ................XX......XXX.........XXXX......X......XXXX...  "
};
