/* XPM */
static char *result[] = {
/* columns rows colors chars-per-pixel */
"64 64 10 1 ",
"  c #5860A0",
". c #6070B0",
"X c #201028",
"o c #705078",
"O c #A098B8",
"+ c #C0B0C0",
"@ c #9078A0",
"# c #905028",
"$ c #C08828",
"% c #603060",
/* pixels */
"    ..  ..    ....................................    ..  ..    ",
"    ..  ..    ....................................    ..  ..    ",
"XXoooooo..oo    oooooo..oo..oooooooo..oo..oooooo    oooooo..ooXX",
"XXoooooo..oo    oooooo..oo..oooooooo..oo..oooooo    oooooo..ooXX",
"XXoooooooooo  OO++++++++++++++++++++++++++++++++OO  ooooooooooXX",
"XXoooooooooo  OO++++++++++++++++++++++++++++++++OO  ooooooooooXX",
"XXoooooooooo  OO++++++++++++++++++++++++++++++++OO  ooooooooooXX",
"XX@@OO@@@@OO  oooo@@@@@@@@@@@@@@@@@@@@@@@@@@@@oooo  @@@@@@@@@@XX",
"XX@@OO@@@@OO  oooo@@@@@@@@@@@@@@@@@@@@@@@@@@@@oooo  @@@@@@@@@@XX",
"XX@@OOOOOOOO@@oo++++++++++++++++++++++++++++++++oo@@OOOOOOOO@@XX",
"XX@@OOOOOOOO@@oo++++++++++++++++++++++++++++++++oo@@OOOOOOOO@@XX",
"XX@@OOOOOOOOOOoo++++++++++++++++++++++++++++++++ooOOOOOOOOOO@@XX",
"XX@@OOOOOOOOOOoo++++++++++++++++++++++++++++++++ooOOOOOOOOOO@@XX",
"XX@@OOOOOOOOOO@@@@@@@@@@@@@@@@@@@@@@@@@@@@@@@@@@@@OOOOOOOOOO@@  ",
"XX@@OOOOOOOOOO@@@@@@@@@@@@@@@@@@@@@@@@@@@@@@@@@@@@OOOOOOOOOO@@  ",
"XXOOOOOOOOOOOOOOOOOOOOOOOOOOOOOOOOOOOOOOOOOOOOOOOOOOOOOOOOOOOOXX",
"XX@@OOOOOOOOOOOOOOOOOOOOOOOOOOOOOOOOOOOOOOOOOOOOOOOOOOOOOOOO@@XX",
"XX@@OOOOOOOOOOOOOOOOOOOOOOOOOOOOOOOOOOOOOOOOOOOOOOOOOOOOOOOO@@XX",
"ooooOOOOOOooooooooooooooooooooooooooooooooooooooooooooOOOOOOoooo",
"ooooOOOOOOooooooooooooooooooooooooooooooooooooooooooooOOOOOOoooo",
"XXooOOOOOO############################################OOOOOOooXX",
"XXooOOOOOO############################################OOOOOOooXX",
"XX@@OOOOOO##########$$$$####$$####$$####$$$$##########OOOOOO@@XX",
"XX@@OOOOOO##########$$$$####$$####$$####$$$$##########OOOOOO@@XX",
"XX@@OOOOOO####$$####$$$$####$$####$$####$$$$####$$####OOOOOO@@XX",
"XX@@OOOOOO####$$####$$$$####$$####$$####$$$$####$$####OOOOOO@@XX",
"oo@@OOOOOO##$$$$##$$$$$$##$$$$####$$$$##$$$$$$##$$$$##OOOOOO@@oo",
"oo@@OOOOOO##$$$$##$$$$$$##$$$$$$$$$$$$##$$$$$$##$$$$##OOOOOO@@oo",
"oo@@OOOOOO##$$$$##$$$$$$##$$$$$$$$$$$$##$$$$$$##$$$$##OOOOOO@@oo",
"XX@@OOOOOO##$$$$##$$##$$$$$$$$$$$$$$$$$$$$##$$##$$$$##OOOOOO@@XX",
"XX@@OOOOOO##$$$$##$$##$$$$$$$$$$$$$$$$$$$$##$$##$$$$##OOOOOO@@XX",
"XX@@OOOOOO##$$$$##$$##$$$$$$$$$$$$$$$$$$$$##$$##$$$$##OOOOOO@@XX",
"XX@@OOOOOO##$$$$##$$##$$$$$$$$$$$$$$$$$$$$##$$##$$$$##OOOOOO@@XX",
"XXOOOOOOOO##$$$$$$$$##$$$$$$$$$$$$$$$$$$$$##$$$$$$$$##OOOOOOOOXX",
"XXOOOOOOOO##$$$$$$$$##$$$$$$$$$$$$$$$$$$$$##$$$$$$$$##OOOOOOOOXX",
"XXOOOOOOOO##$$$$$$$$$$$$##$$$$$$$$$$$$##$$$$$$$$$$$$##OOOOOOOOXX",
"XXOOOOOOOO##$$$$$$$$$$$$##$$$$$$$$$$$$##$$$$$$$$$$$$##OOOOOOOOXX",
"XX@@OOOOOO##$$$$$$$$$$$$##$$$$$$$$$$$$##$$$$$$$$$$$$##OOOOOO@@XX",
"ooooOOOOOO##$$$$$$$$##$$##$$##$$$$##$$##$$##$$$$$$$$##OOOOOOoooo",
"ooooOOOOOO##$$$$$$$$##$$##$$##$$$$##$$##$$##$$$$$$$$##OOOOOOoooo",
"ooooOOOOOO####$$$$$$##$$##$$##$$$$##$$##$$##$$$$$$####OOOOOOoooo",
"ooooOOOOOO####$$$$$$##$$##$$##$$$$##$$##$$##$$$$$$####OOOOOOoooo",
"XX@@OOOOOO####$$$$####$$$$$$##$$$$##$$$$$$####$$$$####OOOOOO@@XX",
"XX@@OOOOOO####$$$$####$$$$$$##$$$$##$$$$$$####$$$$####OOOOOO@@XX",
"XXOOOOOOOO######$$####$$$$$$##$$$$##$$$$$$####$$######OOOOOOOOXX",
"XXOOOOOOOO######$$####$$$$$$##$$$$##$$$$$$####$$######OOOOOOOOXX",
"XX@@OOOOOO######$$####$$##$$$$$$$$$$$$##$$####$$######OOOOOO@@XX",
"XX@@OOOOOO######$$####$$##$$$$$$$$$$$$##$$####$$######OOOOOO@@XX",
"ooooOOOOOO%%####$$########$$##$$$$##$$########$$####%%OOOOOOoooo",
"XXooOOOOOO%%##################$$$$##################%%OOOOOOooXX",
"XXooOOOOOO%%##################$$$$##################%%OOOOOOooXX",
"XX@@OOOOOO%%########################################%%OOOOOO@@XX",
"XX@@OOOOOO%%########################################%%OOOOOO@@XX",
"XX@@OOOOOOoo%%%%%%%%%%%%%%%%%%%%%%%%%%%%%%%%%%%%%%%%ooOOOOOO@@XX",
"XX@@OOOOOOoo%%%%%%%%%%%%%%%%%%%%%%%%%%%%%%%%%%%%%%%%ooOOOOOO@@XX",
"oo@@OOOOOOOOOOOOOOOOOOOOOOOOOOOOOOOOOOOOOOOOOOOOOOOOOOOOOOOO@@oo",
"oo@@OOOOOOOOOOOOOOOOOOOOOOOOOOOOOOOOOOOOOOOOOOOOOOOOOOOOOOOO@@oo",
"oo@@OOOOOOOOOOOOOOOOOOOOOOOOOOOOOOOOOOOOOOOOOOOOOOOOOOOOOOOO@@oo",
"oo@@OOOOOOOOOOOOOOOOOOOOOOOOOOOOOOOOOOOOOOOOOOOOOOOOOOOOOOOO@@oo",
"XX@@OOOOOOOOOOOOOOOOOOOOOOOOOOOOOOOOOOOOOOOOOOOOOOOOOOOOOOOO@@XX",
"XXoo@@@@@@@@@@@@@@@@@@@@@@@@@@@@@@@@@@@@@@@@@@@@@@@@@@@@@@@@ooXX",
"XXoo@@@@@@@@@@@@@@@@@@@@@@@@@@@@@@@@@@@@@@@@@@@@@@@@@@@@@@@@ooXX",
"  XXXXXXXXXXXXXXXXXXXXXXXXXXXXXXXXXXXXXXXXXXXXXXXXXXXXXXXXXXXX  ",
"  XXXXXXXXXXXXXXXXXXXXXXXXXXXXXXXXXXXXXXXXXXXXXXXXXXXXXXXXXXXX  "
};
