/* XPM */
static char *result[] = {
/* columns rows colors chars-per-pixel */
"64 64 10 1 ",
"  c #5860A0",
". c #201028",
"X c #705078",
"o c #9078A0",
"O c #A098B8",
"+ c #6070B0",
"@ c #603060",
"# c #905028",
"$ c #C08828",
"% c #C0B0C0",
/* pixels */
"  ...XXXX......X......XXXX.........XXX......XX................  ",
"  ...XXXX......X......XXXX.........XXX......XX................  ",
"..XXoooooooooXXXooOOooXXXXoOOOOoooooooooooXXXXooOooooooooXXXXX  ",
"..XXoooooooooXXXooOOooXXXXoOOOOoooooooooooXXXXooOooooooooXXXXX  ",
"..ooOOOOOOOOOOOOOOOOOOOOOOOOOOOOOOOOOOOOOOOOOOOOOOOOOOOOOXXXXX++",
"..ooOOOOOOOOOOOOOOOOOOOOOOOOOOOOOOOOOOOOOOOOOOOOOOOOOOOOOXXXXX++",
"..ooOOOOOOOOOOOOOOOOOOOOOOOOOOOOOOOOOOOOOOOOOOOOOOOOOOOooXXXXX  ",
"..ooOOOOOOOOOOOOOOOOOOOOOOOOOOOOOOOOOOOOOOOOOOOOOOOOOOOooXXXXX  ",
"..ooOOOOOOOOOOOOOOOOOOOOOOOOOOOOOOOOOOOOOOOOOOOOOOOOOOOooXXX++++",
"..ooOOOOOOOOOOOOOOOOOOOOOOOOOOOOOOOOOOOOOOOOOOOOOOOOOOOooXXX++++",
"..ooOOOOOXX@@@@@############################XXOOOOOOOOOOOXXXXX  ",
"..ooOOOOOXX@@@@@############################XXOOOOOOOOOOOXXXXX  ",
"..ooOOOOO@@#############$$$$$$$$$$$$$$######XXOOOOOOOoo         ",
"..ooOOOOO@@#############$$$$$$$$$$$$$$######XXOOOOOOOoo         ",
"..ooOOOOO@@#########$$$$$$$$$$$$$$$$$$$$####XXOOOooXXXXXXOOO  ++",
"..ooOOOOO@@#########$$$$$$$$$$$$$$$$$$$$####XXOOOooXXXXXXOOO  ++",
"..ooOOOOO@@####$$$$$$$$$$$$$$$$#############XXOOOoo%%%%XX%%%XX++",
"..ooOOOOO@@####$$$$$$$$$$$$$$$$#############XXOOOoo%%%%XX%%%XX++",
"..ooOOOOO@@###########$$$$$$$$$$$$$$$$######XXOOOoo%%%%oo%%%XX++",
"..ooOOOOO@@###########$$$$$$$$$$$$$$$$######XXOOOoo%%%%oo%%%XX++",
"..ooOOOOO@@###############$$$######$$$$$$$##XXOOOoo%%%%oo%%%XX++",
"..ooOOOOO@@###############$$$######$$$$$$$##XXOOOoo%%%%oo%%%XX++",
"..ooOOOOO@@#####$$$$$$$$$$$$$$$$$$$$$$$$$$##XXOOOoo%%%%oo%%%++++",
"..ooOOOOO@@#####$$$$$$$$$$$$$$$$$$$$$$$$$$##XXOOOoo%%%%oo%%%++++",
"..ooOOOOO@@#######$$$$#######$$$$$$#########XXOOOoo%%%%oo%%%XX++",
"..ooOOOOO@@#######$$$$#######$$$$$$#########XXOOOoo%%%%oo%%%XX++",
"..ooOOOOO@@####$$$$$$$$$$$$$$$$$$$$$$$######XXOOOoo%%%%oo%%%++++",
"..ooOOOOO@@####$$$$$$$$$$$$$$$$$$$$$$$######XXOOOoo%%%%oo%%%++++",
"..ooOOOOO@@#####$$########$$$$$$$$$$$$$$$$##XXOOOoo%%%%oo%%%XX++",
"..ooOOOOO@@#####$$########$$$$$$$$$$$$$$$$##XXOOOoo%%%%oo%%%XX++",
"..ooOOOOO@@##$$$$$$$$$$$$$$$$$$$$$$$$#######XXOOOoo%%%%oo%%%XX++",
"..ooOOOOO@@##$$$$$$$$$$$$$$$$$$$$$$$$#######XXOOOoo%%%%oo%%%XX++",
"..ooOOOOO@@##$$$$$$$$$$$$$$$$$$$$$$$$#######XXOOOoo%%%%oo%%%XX++",
"..ooOOOOO@@##$$$$$$$$$$$$$$$$$$$$$$$$#######XXOOOoo%%%%oo%%%XX++",
"..ooOOOOO@@#####$$########$$$$$$$$$$$$$$$$##XXOOOoo%%%%oo%%%XX++",
"..ooOOOOO@@#####$$########$$$$$$$$$$$$$$$$##XXOOOoo%%%%oo%%%XX++",
"..ooOOOOO@@####$$$$$$$$$$$$$$$$$$$$$$$######XXOOOoo%%%%oo%%%++++",
"..ooOOOOO@@####$$$$$$$$$$$$$$$$$$$$$$$######XXOOOoo%%%%oo%%%++++",
"..ooOOOOO@@#######$$$$#######$$$$$$#########XXOOOoo%%%%oo%%%XX++",
"..ooOOOOO@@#######$$$$#######$$$$$$#########XXOOOoo%%%%oo%%%XX++",
"..ooOOOOO@@#####$$$$$$$$$$$$$$$$$$$$$$$$$$##XXOOOoo%%%%oo%%%++++",
"..ooOOOOO@@#####$$$$$$$$$$$$$$$$$$$$$$$$$$##XXOOOoo%%%%oo%%%++++",
"..ooOOOOO@@###############$$$######$$$$$$$##XXOOOoo%%%%oo%%%XX++",
"..ooOOOOO@@###############$$$######$$$$$$$##XXOOOoo%%%%oo%%%XX++",
"..ooOOOOO@@###########$$$$$$$$$$$$$$$$######XXOOOoo%%%%oo%%%XX++",
"..ooOOOOO@@###########$$$$$$$$$$$$$$$$######XXOOOoo%%%%oo%%%XX++",
"..ooOOOOO@@####$$$$$$$$$$$$$$$$#############XXOOOoo%%%%XX%%%XX++",
"..ooOOOOO@@####$$$$$$$$$$$$$$$$#############XXOOOoo%%%%XX%%%XX++",
"..ooOOOOO@@#########$$$$$$$$$$$$$$$$$$$$####XXOOOooXXXXXXOOO  ++",
"..ooOOOOO@@#########$$$$$$$$$$$$$$$$$$$$####XXOOOooXXXXXXOOO  ++",
"..ooOOOOO@@#############$$$$$$$$$$$$$$######XXOOOOOOOoo         ",
"..ooOOOOO@@#############$$$$$$$$$$$$$$######XXOOOOOOOoo         ",
"..ooOOOOOXX@@@@@############################XXOOOOOOOOOooXXXXX  ",
"..ooOOOOOXX@@@@@############################XXOOOOOOOOOooXXXXX  ",
"..ooOOOOOOOOOOOOOOOOOOOOOOOOOOOOOOOOOOOOOOOOOOOOOOOOOOOooXXXXX++",
"..ooOOOOOOOOOOOOOOOOOOOOOOOOOOOOOOOOOOOOOOOOOOOOOOOOOOOooXXXXX++",
"..ooOOOOOOOOOOOOOOOOOOOOOOOOOOOOOOOOOOOOOOOOOOOOOOOOOOOooXXXXX  ",
"..ooOOOOOOOOOOOOOOOOOOOOOOOOOOOOOOOOOOOOOOOOOOOOOOOOOOOooXXXXX  ",
"..ooOOOOOOOOOOOOOOOOOOOOOOOOOOOOOOOOOOOOOOOOOOOOOOOOOOOooXXX++++",
"..ooOOOOOOOOOOOOOOOOOOOOOOOOOOOOOOOOOOOOOOOOOOOOOOOOOOOooXXX++++",
"..XXoooooooooXXXooOOooXXXXoOOOOoooooooooooXXXXooOooooooooXXXXX  ",
"..XXoooooooooXXXooOOooXXXXoOOOOoooooooooooXXXXooOooooooooXXXXX  ",
"  ...XXXX......X......XXXX.........XXX......XX...  ...........  ",
"  ...XXXX......X......XXXX.........XXX......XX...  ...........  "
};
