/* XPM */
static char *result[] = {
/* columns rows colors chars-per-pixel */
"64 64 10 1 ",
"  c #5860A0",
". c #201028",
"X c #705078",
"o c #9078A0",
"O c #A098B8",
"+ c #603060",
"@ c #905028",
"# c #C08828",
"$ c #C0B0C0",
"% c #6070B0",
/* pixels */
"  ............................................................  ",
"  ............................................................  ",
"..XXooooooooooooooooooooooooooooooooooooooooooooooooooooooooXX..",
"..XXooooooooooooooooooooooooooooooooooooooooooooooooooooooooXX..",
"..ooOOOOOOOOOOOOOOOOOOOOOOOOOOOOOOOOOOOOOOOOOOOOOOOOOOOOOOOOoo..",
"XXooOOOOOOOOOOOOOOOOOOOOOOOOOOOOOOOOOOOOOOOOOOOOOOOOOOOOOOOOooXX",
"XXooOOOOOOOOOOOOOOOOOOOOOOOOOOOOOOOOOOOOOOOOOOOOOOOOOOOOOOOOooXX",
"XXooOOOOOOOOOOOOOOOOOOOOOOOOOOOOOOOOOOOOOOOOOOOOOOOOOOOOOOOOooXX",
"XXooOOOOOOOOOOOOOOOOOOOOOOOOOOOOOOOOOOOOOOOOOOOOOOOOOOOOOOOOooXX",
"..ooOOOOOOXX++++++++++++++++++++++++++++++++++++++++XXOOOOOOoo..",
"..ooOOOOOOXX++++++++++++++++++++++++++++++++++++++++XXOOOOOOoo..",
"..ooOOOOOO++@@@@@@@@@@@@@@@@@@@@@@@@@@@@@@@@@@@@@@@@++OOOOOOoo..",
"..ooOOOOOO++@@@@@@@@@@@@@@@@@@@@@@@@@@@@@@@@@@@@@@@@++OOOOOOoo..",
"..XXOOOOOO++@@@@@@@@@@@@@@@@@@####@@@@@@@@@@@@@@@@@@++OOOOOOXX..",
"..XXOOOOOO++@@@@@@@@@@@@@@@@@@####@@@@@@@@@@@@@@@@@@++OOOOOOXX..",
"XXXXOOOOOO++@@@@##@@@@@@@@##@@####@@##@@@@@@@@##@@@@++OOOOOOXXXX",
"..ooOOOOOO@@@@@@##@@@@##@@############@@##@@@@##@@@@@@OOOOOOoo..",
"..ooOOOOOO@@@@@@##@@@@##@@############@@##@@@@##@@@@@@OOOOOOoo..",
"..OOOOOOOO@@@@@@##@@@@######@@####@@######@@@@##@@@@@@OOOOOOOO..",
"..OOOOOOOO@@@@@@##@@@@######@@####@@######@@@@##@@@@@@OOOOOOOO..",
"..ooOOOOOO@@@@####@@@@######@@####@@######@@@@####@@@@OOOOOOoo..",
"..ooOOOOOO@@@@####@@@@######@@####@@######@@@@####@@@@OOOOOOoo..",
"XXXXOOOOOO@@@@######@@##@@##@@####@@##@@##@@######@@@@OOOOOOXXXX",
"XXXXOOOOOO@@@@######@@##@@##@@####@@##@@##@@######@@@@OOOOOOXXXX",
"XXXXOOOOOO@@########@@##@@##@@####@@##@@##@@########@@OOOOOOXXXX",
"XXXXOOOOOO@@########@@##@@##@@####@@##@@##@@########@@OOOOOOXXXX",
"..ooOOOOOO@@############@@############@@############@@OOOOOOoo..",
"..OOOOOOOO@@############@@############@@############@@OOOOOOOO..",
"..OOOOOOOO@@############@@############@@############@@OOOOOOOO..",
"..OOOOOOOO@@########@@####################@@########@@OOOOOOOO..",
"..OOOOOOOO@@########@@####################@@########@@OOOOOOOO..",
"..ooOOOOOO@@####@@##@@####################@@##@@####@@OOOOOOoo..",
"..ooOOOOOO@@####@@##@@####################@@##@@####@@OOOOOOoo..",
"..ooOOOOOO@@####@@##@@####################@@##@@####@@OOOOOOoo..",
"..ooOOOOOO@@####@@##@@####################@@##@@####@@OOOOOOoo..",
"XXooOOOOOO@@####@@######@@############@@######@@####@@OOOOOOooXX",
"XXooOOOOOO@@####@@######@@############@@######@@####@@OOOOOOooXX",
"XXooOOOOOO@@####@@######@@####@@@@####@@######@@####@@OOOOOOooXX",
"..ooOOOOOO@@@@##@@@@####@@@@##@@@@##@@@@####@@@@##@@@@OOOOOOoo..",
"..ooOOOOOO@@@@##@@@@####@@@@##@@@@##@@@@####@@@@##@@@@OOOOOOoo..",
"..ooOOOOOO@@@@@@@@@@####@@@@##@@@@##@@@@####@@@@@@@@@@OOOOOOoo..",
"..ooOOOOOO@@@@@@@@@@####@@@@##@@@@##@@@@####@@@@@@@@@@OOOOOOoo..",
"..XXOOOOOO@@@@@@@@@@@@@@@@@@@@@@@@@@@@@@@@@@@@@@@@@@@@OOOOOOXX..",
"..XXOOOOOO@@@@@@@@@@@@@@@@@@@@@@@@@@@@@@@@@@@@@@@@@@@@OOOOOOXX..",
"XXXXOOOOOOXXXXXXXXXXXXXXXXXXXXXXXXXXXXXXXXXXXXXXXXXXXXOOOOOOXXXX",
"XXXXOOOOOOXXXXXXXXXXXXXXXXXXXXXXXXXXXXXXXXXXXXXXXXXXXXOOOOOOXXXX",
"..ooOOOOOOOOOOOOOOOOOOOOOOOOOOOOOOOOOOOOOOOOOOOOOOOOOOOOOOOOoo..",
"..ooOOOOOOOOOOOOOOOOOOOOOOOOOOOOOOOOOOOOOOOOOOOOOOOOOOOOOOOOoo..",
"..OOOOOOOOOOOOOOOOOOOOOOOOOOOOOOOOOOOOOOOOOOOOOOOOOOOOOOOOOOOO..",
"  ooOOOOOOOOOOooooooooooooooooooooooooooooooooooooOOOOOOOOOOoo..",
"  ooOOOOOOOOOOooooooooooooooooooooooooooooooooooooOOOOOOOOOOoo..",
"..ooOOOOOOOOOOXX$$$$$$$$$$$$$$$$$$$$$$$$$$$$$$$$XXOOOOOOOOOOoo..",
"..ooOOOOOOOOOOXX$$$$$$$$$$$$$$$$$$$$$$$$$$$$$$$$XXOOOOOOOOOOoo..",
"..ooOOOOOOOOooXX$$$$$$$$$$$$$$$$$$$$$$$$$$$$$$$$XXooOOOOOOOOoo..",
"..ooOOOOOOOOooXX$$$$$$$$$$$$$$$$$$$$$$$$$$$$$$$$XXooOOOOOOOOoo..",
"..oooooooooo  XXXXooooooooooooooooooooooooooooXXXX  OOooooOOoo..",
"..oooooooooo  XXXXooooooooooooooooooooooooooooXXXX  OOooooOOoo..",
"..XXXXXXXXXX  OO$$$$$$$$$$$$$$$$$$$$$$$$$$$$$$$$OO  XXXXXXXXXX..",
"..XXXXXXXXXX  OO$$$$$$$$$$$$$$$$$$$$$$$$$$$$$$$$OO  XXXXXXXXXX..",
"..XXXXXXXXXX  OO$$$$$$$$$$$$$$$$$$$$$$$$$$$$$$$$OO  XXXXXXXXXX..",
"..XX%%XXXXXX    XXXXXX%%XX%%XXXXXXXX%%XX%%XXXXXX    XX%%XXXXXX..",
"..XX%%XXXXXX    XXXXXX%%XX%%XXXXXXXX%%XX%%XXXXXX    XX%%XXXXXX..",
"    %%  %%    %%%%%%%%%%%%%%%%%%%%%%%%%%%%%%%%%%%%    %%  %%    ",
"    %%  %%    %%%%%%%%%%%%%%%%%%%%%%%%%%%%%%%%%%%%    %%  %%    "
};
