/* XPM */
static char *result[] = {
/* columns rows colors chars-per-pixel */
"64 64 13 1 ",
"  c #706060",
". c black",
"X c #C0B0B0",
"o c #F8F8F8",
"O c #D04020",
"+ c #F8E038",
"@ c #F8B828",
"# c #F85010",
"$ c #F88810",
"% c #A02818",
"& c #F8F860",
"* c #988888",
"= c #701810",
/* pixels */
"    ........................................................    ",
"    ........................................................    ",
"    ........................................................    ",
"    ........................................................    ",
"....XXXXooooooooXXXXooooooooooooOOOOooooooooXXXXooooooooXXXX....",
"....XXXXooooooooXXXXooooooooooooOOOOooooooooXXXXooooooooXXXX....",
"....XXXXooooooooXXXXooooooooooooOOOOooooooooXXXXooooooooXXXX....",
"....XXXXooooooooXXXXooooooooooooOOOOooooooooXXXXooooooooXXXX....",
"....oooo++++++++@@@@++++++++####$$$$OOOO++++@@@@++++++++oooo....",
"....oooo++++++++@@@@++++++++####$$$$OOOO++++@@@@++++++++oooo....",
"....oooo++++++++@@@@++++++++####$$$$OOOO++++@@@@++++++++oooo....",
"....oooo++++++++@@@@++++++++####$$$$OOOO++++@@@@++++++++oooo....",
"....oooo++++$$$$$$$$@@@@OOOO####$$$$OOOO@@@@$$$$@@@@++++oooo....",
"....oooo++++$$$$$$$$@@@@OOOO####$$$$OOOO@@@@$$$$@@@@++++oooo....",
"....oooo++++$$$$$$$$@@@@OOOO####$$$$OOOO@@@@$$$$@@@@++++oooo....",
"....oooo++++$$$$$$$$@@@@OOOO####$$$$OOOO@@@@$$$$@@@@++++oooo....",
"....oooo++++####$$$$OOOOOOOO@@@@$$$$####OOOO$$$$$$$$++++oooo....",
"....oooo++++####$$$$OOOOOOOO@@@@$$$$####OOOO$$$$$$$$++++oooo....",
"....oooo++++####$$$$OOOOOOOO@@@@$$$$####OOOO$$$$$$$$++++oooo....",
"....oooo++++####$$$$OOOOOOOO@@@@$$$$####OOOO$$$$$$$$++++oooo....",
"....oooo++++%%%%%%%%OOOO####++++++++@@@@####OOOO%%%%++++oooo....",
"....oooo++++%%%%%%%%OOOO####++++++++@@@@####OOOO%%%%++++oooo....",
"....oooo++++%%%%%%%%OOOO####++++++++@@@@####OOOO%%%%++++oooo....",
"....oooo++++%%%%%%%%OOOO####++++++++@@@@####OOOO%%%%++++oooo....",
"....XXXX@@@@%%%%OOOO####@@@@++++&&&&++++$$$$OOOO%%%%@@@@XXXX....",
"....XXXX@@@@%%%%OOOO####@@@@++++&&&&++++$$$$OOOO%%%%@@@@XXXX....",
"....XXXX@@@@%%%%OOOO####@@@@++++&&&&++++$$$$OOOO%%%%@@@@XXXX....",
"....XXXX@@@@%%%%OOOO####@@@@++++&&&&++++$$$$OOOO%%%%@@@@XXXX....",
"....oooo++++%%%%OOOO$$$$++++&&&&&&&&++++@@@@OOOO%%%%++++oooo....",
"....oooo++++%%%%OOOO$$$$++++&&&&&&&&++++@@@@OOOO%%%%++++oooo....",
"....oooo++++%%%%OOOO$$$$++++&&&&&&&&++++@@@@OOOO%%%%++++oooo....",
"....oooo++++%%%%OOOO$$$$++++&&&&&&&&++++@@@@OOOO%%%%++++oooo....",
"....oooo++++OOOOOOOO@@@@&&&&&&&&&&&&&&&&++++OOOOOOOO++++oooo....",
"....oooo++++OOOOOOOO@@@@&&&&&&&&&&&&&&&&++++OOOOOOOO++++oooo....",
"....oooo++++OOOOOOOO@@@@&&&&&&&&&&&&&&&&++++OOOOOOOO++++oooo....",
"....oooo++++OOOOOOOO@@@@&&&&&&&&&&&&&&&&++++OOOOOOOO++++oooo....",
"....oooo++++%%%%OOOO####++++&&&&&&&&++++####OOOO%%%%++++oooo....",
"....oooo++++%%%%OOOO####++++&&&&&&&&++++####OOOO%%%%++++oooo....",
"....oooo++++%%%%OOOO####++++&&&&&&&&++++####OOOO%%%%++++oooo....",
"....oooo++++%%%%OOOO####++++&&&&&&&&++++####OOOO%%%%++++oooo....",
"....oooo&&&&++++@@@@++++++++++++++++++++++++@@@@++++++++oooo....",
"....oooo&&&&++++@@@@++++++++++++++++++++++++@@@@++++++++oooo....",
"....oooo&&&&++++@@@@++++++++++++++++++++++++@@@@++++++++oooo....",
"....oooo&&&&++++@@@@++++++++++++++++++++++++@@@@++++++++oooo....",
"....XXXXooooooooXXXXooooooooooooooooooooooooXXXXooooooooXXXX....",
"....XXXXooooooooXXXXooooooooooooooooooooooooXXXXooooooooXXXX....",
"....XXXXooooooooXXXXooooooooooooooooooooooooXXXXooooooooXXXX....",
"....XXXXooooooooXXXXooooooooooooooooooooooooXXXXooooooooXXXX....",
"....****        ====                        ====        ****....",
"....****        ====                        ====        ****....",
"....****        ====                        ====        ****....",
"....****        ====                        ====        ****....",
"....****        ====                        ====        ****....",
"....****        ====                        ====        ****....",
"....****        ====                        ====        ****....",
"....****        ====                        ====        ****....",
"....            ................................            ....",
"....            ................................            ....",
"....            ................................            ....",
"....            ................................            ....",
"    ................                        ................    ",
"    ................                        ................    ",
"    ................                        ................    ",
"    ................                        ................    "
};
