/* XPM */
static char *result[] = {
/* columns rows colors chars-per-pixel */
"64 64 14 1 ",
"  c #706060",
". c black",
"X c #D04020",
"o c #C0B0B0",
"O c #F8F8F8",
"+ c #F85010",
"@ c #F88810",
"# c #F8E038",
"$ c #F8B828",
"% c #F8B848",
"& c #A02818",
"* c #F8F860",
"= c #988888",
"- c #701810",
/* pixels */
"    ........................XXXXXXXX........................    ",
"    ........................XXXXXXXX........................    ",
"    ........................XXXXXXXX........................    ",
"    ........................XXXXXXXX........................    ",
"....ooooOOOOOOOOooooOOOO++++@@@@++++OOOOOOOOooooOOOOOOOOoooo....",
"....ooooOOOOOOOOooooOOOO++++@@@@++++OOOOOOOOooooOOOOOOOOoooo....",
"....ooooOOOOOOOOooooOOOO++++@@@@++++OOOOOOOOooooOOOOOOOOoooo....",
"....ooooOOOOOOOOooooOOOO++++@@@@++++OOOOOOOOooooOOOOOOOOoooo....",
"....OOOO########$$$$####++++@@@@$$$$$$$$####$$$$########OOOO....",
"....OOOO########$$$$####++++@@@@$$$$$$$$####$$$$########OOOO....",
"....OOOO########$$$$####++++@@@@$$$$$$$$####$$$$########OOOO....",
"....OOOO########$$$$####++++@@@@$$$$$$$$####$$$$########OOOO....",
"....OOOO####@@@@@@@@$$$$++++%%%%++++@@@@$$$$@@@@$$$$####OOOO....",
"....OOOO####@@@@@@@@$$$$++++%%%%++++@@@@$$$$@@@@$$$$####OOOO....",
"....OOOO####@@@@@@@@$$$$++++%%%%++++@@@@$$$$@@@@$$$$####OOOO....",
"....OOOO####@@@@@@@@$$$$++++%%%%++++@@@@$$$$@@@@$$$$####OOOO....",
"....OOOO####++++@@@@XXXX@@@@%%%%++++XXXX++++@@@@@@@@####OOOO....",
"....OOOO####++++@@@@XXXX@@@@%%%%++++XXXX++++@@@@@@@@####OOOO....",
"....OOOO####++++@@@@XXXX@@@@%%%%++++XXXX++++@@@@@@@@####OOOO....",
"....OOOO####++++@@@@XXXX@@@@%%%%++++XXXX++++@@@@@@@@####OOOO....",
"....OOOO####&&&&&&&&XXXX++++%%%%%%%%++++XXXXXXXX&&&&####OOOO....",
"....OOOO####&&&&&&&&XXXX++++%%%%%%%%++++XXXXXXXX&&&&####OOOO....",
"....OOOO####&&&&&&&&XXXX++++%%%%%%%%++++XXXXXXXX&&&&####OOOO....",
"....OOOO####&&&&&&&&XXXX++++%%%%%%%%++++XXXXXXXX&&&&####OOOO....",
"....oooo$$$$&&&&XXXXXXXX++++%%%%####@@@@++++XXXX&&&&$$$$oooo....",
"....oooo$$$$&&&&XXXXXXXX++++%%%%####@@@@++++XXXX&&&&$$$$oooo....",
"....oooo$$$$&&&&XXXXXXXX++++%%%%####@@@@++++XXXX&&&&$$$$oooo....",
"....oooo$$$$&&&&XXXXXXXX++++%%%%####@@@@++++XXXX&&&&$$$$oooo....",
"....OOOO####&&&&XXXX++++@@@@####****####@@@@XXXX&&&&####OOOO....",
"....OOOO####&&&&XXXX++++@@@@####****####@@@@XXXX&&&&####OOOO....",
"....OOOO####&&&&XXXX++++@@@@####****####@@@@XXXX&&&&####OOOO....",
"....OOOO####&&&&XXXX++++@@@@####****####@@@@XXXX&&&&####OOOO....",
"....OOOO####&&&&XXXX++++####************@@@@++++&&&&####OOOO....",
"....OOOO####&&&&XXXX++++####************@@@@++++&&&&####OOOO....",
"....OOOO####&&&&XXXX++++####************@@@@++++&&&&####OOOO....",
"....OOOO####&&&&XXXX++++####************@@@@++++&&&&####OOOO....",
"....OOOO####&&&&XXXX++++####********####@@@@++++&&&&####OOOO....",
"....OOOO####&&&&XXXX++++####********####@@@@++++&&&&####OOOO....",
"....OOOO####&&&&XXXX++++####********####@@@@++++&&&&####OOOO....",
"....OOOO####&&&&XXXX++++####********####@@@@++++&&&&####OOOO....",
"....OOOO****####$$$$########################$$$$########OOOO....",
"....OOOO****####$$$$########################$$$$########OOOO....",
"....OOOO****####$$$$########################$$$$########OOOO....",
"....OOOO****####$$$$########################$$$$########OOOO....",
"....ooooOOOOOOOOooooOOOOOOOOOOOOOOOOOOOOOOOOooooOOOOOOOOoooo....",
"....ooooOOOOOOOOooooOOOOOOOOOOOOOOOOOOOOOOOOooooOOOOOOOOoooo....",
"....ooooOOOOOOOOooooOOOOOOOOOOOOOOOOOOOOOOOOooooOOOOOOOOoooo....",
"....ooooOOOOOOOOooooOOOOOOOOOOOOOOOOOOOOOOOOooooOOOOOOOOoooo....",
"....====        ----                        ----        ====....",
"....====        ----                        ----        ====....",
"....====        ----                        ----        ====....",
"....====        ----                        ----        ====....",
"....====        ----                        ----        ====....",
"....====        ----                        ----        ====....",
"....====        ----                        ----        ====....",
"....====        ----                        ----        ====....",
"....            ................................            ....",
"....            ................................            ....",
"....            ................................            ....",
"....            ................................            ....",
"    ................                        ................    ",
"    ................                        ................    ",
"    ................                        ................    ",
"    ................                        ................    "
};
