/* XPM */
static char *result[] = {
/* columns rows colors chars-per-pixel */
"64 64 12 1 ",
"  c black",
". c #C0B0B0",
"X c #F8F8F8",
"o c #E8D8D8",
"O c #988888",
"+ c #D04020",
"@ c #F88810",
"# c #F8B828",
"$ c #A02818",
"% c #F8E038",
"& c #F8F860",
"* c #706060",
/* pixels */
"                                                                ",
"                                                                ",
"                                                                ",
"                                                                ",
"    ....XXXXooooXXXXXXXXooooooooooooooooXXXXXXXXooooXXXX....    ",
"    ....XXXXooooXXXXXXXXooooooooooooooooXXXXXXXXooooXXXX....    ",
"    ....XXXXooooXXXXXXXXooooooooooooooooXXXXXXXXooooXXXX....    ",
"    ....XXXXooooXXXXXXXXooooooooooooooooXXXXXXXXooooXXXX....    ",
"    XXXXXXXX....OOOOOOOOOOOOOOOO++++++++OOOOOOOO....XXXXXXXX    ",
"    XXXXXXXX....OOOOOOOOOOOOOOOO++++++++OOOOOOOO....XXXXXXXX    ",
"    XXXXXXXX....OOOOOOOOOOOOOOOO++++++++OOOOOOOO....XXXXXXXX    ",
"    XXXXXXXX....OOOOOOOOOOOOOOOO++++++++OOOOOOOO....XXXXXXXX    ",
"    ooooXXXXOOOOOOOOOOOO++++++++++++@@@@++++OOOOOOOOXXXXoooo    ",
"    ooooXXXXOOOOOOOOOOOO++++++++++++@@@@++++OOOOOOOOXXXXoooo    ",
"    ooooXXXXOOOOOOOOOOOO++++++++++++@@@@++++OOOOOOOOXXXXoooo    ",
"    ooooXXXXOOOOOOOOOOOO++++++++++++@@@@++++OOOOOOOOXXXXoooo    ",
"    XXXXXXXXOOOOOOOO++++++++@@@@++++####$$$$OOOOOOOOXXXXXXXX    ",
"    XXXXXXXXOOOOOOOO++++++++@@@@++++####$$$$OOOOOOOOXXXXXXXX    ",
"    XXXXXXXXOOOOOOOO++++++++@@@@++++####$$$$OOOOOOOOXXXXXXXX    ",
"    XXXXXXXXOOOOOOOO++++++++@@@@++++####$$$$OOOOOOOOXXXXXXXX    ",
"    ooooXXXXOOOOOOOO++++@@@@####@@@@####++++OOOOOOOOXXXXoooo    ",
"    ooooXXXXOOOOOOOO++++@@@@####@@@@####++++OOOOOOOOXXXXoooo    ",
"    ooooXXXXOOOOOOOO++++@@@@####@@@@####++++OOOOOOOOXXXXoooo    ",
"    ooooXXXXOOOOOOOO++++@@@@####@@@@####++++OOOOOOOOXXXXoooo    ",
"    XXXXXXXXOOOO++++++++####%%%%####%%%%@@@@$$$$OOOOXXXXXXXX    ",
"    XXXXXXXXOOOO++++++++####%%%%####%%%%@@@@$$$$OOOOXXXXXXXX    ",
"    XXXXXXXXOOOO++++++++####%%%%####%%%%@@@@$$$$OOOOXXXXXXXX    ",
"    XXXXXXXXOOOO++++++++####%%%%####%%%%@@@@$$$$OOOOXXXXXXXX    ",
"    ooooXXXX++++++++@@@@####&&&&&&&&&&&&####@@@@++++XXXXoooo    ",
"    ooooXXXX++++++++@@@@####&&&&&&&&&&&&####@@@@++++XXXXoooo    ",
"    ooooXXXX++++++++@@@@####&&&&&&&&&&&&####@@@@++++XXXXoooo    ",
"    ooooXXXX++++++++@@@@####&&&&&&&&&&&&####@@@@++++XXXXoooo    ",
"    XXXXXXXX++++++++@@@@####%%%%%%%%%%%%@@@@++++$$$$XXXXXXXX    ",
"    XXXXXXXX++++++++@@@@####%%%%%%%%%%%%@@@@++++$$$$XXXXXXXX    ",
"    XXXXXXXX++++++++@@@@####%%%%%%%%%%%%@@@@++++$$$$XXXXXXXX    ",
"    XXXXXXXX++++++++@@@@####%%%%%%%%%%%%@@@@++++$$$$XXXXXXXX    ",
"    ooooXXXX$$$$++++++++@@@@############@@@@@@@@++++XXXXoooo    ",
"    ooooXXXX$$$$++++++++@@@@############@@@@@@@@++++XXXXoooo    ",
"    ooooXXXX$$$$++++++++@@@@############@@@@@@@@++++XXXXoooo    ",
"    ooooXXXX$$$$++++++++@@@@############@@@@@@@@++++XXXXoooo    ",
"    ....XXXXooooXXXXXXXXooooXXXXXXXXooooXXXXXXXXooooXXXX....    ",
"    ....XXXXooooXXXXXXXXooooXXXXXXXXooooXXXXXXXXooooXXXX....    ",
"    ....XXXXooooXXXXXXXXooooXXXXXXXXooooXXXXXXXXooooXXXX....    ",
"    ....XXXXooooXXXXXXXXooooXXXXXXXXooooXXXXXXXXooooXXXX....    ",
"    OOOOOOOO****OOOOOOOO****OOOOOOOO****OOOOOOOO****OOOOOOOO    ",
"    OOOOOOOO****OOOOOOOO****OOOOOOOO****OOOOOOOO****OOOOOOOO    ",
"    OOOOOOOO****OOOOOOOO****OOOOOOOO****OOOOOOOO****OOOOOOOO    ",
"    OOOOOOOO****OOOOOOOO****OOOOOOOO****OOOOOOOO****OOOOOOOO    ",
"    OOOOOOOO****OOOOOOOO****OOOOOOOO****OOOOOOOO****OOOOOOOO    ",
"    OOOOOOOO****OOOOOOOO****OOOOOOOO****OOOOOOOO****OOOOOOOO    ",
"    OOOOOOOO****OOOOOOOO****OOOOOOOO****OOOOOOOO****OOOOOOOO    ",
"    OOOOOOOO****OOOOOOOO****OOOOOOOO****OOOOOOOO****OOOOOOOO    ",
"    ****OOOO****OOOOOOOO****OOOOOOOO****OOOOOOOO****OOOO****    ",
"    ****OOOO****OOOOOOOO****OOOOOOOO****OOOOOOOO****OOOO****    ",
"    ****OOOO****OOOOOOOO****OOOOOOOO****OOOOOOOO****OOOO****    ",
"    ****OOOO****OOOOOOOO****OOOOOOOO****OOOOOOOO****OOOO****    ",
"    ********                ********                ********    ",
"    ********                ********                ********    ",
"    ********                ********                ********    ",
"    ********                ********                ********    ",
"                                                                ",
"                                                                ",
"                                                                ",
"                                                                "
};
