/* XPM */
static char *result[] = {
/* columns rows colors chars-per-pixel */
"64 64 7 1 ",
"  c black",
". c #382058",
"X c #806878",
"o c #583868",
"O c #B0A090",
"+ c #E0D8D0",
"@ c #F8F8F8",
/* pixels */
"    ........................................................    ",
"    ........................................................    ",
"    ........................................................    ",
"    ........................................................    ",
"....XXXXoooooooo........oooooooo........oooo........XXXXoooo    ",
"....XXXXoooooooo........oooooooo........oooo........XXXXoooo    ",
"....XXXXoooooooo........oooooooo........oooo........XXXXoooo    ",
"....XXXXoooooooo........oooooooo........oooo........XXXXoooo    ",
"....ooooXXXXOOOOOOOO++++++++++++++++++++++++OOOOXXXXoooo....    ",
"....ooooXXXXOOOOOOOO++++++++++++++++++++++++OOOOXXXXoooo....    ",
"....ooooXXXXOOOOOOOO++++++++++++++++++++++++OOOOXXXXoooo....    ",
"....ooooXXXXOOOOOOOO++++++++++++++++++++++++OOOOXXXXoooo....    ",
"....ooooooooOOOO++++++++++++@@@@@@@@@@@@@@@@++++oooooooo....    ",
"....ooooooooOOOO++++++++++++@@@@@@@@@@@@@@@@++++oooooooo....    ",
"....ooooooooOOOO++++++++++++@@@@@@@@@@@@@@@@++++oooooooo....    ",
"....ooooooooOOOO++++++++++++@@@@@@@@@@@@@@@@++++oooooooo....    ",
"....ooooXXXXXXXX++++++++OOOO++++++++++++++++@@@@oooooooo....    ",
"....ooooXXXXXXXX++++++++OOOO++++++++++++++++@@@@oooooooo....    ",
"....ooooXXXXXXXX++++++++OOOO++++++++++++++++@@@@oooooooo....    ",
"....ooooXXXXXXXX++++++++OOOO++++++++++++++++@@@@oooooooo....    ",
"....ooooooooXXXX++++++++++++++++++++++++++++@@@@XXXXoooo....    ",
"....ooooooooXXXX++++++++++++++++++++++++++++@@@@XXXXoooo....    ",
"....ooooooooXXXX++++++++++++++++++++++++++++@@@@XXXXoooo....    ",
"....ooooooooXXXX++++++++++++++++++++++++++++@@@@XXXXoooo....    ",
"....ooooXXXXXXXX@@@@++++++++++++++++++++++++@@@@XXXXoooo....    ",
"....ooooXXXXXXXX@@@@++++++++++++++++++++++++@@@@XXXXoooo....    ",
"....ooooXXXXXXXX@@@@++++++++++++++++++++++++@@@@XXXXoooo....    ",
"....ooooXXXXXXXX@@@@++++++++++++++++++++++++@@@@XXXXoooo....    ",
"....ooooooooXXXX@@@@++++++++++++OOOO++++++++++++oooooooo....    ",
"....ooooooooXXXX@@@@++++++++++++OOOO++++++++++++oooooooo....    ",
"....ooooooooXXXX@@@@++++++++++++OOOO++++++++++++oooooooo....    ",
"....ooooooooXXXX@@@@++++++++++++OOOO++++++++++++oooooooo....    ",
"....ooooooooXXXX@@@@++++++++++++++++++++++++++++oooooooo....    ",
"....ooooooooXXXX@@@@++++++++++++++++++++++++++++oooooooo....    ",
"....ooooooooXXXX@@@@++++++++++++++++++++++++++++oooooooo....    ",
"....ooooooooXXXX@@@@++++++++++++++++++++++++++++oooooooo....    ",
"....ooooooooXXXX@@@@@@@@++++++++++++++++++++++++XXXXoooo....    ",
"....ooooooooXXXX@@@@@@@@++++++++++++++++++++++++XXXXoooo....    ",
"....ooooooooXXXX@@@@@@@@++++++++++++++++++++++++XXXXoooo....    ",
"....ooooooooXXXX@@@@@@@@++++++++++++++++++++++++XXXXoooo....    ",
"....ooooooooOOOO++++@@@@@@@@@@@@@@@@@@@@++++++++XXXXoooo....    ",
"....ooooooooOOOO++++@@@@@@@@@@@@@@@@@@@@++++++++XXXXoooo....    ",
"....ooooooooOOOO++++@@@@@@@@@@@@@@@@@@@@++++++++XXXXoooo....    ",
"....ooooooooOOOO++++@@@@@@@@@@@@@@@@@@@@++++++++XXXXoooo....    ",
"....oooooooo++++OOOOOOOOOOOOOOOOOOOOOOOOOOOOOOOO++++XXXX....    ",
"....oooooooo++++OOOOOOOOOOOOOOOOOOOOOOOOOOOOOOOO++++XXXX....    ",
"....oooooooo++++OOOOOOOOOOOOOOOOOOOOOOOOOOOOOOOO++++XXXX....    ",
"....oooooooo++++OOOOOOOOOOOOOOOOOOOOOOOOOOOOOOOO++++XXXX....    ",
"....ooooXXXXOOOOXXXXXXXXXXXXOOOOOOOOXXXXOOOOOOOOOOOOOOOOoooo    ",
"....ooooXXXXOOOOXXXXXXXXXXXXOOOOOOOOXXXXOOOOOOOOOOOOOOOOoooo    ",
"....ooooXXXXOOOOXXXXXXXXXXXXOOOOOOOOXXXXOOOOOOOOOOOOOOOOoooo    ",
"....ooooXXXXOOOOXXXXXXXXXXXXOOOOOOOOXXXXOOOOOOOOOOOOOOOOoooo    ",
"....ooooOOOOXXXXXXXXXXXXXXXXXXXXXXXXXXXXXXXXXXXXXXXXOOOOoooo    ",
"....ooooOOOOXXXXXXXXXXXXXXXXXXXXXXXXXXXXXXXXXXXXXXXXOOOOoooo    ",
"....ooooOOOOXXXXXXXXXXXXXXXXXXXXXXXXXXXXXXXXXXXXXXXXOOOOoooo    ",
"....ooooOOOOXXXXXXXXXXXXXXXXXXXXXXXXXXXXXXXXXXXXXXXXOOOOoooo    ",
"....XXXXooooooooooooooooooooooooooooooooooooooooooooooooXXXX    ",
"....XXXXooooooooooooooooooooooooooooooooooooooooooooooooXXXX    ",
"....XXXXooooooooooooooooooooooooooooooooooooooooooooooooXXXX    ",
"....XXXXooooooooooooooooooooooooooooooooooooooooooooooooXXXX    ",
"                                                                ",
"                                                                ",
"                                                                ",
"                                                                "
};
