/* XPM */
static char *result[] = {
/* columns rows colors chars-per-pixel */
"64 64 3 1 ",
"  c #6070B0",
". c #5860A0",
"X c #485888",
/* pixels */
"                                        ......      .           ",
"                                       .     .      .           ",
"                                       .     .      .           ",
"                                       ..    .      .           ",
"                                       .     .X     .           ",
"                                       .     XXX.   .           ",
"                          ............XX     .X...........XXXXXX",
"                                .. .  .X     ..           XXXXXX",
"                                .      .     .            X.....",
"                                .      .     .            ......",
"                                .      .     .            ......",
"                                ..     .     .            ......",
"                                . .    X.    X.           ......",
"                          .....XX      XXXXXXXXXXXXXX...........",
"                          ..    X      XXXXXXXXXXXXXX     ......",
"                          .     .    ................     ......",
"                          .     .      ..............     ......",
"                          .     .      ..............     ......",
"                          .     .      ..............    .......",
"                          .     XX..XXX...............  . X.....",
"                          .     X    ..    ....     .     ..    ",
"                          .     .            .      X     .     ",
"                          .     .            .      X     .     ",
"                          .     .            .      .     .     ",
"                          .     .            X      .     .     ",
"                          X     ..       .   X      X.    X     ",
"              ......      ..........XXXXXXXXXX      XXXXXXXXX.XX",
"             .     .         .        ...    X      X           ",
"             .     .                   .     .      .           ",
"             ..    .                   .     .      .           ",
"             .     .X                  .     .      .           ",
"             .     XXX.                .     .      X           ",
"             X     .X........XXXX........    XXXXXXXXXXXXXXXXXXX",
"             X     ..       .   X      ..    XX         ..XXXXXX",
"             .     .        .   .      .     ..          ...    ",
"             .     .         .. .      .     .            .     ",
"             .     .            .      .     .            .     ",
"             .     .            .      .     X            .     ",
"             X.    X.           .      .     X.           .     ",
"             XXXXXXXXXXXXXXX...........                         ",
"             XXXXXXXXXXXXXX.    .......                         ",
"             ..............     .......                         ",
"             ..............     .......                         ",
"             ..............     .......                         ",
"             ..............    ........                         ",
"             ..............   . X......                         ",
"                 ....     ..    ..                              ",
"                   .      X     .                               ",
"                   .      X     .                               ",
"                   .      ..    .                               ",
"                   X      ..    .                               ",
"               .   X      X.    X                               ",
"             XXXXXXX                                            ",
"             .     .                                            ",
"             .     .                                            ",
"             .     .                                            ",
"             .     .                                            ",
"             .     .                                            ",
"             ..    XXXXXXX                                      ",
"             ..    XX                                           ",
"             .     ..                                           ",
"             .     .                                            ",
"             .     .                                            ",
"             .                                                  "
};
