/* XPM */
static char *result[] = {
/* columns rows colors chars-per-pixel */
"20 18 3 1 ",
"  c #F85030",
". c #F8F8F8",
"X c None",
/* pixels */
"XX.......XX......XXX",
"XX.......XX......XXX",
"..       ..      ...",
"..       ..      ...",
"..               ...",
"..               ...",
"..               ...",
"..               ...",
"..               ...",
"XX..            .XXX",
"XX..            .XXX",
"XXXX...      ...XXXX",
"XXXX...      ...XXXX",
"XXXXXXX..  ..XXXXXXX",
"XXXXXXX..  ..XXXXXXX",
"XXXXXXXXX..XXXXXXXXX",
"XXXXXXXXX..XXXXXXXXX",
"XXXXXXXXX..XXXXXXXXX"
};
