/* XPM */
static char *result[] = {
/* columns rows colors chars-per-pixel */
"30 32 8 1 ",
"  c black",
". c #785000",
"X c #B88018",
"o c #E8B820",
"O c #F8E828",
"+ c #F8F890",
"@ c #F8F8F8",
"# c None",
/* pixels */
"###########      ##       ####",
"###########      ##       ####",
"#########  XX++++  XX@@@++  ##",
"#########  XX++++  XX@@@++  ##",
"#########..++OOOOOOOO     OO  ",
"#########..++OOOOOOOO     OO  ",
"#########..++OOOOOOOO     OO  ",
"#########..++OOOOOOOO     OO  ",
"#########..++OOOOOOOO     OO  ",
"#########  XXOOOO++@@@@@++XX  ",
"#########  XXOOOO++@@@@@++XX  ",
"###########  XX@@@@++OOOOO  ##",
"###########  XX@@@@++OOOOO  ##",
"###########XX++@@OOOOooooooo  ",
"###########XX++@@OOOOooooooo  ",
"#########  OO@@ooXXoooooOOOO  ",
"#########  OO@@ooXXoooooOOOO  ",
"######   OO@@XX..  XXOOOOOXX  ",
"######   OO@@XX..  XXOOOOOXX  ",
"####  OOO++XX..  ##  .....  ##",
"####  OOO++XX..  ##  .....  ##",
"##  OO+++XX++  ###############",
"##  OO+++XX++  ###############",
"  OO++XXX  XX++  #############",
"  OO++XXX  XX++  #############",
"  OO++XXX  XX++  #############",
"  ooXX+++      ###############",
"  ooXX+++      ###############",
"##    XXX++  #################",
"##    XXX++  #################",
"######     ###################",
"######     ###################"
};
