/* XPM */
static char *result[] = {
/* columns rows colors chars-per-pixel */
"19 32 10 1 ",
"  c black",
". c #785000",
"X c #704810",
"o c #A07840",
"O c #B88018",
"+ c #E8B820",
"@ c #F8E828",
"# c #F8F890",
"$ c #F8F8F8",
"% c None",
/* pixels */
"%OO.%%%%%%%%%O+.%%%",
"O+#@.%%%%%%O+$@.%%%",
"O#@.%%%%%OO@$#+.%%%",
".+@@.%.%O@@$#@O.%%%",
"%.O.%.#O@OO#@+O.%%%",
"%.@#..@OO++@+.O.%%%",
"%%.O+..+#OO@OOO.%%%",
"%%% O@ O#@@#+@O+@.%",
"%%%% +..@@@.O+O@+.%",
"%%%%%.O.O+++OO++.%%",
"%%%%%%.+ OO ... %%%",
"%%%%%%.@+  X.  %%%%",
"%%%%%%.+@XX#@O. %%%",
"%%%   .O+++XO+O   %",
"%% +@@ .....   @@+ ",
"%% @@@.O.    OO @@ ",
"%% @@@.O.    OO @@ ",
"%% @@.+ OOOOO  +@@ ",
"%%.#+. O+@@@@@@@@@.",
"%%.@$$$$#########@.",
"%% O+++++++++++++O ",
"%%%  ...........  %",
"%%%%.+++++++++++.%%",
"%%% .++OOOOOOO++. %",
"%% XO+@O+++O+O@+OX ",
"%% XO+@OOOO+OO@+OX ",
"%% XO+@OOOOOOO@+OX ",
"%% Xo+@@@@@@@@@+oX ",
"%% XoooooooooooooX ",
"%% XXXXXXXXXXXXXXX ",
"%% XXXXXXXXXXXXXXX ",
"%%%               %"
};
