/* XPM */
static char *result[] = {
/* columns rows colors chars-per-pixel */
"64 64 13 1 ",
"  c #5860A0",
". c #201028",
"X c #6070B0",
"o c #9078A0",
"O c #705078",
"+ c #603060",
"@ c #20A890",
"# c #C08828",
"$ c #A098B8",
"% c #D85078",
"& c #C0B0C0",
"* c #905028",
"= c #E0B828",
/* pixels */
" ............................................................  X",
" ooOOOOOOOOOOOOOOOOOOOOOOOOOOOOOOOOOOOOOOOOOOOOOOOOOOOOOOO++O.. ",
" ooOOOOOOOOOOOOOOOOOOOOOOOOOOOOOOOOOOOOOOOOOOOOOOOOOOOOOOO++O.. ",
" OOoOOOOOOOOOOOO@@@O###OOOOOOOOOOOOOOOOOOOOOOOOOOOOOOOOOOO+++.. ",
" OOOoo$$$$$$$$$@@%%%###$$$$$$$$$$$$$$$$$$$$$$$$$$$$$$$$$$$OO+.. ",
"XXXOOO$$$$$$ooo&@%%%$$$$$$$$$$$$$$$$$$$$$$$$$$$$$$$$$$$$$$oo+.. ",
"XXXOOO$$$$$$ooo&@%%%$$$$$$$$$$$$$$$$$$$$$$$$$$$$$$$$$$$$$$oo+.. ",
" OOOOO$$$$oo$&&&&$$$%%%$$$$$$$$$$$$$$$$$$$$$$$$$$$$$$$$$$$oo+.. ",
"XOOOOO$$$$&&&&&&&%%$%%%$$$$$$$$$$$$$$$$$$$$$$$$$$$$$$$$$$$oo+.. ",
" OOOOOo$$&&&&&&&&%%@@@$$$$$$$$$$$$$$$$$$$$$$$$$$$$$$$$$$$$oo+.. ",
" OOOOOo$$&&&&&&&&%%@@@$$$$$$$$$$$$$$$$$$$$$$$$$$$$$$$$$$$$oo+.. ",
" OO OOooo$$$&&&&&$$@@@OOO+++++++++++++++++++++++++++OO$$$$oo+.. ",
"XXXXOOoOOOoo$&&&&%%%ooOooooooooooooooooooooooooooooO++$$$$oo+.. ",
" OO OO$$$o+++oo$@%%%$$Oooooooooooooooooooooooooooooo++$$$$oo+.. ",
" OO OO$$$o+++oo$@%%%$$Oooooooooooooooooooooooooooooo++$$$$oo+.. ",
"XXX OO&$$$ooO+++@@@o###ooOOOOOOOOOOOOOOOOOOOOOOOOOOo++$$$$oo+.. ",
" OO OO&$$$$$oOOOO@@o###oo******..................++o++$$$$oo+.. ",
"......o&&&&&$ooo$$$oooOoo#===##.................+++o++$$$$oo+.. ",
"......o&&&&&$ooo$$$oooOoo#===##.................+++o++$$$$oo+.. ",
"X  oOO...OOO$$$o$$$$$$Ooo#=====.................+++o++$$$$oo+.. ",
"X  o&&$oo$OOOoo$$$$$$$Ooo#=====****.............+++o++$$$$oo+.. ",
"XXXo&&&oo&$$$oo$$$$$$$Ooo#=====*#**.............+++o++$$$$oo+.. ",
"XXXo&&&oo&$$$oo$$$$$$$Ooo#=====*#**.............+++o++$$$$oo+.. ",
"X  o&&&oo&&&$oo$$$$$$$Ooo#=====*###.............+++o++$$$$oo+.. ",
"X  o&&&oo&&&$oo$$$$$$$Ooo#=====*###.***.........+++o++$$$$oo+.. ",
"XXXX&&&oo&&&$oo$$$$$$$Ooo#=====*###.***.........+++o++$$$$oo+.. ",
"XXXX&&&oo&&&$oo$$$$$$$Ooo#=====*###.***.........+++o++$$$$oo+.. ",
"X  o&&&oo&&&$oo$$$$$$$Ooo#=====*###.***..*......+++o++$$$$oo+.. ",
"XXXo&&&oo&&&$oo$$$$$$$Ooo#=====*###.***..*......+++o++$$$$oo+.. ",
"X  o&&&oo&&&$oo$$$$$$$Ooo#=====*###.***..*......+++o++$$$$oo+.. ",
"X  o&&&oo&&&$oo$$$$$$$Ooo#=====*###.***..*......+++o++$$$$oo+.. ",
"X  o&&&oo&&&$oo$$$$$$$Ooo#=====*###.***..*......+++o++$$$$oo+.. ",
"X  o&&&oo&&&$oo$$$$$$$Ooo#=====*###.***..*......+++o++$$$$oo+.. ",
"X  o&&&oo&&&$oo$$$$$$$Ooo#=====*###.***..*......+++o++$$$$oo+.. ",
"X  o&&&oo&&&$oo$$$$$$$Ooo#=====*###.***..*......+++o++$$$$oo+.. ",
"XXXo&&&oo&&&$oo$$$$$$$Ooo#=====*###.***..*......+++o++$$$$oo+.. ",
"X  o&&&oo&&&$oo$$$$$$$Ooo#=====*###.***..*......+++o++$$$$oo+.. ",
"XXXX&&&oo&&&$oo$$$$$$$Ooo#=====*###.***.........+++o++$$$$oo+.. ",
"XXXX&&&oo&&&$oo$$$$$$$Ooo#=====*###.***.........+++o++$$$$oo+.. ",
"X  o&&&oo&&&$oo$$$$$$$Ooo#=====*###.***.........+++o++$$$$oo+.. ",
"X  o&&&oo&&&$oo$$$$$$$Ooo#=====*###.............+++o++$$$$oo+.. ",
"XXXo&&&oo&$$$oo$$$$$$$Ooo#=====*#**.............+++o++$$$$oo+.. ",
"XXXo&&&oo&$$$oo$$$$$$$Ooo#=====*#**.............+++o++$$$$oo+.. ",
"X  o&&$oo$OOOoo$$$$$$$Ooo#=====****.............+++o++$$$$oo+.. ",
"X  oOO...OOO$$$o$$$$$$Ooo#=====.................+++o++$$$$oo+.. ",
"......o&&&&&$ooo$$$oooOoo#===##.................+++o++$$$$oo+.. ",
"......o&&&&&$ooo$$$oooOoo#===##.................+++o++$$$$oo+.. ",
" OO OO&$$$$$oOOOO@@o###oo******..................++o++$$$$oo+.. ",
"XXX OO&$$$ooO+++@@@o###ooOOOOOOOOOOOOOOOOOOOOOOOOOOo++$$$$oo+.. ",
" OO OO$$$o+++oo$@%%%$$Oooooooooooooooooooooooooooooo++$$$$oo+.. ",
" OO OO$$$o+++oo$@%%%$$Oooooooooooooooooooooooooooooo++$$$$oo+.. ",
"XXXXOOoOOOoo$&&&&%%%ooOooooooooooooooooooooooooooooO++$$$$oo+.. ",
" OO OOooo$$$&&&&&$$@@@OOO+++++++++++++++++++++++++++OO$$$$oo+.. ",
" OOOOOo$$&&&&&&&&%%@@@oooooooooooooooooooooooooooooooo$$$$oo+.. ",
" OOOOOo$$&&&&&&&&%%@@@oooooooooooooooooooooooooooooooo$$$$oo+.. ",
"XXXOOO$$$$&&&&&&&%%$%%%ooooooooooooooooooooooooooooooo$$$$oo+.. ",
" OOOOO$$$$oo$&&&&$$$%%%$$$$$$$$$$$$$$$$$$$$$$$$$$$$$$$$$$$oo+.. ",
" OOOOO$$$$$$ooo&@%%%$$=$$$$$$$$$$$$$$$$$$$$$$$$$$$$$$$$$$$oo+.. ",
" OOOOO$$$$$$ooo&@%%%$$=$$$$$$$$$$$$$$$$$$$$$$$$$$$$$$$$$$$oo+.. ",
" OOOoo$$$$$$$$$@@%%%###$$$$$$$$$$$$$$$$$$$$$$$$$$$$$$$$$$oOO+.. ",
" OOo++++++++++++@@@+###++++++++++++++++++++++++++++++++++++++.. ",
" oo+++++++++++++++++++++++++++++++++++++++++++++++++++++++++O.. ",
" oo+++++++++++++++++++++++++++++++++++++++++++++++++++++++++O.. ",
" ............................................................  X"
};
