/* XPM */
static char *result[] = {
/* columns rows colors chars-per-pixel */
"64 64 13 1 ",
"  c #5860A0",
". c #6070B0",
"X c #201028",
"o c #9078A0",
"O c #705078",
"+ c #603060",
"@ c #C0B0C0",
"# c #A098B8",
"$ c #20A890",
"% c #D85078",
"& c #C08828",
"* c #E0B828",
"= c #905028",
/* pixels */
"        .   .  . XX..........................XX .  .   . ..     ",
"XooOOOOO.OOO.OO.OXX  ..  .. .      . ..  ..  XXO.OO.OOOOO..OOooX",
"XooOOOOO.OOO.OO.OXX  ..  .. .      . ..  ..  XXO.OO.OOOOO..OOooX",
"X++oOOOOOOO .    XXoooooo..oooooooooo..ooooooXX    . OOOOOOOoOOX",
"X+++oOOOOOOOOOOOOXXO@@@@@@@@@@@@@@@@@@@@@@@@OXXOOOOOOOOOOOOoOOOX",
"X+++oOOOOOOOOOOOOXXO@@@@@@@@@@@@@@@@@@@@@@@@OXXOOOOOOOOOOOOoOOOX",
"X+++#####oooo##@@ooX#@@@@@@@@@@@@@@@@@@@@@@#Xoo@@##oooo#####OOOX",
"X+++#######oO####@@XooooooooooooooooooooooooX@@####Oo#######OOOX",
"X+++#######oO####@@XooooooooooooooooooooooooX@@####Oo#######OOOX",
"X+++#####@@#Ooo##@@O#@@@@@@@@@@@@@@@@@@@@@@#O@@##ooO#@@#####OOOX",
"X+++###o@@@#o++o#@@OO##@@@@@@@@@@@@@@@@@@##OO@@#o++o#@@@o###OOOX",
"X+++###o@@@#o++o#@@OO##@@@@@@@@@@@@@@@@@@##OO@@#o++o#@@@o###OOOX",
"X+++#oo#@@@@#++Oo###O######################O###oO++#@@@@#oo#OOOX",
"X+++#oo@@@@@@oo+Ooo#oooooooooooooooooooooooo#ooO+oo@@@@@@oo#OOOX",
"X+++#oo@@@@@@oo+Ooo#oooooooooooooooooooooooo#ooO+oo@@@@@@oo#OOOX",
"X+++$@@@@@@@@##+Oooo########################oooO+##@@@@@@@@$OOOX",
"X++$$$$@@@@@@$$$O##############################O$$$@@@@@@$$$$OOX",
"X++$%%%#%%%#%%%$$##############################$$%%%#%%%#%%%$OOX",
"X++$%%%#%%%#%%%$$##############################$$%%%#%%%#%%%$OOX",
"X+++%%%##$$$%%%oooo##########################oooo%%%$$$##%%%OOOX",
"X++&&##%%$$$o##&&oo##########################oo&&##o$$$%%##&&OOX",
"X++&&##%%$$$o##&&oo##########################oo&&##o$$$%%##&&OOX",
"X++&&**%%ooOOOO&&OOOOOOOOOOOOOOOOOOOOOOOOOOOOOO&&OOOO##%%##&&OOX",
"X+++####oooOooooooooooooooooooooooooooooooooooooooooO#######OOOX",
"X+++####oooOooooooooooooooooooooooooooooooooooooooooO#######OOOX",
"X+++####ooo+oooO=&&&&&&&&&&&&&&&&&&&&&&&&&&&&&&=Oooo+#######OOOX",
"X+++####ooo+oooO=******************************=Oooo+#######OOOX",
"X+++####ooo+oooO=******************************=Oooo+#######OOOX",
"X+++####ooo+oooO=******************************=Oooo+#######OOOX",
"X+++####ooo+oooO=&&**************************&&=Oooo+#######OOOX",
"X+++####ooo+oooO=&&**************************&&=Oooo+#######OOOX",
"X+++####ooo+oooOXXXX========================XXXXOooo+#######OOOX",
"X+++####ooo+oooOXXXX=&&&&&&&&&&&&&&&&&&&&&&=XXXXOooo+#######OOOX",
"X+++####ooo+oooOXXXX===&&&&&&&&&&&&&&&&&&===XXXXOooo+#######OOOX",
"X+++####ooo+oooOXXXX===&&&&&&&&&&&&&&&&&&===XXXXOooo+#######OOOX",
"X+++####ooo+oooOXXXXXXXXXXXXXXXXXXXXXXXXXXXXXXXXOooo+#######OOOX",
"X+++####ooo+oooOXXXXXXXX================XXXXXXXXOooo+#######OOOX",
"X+++####ooo+oooOXXXXXXXX================XXXXXXXXOooo+#######OOOX",
"X+++####ooo+oooOXXXXXXXX================XXXXXXXXOooo+#######OOOX",
"X+++####ooo+oooOXXXXXXXXXXXXXXXXXXXXXXXXXXXXXXXXOooo+#######OOOX",
"X+++####ooo+oooOXXXXXXXXXXXXXXXXXXXXXXXXXXXXXXXXOooo+#######OOOX",
"X+++####ooo+oooOXXXXXXXXXXX==========XXXXXXXXXXXOooo+#######OOOX",
"X+++####ooo+oooOXXXXXXXXXXXXXXXXXXXXXXXXXXXXXXXXOooo+#######OOOX",
"X+++####ooo+oooOXXXXXXXXXXXXXXXXXXXXXXXXXXXXXXXXOooo+#######OOOX",
"X+++####ooo+oooOXXXXXXXXXXXXXXXXXXXXXXXXXXXXXXXXOooo+#######OOOX",
"X+++####ooo+oooOXXXXXXXXXXXXXXXXXXXXXXXXXXXXXXXXOooo+#######OOOX",
"X+++####ooo+oooOXXXXXXXXXXXXXXXXXXXXXXXXXXXXXXXXOooo+#######OOOX",
"X+++####ooo+oooOXXXXXXXXXXXXXXXXXXXXXXXXXXXXXXXXOooo+#######OOOX",
"X+++####ooo+oooOX++++++++++++++++++++++++++++++XOooo+#######OOOX",
"X+++####ooo+oooO++++++++++++++++++++++++++++++++Oooo+#######OOOX",
"X+++####ooo+oooO++++++++++++++++++++++++++++++++Oooo+#######OOOX",
"X+++####ooo+OooooooooooooooooooooooooooooooooooooooO+#######OOOX",
"X+++####oooO++++++++++++++++++++++++++++++++++++++++O#######OOOX",
"X+++####oooO++++++++++++++++++++++++++++++++++++++++O#######OOOX",
"X+++########################################################OOOX",
"X+++########################################################OOOX",
"X+++########################################################OOOX",
"X+++o#######################################################OOOX",
"X+++OooooooooooooooooooooooooooooooooooooooooooooooooooooooO+++X",
"X+++OooooooooooooooooooooooooooooooooooooooooooooooooooooooO+++X",
"XOO++++++++++++++++++++++++++++++++++++++++++++++++++++++++++OOX",
" XXXXXXXXXXXXXXXXXXXXXXXXXXXXXXXXXXXXXXXXXXXXXXXXXXXXXXXXXXXXXX ",
" XXXXXXXXXXXXXXXXXXXXXXXXXXXXXXXXXXXXXXXXXXXXXXXXXXXXXXXXXXXXXX ",
".                                                              ."
};
