/* XPM */
static char *result[] = {
/* columns rows colors chars-per-pixel */
"64 64 13 1 ",
"  c #6070B0",
". c #5860A0",
"X c #201028",
"o c #705078",
"O c #603060",
"+ c #9078A0",
"@ c #C08828",
"# c #20A890",
"$ c #A098B8",
"% c #D85078",
"& c #E0B828",
"* c #C0B0C0",
"= c #905028",
/* pixels */
" ..XXXXXXXXXXXXXXXXXXXXXXXXXXXXXXXXXXXXXXXXXXXXXXXXXXXXXXXXXXXX.",
".XXoOOOOOOOOOOOOOOOOOOOOOOOOOOOOOOOOOOOOOOOOOOOOOOOOOOOOOOOOO++.",
".XXoOOOOOOOOOOOOOOOOOOOOOOOOOOOOOOOOOOOOOOOOOOOOOOOOOOOOOOOOO++.",
".XXOOOOOOOOOOOOOOOOOOOOOOOOOOOOOOOOOOOOOO@@@O###OOOOOOOOOOOO+oo.",
".XXOoo+$$$$$$$$$$$$$$$$$$$$$$$$$$$$$$$$$$@@@%%%##$$$$$$$$$++ooo.",
".XXO++$$$$$$$$$$$$$$$$$$$$$$$$$$$$$$$$$$$&$$%%%#*+++$$$$$$ooooo.",
".XXO++$$$$$$$$$$$$$$$$$$$$$$$$$$$$$$$$$$$&$$%%%#*+++$$$$$$ooooo.",
".XXO++$$$$$$$$$$$$$$$$$$$$$$$$$$$$$$$$$$$%%%$$$****$++$$$$ooooo.",
".XXO++$$$$+++++++++++++++++++++++++++++++%%%$%%*******$$$$ooo   ",
".XXO++$$$$++++++++++++++++++++++++++++++++###%%********$$+ooooo.",
".XXO++$$$$++++++++++++++++++++++++++++++++###%%********$$+ooooo.",
".XXO++$$$$ooOOOOOOOOOOOOOOOOOOOOOOOOOOOooo###$$*****$$$+++oo.oo.",
".XXO++$$$$OOo++++++++++++++++++++++++++++o++%%%****$++ooo+oo    ",
".XXO++$$$$OO+++++++++++++++++++++++++++++o$$%%%#$++OOO+$$$oo.oo.",
".XXO++$$$$OO+++++++++++++++++++++++++++++o$$%%%#$++OOO+$$$oo.oo.",
".XXO++$$$$OO+oooooooooooooooooooooooooo++@@@+###OOOo++$$$*oo.   ",
".XXO++$$$$OO+OOXXXXXXXXXXXXXXXXXX======++@@@+##oooo+$$$$$*oo.oo.",
".XXO++$$$$OO+OOOXXXXXXXXXXXXXXXXX@@&&&@++o+++$$$+++$*****+XXXXXX",
".XXO++$$$$OO+OOOXXXXXXXXXXXXXXXXX@@&&&@++o+++$$$+++$*****+XXXXXX",
".XXO++$$$$OO+OOOXXXXXXXXXXXXXXXXX&&&&&@++o$$$$$$+$$$oooXXXoo+.. ",
".XXO++$$$$OO+OOOXXXXXXXXXXXXX====&&&&&@++o$$$$$$$++ooo$++$**+.. ",
".XXO++$$$$OO+OOOXXXXXXXXXXXXX==@=&&&&&@++o$$$$$$$++$$$*++***+   ",
".XXO++$$$$OO+OOOXXXXXXXXXXXXX==@=&&&&&@++o$$$$$$$++$$$*++***+   ",
".XXO++$$$$OO+OOOXXXXXXXXXXXXX@@@=&&&&&@++o$$$$$$$++$***++***+.. ",
".XXO++$$$$OO+OOOXXXXXXXXX===X@@@=&&&&&@++o$$$$$$$++$***++***+.. ",
".XXO++$$$$OO+OOOXXXXXXXXX===X@@@=&&&&&@++o$$$$$$$++$***++***    ",
".XXO++$$$$OO+OOOXXXXXXXXX===X@@@=&&&&&@++o$$$$$$$++$***++***    ",
".XXO++$$$$OO+OOOXXXXXX=XX===X@@@=&&&&&@++o$$$$$$$++$***++***+.. ",
".XXO++$$$$OO+OOOXXXXXX=XX===X@@@=&&&&&@++o$$$$$$$++$***++***+   ",
".XXO++$$$$OO+OOOXXXXXX=XX===X@@@=&&&&&@++o$$$$$$$++$***++***+.. ",
".XXO++$$$$OO+OOOXXXXXX=XX===X@@@=&&&&&@++o$$$$$$$++$***++***+.. ",
".XXO++$$$$OO+OOOXXXXXX=XX===X@@@=&&&&&@++o$$$$$$$++$***++***+.. ",
".XXO++$$$$OO+OOOXXXXXX=XX===X@@@=&&&&&@++o$$$$$$$++$***++***+.. ",
".XXO++$$$$OO+OOOXXXXXX=XX===X@@@=&&&&&@++o$$$$$$$++$***++***+.. ",
".XXO++$$$$OO+OOOXXXXXX=XX===X@@@=&&&&&@++o$$$$$$$++$***++***+.. ",
".XXO++$$$$OO+OOOXXXXXX=XX===X@@@=&&&&&@++o$$$$$$$++$***++***+   ",
".XXO++$$$$OO+OOOXXXXXX=XX===X@@@=&&&&&@++o$$$$$$$++$***++***+.. ",
".XXO++$$$$OO+OOOXXXXXXXXX===X@@@=&&&&&@++o$$$$$$$++$***++***    ",
".XXO++$$$$OO+OOOXXXXXXXXX===X@@@=&&&&&@++o$$$$$$$++$***++***    ",
".XXO++$$$$OO+OOOXXXXXXXXX===X@@@=&&&&&@++o$$$$$$$++$***++***+.. ",
".XXO++$$$$OO+OOOXXXXXXXXXXXXX@@@=&&&&&@++o$$$$$$$++$***++***+.. ",
".XXO++$$$$OO+OOOXXXXXXXXXXXXX==@=&&&&&@++o$$$$$$$++$$$*++***+   ",
".XXO++$$$$OO+OOOXXXXXXXXXXXXX==@=&&&&&@++o$$$$$$$++$$$*++***+   ",
".XXO++$$$$OO+OOOXXXXXXXXXXXXX====&&&&&@++o$$$$$$$++ooo$++$**+.. ",
".XXO++$$$$OO+OOOXXXXXXXXXXXXXXXXX&&&&&@++o$$$$$$+$$$oooXXXoo+.. ",
".XXO++$$$$OO+OOOXXXXXXXXXXXXXXXXX@@&&&@++o+++$$$+++$*****+XXXXXX",
".XXO++$$$$OO+OOOXXXXXXXXXXXXXXXXX@@&&&@++o+++$$$+++$*****+XXXXXX",
".XXO++$$$$OO+OOXXXXXXXXXXXXXXXXXX======++@@@+##oooo+$$$$$*oo.oo.",
".XXO++$$$$OO+oooooooooooooooooooooooooo++@@@+###OOOo++$$$*oo.   ",
".XXO++$$$$OO+++++++++++++++++++++++++++++o$$%%%#$++OOO+$$$oo.oo.",
".XXO++$$$$OO+++++++++++++++++++++++++++++o$$%%%#$++OOO+$$$oo.oo.",
".XXO++$$$$OOo++++++++++++++++++++++++++++o++%%%****$++ooo+oo    ",
".XXO++$$$$ooOOOOOOOOOOOOOOOOOOOOOOOOOOOooo###$$*****$$$+++oo.oo.",
".XXO++$$$$$$$$$$$$$$$$$$$$$$$$$$$$$$$$$$$$###%%********$$+ooooo.",
".XXO++$$$$$$$$$$$$$$$$$$$$$$$$$$$$$$$$$$$$###%%********$$+ooooo.",
".XXO++$$$$$$$$$$$$$$$$$$$$$$$$$$$$$$$$$$$%%%$%%*******$$$$ooooo ",
".XXO++$$$$$$$$$$$$$$$$$$$$$$$$$$$$$$$$$$$%%%$$$****$++$$$$ooooo.",
".XXO++$$$$$$$$$$$$$$$$$$$$$$$$$$$$$$$$$$$$$$%%%#*+++$$$$$$ooo   ",
".XXO++$$$$$$$$$$$$$$$$$$$$$$$$$$$$$$$$$$$$$$%%%#*+++$$$$$$ooo   ",
".XXOoo$$$$$$$$$$$$$$$$$$$$$$$$$$$$$$$$$$$@@@%%%##$$$$$$$$$++ooo.",
".XXOOOooooooooooooooooooooooooooooooooooo@@@o###oooooooooooo+oo.",
".XXoOOooooooooooooooooooooooooooooooooooooooooooooooooooooooo++.",
".XXoOOooooooooooooooooooooooooooooooooooooooooooooooooooooooo++.",
" ..XXXXXXXXXXXXXXXXXXXXXXXXXXXXXXXXXXXXXXXXXXXXXXXXXXXXXXXXXXXX."
};
