/* XPM */
static char *result[] = {
/* columns rows colors chars-per-pixel */
"64 64 13 1 ",
"  c #6070B0",
". c #5860A0",
"X c #201028",
"o c #705078",
"O c #603060",
"+ c #9078A0",
"@ c #A098B8",
"# c #905028",
"$ c #C08828",
"% c #E0B828",
"& c #D85078",
"* c #20A890",
"= c #C0B0C0",
/* pixels */
" .............................................................. ",
".XXXXXXXXXXXXXXXXXXXXXXXXXXXXXXXXXXXXXXXXXXXXXXXXXXXXXXXXXXXXXX.",
".XXXXXXXXXXXXXXXXXXXXXXXXXXXXXXXXXXXXXXXXXXXXXXXXXXXXXXXXXXXXXX.",
"XooOOOOOOOOOOOOOOOOOOOOOOOOOOOOOOOOOOOOOOOOOOOOOOOOOOOOOOOOOOooX",
"XOOOo++++++++++++++++++++++++++++++++++++++++++++++++++++++oOOOX",
"XOOOo++++++++++++++++++++++++++++++++++++++++++++++++++++++oOOOX",
"Xooo@@@@@@@@@@@@@@@@@@@@@@@@@@@@@@@@@@@@@@@@@@@@@@@@@@@@@@@+OOOX",
"Xooo@@@@@@@@@@@@@@@@@@@@@@@@@@@@@@@@@@@@@@@@@@@@@@@@@@@@@@@@OOOX",
"Xooo@@@@@@@@@@@@@@@@@@@@@@@@@@@@@@@@@@@@@@@@@@@@@@@@@@@@@@@@OOOX",
"Xooo@@@@@@@@@@@@@@@@@@@@@@@@@@@@@@@@@@@@@@@@@@@@@@@@@@@@@@@@OOOX",
"Xooo@@@@@@@oOOOOOOOOOOOOOOOOOOOOOOOOOOOOOOOOOOOOOOOOo+++@@@@OOOX",
"Xooo@@@@@@@oOOOOOOOOOOOOOOOOOOOOOOOOOOOOOOOOOOOOOOOOo+++@@@@OOOX",
"Xooo@@@@@@@Oo++++++++++++++++++++++++++++++++++++++oO+++@@@@OOOX",
"Xooo@@@@@@@O+++oOOOOOOOOOOOOOOOOOOOOOOOOOOOOOOOOo+++O+++@@@@OOOX",
"Xooo@@@@@@@O+++oOOOOOOOOOOOOOOOOOOOOOOOOOOOOOOOOo+++O+++@@@@OOOX",
"Xooo@@@@@@@O+++oXOOOOOOOOOOOOOOOOOOOOOOOOOOOOOOXo+++O+++@@@@OOOX",
"Xooo@@@@@@@O+++oXXXXXXXXXXXXXXXXXXXXXXXXXXXXXXXXo+++O+++@@@@OOOX",
"Xooo@@@@@@@O+++oXXXXXXXXXXXXXXXXXXXXXXXXXXXXXXXXo+++O+++@@@@OOOX",
"Xooo@@@@@@@O+++oXXXXXXXXXXXXXXXXXXXXXXXXXXXXXXXXo+++O+++@@@@OOOX",
"Xooo@@@@@@@O+++oXXXXXXXXXXXXXXXXXXXXXXXXXXXXXXXXo+++O+++@@@@OOOX",
"Xooo@@@@@@@O+++oXXXXXXXXXXXXXXXXXXXXXXXXXXXXXXXXo+++O+++@@@@OOOX",
"Xooo@@@@@@@O+++oXXXXXXXXXXXXXXXXXXXXXXXXXXXXXXXXo+++O+++@@@@OOOX",
"Xooo@@@@@@@O+++oXXXXXXXXXXX##########XXXXXXXXXXXo+++O+++@@@@OOOX",
"Xooo@@@@@@@O+++oXXXXXXXXXXXXXXXXXXXXXXXXXXXXXXXXo+++O+++@@@@OOOX",
"Xooo@@@@@@@O+++oXXXXXXXXXXXXXXXXXXXXXXXXXXXXXXXXo+++O+++@@@@OOOX",
"Xooo@@@@@@@O+++oXXXXXXXX################XXXXXXXXo+++O+++@@@@OOOX",
"Xooo@@@@@@@O+++oXXXXXXXX################XXXXXXXXo+++O+++@@@@OOOX",
"Xooo@@@@@@@O+++oXXXXXXXX################XXXXXXXXo+++O+++@@@@OOOX",
"Xooo@@@@@@@O+++oXXXXXXXXXXXXXXXXXXXXXXXXXXXXXXXXo+++O+++@@@@OOOX",
"Xooo@@@@@@@O+++oXXXX###$$$$$$$$$$$$$$$$$$###XXXXo+++O+++@@@@OOOX",
"Xooo@@@@@@@O+++oXXXX###$$$$$$$$$$$$$$$$$$###XXXXo+++O+++@@@@OOOX",
"Xooo@@@@@@@O+++oXXXX#$$$$$$$$$$$$$$$$$$$$$$#XXXXo+++O+++@@@@OOOX",
"Xooo@@@@@@@O+++oXXXX########################XXXXo+++O+++@@@@OOOX",
"Xooo@@@@@@@O+++o#$$%%%%%%%%%%%%%%%%%%%%%%%%%%$$#o+++O+++@@@@OOOX",
"Xooo@@@@@@@O+++o#$$%%%%%%%%%%%%%%%%%%%%%%%%%%$$#o+++O+++@@@@OOOX",
"Xooo@@@@@@@O+++o#%%%%%%%%%%%%%%%%%%%%%%%%%%%%%%#o+++O+++@@@@OOOX",
"Xooo@@@@@@@O+++o#%%%%%%%%%%%%%%%%%%%%%%%%%%%%%%#o+++O+++@@@@OOOX",
"Xooo@@@@@@@O+++o#%%%%%%%%%%%%%%%%%%%%%%%%%%%%%%#o+++O+++@@@@OOOX",
"Xooo@@@@@@@O+++o#$$$$$$$$$$$$$$$$$$$$$$$$$$$$$$#o+++O+++@@@@OOOX",
"Xooo@@@@@@@o++++++++++++++++++++++++++++++++++++++++o+++@@@@OOOX",
"Xooo@@@@@@@o++++++++++++++++++++++++++++++++++++++++o+++@@@@OOOX",
"Xoo$$@@&&@@oooo$$oooooooooooooooooooooooooooooo$$oooo++&&%%$$OOX",
"Xoo$$@@&&***+@@$$++@@@@@@@@@@@@@@@@@@@@@@@@@@++$$@@+***&&@@$$OOX",
"Xoo$$@@&&***+@@$$++@@@@@@@@@@@@@@@@@@@@@@@@@@++$$@@+***&&@@$$OOX",
"Xooo&&&@@***&&&++++@@@@@@@@@@@@@@@@@@@@@@@@@@++++&&&***@@&&&OOOX",
"Xoo*&&&@&&&@&&&**@@@@@@@@@@@@@@@@@@@@@@@@@@@@@@**&&&@&&&@&&&*OOX",
"Xoo*&&&@&&&@&&&**@@@@@@@@@@@@@@@@@@@@@@@@@@@@@@**&&&@&&&@&&&*OOX",
"Xoo****======***o@@@@@@@@@@@@@@@@@@@@@@@@@@@@@@o***======****OOX",
"Xooo*========@@Oo+++@@@@@@@@@@@@@@@@@@@@@@@@+++oO@@========*OOOX",
"Xooo@++======++Oo++@++++++++++++++++++++++++@++oO++======++@OOOX",
"Xooo@++======++Oo++@++++++++++++++++++++++++@++oO++======++@OOOX",
"Xooo@++@====@OOo+@@@o@@@@@@@@@@@@@@@@@@@@@@o@@@+oOO@====@++@OOOX",
"Xooo@@@+===@+OO+@==oo@@==================@@oo==@+OO+@===+@@@OOOX",
"Xooo@@@+===@+OO+@==oo@@==================@@oo==@+OO+@===+@@@OOOX",
"Xooo@@@@@==@o++@@==o@======================@o==@@++o@==@@@@@OOOX",
"Xooo@@@@@@@+o@@@@==X++++++++++++++++++++++++X==@@@@o+@@@@@@@OOOX",
"Xooo@@@@@@@+o@@@@==X++++++++++++++++++++++++X==@@@@o+@@@@@@@OOOX",
"Xooo@@@@@++++@@==++X@======================@X++==@@++++@@@@@OOOX",
"Xooo+ooooooooooooXXo========================oXXoooooooooooo+OOOX",
"Xooo+ooooooooooooXXo========================oXXoooooooooooo+OOOX",
"Xoo+ooooooo. ....XX++++++  ++++++++++  ++++++XX.... .ooooooo+OOX",
"X++oo  ooooo oo oXX..  ..  . ...... .  ..  ..XXo oo ooo ooooo++X",
"X++oo  ooooo oo oXX..  ..  . ...... .  ..  ..XXo oo ooo ooooo++X",
".....  . ... .. .XX                          XX. .. ... ........"
};
