/* XPM */
static char *result[] = {
/* columns rows colors chars-per-pixel */
"64 64 81 1 ",
"  c #181430",
". c #1B272A",
"X c #1C2C2D",
"o c #1D3230",
"O c #1F3C34",
"+ c #1E363F",
"@ c #293C3E",
"# c #1F4136",
"$ c #214337",
"% c #204438",
"& c #1E3740",
"* c #1E3940",
"= c #302040",
"- c #3E2742",
"; c #302B40",
": c #303240",
"> c #303C40",
", c #333449",
"< c #302556",
"1 c #30275A",
"2 c #3C2D5B",
"3 c #302860",
"4 c #5E394F",
"5 c #633946",
"6 c #6A3D47",
"7 c #683D4B",
"8 c #304340",
"9 c #304C40",
"0 c #305140",
"q c #305940",
"w c #306340",
"e c #306C40",
"r c #307240",
"t c #307940",
"y c #5E4746",
"u c #6E444A",
"i c #704048",
"p c #79474A",
"a c #7A4E4B",
"s c #8D5A4E",
"d c #945D4F",
"f c #986050",
"g c #A06A52",
"h c #AF7D56",
"j c #318240",
"k c #308A40",
"l c #309040",
"z c #339C40",
"x c #33A440",
"c c #3CA142",
"v c #35AC40",
"b c #36B340",
"n c #37BA40",
"m c #449D43",
"M c #43AB43",
"N c #47B143",
"B c #4AB544",
"V c #51B545",
"C c #51BF45",
"Z c #408870",
"A c #38C040",
"S c #41C641",
"D c #46C942",
"F c #4CCE44",
"G c #53D245",
"H c #5AD746",
"J c #5ED946",
"K c #61D647",
"L c #61DB47",
"P c #62D748",
"I c #66D948",
"U c #68E048",
"Y c #75E54B",
"T c #79E74B",
"R c #7DE94C",
"E c #B48357",
"W c #B88858",
"Q c #82EB4D",
"! c #89ED4F",
"~ c #90F050",
"^ c None",
/* pixels */
"^^^^^^^^^^^^^^^^^^^^^^tttt^^^^^ttttt^^ttttqqq^^^^^^^^^^^^^^^^^^^",
"^^^^^^^^^^^^^^tttjt^^tllllttttttlllttttllAAAq^^^^^^^^^^^^^^^^^^^",
"^^^^^^^^^^^^^^tlAAlrtAAAlllUUUAzlAAAlklAAAAAtqqqq^^^^^^^^^^^^^^^",
"^^^^^^^^^^^^^^tAAAAzASAAAAUUUUUUAAAAAzzAAAAAAtllq^^^^^^^^^^^^^^^",
"^^^^^^^^^^ttttlAUUUUUUASAUUUUUUUUAAAUUUUUUAAnklltqqqqq^^^^^^^^^^",
"^^^^^^^^^^tlllzlUUUUUUUUAUUUUUUUUUAUUUUUUUAASzzzjjttt=^^^^^^^^^^",
"^^^^^^^^^^tlAAAAUUUUYUUUYUUUUUUUUUSUUUUUUUAAUUUUUUttt-^^^^^^^^^^",
"^^^^^^^^ttjtAAAAUUUU~~~~~UUUUUUUUUUUUUUUUUSUUUUUUUjjtwq0^^^^^^^^",
"^^^^^^tjjjAzSSSALUUU~~~~!!UUUUUUUUUUUUUUUYUYUUUUUUAAAzt;:;=^^^^^",
"^^^^^^tAAnUUUUUUAUUU~~!!UUUUUUUUUUUUUUUU~~~~UUUUUUAAAnttkk;^^^^^",
"^^^^^^tnAnUUUUUUSUUU!!UUUUUUUUUUUUUUUUUU!~~~~UUULLAAAnttrrq^^^^^",
"^^^tjjtknlUUUUUUUUUUUUUUUUUUUUUUUUUUUUUUL!!~~UUPSSSSAnjtwqwq=^^^",
"^^^tAAlkzzUUUUUUUUUUUUUUUUUUUUUUUUUUUUUUUUU!!UUSUUUUAllltqtt=^^^",
"^^^tbblAAAJUUUIYUUUUUUUUUUUUUUUUUUUUUUUUUUUUUUUUUUUUUclllqrt=^^^",
"^^^rkllAAAAHUUY~~YUUUUUUUUUUUUUUUUUUUUUUUUUUUUUUUUUUUUlllqqr;^^^",
"^qrrktlAASDDUY~~~~UUUUUUUUUUULUUUUUUUUUUUUUUUUUUUUUUUUlllqqewq^^",
"^qAAAzlADUUUU~~~~~YUUUUUUUUUUUUUUUUUUUUUUUUUUUUUUUUUUUzzlwtllw9^",
"^qAAAAzbUUUUU~~~~~~UUUUUUUUUUUUUUUUUUUUUUUUUUUUHUUUUUHAAkttlll=^",
"^qnAnAAlUUUUU~~~~~~UUUUUUUUUUUUUUUUUUUUUUUUUUUUDHHHHHAAAnktkkk=^",
"^qvAAbblUUUUU~~~~~QUUUUUUUUUUUUUUUUUUUUUUUUUUUUHDDAAAAAAAArtkt=^",
"^qebAMcxUUUUUQQQQQUUUUUUUUUUUUUUUUUUUUUUUUUUUUUDUUDDFAAAnbqewq=^",
"^^qtFUUAUUUUHUUUUUUUUYYUUUUUUUUUUUUUUUUUUUUUUUUUUUUUUDAAAkqq:=^^",
"^ww%UUUFGGGHAHUUUUUUU~~TUUUUUUUUUUUUUUUUUYYYTUUUUUUUUUAnbtwww>^^",
"qttwUUUUFFDAAFULUUUUU~~~UUUUUUUUUUUUUUUUT~~~~TUUUUUUUUvvktttttw^",
"8jjtIUUUUUUAFTYTTYUUURQQUUUUUUUUUUUUUUUU~~~~~~UUUUUUUUljtjjttjj=",
"=cxjHIUUUUHAT~~~~~TUUUUUUUUUUUUUUUUUUUUU~~~~~~UUUUUUULlllllttll=",
"=AnlxVCCGGAA~~~~~~~UUUUUUUUUTTTTUUUUUUUU~~~~~~UGUUUUUUlllllelkt=",
">ttwervBFFAA~~~~~~~GUUUUUUUT~~~~TTUUUUUUR~~~~~UAGGGGGGxxlllqww8=",
"q===qzFUUUFA!~~~~~RAUUUUUUU~~~~~~~UUUUUUURRRRRUAAFFFAAAAxllq>>=.",
"^^^8wGUUUUUA~~~~~RGARTUUUUUR~~~~~RUUUUUUUUUUUUUAFUUUFAAAAllq0q>X",
"^^qjjUUUUUUAIPIIPGAK~~RRUUUUR~~~RUUUUFUUUUUUUUUAUUUUUAAAAjt0ww0=",
"^^qvvIUUUUGGGAAAAAA~~~!~RUUUURRTUUUUUGFUUUUUUUUAUUUUUAAAAteqtte=",
"^^qAAUUUUUGULGFGAAA~~~~~~ULGUUUUUUUUUUAUUUUUUUUAFFGFFAAAAttewtt=",
"^qqAAGBBBBUUUUUUAAA~~~~~TUGAGUUUUUUUUGAFFUUUUUUAAvxAAAAAAtttqwe=",
"qq0zzxllllUUUUUUAAAPJPJPGFAAAFUUUUUUFAAAAFGFFGFAAvlvxxzzzkkjqq>^",
":eettvvvllUUUUUUGGGAAnAAAAAAGAFFUUFFAAAAAAAAAAAAAnvllkjttlkl>0=^",
"=kkttAAnllIULUGFUUUGGAAAnAGGUGGAFFAAAAAAAxAAAnAAAAAllllttlll=q8=",
"=llttAAAllNBNNxAUUUUUGxxGGUUUUUAAAAHGGGAAlxAAAAAAAnjllktwr90=q0=",
"=lljrjjjjllllllAUUUUUUllUUUUUUUnxGGUUUUGnllAAAAAAAAtllltq0888ee=",
"=999wqqqtvbvlllnUUUUUDllFUUUUUFxlFUUUUUUxlklAAAAAAxwejjtqqq0ett=",
"^^=8qqqewAAAbkjxUULUUxklxNIIUFvklxDUUUUUllttlltjjteeetttq>:qttt=",
"^^=qeerrqAAAAltjmmmmmlvbllNMMxlkllxDUUUMllttttqq%eettttt:=8>>8>=",
"^^=qkkttettkljrtttttvbAAlllkjbvblllxMDMllktkkkeqttttt>@>=8q==o^^",
"^^<:llkttrekkkktttttnAAAblljrxAAljlbbzlllltllltqtttjj-==8qq8=%Z^",
"^^3=>8wwtttlllltkkktxAAAAlkttjxztttAAbbbtjttllt0ttkll==@0qre=%%^",
"^34saayqkktwewewbbbktkklljjttttjtttlAnAxtwwweewqttlll==@qqtt=#%^",
"^36hhfu@llteq00qnAAlktttjjkkkkttttttlkkttqqq0qqqww8>@===::>:=%%^",
"^36WWf65>lltq::qAAAblrww%kbbblkktkkkttttw00rrrr;qq8-====54===%%^",
"^3iggfii=>>:;==;rrrrwwqqqwAAAbblwtllkktkqqrtrtt=;qq==98=ii===$$^",
"^+2pffii55===99=;;qqqqrrqqrAAAzwqwllllkwqqttttq==qq=-%q=54===@#$",
"^^3i>p666i===qq999qqqrttrqqeeewqqqwlllwq;qqtttq=9re===@=@=o=O%%^",
"^^&2^iiu22===rrqqq;;qrtqqqqqqqqqqq0www0;=;;:::;9qtt======X,=%%%^",
"^^^*^2223*11=ttq0;==;;;;;qqrrrq;qqqq;;;=990====;;;;99=o==%=O%%^^",
"^^^^^* *3^33=;;;;=099===0rrttq;=;0q;====rrr========;;=@@=#O%%%^^",
"^^^^^^^$O^*31665==rrr0==;qtq;;===@;===99ttt===09====@O%OO%%^%^^^",
"^^^^^^^^^^^37ddi==;;;;===;;;==008=====;;;;;==0q0====$#%%^^^^^^^^",
"^^^^^^^^^^^=dff6==============;;==+===========;;====%%%%^^^^^^^^",
"^^^^^^^^^^^=ffEd6667==6======O====O==6666d666666====%%%%%^^^^^^^",
"^^^^^^^^^^^=pfWEEEdf66i=======^==@;==666ffdddiii+===%^%%%^^^^^^^",
"^^^^^^^^^^^#=$WWWffi6i-==O====^==^=^=-p66ffff6ii=@=#%^%%^^^^^^^^",
"^^^^^^^^^^^^=i^fffiii%==^===;O^##^-^===66$ppiiii^==$%^%%^^^^^^^^",
"^^^^^^^^^^^^^=^p^iii^===^=^=#%^%##@$@=^=;i^6ii==^=$%%%%^^^^^^^^^",
"^^^^^^^^^^^^^^^i^ii=^===^%^%%%^^^^^^^^^===^=^==$^%%%%%^^^^^^^^^^",
"^^^^^^^^^^^^^^^%^%%%^%%%%%%^^^^^^^^^^^^^%$^%^$$%^^^^^^^^^^^^^^^^"
};
