/* XPM */
static char *result[] = {
/* columns rows colors chars-per-pixel */
"64 64 11 1 ",
"  c #B8B0A8",
". c #888078",
"X c #A8A098",
"o c #D8D0D8",
"O c #B8C098",
"+ c #486068",
"@ c #383048",
"# c #789878",
"$ c #384040",
"% c #180040",
"& c black",
/* pixels */
"        ..XXXXXXXXXXXXXXX       ooOO++++@#++++++@+$$$@%+@&%%%@%&",
"        ..XXXXXXXXXXXXXXX       ooOO++++@#++++++@+$$$@%+@&%%%@%&",
"        ..XXXXXXXXXXXXXXX       oooO++++@#++++++@+$$$%%+@&%%%@%&",
"        ..XXXXXXXXXXXXXXX       oooo++++@#++++++@+$$%%%+@&%%%@%&",
"        ..XXXXXXXXXXXXXXX       oooo++++@#++++++@$$@%%%+@&%%%@%&",
"        ..XXXXXXXXXXXXXXXX      oooo++++%+++++++@@@%%%%+@&%%%@%&",
"        ...XXXXXXXXXXXXX.XXXXXX.oooo++++%$+++++$@@@%%%%+@&%%%@%&",
"        XX      .X  XXXX        oooo++++%%@$++$@@@$$%%%+@&%%%@%&",
"        X       X     X         oooO++++%@++$@@@@$$$@%%+@&%%%@%&",
"        X       X      XX       ooO##+++%+++++@@@+$$$@%+@&%%%@%&",
"        X       X      X        ooO+#+++%#+++++@@+$$$@%+@&%%%@%&",
"        X       X               ooo+++++%#+++++$@+$$$@%+@&%%%@%&",
"        X       X       X      XoooO++++%#++++++@$+$$@%+@&%%%@%&",
"X       X       .X       X   XXXoooo++++%#++++++@@+$$@%+@&%%%@%&",
"XXXXXXXXX       ..XXXXXXXX...XX.oooo++++%#++++++@@@$$%%+@&%%%@%&",
"                ..XXXXXXX       oooo++++%#++++++@@@$$%%+@%%%%@%&",
"                ..XXXXXXX       oooo++++%#++++++@@+$$@%+@%%%%@%&",
"                ..XXXXXXX       oooo++++%+$+++++@$+$$@%$@%%%%@%&",
"                ..XXXXXXX       oooo++++%$$$$$$$@@@@@@%$@%%%%@%&",
"                ..XXXXXXX       oooo++++$+###++++$$@%%%$@&%%%@%&",
"                ..XXXXXXX       oooo++++$####++++++$@@%%%&%%%@%&",
"                ..XXXXXXXX      oooo+++++###+++$$++$$$$@%&&%%@%&",
"                ..XXXXXXXXXXXX..oooo+++$OOOO++$%%%@@@$$$@%%&%@%&",
"                ..XXXXXXXXX    Xoooo++++OOO#++$%%%@@@$$++$@&%@%&",
"                ..XXXXXXXX      oooo+++#OOO+++%%%%@@$+###$@&%@%&",
"                ..XXXXXXXX      oooo++$OOOO++$%%%%@$+#+##$@&%@%&",
"                ..XXXXXXX       oooo++#OOO#++$%%%%$@%$$+#$@&%@%&",
"                ..XXXXXXX      Xoooo++OOOO+++@%%%$%%%%$+#$@&%@%&",
"                ..XXXXXXX       oooo+#oooo++$%%%$++++@%%#$@&%@%&",
"                ..XXXXXXX       oooo+#oooo+++%%$+%%+$$+$#$@&%@%&",
"                ..XXXXXXX       oooo+#oooo+++%$++@%+$$@%#$@&%@%&",
"                  XX   X.X      oooo+#oooo+++%$+##+$%+$+#$@&%@%&",
"                  XX    .X      oooo+#oooo+++%$+##+%%+$+#$@&%@%&",
"                  X     .       oooo+#oooo+++%$+++%+$$@%#$@&%@%&",
"                 XX     X       oooo++OOOO+++@$++%%@$$+$#$@&%@%&",
"                        X       oooo++#OOO#++$@$+%%+$$%%#$@&%@%&",
"                        X       oooo++$OOOO++$%@$++$$@%$#$@&%@%&",
"                        .      Xoooo+++#OOO+++%%@@@@@%@+#$@&%@%&",
"                ..XXXXX...XXXXXXoooo++++OOO#++$%%%%%%%+++$@&%@%&",
"                .X             Xoooo+++$OOOO++$%%%@@@$$$@%%&%@%&",
"                .               oooo+++++###+++$$++$$$$@%&&%%@%&",
"                X               oooo++++$####++++++$@@%%%&%%%@%&",
"                X               oooo++++$+###++++$$@%%%$@&%%%@%&",
"                X               oooo++++%$$$$$$$@@@@@@%$@%%%%@%&",
"                X               oooo++++%+$+++++@$+$$@%$@%%%%@%&",
"                XX              oooo++++%#++++++@@+$$@%+@%%%%@%&",
"                XXXXXXXXXXXXXXX.oooo++++%#++++++@@@$$%%+@%%%%@%&",
"        ..XXXXXX                oooo++++@#++++++@+$@%%%+@&%%%@%&",
"        ..XXXXXX                oooo++++@#++++++@+$$@%%+@&%%%@%&",
"        ..XXXXXX                oooo++++@#++++++@+$$@%%+@&%%%@%&",
"        ..XXXXXX                oooo+@#+@+++++++@$@%%%%+@&%%%@%&",
"        ..XXXXXX                oooo++++@@$+++++@@+$@%%+@&%%%@%&",
"        ..XXXXXX                oooo++++@@@@$++$@$+$$%%+@&%%%@%&",
"        ..XXXXXX                Oooo++++@@++$@@@@+$$$@%+@&%%%@%&",
"        ...XXXXX                 ooo++++@@#++++@@+$$$@%+@&%%%@%&",
"        XX                       ooO++++@@#++++@@+$$$@%+@&%%%@%&",
"        X                        ooO++++%@#+++$@@+$$$@%+@&%%%@%&",
"        X                       Oooo++++%@+++@@@@+$$$@%+@&%%%@%&",
"        X                       oooo++++%%@$@$$@@+$$$%%+@&%%%@%&",
"        X                       oooo++++%%@@+++$@$$$%%%+@&%%%@%&",
"        X                       oooo++++%@@+++++@@$%%%%+@&%%%@%&",
"X       X                       oooo++++%@++++++@@@$$@%+@&%%%@%&",
"XXXXXXXXX                       oooo++++@$++++++@@+$$@%+@&%%%@%&",
"       XX       ..XXXXXXX       oooO++++@#++++++@+$$$@%+@&%%%@%&"
};
