/* XPM */
static char *result[] = {
/* columns rows colors chars-per-pixel */
"64 64 11 1 ",
"  c #B8B0A8",
". c #A8A098",
"X c #888078",
"o c #D8D0D8",
"O c #B8C098",
"+ c #486068",
"@ c #789878",
"# c #383048",
"$ c #384040",
"% c #180040",
"& c black",
/* pixels */
" ..                                              ..             ",
" .                                               .              ",
" .                                               .              ",
" .                                               .              ",
" .                                               .              ",
" .                                               .              ",
" .                                               .              ",
"..                                               .              ",
".........XXXXXXXX                                ........XXXXXXX",
"        .XXXXXXXX                                       .XXXXXXX",
"         X.......                                        X......",
"         ........                                        .......",
"         ........                                        .......",
"         ........                                        .......",
"         ........                                        .......",
"         ........                                        .......",
"X                ......XXX       XXXXXXXXXXXXXXXXXX.....X.......",
"X                ..     .X   .   XXXXXXXXXXXXXXXXX.     ........",
".                .       .   .....................       .......",
".                .       .     ...................       .......",
".                .       .       .................      ........",
".                .       .       .................      ........",
".                .       .       .................     .........",
".                .       X      ..................   .. ........",
".                .       XX...XXX................. .  .  X......",
"                 .       X     ..     .....      ..      ..     ",
"                 .       .              ..       X       .      ",
"                 .       .               .       X       .      ",
"                 .       .               .       X       .      ",
"                 .       .               .       ..      .      ",
"                 .       .               X       ..      .      ",
"                 X      ...         .   .X       X..     X      ",
"ooooooO   Oooooooooooooooooooooooooooooooooooooooooooooooooooooo",
"oooooooooooooooooooooooooooooooooooooooooooooooooooooooooooooooo",
"oooooooooooooooooooooooooooooooooooooooooooooooooooooOOoooooooOO",
"OooooooOOooooooooooooooooooooooooooooooooooooooooooO++@OoooooOOO",
"+++++++++++++++++++++++++++++++++++++++++++++++++++++@@+++++++++",
"+++++++++++++#++++++++++++++++@@@@@@++++++++++++++++++++++++++++",
"+++++++++++++@+++++++++++++$@OooooooO@$+++++++++++++++++++++++++",
"++++++++++++++++++++++++$+@OOOooooooOOO@+$++++++++++++++++++++++",
"##%%%%%%#########%%%%$$+OOOOOOooooooOOOOOO+$$%%%%%%%%%%%%%%#####",
"@$##%%#######+@@@@@+$+@@OOOOOOooooooOOOOOO@@+$+@@@@@@@+#%$+@@@@@",
"+++###+@@@+#$++++++$$@@@OOOO@++++++++@OOOO@@@$$+++++++++#+++++++",
"++++#$+++++#++++++++$@@@O@++++++++++++++@O@@@$++++++++++$+++++++",
"+++++#++++$$++++++++$@@++++++++++++$+++++++@@$+++++++++$++++++++",
"+++++$#+++#+++++++++$++++++$$#%%%%%%#$$++++++$+++++++++#++++++++",
"+++++$#$++#+++++++++$+++$$%%#$$$$$%%%%%%$$+++$++++++++##$+++++++",
"++++$######$++++++++$++$%%%#$+++++$%%%%%%%$++$++++++$####$++++++",
"#####################++$%%#$+++@@++$%%%%%%$++###################",
"+###$++++++$#$+++##$#$++%%#+%%+@@#%+$%%%%%++$#$####$+++$###$++++",
"$+#$$$$$$$$++#$$$#++#$++#%#+%%%++%%+%$####++$#++##++$$$$$##$$$$$",
"$$$%$$$$$$$$$%$$#$$$##$$#%#$+#+%$+++%#$###$$##$$$$$$$$$$$%%#$$$$",
"$$$%%$$$$$$$#%##%$$$#%#$#%#$$$$%%$$+%%+$##$#%#$$$$$$$$$#%%%%%$$$",
"###%%%#####%%%%%%%###%#$$%%#$$$++$$#%$@+$$$#%###%%#####%%%%%%%##",
"%%%%%%%%%%%%%%%%%%%%%%%$$+#%%+#$$#+%$$+@$$$%%%%%%%%%%%%%%%%%%%%%",
"+++++++++++++++++++$$$%#$++$%$%++%$%++@@+$#%$$$+++++++++++++++++",
"######################%%#+@@@@@@@@@@@@@@+#%%####################",
"&&&&&&&&&&&&&&&&&%%%%&&&%$$$$$$$$$$$$$$$$%&&&%%%%&&&&&&&&&&&&&&&",
"%%%%%%%%%%%%%%%%%%%%%%%&%################%&%%%%%%%%%%%%%%%%%%%%%",
"%%%%%%%%%%%%%%%%%%%%%%%%&&&&&&&&&&&&&&&&&&%%%%%%%%%%%%%%%%%%%%%%",
"%%%%%%%%%%%%%%%%%%%%%%%%%%%%%%%%%%%%%%%%%%%%%%%%%%%%%%%%%%%%%%%%",
"################################################################",
"%%%%%%%%%%%%%%%%%%%%%%%%%%%%%%%%%%%%%%%%%%%%%%%%%%%%%%%%%%%%%%%%",
"&&&&&&&&&&&&&&&&&&&&&&&&&&&&&&&&&&&&&&&&&&&&&&&&&&&&&&&&&&&&&&&&"
};
