/* XPM */
static char *result[] = {
/* columns rows colors chars-per-pixel */
"64 64 11 1 ",
"  c black",
". c #180040",
"X c #383048",
"o c #486068",
"O c #384040",
"+ c #789878",
"@ c #B8C098",
"# c #D8D0D8",
"$ c #B8B0A8",
"% c #A8A098",
"& c #888078",
/* pixels */
" .X... Xo.XOOOoXoooooo+Xoooo@###$$$$$$$%%%%%%%&&$$$$$$$%%$$$$$$$",
" .X... Xo.XOOoXXooooooOXoooo####$$$$$$$$$$$$$$$$$$$$$$$%%%%%%%%%",
" .X... Xo.XOOXXXooooooX.oooo####$$$$$$$$$$$$$$$$$$$$$$$%$$$$$$$%",
" .X... Xo....OXXoooooXX.oooo####$$$$$$$$$$$$$$$$$$$$$$$%$$$$$$$$",
" .X... Xo...OOOXOoooXX..oooo####$$$$$$$$$$$$$$$$$$$$$$$%$$$$$$$$",
" .X... Xo..OOOoXXOOXOX..oooo####$$$$$$$$$$$$$$$$$$$$$$$%$$$$$$$$",
" .X... Xo.XOOOoXXXXoooX.oooo###@$$$$$$$$$$$$$$$$$$$$$$$%$$$$$$$$",
" .X... Xo.XOOOoXXOooo+X.oooo@##$$$$$$$$$$$$$$$$$$$$$$$$%$$$$$$$$",
" .X... Xo.XOOOoXXoooo+XXoooo@##$$$$$$$$$$$$$$$$$$$$$$$%%$$$$$$$$",
" .X... Xo.XOOOoXXoooo+XXoooo###$$$$$$$$$$$$$$$$$%%%%%&&&$$$$$$$$",
" .X... Xo.XOOOoXXXXOooXXoooo###@$$$$$$$$$$$$$$$$%%%%%%&&$$$$$$$$",
" .X... Xo..OOoOXOooOXXXXoooo####$$$$$$$$$$$$$$$$%%%%%%&&$$$$$$$$",
" .X... Xo..XOoXXoooooOXXoooo####$$$$$$$$$$$$$$$$%%%%%%&&$$$$$$$$",
" .X... Xo....XOXoooooooXo+Xo####$$$$$$$$$$$$$$$$%%%%%%&&$$$$$$$$",
" .X... Xo..XOOoXoooooo+Xoooo####$$$$$$$$$$$$$$$$%%%%%%&&$$$$$$$$",
" .X... Xo..XOOoXoooooo+Xoooo####$$$$$$$$$$$$$$$$%%%%%%&&$$$$$$$$",
" .X... Xo...XOoXoooooo+Xoooo####$$$$$$$$$$$$$$$$%%%%%%&&$$$$$$$$",
" .X....Xo..OOXXXoooooo+.oooo####&%%%%%%%%%%%%%%%$$$$$$$$$$$$$$$$",
" .X....Xo.XOOoXXoooooo+.oooo####$$$$$$$$$$$$$$%%$$$$$$$$$$$$$$$$",
" .X....XO.XOOoOXoooooOo.oooo####$$$$$$$$$$$$$$$%$$$$$$$$$$$$$$$$",
" .X....XO.XXXXXXOOOOOOO.oooo####$$$$$$$$$$$$$$$%$$$$$$$$$$$$$$$$",
" .X... XO...XOOoooo+++oOoooo####$$$$$$$$$$$$$$$%$$$$$$$$$$$$$$$$",
" .X... ...XXOoooooo++++Ooooo####$$$$$$$$$$$$$$$%$$$$$$$$$$$$$$$$",
" .X..  .XOOOOooOOooo+++ooooo####$$$$$$$$$$$$$$$&$$$$$$$$$$$$$$$$",
" .X. ..XOOOXXX...Ooo@@@@Oooo####%$$$$$$$$$$$$$%&$$$$$$$$$$$$$$$$",
" .X. XOooo.......Ooo+@@@oooo####%%%%%%&&&%%%%%&&$$$$$$$$$$$$$$$$",
" .X. XO+oX.XXXXX..ooo@@@+ooo####%$$$$$$&$$$$$$$$$$$$$$$$$$$$$$$$",
" .X. XO+O.XOOooOX.Ooo@@@@Ooo####$$$$$$$%$$$$$$$$$$$$$$$$$$$$$$$$",
" .X. XO+..OOo..oOXOoo+@@@+oo####$$$$$$$%$$$$$$$$$$$$$$$$$$$$$$$$",
" .X. XO+OoOOX..ooOXooo@@@@oo####$$$$$$$%$$$$$%%$$$$$$$$$$$$$$$$$",
" .X. XO+.XOOo.oooO.ooo####+o####$$$$$$$&$$$$$%$$$$$$$$$$$$$$$$$$",
" .X. XO+oOo..o++oO.ooo####+o####$$$$$$%&$$$$%%$$$$$$$$$$$$$$$$$$",
" .X. XO+oOo.Oo++oO.ooo####+o####$$$$$$%&%$$$%%$$$$$$$$$$$$$$$$$$",
" .X. XO+.XOOo.XooO.ooo####+o####$$$$$$$%%%%%%%&&$$$$$$$$$$$$$$$$",
" .X. XO+OoOOo..oO..ooo####+o####$$$$$$$%%%%%%%&&$$$$$$$$$$$$$$$$",
" .X. XO+..XooooO...Ooo####+o####$$$$$$$%%%%%%%&&$$$$$$$$$$$$$$$$",
" .X. XO+oO....O...Xooo@@@@oo####%$$$$$$%%%%%%%&&$$$$$$$$$$$$$$$$",
" .X. XO+oOO.XO....Ooo+@@@+oo####$$$$$$$%%%%%%%&&$$$$$$$$$$$$$$$$",
" .X. XO++o+oOX....Ooo@@@@Ooo####$$$$$$%%%%%%%%&&$$$$$$$$$$$$$$$$",
" .X. XO+++oOXX....ooo@@@+ooo####$$$$$$%%%%%%%%&&$$$$$$$$$$$$$$$$",
" .X. XOooOOXXX...Ooo+@@@oooo####%$$$$%%%%%%%%%&&$$$$$$$$$$$$$$$$",
" .X. ..XOOOXXX...Ooo@@@@Oooo####&&%%%%%%%%%%%%&&$$$$$$$$$$$$$$$$",
" .X..  .XOOOOooOOooo+++ooooo####$$$$$$%%%%%%%%&&$$$$$$$$$$$$$$$$",
" .X... ...XXOoooooo++++Ooooo####$$$$$$$%%%%%%%&&$$$$$$$$$$$$$$$$",
" .X... XO...XOOoooo+++oOoooo####$$$$$$$%%%%%%%&&$$$$$$$$$$$$$$$$",
" .X....XO.XXXXXXOOOOOOO.oooo####$$$$$$$%%%%%%%&&$$$$$$$$$$$$$$$$",
" .X....XO.XOOoOXoooooOo.oooo####$$$$$$$%%%%%%%&&$$$$$$$$$$$$$$$$",
" .X....Xo.XOOoXXoooooo+.oooo####$$$$$$$%%%%%%%&&$$$$$$$$$$$$$$$$",
" .X....Xo..OOXXXoooooo+.oooo####$$$$$$$%%%%%%%&&$$$$$$$$$$$$$$$$",
" .X... Xo..OOXXXoooooo+.oooo####&%%&&&%%%%%%%%&&$$$$$$$%%%%%%%%%",
" .X... Xo.XOOoXXoooooo+.oooo####%%%$$$%$$$$$$$%&$$$$$$$%$$$$$$$%",
" .X... Xo.XOOoOXoooooo+.oooo@###%$$$$$$%$$$$$$$%$$$$$$$%$$$$$$$$",
" .X... Xo.XOOOoXOooooo+.ooooo###$$$$$$$$$$$$$$$%$$$$$$$%$$$$$$$$",
" .X... Xo.XOOOoXXooooo+.ooo+o@##$$$$$$$$%$$$$$$%$$$$$$$%$$$$$$$$",
" .X... Xo.XOOOoXXXooooo.ooo++@##$$$$$$$%%$$$$$$%$$$$$$$%$$$$$$$$",
" .X... Xo..XOOOXXXXOooX.oooo@###$$$$$$$$$%$$$$$%$$$$$$$%$$$$$$$$",
" .X... Xo...OOXXXOooOX..oooo####$$$$$$$$%%%%$$%&$$$$$$%%$$$$$$$$",
" .X... Xo....XXXOoooooO.oooo####&%%%%%%&%%%%%%%%%%%%%&&&$$$$$$$$",
" .X... Xo....XXXooooooo.oooo####$$$$$$%%%%%%%%%%%%%%%%&&$$$$$$$$",
" .X... Xo...XOOXoooooo+Xoooo####$$$$$$$%%%%%%%%%%%%%%%&&$$$$$$$$",
" .X... Xo...OOoXoooooo+Xoooo####$$$$$$$%%%%%%%%%%%%%%%&&$$$$$$$$",
" .X... Xo..OOOoXoooooo+Xoooo@###$$$$$$$%%%%%%%%%%%%%%%&&$$$$$$$$",
" .X... Xo.XOOOoXoooooo+Xoooo@@##$$$$$$$%%%%%%%%%%%%%%%&&$$$$$$$$",
" .X... Xo.XOOOoXoooooo+Xoooo@@##$$$$$$$%%%%%%%%%%%%%%%&&$$$$$$$$"
};
