/* XPM */
static char *result[] = {
/* columns rows colors chars-per-pixel */
"64 64 11 1 ",
"  c black",
". c #180040",
"X c #383048",
"o c #384040",
"O c #486068",
"+ c #789878",
"@ c #B8C098",
"# c #D8D0D8",
"$ c #B8B0A8",
"% c #888078",
"& c #A8A098",
/* pixels */
"                                                                ",
"................................................................",
"XXXXXXXXXXXXXXXXXXXXXXXXXXXXXXXXXXXXXXXXXXXXXXXXXXXXXXXXXXXXXXXX",
"................................................................",
"......................                  ........................",
"..................... .XXXXXXXXXXXXXXXX. .......................",
"               ....   .oooooooooooooooo.   ....                 ",
"XXXXXXXXXXXXXXXXXXXX..XO++++++++++++++OX..XXXXXXXXXXXXXXXXXXXXXX",
"OOOOOOOOOOOOOOOOOooo.XoO++OO.o.OO.o.oOOoX.oooOOOOOOOOOOOOOOOOOOO",
".....................ooo+Ooo.OXooXO..XOoo.......................",
"XX.......XXXXX..XXX.XoooO+o.XooOOoooX..ooX.XXX.......XXXXX...XXX",
"ooo.....XoooooooooX.XoXXoO..Ooo..ooooX.XoX.Xooo.XX.Xooooooo..ooo",
"ooooX..oooooooooooXXooXXXoX.OOOo.OXOoX.XooXXoooXoo.ooooooooo.ooo",
"oooooXXoooooOOXXOOXoOOXXXXo.O..OO...OX.XOOoXOOXoooXOOooooooooXOo",
"OOOOoXXXoOOOoXXXXoXoOO.....oO.X++O..OX..OOoXoXXOOOoXoOOOOOOoXXXO",
"XXXXXXXXXXXXXXXXXXXOOo......oOO++OOOoX..oOOXXXXXXXXXXXXXXXXXXXXX",
"OOOOOOoXXXXoOOOOOOoOOo.......oOOOOOoX...oOOoOOOOOOOOoXXXXXXoOOOO",
"OOOOOOOoXXOOOOOOOOoOOOoo......oooooX..ooOOOoOOOOOOOOOXOOoXoOOOOO",
"OOOOOOOOXOOOOOOOOOoOOOOOOooX......XooOOOOOOoOOOOOOOOOXOOOXoOOOOO",
"OOOOOOOOoOOOOOOOOOo++OOOOOOOoOOOOOOOOOOOO++oOOOOOOOOooOOOOXOOOOO",
"OOOOOOOoOOOOOOOOOOo+++@+OOOOOOOOOOOOOO+@+++oOOOOOOOOXOOOOOoXOOOO",
"OOOOOOOXOOOOOOOOOoo+++@@@@+OOOOOOOO+@@@@+++ooOOOOOOoXO+++OXXXOOO",
"+++++Oo.XO+++++++OoO++@@@@@@######@@@@@@++OoO+++++OXXXXXXX..XXo+",
"XXXXX..............ooO@@@@@@######@@@@@@Ooo....XXXXXXXXX......XX",
"OOOOOOOOOOOOOOOOOOOOOOoO+@@@######@@@+OoOOOOOOOOOOOOOOOOOOOOOOOO",
"OOOOOOOOOOOOOOOOOOOOOOOOOo+@######@+oOOOOOOOOOOOOO+OOOOOOOOOOOOO",
"OOOOOOOOOOOOOOOOOOOOOOOOOOOO++++++OOOOOOOOOOOOOOOOXOOOOOOOOOOOOO",
"OOOOOOOOO++OOOOOOOOOOOOOOOOOOOOOOOOOOOOOOOOOOOOOOOOOOOOOOOOOOOOO",
"@@@#####@+OO@##########################################@@######@",
"@@#######@@#####################################################",
"################################################################",
"#####################################################@$$$@######",
"$$$$$$%$$$$$&&%$$$$$$$%&$$$&$$$$$$$$$&&&$$$$$$%$$$$$$$$$$$$$$$$$",
"$$$$$$&$$$$$$&&$$$$$$$%$$$$$$$$$$$$$$$&$$$$$$$&$$$$$$$$$$$$$$$$$",
"$$$$$$&$$$$$$&&$$$$$$$&$$$$$$$$$$$$$$$&$$$$$$$&$$$$$$$$$$$$$$$$$",
"$$$$$$&$$$$$$$%$$$$$$$&$$$$$$$$$$$$$$$&$$$$$$$&$$$$$$$$$$$$$$$$$",
"$$$$$$&$$$$$$$%$$$$$$$&$$$$$$$$$$$$$$$&$$$$$$$&$$$$$$$$$$$$$$$$$",
"$$$$$$&$$$$$$$%$$$$$$$&&$$$$$$$$$$$$$$&$$$$$$$&$$$$$$$$$$$$$$$$$",
"$$$$$&&$$$$$$&&$$$$$$&&&&&$$$$$&&$$$$$%$$$$$$$&$$$$$$$$$$$$$$$$$",
"&&&&&&%$$&$$&$&&&&&&&&&&&&&&&&&%%%&&&%%$$$$$$$&$$$$$$$$$$$$$$$$&",
"&&&&&&&&$&&$$$&&&&&&&&&&&&&&&&&&$$$$$$%$$$$$$$&$$$$$$$$$$$$$$$$&",
"&&&&&&&&&$$$$$&&&&&&&&&&&&&&&&&$$$$$$$&$$$$$$$&$$$$$$$$$$$$$$$$&",
"&&&&&&&&$$$$$$&&&&&&&&&&&&&&&&&$$$$$$$&$$$$$$$&$$$$$$$$$$$$$$$$&",
"&&&&&&&&$$$$$$&&&&&&&&&&&&&&&&&$$$$$$$&$$$$$$$&$$$$$$$$$$$$$$$$&",
"&&&&&&&$$$$$$$&&&&&&&&&&&&&&&&&&&$$$$$&$$$$$$$&$$$$$$$$$$$$$$$$&",
"&&&&&&&$$$$$$$&&&&&&&&&&&&&&&&&&&&&$$$&$$$$$$$&$$$$$$$$$$$$$$$$&",
"&&&&&&&&$$$$$&%%%%%%%%%%%%%%%%%$$$&$$$%&$$$$$&&$$$$$$$$$$$$$$$$%",
"&&&&&&&%&&&&&%%%%%%%%%%%%%%%%%%$$$$$$$%%%&&&&&&$$$$$$$$$$$$$$$$%",
"&&&&&&&$$$$$$$$$$$$$$$$$$$$$$$$$$$$$$$$$$$$$$$$&&&&&&&&$$$$$$$$$",
"&&&&&&&$$$$$$$$$$$$$$$$$$$$$$$$$$$$$$$$$$$$$$$$&&&&&&&&$$$$$$$$$",
"&&&&&&&$$$$$$$$$$$$$$$$$$$$$$$$$$$$$$$$$$$$$$$$&&&&&&&&$$$$$$$$$",
"&&&&&&&$$$$$$$$$$$$$$$$$$$$$$$$$$$$$$$$$$$$$$$$&&&&&&&&$$$$$$$$$",
"&&&&&&&$$$$$$$$$$$$$$$$$$$$$$$$$$$$$$$$$$$$$$$$&&&&&&&&$$$$$$$$$",
"&&&&&&%$$$$$$$$$$$$$$$$$$$$$$$$$$$$$$$$$$$$$$$$&&&&&&&%$$$$$$$$$",
"%%%%%%%&$$$$$$$$$$$$$$$$$$$$$$$$$$$$$$$$$$$$$$$%%%%%%%%&$$$$$$$$",
"%%%%%%%&&&&&&&&$$$$$$$$$$$$$$$$$$$$$$$$$$$$$$$$%%%%%%%%&&&&&&&&&",
"$$$$$$$$$$$$$$&$$$$$$$$$$$$$$$$$$$$$$$$$$$$$$$$$$$$$$$$$$$$$$$&&",
"$$$$$$$$$$$$$$&$$$$$$$$$$$$$$$$$$$$$$$$$$$$$$$$$$$$$$$$$$$$$$$&$",
"$$$$$$$$$$$$$$&$$$$$$$$$$$$$$$$$$$$$$$$$$$$$$$$$$$$$$$$$$$$$$$&$",
"$$$$$$$$$$$$$$&$$$$$$$$$$$$$$$$$$$$$$$$$$$$$$$$$$$$$$$$$$$$$$$&$",
"$$$$$$$$$$$$$$&$$$$$$$$$$$$$$$$$$$$$$$$$$$$$$$$$$$$$$$$$$$$$$$&$",
"$$$$$$$$$$$$$$&$$$$$$$$$$$$$$$$$$$$$$$$$$$$$$$$$$$$$$$$$$$$$$$&$",
"$$$$$$$$$$$$$$&$$$$$$$$$$$$$$$$$$$$$$$$$$$$$$$$$$$$$$$$$$$$$$$&$",
"$$$$$$$$$$$$$&&$$$$$$$$$$$$$$$$$$$$$$$$$$$$$$$$$$$$$$$$$$$$$$&&$"
};
