/* XPM */
static char *result[] = {
/* columns rows colors chars-per-pixel */
"113 100 24 1 ",
"  c black",
". c #7B1029",
"X c #107B29",
"o c #7B5200",
"O c #734221",
"+ c #DE2929",
"@ c #A57B42",
"# c #42A529",
"$ c #10FF08",
"% c #363243",
"& c #BD8418",
"* c #EFBD21",
"= c yellow",
"- c #FFEF29",
"; c #94947B",
": c #DEAD52",
"> c #3152FF",
", c #D6B58C",
"< c #BDFFA5",
"1 c #C6C6AD",
"2 c #FFE7BD",
"3 c #EFEFD6",
"4 c white",
"5 c None",
/* pixels */
"5555555555555555555555555555555555555555555555  ##############   555555555555555555555555555555555555555555555555",
"5555555555555555555555555555555555555555555555  ##############   555555555555555555555555555555555555555555555555",
"5555555555555555555555555555555555555555555555  ##############   555555555555555555555555555555555555555555555555",
"5555555555555555555555555555555555555555555   ##$$$$$$$$$$$$$$###   555555555555555555555555555555555555555555555",
"5555555555555555555555555555555555555555555   ##$$$$$$$$$$$$$$###   555555555555555555555555555555555555555555555",
"5555555555555555555555555555555555555555   ###$$$$$$$$$$$$$$$$$$$###   555555555555555555555555555555555555555555",
"5555555555555555555555555555555555555555   ###$$$$$$$$$$$$$$$$$$$###   555555555555555555555555555555555555555555",
"5555555555555555555555555555555555555555   ###$$$$$$$$$$$$$$$$$$$###   555555555555555555555555555555555555555555",
"5555555555555555555555555555555555555   ###$$$$$$$$$$$$$$$$$$$$$$$$$###   555555555555555555555555555555555555555",
"5555555555555555555555555555555555555   ###$$$$$$$$$$$$$$$$$$$$$$$$$###   555555555555555555555555555555555555555",
"5555555555555555555555555555555555555   ###$$$$$$$$$$$$$$$$$$$$$$$$$###   555555555555555555555555555555555555555",
"5555555555555555555555555555555555555   ###$$$@@=================:::###   555555555555555555555555555555555555555",
"5555555555555555555555555555555555555   ###$$$@@=================:::###   555555555555555555555555555555555555555",
"5555555555555555555555555555555555555   ###$$$@@=================:::###   555555555555555555555555555555555555555",
"5555555555555555555555555555555555555   $$$@@@======================:::   555555555555555555555555555555555555555",
"5555555555555555555555555555555555555   $$$@@@======================:::   555555555555555555555555555555555555555",
"55555555555555555555555555555555@@@,,OOO@@@=====:::========:::=========OOOOOO,,@@@5555555555555555555555555555555",
"55555555555555555555555555555555@@@,,OOO@@@=====:::========:::=========OOOOOO,,@@@5555555555555555555555555555555",
"55555555555555555555555555555555@@@,,OOO@@@=====:::========:::=========OOOOOO,,@@@5555555555555555555555555555555",
"55555555555555555555555555555555OOO22@@@======@@:::========@@@@@@======@@@22222OOO5555555555555555555555555555555",
"55555555555555555555555555555555OOO22@@@======@@:::========@@@@@@======@@@22222OOO5555555555555555555555555555555",
"55555555555555555555555555555555OOO22@@@======@@:::========@@@@@@======@@@22222OOO5555555555555555555555555555555",
"55555555555555555555555555555555555OOOOO:::@@@::========:::@@@,,,@@@:::@@@,,,OO5555555555555555555555555555555555",
"55555555555555555555555555555555555OOOOO:::@@@::========:::@@@,,,@@@:::@@@,,,OO5555555555555555555555555555555555",
"55555555555555555555555555555555555OOOOO:::@@@::========:::@@@,,,@@@:::@@@,,,OO5555555555555555555555555555555555",
"5555555555555555555555555555555555555OOO===OOO::======::OOO,,,222@@@OOO===OOO555555555555555555555555555555555555",
"5555555555555555555555555555555555555OOO===OOO::======::OOO,,,222@@@OOO===OOO555555555555555555555555555555555555",
"5555555555555555555555555555555555555   ===@@@OOOOO:::OO,,,,,,OOO   OOO===   555555555555555555555555555555555555",
"5555555555555555555555555555555555555   ===@@@OOOOO:::OO,,,,,,OOO   OOO===   555555555555555555555555555555555555",
"5555555555555555555555555555555555555   ===@@@OOOOO:::OO,,,,,,OOO   OOO===   555555555555555555555555555555555555",
"5555555555555555555555555555555555555   :::OOO44>>>OOO22222OOO>>>444OOO:::   555555555555555555555555555555555555",
"5555555555555555555555555555555555555   :::OOO44>>>OOO22222OOO>>>444OOO:::   555555555555555555555555555555555555",
"5555555555555555555555555555555555555   :::OOO44>>>OOO22222OOO>>>444OOO:::   555555555555555555555555555555555555",
"5555555555555555555555555555555555555         22>>>44422222444>>>222      555555555555555555555555555555555555555",
"5555555555555555555555555555555555555         22>>>44422222444>>>222      555555555555555555555555555555555555555",
"55555555555555555555555555555555     <<<<<<   @@22222222222222,,,@@@      555555555555555555555555555555555555555",
"55555555555555555555555555555555     <<<<<<   @@22222222222222,,,@@@      555555555555555555555555555555555555555",
"55555555555555555555555555555555     <<<<<<   @@22222222222222,,,@@@      555555555555555555555555555555555555555",
"55555555555555555555555555555   22222<<<<<<<<<OO,,,,,,,,,,,,,,OOOOOOXXX<<<   555555555555555555555555555555555555",
"55555555555555555555555555555   22222<<<<<<<<<OO,,,,,,,,,,,,,,OOOOOOXXX<<<   555555555555555555555555555555555555",
"55555555555555555555555555555   22222<<<<<<<<<OO,,,,,,,,,,,,,,OOOOOOXXX<<<   555555555555555555555555555555555555",
"55555555555555555555555555555   ,,,22      OOOOOOOO##############XXX<<<<<<   555555555555555555555555555555555555",
"55555555555555555555555555555   ,,,22      OOOOOOOO##############XXX<<<<<<   555555555555555555555555555555555555",
"55555555555555555555555555555   ,,,22      OOOOOOOO##############XXX<<<<<<   555555555555555555555555555555555555",
"55555555555555555555555555555555     %%%      $$OOOXXX########XXX   <<<<<<<<<  5555555555555555555555555555555555",
"55555555555555555555555555555555     %%%      $$OOOXXX########XXX   <<<<<<<<<  5555555555555555555555555555555555",
"5555555555555555555555555555555555555%%%      $$$$$OOOOO======OOOOOO   <<<<<<<<   5555555555555555555555555555555",
"5555555555555555555555555555555555555%%%      $$$$$OOOOO======OOOOOO   <<<<<<<<   5555555555555555555555555555555",
"5555555555555555555555555555555555555%%%      $$$$$OOOOO======OOOOOO   <<<<<<<<   5555555555555555555555555555555",
"5555555555555555555555555555555555555%%%      $$$$$OOOOO======OOOOOO   <<<<<<<<   5555555555555555555555555555555",
"5555555555555555555555555555555555555%%%      ##$$$$$$##======###$$$###   222,,   5555555555555555555555555555555",
"5555555555555555555555555555555555555%%%      ##$$$$$$##======###$$$###   222,,   5555555555555555555555555555555",
"5555555555555555555555555555555555555%%%      ##$$$$$$##======###$$$###   222,,   5555555555555555555555555555555",
"5555555555555555555555555555555555555555%%%        ###$$$$$$$$$$$         222&&oooooo5555555555555555555555555555",
"5555555555555555555555555555555555555555%%%        ###$$$$$$$$$$$         222&&oooooo5555555555555555555555555555",
"5555555555555555555555555555555555555555555555%%%%%              ...+++   &&&--***&&&oo55555555555555555555555555",
"5555555555555555555555555555555555555555555555%%%%%              ...+++   &&&--***&&&oo55555555555555555555555555",
"5555555555555555555555555555555555555555555555%%%%%              ...+++   &&&--***&&&oo55555555555555555555555555",
"55555555555555555555555555555555555555555555555555555555555   ...   &&&---ooo--------oo55555555555555555555555555",
"55555555555555555555555555555555555555555555555555555555555   ...   &&&---ooo--------oo55555555555555555555555555",
"55555555555555555555555555555555555555555555555555555555555   ...   &&&---ooo--------oo55555555555555555555555555",
"55555555555555555555555555555555555555555555555555555555555555      ***--------***444  55555555555555555555555555",
"55555555555555555555555555555555555555555555555555555555555555      ***--------***444  55555555555555555555555555",
"55555555555555555555555555555555555555555555555555555555555555      ***--------***444  55555555555555555555555555",
"55555555555555555555555555555555555555555555555555555555555555555   ---&&&***--333111;;55555555555555555555555555",
"55555555555555555555555555555555555555555555555555555555555555555   ---&&&***--333111;;55555555555555555555555555",
"55555555555555555555555555555555555555555555555555555555555555555   &&&5551114444444433;;;55555555444555555555555",
"55555555555555555555555555555555555555555555555555555555555555555   &&&5551114444444433;;;55555555444555555555555",
"55555555555555555555555555555555555555555555555555555555555555555   &&&5551114444444433;;;55555555444555555555555",
"55555555555555555555555555555555555555555555555555555555555555555555555;;;333444444441133311133344555555555555555",
"55555555555555555555555555555555555555555555555555555555555555555555555;;;333444444441133311133344555555555555555",
"55555555555555555555555555555555555555555555555555555555555555555555555;;;333444444441133311133344555555555555555",
"55555555555555555555555555555555555555555555555555555555555555555555555555111444444444444444444455555555555555555",
"55555555555555555555555555555555555555555555555555555555555555555555555555111444444444444444444455555555555555555",
"55555555555555555555555555555555555555555555555555555555555555555555555555111444444444444444444455555555555555555",
"55555555555555555555555555555555555555555555555555555555555555555555555111333334444444444444455555555555555555555",
"55555555555555555555555555555555555555555555555555555555555555555555555111333334444444444444455555555555555555555",
"555555555555555555555555555555555555555555555555555555555555555551111113334444444444444111;;;55555555555555555555",
"555555555555555555555555555555555555555555555555555555555555555551111113334444444444444111;;;55555555555555555555",
"555555555555555555555555555555555555555555555555555555555555555551111113334444444444444111;;;55555555555555555555",
"55555555555555555555555555555555555555555555555555555555111111333333333444444;;3334444411155555555555555555555555",
"55555555555555555555555555555555555555555555555555555555111111333333333444444;;3334444411155555555555555555555555",
"55555555555555555555555555555555555555555555555555555555111111333333333444444;;3334444411155555555555555555555555",
"555555555555555555555555555555555555555555555555555333334444444444444443331115511144444333;;;55555555555555555555",
"555555555555555555555555555555555555555555555555555333334444444444444443331115511144444333;;;55555555555555555555",
"5555555555555555555555555555555555555555555555555555555555555555555555555555555;;;33344333;;;55555555555555555555",
"5555555555555555555555555555555555555555555555555555555555555555555555555555555;;;33344333;;;55555555555555555555",
"5555555555555555555555555555555555555555555555555555555555555555555555555555555;;;33344333;;;55555555555555555555",
"5555555555555555555555555555555555555555555555555555555555555555555555555555555;;;1114444455555555555555555555555",
"5555555555555555555555555555555555555555555555555555555555555555555555555555555;;;1114444455555555555555555555555",
"5555555555555555555555555555555555555555555555555555555555555555555555555555555;;;1114444455555555555555555555555",
"55555555555555555555555555555555555555555555555555555555555555555555555555555555555551144455555555555555555555555",
"55555555555555555555555555555555555555555555555555555555555555555555555555555555555551144455555555555555555555555",
"55555555555555555555555555555555555555555555555555555555555555555555555555555555555551144455555555555555555555555",
"555555555555555555555555555555555555555555555555555555555555555555555555555555555555555;;;55555555555555555555555",
"555555555555555555555555555555555555555555555555555555555555555555555555555555555555555;;;55555555555555555555555",
"55555555555555555555555555555555555555555555555555555555555555555555555555555555555555555555555555555555555555555",
"55555555555555555555555555555555555555555555555555555555555555555555555555555555555555555555555555555555555555555",
"55555555555555555555555555555555555555555555555555555555555555555555555555555555555555555555555555555555555555555",
"55555555555555555555555555555555555555555555555555555555555555555555555555555555555555555555555555555555555555555"
};
