/* XPM */
static char *result[] = {
/* columns rows colors chars-per-pixel */
"113 100 25 1 ",
"  c black",
". c #7B1029",
"X c #107B29",
"o c #7B5200",
"O c #734221",
"+ c #6B6B5A",
"@ c #DE2929",
"# c #A57B42",
"$ c #42A529",
"% c #10FF08",
"& c #363243",
"* c #BD8418",
"= c #EFBD21",
"- c yellow",
"; c #FFEF29",
": c #94947B",
"> c #DEAD52",
", c #3152FF",
"< c #D6B58C",
"1 c #BDFFA5",
"2 c #C6C6AD",
"3 c #FFE7BD",
"4 c #EFEFD6",
"5 c white",
"6 c None",
/* pixels */
"6666666666666666666666666666666666666666666666  $$$$$$$$$$$$$   6666666666666666666666666666666666666666666666666",
"6666666666666666666666666666666666666666666666  $$$$$$$$$$$$$   6666666666666666666666666666666666666666666666666",
"6666666666666666666666666666666666666666666666  $$$$$$$$$$$$$   6666666666666666666666666666666666666666666666666",
"6666666666666666666666666666666666666666666   $$%%%%%%%%%%%%%$$$  66666666666666666666666666666666666666666666666",
"6666666666666666666666666666666666666666666   $$%%%%%%%%%%%%%$$$  66666666666666666666666666666666666666666666666",
"6666666666666666666666666666666666666666   $$$%%%%%%%%%%%%%%%%%%$$  666666666666666666666666666666666666666666666",
"6666666666666666666666666666666666666666   $$$%%%%%%%%%%%%%%%%%%$$  666666666666666666666666666666666666666666666",
"66666666666666666666666666666666666666  $$$%%%%%%%%%%%%%%%%%%%%%%%$$   666666666666666666666666666666666666666666",
"66666666666666666666666666666666666666  $$$%%%%%%%%%%%%%%%%%%%%%%%$$   666666666666666666666666666666666666666666",
"66666666666666666666666666666666666666  $$$%%%%%%%%%%%%%%%%%%%%%%%$$   666666666666666666666666666666666666666666",
"66666666666666666666666666666666666666  %%%###------------------##%%   666666666666666666666666666666666666666666",
"66666666666666666666666666666666666666  %%%###------------------##%%   666666666666666666666666666666666666666666",
"66666666666666666666666666666666666666  %%%###------------------##%%   666666666666666666666666666666666666666666",
"66666666666666666666666666666666666666  ###-----------------------##   666666666666666666666666666666666666666666",
"66666666666666666666666666666666666666  ###-----------------------##   666666666666666666666666666666666666666666",
"666666666666666666666666666666666###<<OO-------->>>------->>>###----OOOOOO<<##66666666666666666666666666666666666",
"666666666666666666666666666666666###<<OO-------->>>------->>>###----OOOOOO<<##66666666666666666666666666666666666",
"666666666666666666666666666666666OOO33OO------>>----------###<<<##--###33333OO66666666666666666666666666666666666",
"666666666666666666666666666666666OOO33OO------>>----------###<<<##--###33333OO66666666666666666666666666666666666",
"666666666666666666666666666666666OOO33OO------>>----------###<<<##--###33333OO66666666666666666666666666666666666",
"666666666666666666666666666666666666OO--OOOOOO------------###333##>>###<<<OO6666666666666666666666666666666666666",
"666666666666666666666666666666666666OO--OOOOOO------------###333##>>###<<<OO6666666666666666666666666666666666666",
"666666666666666666666666666666666666OO--OOOOOO------------###333##>>###<<<OO6666666666666666666666666666666666666",
"66666666666666666666666666666666666666OO---OOO>>----->>>OO<<<333<<OO---   666666666666666666666666666666666666666",
"66666666666666666666666666666666666666OO---OOO>>----->>>OO<<<333<<OO---   666666666666666666666666666666666666666",
"66666666666666666666666666666666666666  ---OOO  ###>>OOO<<<<<OOO  ##---   666666666666666666666666666666666666666",
"66666666666666666666666666666666666666  ---OOO  ###>>OOO<<<<<OOO  ##---   666666666666666666666666666666666666666",
"66666666666666666666666666666666666666  ---OOO  ###>>OOO<<<<<OOO  ##---   666666666666666666666666666666666666666",
"66666666666666666666666666666666666666  >>>OOO55,,,OO<<<33OOO,,,55OO>>>   666666666666666666666666666666666666666",
"66666666666666666666666666666666666666  >>>OOO55,,,OO<<<33OOO,,,55OO>>>   666666666666666666666666666666666666666",
"6666666666666666666666666666666666666666      33,,,5533333555,,,33     666666666666666666666666666666666666666666",
"6666666666666666666666666666666666666666      33,,,5533333555,,,33     666666666666666666666666666666666666666666",
"6666666666666666666666666666666666666666      33,,,5533333555,,,33     666666666666666666666666666666666666666666",
"66666666666666666666666666666666666666  111   ##3333333333333<<<##     666666666666666666666666666666666666666666",
"66666666666666666666666666666666666666  111   ##3333333333333<<<##     666666666666666666666666666666666666666666",
"666666666666666666666666666666666666  11111111OOOOO<<<<<<<<<<OOOOOXX111   666666666666666666666666666666666666666",
"666666666666666666666666666666666666  11111111OOOOO<<<<<<<<<<OOOOOXX111   666666666666666666666666666666666666666",
"666666666666666666666666666666666666  11111111OOOOO<<<<<<<<<<OOOOOXX111   666666666666666666666666666666666666666",
"666666666666666666666666666666666   3333111   OOXXX$$$$$$$$$$$$$XX11111111  6666666666666666666666666666666666666",
"666666666666666666666666666666666   3333111   OOXXX$$$$$$$$$$$$$XX11111111  6666666666666666666666666666666666666",
"666666666666666666666666666666666   3333      %%OOOXX$$$$$$$$XXXOO  11111111  66666666666666666666666666666666666",
"666666666666666666666666666666666   3333      %%OOOXX$$$$$$$$XXXOO  11111111  66666666666666666666666666666666666",
"666666666666666666666666666666666   3333      %%OOOXX$$$$$$$$XXXOO  11111111  66666666666666666666666666666666666",
"666666666666666666666666666666666666    &&&   %%%%%OOOOO-----OOO%%XX   33333  ooo******o6666666666666666666666666",
"666666666666666666666666666666666666    &&&   %%%%%OOOOO-----OOO%%XX   33333  ooo******o6666666666666666666666666",
"66666666666666666666666666666666666666&&&&&   $$%%%%%$$$-----$$$%%     <<<33oo;;;;;;;;;*6666666666666666666666666",
"66666666666666666666666666666666666666&&&&&   $$%%%%%$$$-----$$$%%     <<<33oo;;;;;;;;;*6666666666666666666666666",
"66666666666666666666666666666666666666&&&&&   $$%%%%%$$$-----$$$%%     <<<33oo;;;;;;;;;*6666666666666666666666666",
"66666666666666666666666666666666666666&&   @@@     $$%%%%%%%%%%%    &&&   oo;;;;;***ooo+:::6666666666666444666666",
"66666666666666666666666666666666666666&&   @@@     $$%%%%%%%%%%%    &&&   oo;;;;;***ooo+:::6666666666666444666666",
"66666666666666666666666666666666666666&&   @@@     $$%%%%%%%%%%%    &&&   oo;;;;;***ooo+:::6666666666666444666666",
"66666666666666666666666666666666666666&&   @@@@@...             ....   &&&**;;ooo===4444555:::6666666666555666666",
"66666666666666666666666666666666666666&&   @@@@@...             ....   &&&**;;ooo===4444555:::6666666666555666666",
"6666666666666666666666666666666666666666&&&        &&&&&&&   ...@@@@      ==;;===***55544442226666666444222666666",
"6666666666666666666666666666666666666666&&&        &&&&&&&   ...@@@@      ==;;===***55544442226666666444222666666",
"6666666666666666666666666666666666666666666666&&&&&&&&&&&&&&&   @@@@      ==**:::55555554444442222244555666666666",
"6666666666666666666666666666666666666666666666&&&&&&&&&&&&&&&   @@@@      ==**:::55555554444442222244555666666666",
"6666666666666666666666666666666666666666666666&&&&&&&&&&&&&&&   @@@@      ==**:::55555554444442222244555666666666",
"6666666666666666666666666666666666666666666666666666666666666666    666666  66:::44455555554444442255444666666666",
"6666666666666666666666666666666666666666666666666666666666666666    666666  66:::44455555554444442255444666666666",
"6666666666666666666666666666666666666666666666666666666666666666    666666  66:::44455555554444442255444666666666",
"666666666666666666666666666666666666666666666666666666666666666666666666666666666:::22255555554445555666666666666",
"666666666666666666666666666666666666666666666666666666666666666666666666666666666:::22255555554445555666666666666",
"666666666666666666666666666666666666666666666666666666666666666666666666666666666:::22255555554445555666666666666",
"66666666666666666666666666666666666666666666666666666666666666666666666666666666666622244445555555544222666666666",
"66666666666666666666666666666666666666666666666666666666666666666666666666666666666622244445555555555444:::666666",
"66666666666666666666666666666666666666666666666666666666666666666666666666666666666622244445555555555444:::666666",
"66666666666666666666666666666666666666666666666666666666666666666666666666666666666622244445555555555444:::666666",
"6666666666666666666666666666666666666666666666666666666666666666666666666666666662222224555555:::4455555222666666",
"6666666666666666666666666666666666666666666666666666666666666666666666666666666662222224555555:::4455555222666666",
"6666666666666666666666666666666666666666666666666666666666666666666666666666666662222224555555:::4455555222666666",
"666666666666666666666666666666666666666666666666666666666666666666666666666666666222444555566666666::::::::666666",
"666666666666666666666666666666666666666666666666666666666666666666666666666666666222444555566666666::::::::666666",
"666666666666666666666666666666666666666666666666666666666666666666666666666666666222444555566666666::::::::666666",
"66666666666666666666666666666666666666666666666666666666666666666666666666666622255555556666666666666666666666666",
"66666666666666666666666666666666666666666666666666666666666666666666666666665555544466666666666666666666666666666",
"66666666666666666666666666666666666666666666666666666666666666666666666666665555544466666666666666666666666666666",
"66666666666666666666666666666666666666666666666666666666666666666666666666665555544466666666666666666666666666666",
"66666666666666666666666666666666666666666666666666666666666666666666666222444466666666666666666666666666666666666",
"66666666666666666666666666666666666666666666666666666666666666666666666222444466666666666666666666666666666666666",
"66666666666666666666666666666666666666666666666666666666666666666666666222444466666666666666666666666666666666666",
"66666666666666666666666666666666666666666666666666666666666666666666666666666666666666666666666666666666666666666",
"66666666666666666666666666666666666666666666666666666666666666666666666666666666666666666666666666666666666666666",
"66666666666666666666666666666666666666666666666666666666666666666666666666666666666666666666666666666666666666666",
"66666666666666666666666666666666666666666666666666666666666666666666666666666666666666666666666666666666666666666",
"66666666666666666666666666666666666666666666666666666666666666666666666666666666666666666666666666666666666666666",
"66666666666666666666666666666666666666666666666666666666666666666666666666666666666666666666666666666666666666666",
"66666666666666666666666666666666666666666666666666666666666666666666666666666666666666666666666666666666666666666",
"66666666666666666666666666666666666666666666666666666666666666666666666666666666666666666666666666666666666666666",
"66666666666666666666666666666666666666666666666666666666666666666666666666666666666666666666666666666666666666666",
"66666666666666666666666666666666666666666666666666666666666666666666666666666666666666666666666666666666666666666",
"66666666666666666666666666666666666666666666666666666666666666666666666666666666666666666666666666666666666666666",
"66666666666666666666666666666666666666666666666666666666666666666666666666666666666666666666666666666666666666666",
"66666666666666666666666666666666666666666666666666666666666666666666666666666666666666666666666666666666666666666",
"66666666666666666666666666666666666666666666666666666666666666666666666666666666666666666666666666666666666666666",
"66666666666666666666666666666666666666666666666666666666666666666666666666666666666666666666666666666666666666666",
"66666666666666666666666666666666666666666666666666666666666666666666666666666666666666666666666666666666666666666",
"66666666666666666666666666666666666666666666666666666666666666666666666666666666666666666666666666666666666666666",
"66666666666666666666666666666666666666666666666666666666666666666666666666666666666666666666666666666666666666666",
"66666666666666666666666666666666666666666666666666666666666666666666666666666666666666666666666666666666666666666"
};
