/* XPM */
static char *result[] = {
/* columns rows colors chars-per-pixel */
"113 100 24 1 ",
"  c black",
". c #7B1029",
"X c #107B29",
"o c #7B5200",
"O c #734221",
"+ c #DE2929",
"@ c #A57B42",
"# c #42A529",
"$ c #10FF08",
"% c #363243",
"& c #BD8418",
"* c #EFBD21",
"= c yellow",
"- c #FFEF29",
"; c #94947B",
": c #DEAD52",
"> c #3152FF",
", c #D6B58C",
"< c #BDFFA5",
"1 c #C6C6AD",
"2 c #FFE7BD",
"3 c #EFEFD6",
"4 c white",
"5 c None",
/* pixels */
"55555555555555555555555555555555555555555555555###$$$$$$$$$$$###   5555555555555555555555555555555555555555555555",
"55555555555555555555555555555555555555555555555###$$$$$$$$$$$###   5555555555555555555555555555555555555555555555",
"55555555555555555555555555555555555555555555555###$$$$$$$$$$$###   5555555555555555555555555555555555555555555555",
"555555555555555555555555555555555555555555555XX$$$$$$$$$$$$$$$$$###  55555555555555555555555555555555555555555555",
"555555555555555555555555555555555555555555555XX$$$$$$$$$$$$$$$$$###  55555555555555555555555555555555555555555555",
"5555555555555555555555555555555555555555555  ##$$$$$$$$$$$$$$$$$$$$##   55555555555555555555555555555555555555555",
"5555555555555555555555555555555555555555555  ##$$$$$$$$$$$$$$$$$$$$##   55555555555555555555555555555555555555555",
"5555555555555555555555555555555555555555555  ##$$$$$$$$$$$$$$$$$$$$##   55555555555555555555555555555555555555555",
"5555555555555555555555555555555555555555   ##=====:::$$$$$$$$$$$$$$##   55555555555555555555555555555555555555555",
"5555555555555555555555555555555555555555   ##=====:::$$$$$$$$$$$$$$##   55555555555555555555555555555555555555555",
"5555555555555555555555555555555555555555   ##=====:::$$$$$$$$$$$$$$##   55555555555555555555555555555555555555555",
"55555555555555555555555555555555555@@,,,OOO==================:::$$$##XXX   55555555555555555555555555555555555555",
"55555555555555555555555555555555555@@,,,OOO==================:::$$$##XXX   55555555555555555555555555555555555555",
"55555555555555555555555555555555555@@,,,OOO==================:::$$$##XXX   55555555555555555555555555555555555555",
"55555555555555555555555555555555555OO222:::=====================@@@XXOOOOOO55555555555555555555555555555555555555",
"55555555555555555555555555555555555OO222:::=====================@@@XXOOOOOO55555555555555555555555555555555555555",
"5555555555555555555555555555555555555OOO:::==::=========::@@@======@@@@@222,,@@@555555555555555555555555555555555",
"5555555555555555555555555555555555555OOO:::==::=========::@@@======@@@@@222,,@@@555555555555555555555555555555555",
"5555555555555555555555555555555555555OOO:::==::=========::@@@======@@@@@222,,@@@555555555555555555555555555555555",
"55555555555555555555555555555555555  ===OOO@@===========@@,,,@@@=====@@@222,,OOO555555555555555555555555555555555",
"55555555555555555555555555555555555  ===OOO@@===========@@,,,@@@=====@@@222,,OOO555555555555555555555555555555555",
"55555555555555555555555555555555555  ===OOO@@===========@@,,,@@@=====@@@222,,OOO555555555555555555555555555555555",
"55555555555555555555555555555555555  ===@@@::=====:::OOO,,222,,,@@@::OOOOOOOO555555555555555555555555555555555555",
"55555555555555555555555555555555555  ===@@@::=====:::OOO,,222,,,@@@::OOOOOOOO555555555555555555555555555555555555",
"55555555555555555555555555555555555  ===@@@::=====:::OOO,,222,,,@@@::OOOOOOOO555555555555555555555555555555555555",
"55555555555555555555555555555555555  :::OOO  ::@@@OOO,,,22222222,,,OO===   55555555555555555555555555555555555555",
"55555555555555555555555555555555555  :::OOO  ::@@@OOO,,,22222222,,,OO===   55555555555555555555555555555555555555",
"5555555555555555555555555555555555555   @@@>>OOOOO,,,,,,OO   222,,,@@===   55555555555555555555555555555555555555",
"5555555555555555555555555555555555555   @@@>>OOOOO,,,,,,OO   222,,,@@===   55555555555555555555555555555555555555",
"5555555555555555555555555555555555555   @@@>>OOOOO,,,,,,OO   222,,,@@===   55555555555555555555555555555555555555",
"5555555333555555555555555555555555555555   >>44222222OOO>>444222,,,OO:::   55555555555555555555555555555555555555",
"5555555333555555555555555555555555555555   >>44222222OOO>>444222,,,OO:::   55555555555555555555555555555555555555",
"5555555333555555555555555555555555555555   >>44222222OOO>>444222,,,OO:::   55555555555555555555555555555555555555",
"5555555333555555555555555555555555555555   @@22222222444>>444222OOO     55555555555555555555555555555555555555555",
"5555555333555555555555555555555555555555   @@22222222444>>444222OOO     55555555555555555555555555555555555555555",
"55555555553335555555555555555555555     <<<OO,,22222222222222OOO     55555555555555555555555555555555555555555555",
"55555555553335555555555555555555555     <<<OO,,22222222222222OOO     55555555555555555555555555555555555555555555",
"55555555553335555555555555555555555     <<<OO,,22222222222222OOO     55555555555555555555555555555555555555555555",
"55555555553331155555555555555555   22222<<<<<OO,,,,,,,,,OOOOOOOOOOO##   55555555555555555555555555555555555555555",
"55555555553331155555555555555555   22222<<<<<OO,,,,,,,,,OOOOOOOOOOO##   55555555555555555555555555555555555555555",
"55555555554443355555555555555555   ,,222     XX###########   <<<<<<##   55555555555555555555555555555555555555555",
"55555555554443355555555555555555   ,,222     XX###########   <<<<<<##   55555555555555555555555555555555555555555",
"55555555554443355555555555555555   ,,222     XX###########   <<<<<<##   55555555555555555555555555555555555555555",
"55555555554443311155555555555555555     %%%  OOOOO######  <<<<<<<<<  %%%55555555555555555555555555555555555555555",
"55555555554443311155555555555555555     %%%  OOOOO######  <<<<<<<<<  %%%55555555555555555555555555555555555555555",
"5555555555333443331115555555555555555%%%     ##===      <<<<<<<<        %%%55555555555555555555555555555555555555",
"5555555555333443331115555555555555555%%%     ##===      <<<<<<<<        %%%55555555555555555555555555555555555555",
"5555555555333443331115555555555555555%%%     ##===      <<<<<<<<        %%%55555555555555555555555555555555555555",
"5555555555111443333331115555555555555%%%ooo&&&&   222222<<<<<      ##   %%%55555555555555555555555555555555555555",
"5555555555111443333331115555555555555%%%ooo&&&&   222222<<<<<      ##   %%%55555555555555555555555555555555555555",
"5555555555111443333331115555555555555%%%ooo&&&&   222222<<<<<      ##   %%%55555555555555555555555555555555555555",
"5555555555555444443333331111155555555%%%   **--***ooo222<<   ######  %%%%%%55555555555555555555555555555555555555",
"5555555555555444443333331111155555555%%%   **--***ooo222<<   ######  %%%%%%55555555555555555555555555555555555555",
"5555555555555444443333331111155555555%%%   **--***ooo222<<   ######  %%%%%%55555555555555555555555555555555555555",
"5555555555555334444443333333333311111555%%%oo--&&&***ooo     444444OO   55555555555555555555555555555555555555555",
"5555555555555334444443333333333311111555%%%oo--&&&***ooo     444444OO   55555555555555555555555555555555555555555",
"555555555555511444444444443333333333344433311--ooo---&&&  ......+++  55555555555555555555555555555555555555555555",
"555555555555511444444444443333333333344433311--ooo---&&&  ......+++  55555555555555555555555555555555555555555555",
"555555555555511444444444443333333333344433311--ooo---&&&  ......+++  55555555555555555555555555555555555555555555",
"555555555555555333444444444444444444433333333*****------  ...++++++  55555555555555555555555555555555555555555555",
"555555555555555333444444444444444444433333333*****------  ...++++++  55555555555555555555555555555555555555555555",
"555555555555555333444444444444444444433333333*****------  ...++++++  55555555555555555555555555555555555555555555",
"55555555555555555533344444444444333443334444433;;;&&&---           5555555555555555555555555555555555555555555555",
"55555555555555555533344444444444333443334444433;;;&&&---           5555555555555555555555555555555555555555555555",
"55555555555555555533344444444444333443334444433;;;&&&---           5555555555555555555555555555555555555555555555",
"55555555555555555511144444444333333334444444444555ooo***  5555555555555555555555555555555555555555555555555555555",
"55555555555555555511144444444333333334444444444555ooo***  5555555555555555555555555555555555555555555555555555555",
"555555555555555555555111443333333334444433311;;555      555555555555555555555555555555555555555555555555555555555",
"555555555555555555555111443333333334444433311;;555      555555555555555555555555555555555555555555555555555555555",
"555555555555555555555111443333333334444433311;;555      555555555555555555555555555555555555555555555555555555555",
"555555555555555555555555;;33333344444333;;;5555555555555555555555555555555555555555555555555555555555555555555555",
"555555555555555555555555;;33333344444333;;;5555555555555555555555555555555555555555555555555555555555555555555555",
"555555555555555555555555;;33333344444333;;;5555555555555555555555555555555555555555555555555555555555555555555555",
"555555555555555555555;;;3344444444433;;;5555555555555555555555555555555555555555555555555555555555555555555555555",
"555555555555555555555;;;3344444444433;;;5555555555555555555555555555555555555555555555555555555555555555555555555",
"55555555555555555555511144444333;;;443335555555555555555555555555555555555555555555555555555555555555555555555555",
"55555555555555555555511144444333;;;443335555555555555555555555555555555555555555555555555555555555555555555555555",
"55555555555555555555511144444333;;;443335555555555555555555555555555555555555555555555555555555555555555555555555",
"555555555555555555555;;;;;;;;555555551113335555555555555555555555555555555555555555555555555555555555555555555555",
"555555555555555555555;;;;;;;;555555551113335555555555555555555555555555555555555555555555555555555555555555555555",
"555555555555555555555;;;;;;;;555555551113335555555555555555555555555555555555555555555555555555555555555555555555",
"55555555555555555555555555555555555555555555555555555555555555555555555555555555555555555555555555555555555555555",
"55555555555555555555555555555555555555555555555555555555555555555555555555555555555555555555555555555555555555555",
"55555555555555555555555555555555555555555555555555555555555555555555555555555555555555555555555555555555555555555",
"55555555555555555555555555555555555555555555555555555555555555555555555555555555555555555555555555555555555555555",
"55555555555555555555555555555555555555555555555555555555555555555555555555555555555555555555555555555555555555555",
"55555555555555555555555555555555555555555555555555555555555555555555555555555555555555555555555555555555555555555",
"55555555555555555555555555555555555555555555555555555555555555555555555555555555555555555555555555555555555555555",
"55555555555555555555555555555555555555555555555555555555555555555555555555555555555555555555555555555555555555555",
"55555555555555555555555555555555555555555555555555555555555555555555555555555555555555555555555555555555555555555",
"55555555555555555555555555555555555555555555555555555555555555555555555555555555555555555555555555555555555555555",
"55555555555555555555555555555555555555555555555555555555555555555555555555555555555555555555555555555555555555555",
"55555555555555555555555555555555555555555555555555555555555555555555555555555555555555555555555555555555555555555",
"55555555555555555555555555555555555555555555555555555555555555555555555555555555555555555555555555555555555555555",
"55555555555555555555555555555555555555555555555555555555555555555555555555555555555555555555555555555555555555555",
"55555555555555555555555555555555555555555555555555555555555555555555555555555555555555555555555555555555555555555",
"55555555555555555555555555555555555555555555555555555555555555555555555555555555555555555555555555555555555555555",
"55555555555555555555555555555555555555555555555555555555555555555555555555555555555555555555555555555555555555555",
"55555555555555555555555555555555555555555555555555555555555555555555555555555555555555555555555555555555555555555",
"55555555555555555555555555555555555555555555555555555555555555555555555555555555555555555555555555555555555555555"
};
