/* XPM */
static char *result[] = {
/* columns rows colors chars-per-pixel */
"113 100 23 1 ",
"  c black",
". c #7B5200",
"X c #734221",
"o c #6B6B5A",
"O c #DE2929",
"+ c #A57B42",
"@ c #42A529",
"# c #10FF08",
"$ c #363243",
"% c #BD8418",
"& c #EFBD21",
"* c yellow",
"= c #FFEF29",
"- c #94947B",
"; c #DEAD52",
": c #3152FF",
"> c #D6B58C",
", c #BDFFA5",
"< c #C6C6AD",
"1 c #FFE7BD",
"2 c #EFEFD6",
"3 c white",
"4 c None",
/* pixels */
"44444444444444444444444444444444444444444444444    @@@@@@@@@@@   444444444444444444444444444444444444444444444444",
"44444444444444444444444444444444444444444444444    @@@@@@@@@@@   444444444444444444444444444444444444444444444444",
"44444444444444444444444444444444444444444444444    @@@@@@@@@@@   444444444444444444444444444444444444444444444444",
"444444444444444444444444444444444444444444444  @@@@###########@@@  4444444444444444444444444444444444444444444444",
"444444444444444444444444444444444444444444444  @@@@###########@@@  4444444444444444444444444444444444444444444444",
"444444444444444444444444444444444444444444   @@##################@@   4444444444444444444444444444444444444444444",
"444444444444444444444444444444444444444444   @@##################@@   4444444444444444444444444444444444444444444",
"444444444444444444444444444444444444444444   @@##################@@   4444444444444444444444444444444444444444444",
"444444444444444444444444444444444444444   @@@######################@@@   4444444444444444444444444444444444444444",
"444444444444444444444444444444444444444   @@@######################@@@   4444444444444444444444444444444444444444",
"444444444444444444444444444444444444444   @@@######################@@@   4444444444444444444444444444444444444444",
"444444444444444444444444444444444444444   +++*****************;;;#####@@@   4444444444444444444444444444444444444",
"444444444444444444444444444444444444444   +++*****************;;;#####@@@   4444444444444444444444444444444444444",
"444444444444444444444444444444444444444   +++*****************;;;#####@@@   4444444444444444444444444444444444444",
"4444444444444444444444444444444+++>>   +++*************************;;;###   4444444444444444444444444444444444444",
"4444444444444444444444444444444+++>>   +++*************************;;;###   4444444444444444444444444444444444444",
"4444444444444444444444444444444XXX>>XXX;;;*****;;;;*******************XXXXXX>>+++44444444444444444444444444444444",
"4444444444444444444444444444444XXX>>XXX;;;*****;;;;*******************XXXXXX>>+++44444444444444444444444444444444",
"4444444444444444444444444444444XXX>>XXX;;;*****;;;;*******************XXXXXX>>+++44444444444444444444444444444444",
"4444444444444444444444444444444444XX+++;;;***++***************;;;*****+++11111XXX44444444444444444444444444444444",
"4444444444444444444444444444444444XX+++;;;***++***************;;;*****+++11111XXX44444444444444444444444444444444",
"4444444444444444444444444444444444XX+++;;;***++***************;;;*****+++11111XXX44444444444444444444444444444444",
"444444444444444444444444444444444444XXX;;;XXX;;**********;;++++++;;***+++>>>XX44444444444444444444444444444444444",
"444444444444444444444444444444444444XXX;;;XXX;;**********;;++++++;;***+++>>>XX44444444444444444444444444444444444",
"444444444444444444444444444444444444XXX;;;XXX;;**********;;++++++;;***+++>>>XX44444444444444444444444444444444444",
"444444444444444444444444444444444444XXXXXX+++;;****;;;XXXXX>>>>>>++;;;XXXXXX4444444444444444444444444444444444444",
"444444444444444444444444444444444444XXXXXX+++;;****;;;XXXXX>>>>>>++;;;XXXXXX4444444444444444444444444444444444444",
"444444444444444444444444444444444444   ***XXX++;;;;XXX>>>>>111111++XXX***   4444444444444444444444444444444444444",
"444444444444444444444444444444444444   ***XXX++;;;;XXX>>>>>111111++XXX***   4444444444444444444444444444444444444",
"444444444444444444444444444444444444   ***XXX++;;;;XXX>>>>>111111++XXX***   4444444444444444444444444444444444444",
"444444444444444444444444444444444444   ***+++  ++++>>>11111>>>XXX  XXX***   4444444444444444444444444444444444444",
"444444444444444444444444444444444444   ***+++  ++++>>>11111>>>XXX  XXX***   4444444444444444444444444444444444444",
"444444444444444444444444444444444444   ***+++  ++++>>>11111>>>XXX  XXX***   4444444444444444444444444444444444444",
"4444444444444444444444444444444        ;;;XXX33::::XXX11111XXX:::33XXX;;;   4444444444444444444444444444444444444",
"4444444444444444444444444444444        ;;;XXX33::::XXX11111XXX:::33XXX;;;   4444444444444444444444444444444444444",
"4444444444444444444444444444   11111,,,      11::::33311111333:::11      4444444444444444444444444444444444444444",
"4444444444444444444444444444   11111,,,      11::::33311111333:::11      4444444444444444444444444444444444444444",
"4444444444444444444444444444   11111,,,      11::::33311111333:::11      4444444444444444444444444444444444444444",
"4444444444444444444444444444   111>>,,,,,,   ++111111111111111111++   4444444444444444444444444444444444444444444",
"4444444444444444444444444444   111>>,,,,,,   ++111111111111111111++   4444444444444444444444444444444444444444444",
"4444444444444444444444444444   111>>,,,,,,   ++111111111111111111++   4444444444444444444444444444444444444444444",
"4444444444444444444444444444444           ,,,XXXXXX>>>>>>>>>>>XXXXX@@@   4444444444444444444444444444444444444444",
"4444444444444444444444444444444           ,,,XXXXXX>>>>>>>>>>>XXXXX@@@   4444444444444444444444444444444444444444",
"4444444444444444444444444444444           ,,,XXXXXX>>>>>>>>>>>XXXXX@@@   4444444444444444444444444444444444444444",
"444444444444444444444444444444444444$$$$$$   @@XXXX@@@@@@@@@@@   ,,,,,   $$$4444444444444444444444444444444444444",
"444444444444444444444444444444444444$$$$$$   @@XXXX@@@@@@@@@@@   ,,,,,   $$$4444444444444444444444444444444444444",
"444444444444444444444444444444444444$$$      ######;;;;;;XX   ,,,,,,,,   $$$4444444444444444444444444444444444444",
"444444444444444444444444444444444444$$$      ######;;;;;;XX   ,,,,,,,,   $$$4444444444444444444444444444444444444",
"444444444444444444444444444444444444$$$      ######;;;;;;XX   ,,,,,,,,   $$$4444444444444444444444444444444444444",
"444444444444444444444444444444444444$$$      ######;;;;;;XX   ,,,,,,,,   $$$4444444444444444444444444444444444444",
"444444444444444444444444444444444444$$$   OOO  ####******@@   ,,,,,   $$$$$$4444444444444444444444444444444444444",
"444444444444444444444444444444444444$$$   OOO  ####******@@   ,,,,,   $$$$$$4444444444444444444444444444444444444",
"444444444444444444444444444444444444$$$   OOO  ####******@@   ,,,,,   $$$$$$4444444444444444444444444444444444444",
"444444444444444444444444444444444444444$$$         ######  111111,,   $$$4444444444444444444444444444444444444444",
"444444444444444444444444444444444444444$$$         ######  111111,,   $$$4444444444444444444444444444444444444444",
"444444444444444444444444444444444444444444444$$$$$$...&&&=====%%%..      4444444444444444444444444444444444444444",
"444444444444444444444444444444444444444444444$$$$$$...&&&=====%%%..      4444444444444444444444444444444444444444",
"444444444444444444444444444444444444444444444$$$$$$...&&&=====%%%..      4444444444444444444444444444444444444444",
"44444444444444444444444444444444444444444444444....&&&===%%...=====%%%   4444444444444444444444444444444444444444",
"44444444444444444444444444444444444444444444444....&&&===%%...=====%%%   4444444444444444444444444444444444444444",
"44444444444444444444444444444444444444444444444....&&&===%%...=====%%%   4444444444444444444444444444444444444444",
"44444444444444444222444444444444444444444444444%%%%...ooo==%%%===%%&&&   4444444444444444444444444444444444444444",
"44444444444444444222444444444444444444444444444%%%%...ooo==%%%===%%&&&   4444444444444444444444444444444444444444",
"44444444444444444222444444444444444444444444444%%%%...ooo==%%%===%%&&&   4444444444444444444444444444444444444444",
"44444444444444444444222<<<4444444444444444444444444   <<<=====222  %%%   4444444444444444444444444444444444444444",
"44444444444444444444222<<<4444444444444444444444444   <<<=====222  %%%   4444444444444444444444444444444444444444",
"4444444444444444444444422222<<<44444444444444444444<<<22222&&&333224444444444444444444444444444444444444444444444",
"4444444444444444444444422222<<<44444444444444444444<<<22222&&&333224444444444444444444444444444444444444444444444",
"4444444444444444444444422222<<<44444444444444444444<<<22222&&&333224444444444444444444444444444444444444444444444",
"4444444444444444444444444433222<<<<<44444444444<<<<<<<22222333333<<4444444444444444444444444444444444444444444444",
"4444444444444444444444444433222<<<<<44444444444<<<<<<<22222333333<<4444444444444444444444444444444444444444444444",
"4444444444444444444444444433222<<<<<44444444444<<<<<<<22222333333<<4444444444444444444444444444444444444444444444",
"444444444444444444444444444433333322222<<<<<<<<<<<<22222233333222444444444444444444444444444444444444444444444444",
"444444444444444444444444444433333322222<<<<<<<<<<<<22222233333222444444444444444444444444444444444444444444444444",
"444444444444444444444444444433333322222<<<<<<<<<<<<22222233333222444444444444444444444444444444444444444444444444",
"44444444444444444444444444444442223333333322222222233322233333<<<444444444444444444444444444444444444444444444444",
"44444444444444444444444444444442223333333322222222233322233333<<<444444444444444444444444444444444444444444444444",
"44444444444444444444444444444444442233333333333333322222233333<<<444444444444444444444444444444444444444444444444",
"44444444444444444444444444444444442233333333333333322222233333<<<444444444444444444444444444444444444444444444444",
"44444444444444444444444444444444442233333333333333322222233333<<<444444444444444444444444444444444444444444444444",
"44444444444444444444444444444444444444422233333333322222233333222222224444444444444444444444444444444444444444444",
"44444444444444444444444444444444444444422233333333322222233333222222224444444444444444444444444444444444444444444",
"44444444444444444444444444444444444444422233333333322222233333222222224444444444444444444444444444444444444444444",
"44444444444444444444444444444444444444444444422222222222233333---222222222224444444444444444444444444444444444444",
"44444444444444444444444444444444444444444444422222222222233333---222222222224444444444444444444444444444444444444",
"444444444444444444444444444444444444444444444444444<<<22233333444444444444444444444444444444444444444444444444444",
"444444444444444444444444444444444444444444444444444<<<22233333444444444444444444444444444444444444444444444444444",
"444444444444444444444444444444444444444444444444444<<<22233333444444444444444444444444444444444444444444444444444",
"444444444444444444444444444444444444444444444444444ooo22233<<<444444444444444444444444444444444444444444444444444",
"444444444444444444444444444444444444444444444444444ooo22233<<<444444444444444444444444444444444444444444444444444",
"444444444444444444444444444444444444444444444444444ooo22233<<<444444444444444444444444444444444444444444444444444",
"444444444444444444444444444444444444444444444444444---22233---444444444444444444444444444444444444444444444444444",
"444444444444444444444444444444444444444444444444444---22233---444444444444444444444444444444444444444444444444444",
"444444444444444444444444444444444444444444444444444---22233---444444444444444444444444444444444444444444444444444",
"444444444444444444444444444444444444444444444444444444ooo--444444444444444444444444444444444444444444444444444444",
"444444444444444444444444444444444444444444444444444444ooo--444444444444444444444444444444444444444444444444444444",
"44444444444444444444444444444444444444444444444444444444444444444444444444444444444444444444444444444444444444444",
"44444444444444444444444444444444444444444444444444444444444444444444444444444444444444444444444444444444444444444",
"44444444444444444444444444444444444444444444444444444444444444444444444444444444444444444444444444444444444444444",
"44444444444444444444444444444444444444444444444444444444444444444444444444444444444444444444444444444444444444444"
};
