/* XPM */
static char *result[] = {
/* columns rows colors chars-per-pixel */
"113 100 23 1 ",
"  c black",
". c #107B29",
"X c #7B5200",
"o c #734221",
"O c #6B6B5A",
"+ c #A57B42",
"@ c #42A529",
"# c #10FF08",
"$ c #363243",
"% c #BD8418",
"& c #EFBD21",
"* c yellow",
"= c #FFEF29",
"- c #94947B",
"; c #DEAD52",
": c #3152FF",
"> c #D6B58C",
", c #BDFFA5",
"< c #C6C6AD",
"1 c #FFE7BD",
"2 c #EFEFD6",
"3 c white",
"4 c None",
/* pixels */
"4444444444444444444444444444444444444444444444   @@@@@@@@@@@@@@@   4444444444444444444444444444444444444444444444",
"4444444444444444444444444444444444444444444444   @@@@@@@@@@@@@@@   4444444444444444444444444444444444444444444444",
"4444444444444444444444444444444444444444444444   @@@@@@@@@@@@@@@   4444444444444444444444444444444444444444444444",
"44444444444444444444444444444444444444444444  @@@###############@@@  44444444444444444444444444444444444444444444",
"44444444444444444444444444444444444444444444  @@@###############@@@  44444444444444444444444444444444444444444444",
"44444444444444444444444444444444444444444   @@#####################@@   44444444444444444444444444444444444444444",
"44444444444444444444444444444444444444444   @@#####################@@   44444444444444444444444444444444444444444",
"44444444444444444444444444444444444444444   @@#####################@@   44444444444444444444444444444444444444444",
"44444444444444444444444444444444444444444   #########################   44444444444444444444444444444444444444444",
"44444444444444444444444444444444444444444   #########################   44444444444444444444444444444444444444444",
"44444444444444444444444444444444444444444   #########################   44444444444444444444444444444444444444444",
"44444444444444444444444444444444444444   ###++*********************;;###   44444444444444444444444444444444444444",
"44444444444444444444444444444444444444   ###++*********************;;###   44444444444444444444444444444444444444",
"44444444444444444444444444444444444444   ###++*********************;;###   44444444444444444444444444444444444444",
"44444444444444444444444444444444444444   +++*************************;;;@@@  444444444444444444444444444444444444",
"44444444444444444444444444444444444444   +++*************************;;;@@@  444444444444444444444444444444444444",
"444444444444444444444444444444444+++>>ooo********;;;************;;;*****ooooo>>>+++444444444444444444444444444444",
"444444444444444444444444444444444+++>>ooo********;;;************;;;*****ooooo>>>+++444444444444444444444444444444",
"444444444444444444444444444444444+++>>ooo********;;;************;;;*****ooooo>>>+++444444444444444444444444444444",
"444444444444444444444444444444444ooo11ooo*****+++;;;************+++;;***+++11111ooo444444444444444444444444444444",
"444444444444444444444444444444444ooo11ooo*****+++;;;************+++;;***+++11111ooo444444444444444444444444444444",
"444444444444444444444444444444444ooo11ooo*****+++;;;************+++;;***+++11111ooo444444444444444444444444444444",
"444444444444444444444444444444444444oo+++***;;;;;************ooo>>>++***+++>>ooo444444444444444444444444444444444",
"444444444444444444444444444444444444oo+++***;;;;;************ooo>>>++***+++>>ooo444444444444444444444444444444444",
"444444444444444444444444444444444444oo+++***;;;;;************ooo>>>++***+++>>ooo444444444444444444444444444444444",
"44444444444444444444444444444444444444oooooo++;;;********;;;;ooo111++;;;+++oo444444444444444444444444444444444444",
"44444444444444444444444444444444444444oooooo++;;;********;;;;ooo111++;;;+++oo444444444444444444444444444444444444",
"44444444444444444444444444444444444444oooooo++;;;********;;;;ooo111++;;;+++oo444444444444444444444444444444444444",
"44444444444444444444444444444444444444   ***oo;;;******;;oooo>>>111++ooo***  444444444444444444444444444444444444",
"44444444444444444444444444444444444444   ***oo;;;******;;oooo>>>111++ooo***  444444444444444444444444444444444444",
"44444444444444444444444444444444444444   ***oo;;;******;;oooo>>>111++ooo***  444444444444444444444444444444444444",
"44444444444444444444444444444444444444   ***++   +++;;;oo>>>>>>>ooo  ooo***  444444444444444444444444444444444444",
"44444444444444444444444444444444444444   ***++   +++;;;oo>>>>>>>ooo  ooo***  444444444444444444444444444444444444",
"44444444444444444444444444444444444444   ***++   +++;;;oo>>>>>>>ooo  ooo***  444444444444444444444444444444444444",
"444444444444444444444444444444444        ;;;oo333:::ooo111111ooo:::33ooo;;;  444444444444444444444444444444444444",
"444444444444444444444444444444444        ;;;oo333:::ooo111111ooo:::33ooo;;;  444444444444444444444444444444444444",
"444444444444444444444444444444   >>>11,,,     111:::333111111333:::11      44444444444444444444444444444444444444",
"444444444444444444444444444444   >>>11,,,     111:::333111111333:::11      44444444444444444444444444444444444444",
"444444444444444444444444444444   >>>11,,,     111:::333111111333:::11      44444444444444444444444444444444444444",
"444444444444444444444444444444   11111,,,,,,  +++111111111111111>>>++...   44444444444444444444444444444444444444",
"444444444444444444444444444444   11111,,,,,,  +++111111111111111>>>++...   44444444444444444444444444444444444444",
"444444444444444444444444444444   11111,,,,,,  +++111111111111111>>>++...   44444444444444444444444444444444444444",
"444444444444444444444444444444444           ooooo>>>>>>>>>>>>>>>ooo..,,,   $$444444444444444444444444444444444444",
"444444444444444444444444444444444           ooooo>>>>>>>>>>>>>>>ooo..,,,   $$444444444444444444444444444444444444",
"444444444444444444444444444444444           ooooo>>>>>>>>>>>>>>>ooo..,,,   $$444444444444444444444444444444444444",
"44444444444444444444444444444444444444$$$   ..@@@ooo...@@@@@@@@@...,,,,,   $$444444444444444444444444444444444444",
"44444444444444444444444444444444444444$$$   ..@@@ooo...@@@@@@@@@...,,,,,   $$444444444444444444444444444444444444",
"44444444444444444444444444444444444444$$$   ..###...ooo;;;;;;ooo   ,,,,,   $$444444444444444444444444444444444444",
"44444444444444444444444444444444444444$$$   ..###...ooo;;;;;;ooo   ,,,,,   $$444444444444444444444444444444444444",
"44444444444444444444444444444444444444$$$   ..###...ooo;;;;;;ooo   ,,,,,   $$444444444444444444444444444444444444",
"44444444444444444444444444444444444444444$$$  @@@###@@@******@@@   ,,,,,   44444444444444444444444444444444444444",
"44444444444444444444444444444444444444444$$$  @@@###@@@******@@@   ,,,,,   44444444444444444444444444444444444444",
"44444444444444444444444444444444444444444$$$  @@@###@@@******@@@   ,,,,,   44444444444444444444444444444444444444",
"4444444444444444444444444444444444444444444444      #########   11111ooo   44444444444444444444444444444444444444",
"4444444444444444444444444444444444444444444444      #########   11111ooo   44444444444444444444444444444444444444",
"4444444444444444444444444444444444444444444444444444     XXXX%%%========%%%  444444444444444444444444444444444444",
"4444444444444444444444444444444444444444444444444444     XXXX%%%========%%%  444444444444444444444444444444444444",
"4444444444444444444444444444444444444444444444444444     XXXX%%%========%%%  444444444444444444444444444444444444",
"4444444444444444444444444444444444444444444444444444444XX&&&&======XX======&&   444444444444444444444444444444444",
"4444444444444444444444444444444444444444444444444444444XX&&&&======XX======&&   444444444444444444444444444444444",
"4444444444444444444444444444444444444444444444444444444XX&&&&======XX======&&   444444444444444444444444444444444",
"4444444444444444444444444444444444444444444444444444444XX====%%%&&&==&&&%%%==   444444444444444444444444444444444",
"4444444444444444444444444444444444444444444444444444444XX====%%%&&&==&&&%%%==   444444444444444444444444444444444",
"4444444444444444444444444444444444444444444444444444444XX====%%%&&&==&&&%%%==   444444444444444444444444444444444",
"4444444444444444444444444444444444444444444444444444444  4444OOO222==333---44   444444444444444444444444444444444",
"4444444444444444444444444444444444444444444444444444444  4444OOO222==333---44   444444444444444444444444444444444",
"444444444444444444444444444444444444444444444444444444444----333222<<333333--444444444444444444444444444444444444",
"444444444444444444444444444444444444444444444444444444444----333222<<333333--444444444444444444444444444444444444",
"444444444444444444444444444444444444444444444444444444444----333222<<333333--444444444444444444444444444444444444",
"444444444444444444444444444444444444444444444444444444444444422222233333<<<44444444444444444444444444444444444444",
"444444444444444444444444444444444444444444444444444444444444422222233333<<<44444444444444444444444444444444444444",
"444444444444444444444444444444444444444444444444444444444444422222233333<<<44444444444444444444444444444444444444",
"44444444444444444444444444444444444444444444444444444444444442222223333322244444444444444444444444444444444444444",
"44444444444444444444444444444444444444444444444444444444444442222223333322244444444444444444444444444444444444444",
"44444444444444444444444444444444444444444444444444444444444442222223333322244444444444444444444444444444444444444",
"44444444444444444444444444444444444444444444444444444444444442222223333322244444444444444444444444444444444444444",
"44444444444444444444444444444444444444444444444444444444444442222223333322244444444444444444444444444444444444444",
"44444444444444444444444444444444444444444444444444444444444442222223333322244444444444444444444444444444444444444",
"444444444444444444444444444444444444<<44444444444444<<<<<22222222223333322244444444444444444444444444444444444444",
"444444444444444444444444444444444444<<44444444444444<<<<<22222222223333322244444444444444444444444444444444444444",
"444444444444444444444444444444444444<<44444444444444<<<<<22222222223333322244444444444444444444444444444444444444",
"44444444444444444444444444444444444444<<<333332222222222222223332223333322222333333222--4444444444444444444444444",
"44444444444444444444444444444444444444<<<333332222222222222223332223333322222333333222--4444444444444444444444444",
"44444444444444444444444444444444444444<<<333332222222222222223332223333322222333333222--4444444444444444444444444",
"44444444444444444444444444444444444444444444--2223333333333333333333333333333222---444444444444444444444444444444",
"44444444444444444444444444444444444444444444--2223333333333333333333333333333222---444444444444444444444444444444",
"4444444444444444444444444444444444444444444444444444---22222233322233333---44444444444444444444444444444444444444",
"4444444444444444444444444444444444444444444444444444---22222233322233333---44444444444444444444444444444444444444",
"4444444444444444444444444444444444444444444444444444---22222233322233333---44444444444444444444444444444444444444",
"4444444444444444444444444444444444444444444444444444444444444<<<2223322244444444444444444444444444444444444444444",
"4444444444444444444444444444444444444444444444444444444444444<<<2223322244444444444444444444444444444444444444444",
"4444444444444444444444444444444444444444444444444444444444444<<<2223322244444444444444444444444444444444444444444",
"4444444444444444444444444444444444444444444444444444444444444---<<<33<<<44444444444444444444444444444444444444444",
"4444444444444444444444444444444444444444444444444444444444444---<<<33<<<44444444444444444444444444444444444444444",
"4444444444444444444444444444444444444444444444444444444444444---<<<33<<<44444444444444444444444444444444444444444",
"4444444444444444444444444444444444444444444444444444444444444444---22---44444444444444444444444444444444444444444",
"4444444444444444444444444444444444444444444444444444444444444444---22---44444444444444444444444444444444444444444",
"4444444444444444444444444444444444444444444444444444444444444444444--44444444444444444444444444444444444444444444",
"4444444444444444444444444444444444444444444444444444444444444444444--44444444444444444444444444444444444444444444",
"4444444444444444444444444444444444444444444444444444444444444444444--44444444444444444444444444444444444444444444"
};
