/* XPM */
static char *result[] = {
/* columns rows colors chars-per-pixel */
"113 100 25 1 ",
"  c black",
". c #7B1029",
"X c #107B29",
"o c #7B5200",
"O c #734221",
"+ c #6B6B5A",
"@ c #DE2929",
"# c #A57B42",
"$ c #42A529",
"% c #10FF08",
"& c #363243",
"* c #BD8418",
"= c #EFBD21",
"- c yellow",
"; c #FFEF29",
": c #94947B",
"> c #DEAD52",
", c #3152FF",
"< c #D6B58C",
"1 c #BDFFA5",
"2 c #C6C6AD",
"3 c #FFE7BD",
"4 c #EFEFD6",
"5 c white",
"6 c None",
/* pixels */
"66666666666666666666666666666666666666666666666   $$$$$$$$$   666666666666666666666666666666666666666666666666666",
"66666666666666666666666666666666666666666666666   $$$$$$$$$   666666666666666666666666666666666666666666666666666",
"66666666666666666666666666666666666666666666666   $$$$$$$$$   666666666666666666666666666666666666666666666666666",
"666666666666666666666666666666666666666666666  $$$%%%%%%%%%$$$   666666666666666666666666666666666666666666666666",
"666666666666666666666666666666666666666666666  $$$%%%%%%%%%$$$   666666666666666666666666666666666666666666666666",
"6666666666666666666666666666666666666666666  $$%%%%%%%%%%%%%%%$$$  6666666666666666666666666666666666666666666666",
"6666666666666666666666666666666666666666666  $$%%%%%%%%%%%%%%%$$$  6666666666666666666666666666666666666666666666",
"6666666666666666666666666666666666666666   $$%%%%%%%%%%%%%%%%%%%%$$  66666666666666666666666666666666666666666666",
"6666666666666666666666666666666666666666   $$%%%%%%%%%%%%%%%%%%%%$$  66666666666666666666666666666666666666666666",
"6666666666666666666666666666666666666666   $$%%%%%%%%%%%%%%%%%%%%$$  66666666666666666666666666666666666666666666",
"6666666666666666666666666666666666666666   %%##---------------###%%  66666666666666666666666666666666666666666666",
"6666666666666666666666666666666666666666   %%##---------------###%%  66666666666666666666666666666666666666666666",
"6666666666666666666666666666666666666   $$$##--------------------##$$   66666666666666666666666666666666666666666",
"6666666666666666666666666666666666666   $$$##--------------------##$$   66666666666666666666666666666666666666666",
"6666666666666666666666666666666666666   $$$##--------------------##$$   66666666666666666666666666666666666666666",
"666666666666666666666666666666666###<OOOOOO>>-->>>------->>###-----OOOOO<<###666666666666666666666666666666666666",
"666666666666666666666666666666666###<OOOOOO>>-->>>------->>###-----OOOOO<<###666666666666666666666666666666666666",
"666666666666666666666666666666666OOO3333###--##----------##<<<###--##33333OOO666666666666666666666666666666666666",
"666666666666666666666666666666666OOO3333###--##----------##<<<###--##33333OOO666666666666666666666666666666666666",
"666666666666666666666666666666666666O<<<OOO##>>----->>>OO<<333###>>##<<<OO666666666666666666666666666666666666666",
"666666666666666666666666666666666666O<<<OOO##>>----->>>OO<<333###>>##<<<OO666666666666666666666666666666666666666",
"666666666666666666666666666666666666O<<<OOO##>>----->>>OO<<333###>>##<<<OO666666666666666666666666666666666666666",
"6666666666666666666666666666666666666OOO---OO>>>>>##OOO<<33333<<<OO--OOO66666666666666666666666666666666662266666",
"6666666666666666666666666666666666666OOO---OO>>>>>##OOO<<33333<<<OO--OOO66666666666666666666666666666666662266666",
"6666666666666666666666666666666666666OOO---OO>>>>>##OOO<<33333<<<OO--OOO66666666666666666666666666666666662266666",
"6666666666666666666666666666666666666   ---##  ###OO<<<33<<OOO   ##--   66666oooo   66666666666666666666664466666",
"6666666666666666666666666666666666666   >>>OO55,,,OO33333OO,,,555OO>>   66ooo==;;666:::66666666666666666665566666",
"6666666666666666666666666666666666666   >>>OO55,,,OO33333OO,,,555OO>>   66ooo==;;666:::66666666666666666665566666",
"6666666666666666666666666666666666666   >>>OO55,,,OO33333OO,,,555OO>>   66ooo==;;666:::66666666666666666665566666",
"6666666666666666666666666666666666666666     33,,,553333355,,,333         ***;;**+++5552222::::::::::::+++5566666",
"6666666666666666666666666666666666666666     33,,,553333355,,,333         ***;;**+++5552222::::::::::::+++5566666",
"6666666666666666666666666666666666666666     33,,,553333355,,,333         ***;;**+++5552222::::::::::::+++5566666",
"6666666666666666666666666666666666666666666  ##333333333333333###  1111133;;;;;==444444444444444444444444455::666",
"6666666666666666666666666666666666666666666  ##333333333333333###  1111133;;;;;==444444444444444444444444455::666",
"6666666666666666666666666666666666666666   11OOOOO<<<<<<<<<OOOOOO111111133;;;oo**;;;22255555555555555555555522:::",
"6666666666666666666666666666666666666666   11OOOOO<<<<<<<<<OOOOOO111111133;;;oo**;;;22255555555555555555555522:::",
"6666666666666666666666666666666666666   11111XX$$$$$$$$$$$$$$$XXX         ;;;;;==555555555555555555555555522::666",
"6666666666666666666666666666666666666   11111XX$$$$$$$$$$$$$$$XXX         ;;;;;==555555555555555555555555522::666",
"6666666666666666666666666666666666666   11111XX$$$$$$$$$$$$$$$XXX         ;;;;;==555555555555555555555555522::666",
"666666666666666666666666666666666666 333333  OOXXX$$$$$$$$$XXXOOO  6666666***;;**:::5552222::::::::::::2226666666",
"666666666666666666666666666666666666 333333  OOXXX$$$$$$$$$XXXOOO  6666666***;;**:::5552222::::::::::::2226666666",
"666666666666666666666666666666666666 <<<333$$%%OOOOO-----OOOOO%%%XX  66666   ==;;666:::66666666666666665556666666",
"666666666666666666666666666666666666 <<<333$$%%OOOOO-----OOOOO%%%XX  66666   ==;;666:::66666666666666665556666666",
"666666666666666666666666666666666666 <<<333$$%%OOOOO-----OOOOO%%%XX  66666   ==;;666:::66666666666666665556666666",
"6666666666666666666666666666666666666        %%%%%$$-----$$%%%$$$    66666666       66666666666666666662226666666",
"6666666666666666666666666666666666666        %%%%%$$-----$$%%%$$$    66666666       66666666666666666662226666666",
"6666666666666666666666666666666666666&&&&&&    $$$%%%%%%%%%$$$     &&&&&66666666666666666666666666666226666666666",
"6666666666666666666666666666666666666&&&&&&    $$$%%%%%%%%%$$$     &&&&&66666666666666666666666666666226666666666",
"6666666666666666666666666666666666666&&&   @@..               ...@@  &&&66666666666666666666666666666226666666666",
"6666666666666666666666666666666666666&&&   @@..               ...@@  &&&66666666666666666666666666666226666666666",
"6666666666666666666666666666666666666&&&   @@..               ...@@  &&&66666666666666666666666666666226666666666",
"6666666666666666666666666666666666666&&&   @@@@...  &&&&&  ...@@@@@  &&&66666666666666666666666666666666666666666",
"6666666666666666666666666666666666666&&&   @@@@...  &&&&&  ...@@@@@  &&&66666666666666666666666666666666666666666",
"6666666666666666666666666666666666666&&&   @@@@...  &&&&&  ...@@@@@  &&&66666666666666666666666666666666666666666",
"6666666666666666666666666666666666666666&&&       &&&&&&&&&        &&66666666666666666666666666666666666666666666",
"666666666666666666666666666666666666666666666&&&&&&&&&&&&&&&&&&&&666666666666666666666666666666666666666666666666",
"666666666666666666666666666666666666666666666&&&&&&&&&&&&&&&&&&&&666666666666666666666666666666666666666666666666",
"666666666666666666666666666666666666666666666&&&&&&&&&&&&&&&&&&&&666666666666666666666666666666666666666666666666",
"66666666666666666666666666666666666666666666666666666666666666666666666666666666666666666666666666666666666666666",
"66666666666666666666666666666666666666666666666666666666666666666666666666666666666666666666666666666666666666666",
"66666666666666666666666666666666666666666666666666666666666666666666666666666666666666666666666666666666666666666",
"66666666666666666666666666666666666666666666666666666666666666666666666666666666666666666666666666666666666666666",
"66666666666666666666666666666666666666666666666666666666666666666666666666666666666666666666666666666666666666666",
"66666666666666666666666666666666666666666666666666666666666666666666666666666666666666666666666666666666666666666",
"66666666666666666666666666666666666666666666666666666666666666666666666666666666666666666666666666666666666666666",
"66666666666666666666666666666666666666666666666666666666666666666666666666666666666666666666666666666666666666666",
"66666666666666666666666666666666666666666666666666666666666666666666666666666666666666666666666666666666666666666",
"66666666666666666666666666666666666666666666666666666666666666666666666666666666666666666666666666666666666666666",
"66666666666666666666666666666666666666666666666666666666666666666666666666666666666666666666666666666666666666666",
"66666666666666666666666666666666666666666666666666666666666666666666666666666666666666666666666666666666666666666",
"66666666666666666666666666666666666666666666666666666666666666666666666666666666666666666666666666666666666666666",
"66666666666666666666666666666666666666666666666666666666666666666666666666666666666666666666666666666666666666666",
"66666666666666666666666666666666666666666666666666666666666666666666666666666666666666666666666666666666666666666",
"66666666666666666666666666666666666666666666666666666666666666666666666666666666666666666666666666666666666666666",
"66666666666666666666666666666666666666666666666666666666666666666666666666666666666666666666666666666666666666666",
"66666666666666666666666666666666666666666666666666666666666666666666666666666666666666666666666666666666666666666",
"66666666666666666666666666666666666666666666666666666666666666666666666666666666666666666666666666666666666666666",
"66666666666666666666666666666666666666666666666666666666666666666666666666666666666666666666666666666666666666666",
"66666666666666666666666666666666666666666666666666666666666666666666666666666666666666666666666666666666666666666",
"66666666666666666666666666666666666666666666666666666666666666666666666666666666666666666666666666666666666666666",
"66666666666666666666666666666666666666666666666666666666666666666666666666666666666666666666666666666666666666666",
"66666666666666666666666666666666666666666666666666666666666666666666666666666666666666666666666666666666666666666",
"66666666666666666666666666666666666666666666666666666666666666666666666666666666666666666666666666666666666666666",
"66666666666666666666666666666666666666666666666666666666666666666666666666666666666666666666666666666666666666666",
"66666666666666666666666666666666666666666666666666666666666666666666666666666666666666666666666666666666666666666",
"66666666666666666666666666666666666666666666666666666666666666666666666666666666666666666666666666666666666666666",
"66666666666666666666666666666666666666666666666666666666666666666666666666666666666666666666666666666666666666666",
"66666666666666666666666666666666666666666666666666666666666666666666666666666666666666666666666666666666666666666",
"66666666666666666666666666666666666666666666666666666666666666666666666666666666666666666666666666666666666666666",
"66666666666666666666666666666666666666666666666666666666666666666666666666666666666666666666666666666666666666666",
"66666666666666666666666666666666666666666666666666666666666666666666666666666666666666666666666666666666666666666",
"66666666666666666666666666666666666666666666666666666666666666666666666666666666666666666666666666666666666666666",
"66666666666666666666666666666666666666666666666666666666666666666666666666666666666666666666666666666666666666666",
"66666666666666666666666666666666666666666666666666666666666666666666666666666666666666666666666666666666666666666",
"66666666666666666666666666666666666666666666666666666666666666666666666666666666666666666666666666666666666666666",
"66666666666666666666666666666666666666666666666666666666666666666666666666666666666666666666666666666666666666666",
"66666666666666666666666666666666666666666666666666666666666666666666666666666666666666666666666666666666666666666",
"66666666666666666666666666666666666666666666666666666666666666666666666666666666666666666666666666666666666666666",
"66666666666666666666666666666666666666666666666666666666666666666666666666666666666666666666666666666666666666666",
"66666666666666666666666666666666666666666666666666666666666666666666666666666666666666666666666666666666666666666"
};
