/* XPM */
static char *result[] = {
/* columns rows colors chars-per-pixel */
"113 100 25 1 ",
"  c black",
". c #7B1029",
"X c #107B29",
"o c #7B5200",
"O c #734221",
"+ c #6B6B5A",
"@ c #DE2929",
"# c #A57B42",
"$ c #42A529",
"% c #10FF08",
"& c #363243",
"* c #BD8418",
"= c #EFBD21",
"- c yellow",
"; c #FFEF29",
": c #94947B",
"> c #DEAD52",
", c #3152FF",
"< c #D6B58C",
"1 c #BDFFA5",
"2 c #C6C6AD",
"3 c #FFE7BD",
"4 c #EFEFD6",
"5 c white",
"6 c None",
/* pixels */
"66666666666666666666666666666666666666666666666$$$%%%%%%%%%%%%%%$$$6666666666666666666666666666666666666666666666",
"66666666666666666666666666666666666666666666666$$$%%%%%%%%%%%%%%$$$6666666666666666666666666666666666666666666666",
"66666666666666666666666666666666666666666666666$$$%%%%%%%%%%%%%%$$$6666666666666666666666666666666666666666666666",
"666666666666666666666666666666666666666666OOO##%%%%%%%%%%%%%%%%%%%%%%$$$66666666666666666666666666666666666666666",
"666666666666666666666666666666666666666666OOO##%%%%%%%%%%%%%%%%%%%%%%$$$66666666666666666666666666666666666666666",
"66666666666666666666666666666666666666####--------%%%%%%%%%%%%%%%%%%%%%%   66666666666666666666666666666666666666",
"66666666666666666666666666666666666666####--------%%%%%%%%%%%%%%%%%%%%%%   66666666666666666666666666666666666666",
"66666666666666666666666666666666666666####--------%%%%%%%%%%%%%%%%%%%%%%   66666666666666666666666666666666666666",
"666666666666666666666666666666666666##------------------%%%%%%%%%%%%%%%%$$$  666666666666666666666666666666666666",
"666666666666666666666666666666666666##------------------%%%%%%%%%%%%%%%%$$$  666666666666666666666666666666666666",
"666666666666666666666666666666666666##------------------%%%%%%%%%%%%%%%%$$$  666666666666666666666666666666666666",
"666666666666666666666666666666666###-->>>>----------------###%%%%%%%%$$$$$$  666666666666666666666666666666666666",
"666666666666666666666666666666666###-->>>>----------------###%%%%%%%%$$$$$$  666666666666666666666666666666666666",
"666666666666666666666666666666666###-->>>>----------------###%%%%%%%%$$$$$$  666666666666666666666666666666666666",
"666666666666666666666666666666666###>>####-------->>>###-----###%%%$$$$$XXX  666666666666666666666666666666666666",
"666666666666666666666666666666666###>>####-------->>>###-----###%%%$$$$$XXX  666666666666666666666666666666666666",
"666666666666666666666666666666666OOO##>>>>----->>>OOO<<<##------OOOXXXXXXXX  666666666666666666666666666666666666",
"666666666666666666666666666666666OOO##>>>>----->>>OOO<<<##------OOOXXXXXXXX  666666666666666666666666666666666666",
"666666666666666666666666666666666OOO##>>>>----->>>OOO<<<##------OOOXXXXXXXX  666666666666666666666666666666666666",
"666666666666666666666666666666666666##>>>>--->>OOO<<<33333###------OOOOO###<<###666666666666666666666666666666666",
"666666666666666666666666666666666666##>>>>--->>OOO<<<33333###------OOOOO###<<###666666666666666666666666666666666",
"666666666666666666666666666666666666##>>>>--->>OOO<<<33333###------OOOOO###<<###666666666666666666666666666666666",
"666666666666666666666666666666666666##>>>>###OO<<<33333333###>>>---##33333333OOO666666666666666666666666666666666",
"666666666666666666666666666666666666##>>>>###OO<<<33333333###>>>---##33333333OOO666666666666666666666666666666666",
"666666666666666666666666666666666666##>>>>###OO<<<33333333###>>>---##33333333OOO666666666666666666666666666666666",
"666666666666666666666666666666666666OO####OOO<<<<<OOOOOO33<<<OOO#####333<<<OO666666666666666666666666666666666666",
"666666666666666666666666666666666666OO####OOO<<<<<OOOOOO33<<<OOO#####333<<<OO666666666666666666666666666666666666",
"666666666666666666666666666666666666  ,,,,33333OOO###<<<33333###---  <<<OOO66666666666666666666666666666666666666",
"666666666666666666666666666666666666  ,,,,33333OOO###<<<33333###---  <<<OOO66666666666666666666666666666666666666",
"666666666666666666666666666666666666  ,,,,33333OOO###<<<33333###---  <<<OOO66666666666666666666666666666666666666",
"666666666666666666666666666666666666  ####33333###555,,,##333OOO---  OOO66666666666666666666666666666666666666666",
"666666666666666666666666666666666666  ####33333###555,,,##333OOO---  OOO66666666666666666666666666666666666666666",
"666666666666666666666666666666666666  ####33333###555,,,##333OOO---  OOO66666666666666666666666666666666666666666",
"666666666666666666666666666666666666  ####33333###555,,,##333OOO---  OOO66666666666666666666666666666666666666666",
"666666666666666666666666666666666   oooooo<<<33555555,,,33<<<   >>>  >>>66666666666666666666666666666666666666666",
"666666666666666666666666666666666   oooooo<<<33555555,,,33<<<   >>>  >>>66666666666666666666666666666666666666666",
"666666666666666666666666666666:::666;;====ooo<<333333333<<OOO           66666666666666666666666666666666666666666",
"666666666666666666666666666666:::666;;====ooo<<333333333<<OOO           66666666666666666666666666666666666666666",
"666666666666666666666666666666:::666;;====ooo<<333333333<<OOO           66666666666666666666666666666666666666666",
"66666666+++::::::::::::::22222555+++**;;;;***        OOO  111111OOO  66666666666666666666666666666666666666666666",
"66666666+++::::::::::::::22222555+++**;;;;***        OOO  111111OOO  66666666666666666666666666666666666666666666",
"66666666+++::::::::::::::22222555+++**;;;;***        OOO  111111OOO  66666666666666666666666666666666666666666666",
"666::2224444444444444444444444444444==;;;;;;;3333311111111111111OOO$$   66666666666666666666666666666666666666666",
"666::2224444444444444444444444444444==;;;;;;;3333311111111111111OOO$$   66666666666666666666666666666666666666666",
"666::2224444444444444444444444444444==;;;;;;;3333311111111111111OOO$$   66666666666666666666666666666666666666666",
":::445555555555555555555555555222;;;**oooo;;;<<33311111111      $$$$$   66666666666666666666666666666666666666666",
":::445555555555555555555555555222;;;**oooo;;;<<33311111111      $$$$$   66666666666666666666666666666666666666666",
"666::2224445555555555555555555555555==;;;;;;;             OOO$$$%%%  &&&66666666666666666666666666666666666666666",
"666::2224445555555555555555555555555==;;;;;;;             OOO$$$%%%  &&&66666666666666666666666666666666666666666",
"666::2224445555555555555555555555555==;;;;;;;             OOO$$$%%%  &&&66666666666666666666666666666666666666666",
"66666666+++::::::::::::::22222555:::**;;;;***$$%%%%%%%%%%%%%%%%%     &&&&&&66666666666666666666666666666666666666",
"66666666+++::::::::::::::22222555:::**;;;;***$$%%%%%%%%%%%%%%%%%     &&&&&&66666666666666666666666666666666666666",
"66666666+++::::::::::::::22222555:::**;;;;***$$%%%%%%%%%%%%%%%%%     &&&&&&66666666666666666666666666666666666666",
"666666666666666666666666666666:::666;;====        $$$%%%%%$$$   ...@@   &&&66666666666666666666666666666666666666",
"666666666666666666666666666666:::666;;====        $$$%%%%%$$$   ...@@   &&&66666666666666666666666666666666666666",
"666666666666666666666666666666666         @@@@@...           ...@@@@@   &&&66666666666666666666666666666666666666",
"666666666666666666666666666666666         @@@@@...           ...@@@@@   &&&66666666666666666666666666666666666666",
"666666666666666666666666666666666         @@@@@...           ...@@@@@   &&&66666666666666666666666666666666666666",
"66666666666666666666666666666666666666&&&&        &&&&&&&&&&&        &&&66666666666666666666666666666666666666666",
"66666666666666666666666666666666666666&&&&        &&&&&&&&&&&        &&&66666666666666666666666666666666666666666",
"66666666666666666666666666666666666666&&&&        &&&&&&&&&&&        &&&66666666666666666666666666666666666666666",
"666666666666666666666666666666666666666666666&&&&&&&&&&&&&&&&&&&&&&6666666666666666666666666666666666666666666666",
"666666666666666666666666666666666666666666666&&&&&&&&&&&&&&&&&&&&&&6666666666666666666666666666666666666666666666",
"666666666666666666666666666666666666666666666&&&&&&&&&&&&&&&&&&&&&&6666666666666666666666666666666666666666666666",
"66666666666666666666666666666666666666666666666666666666666666666666666666666666666666666666666666666666666666666",
"66666666666666666666666666666666666666666666666666666666666666666666666666666666666666666666666666666666666666666",
"66666666666666666666666666666666666666666666666666666666666666666666666666666666666666666666666666666666666666666",
"66666666666666666666666666666666666666666666666666666666666666666666666666666666666666666666666666666666666666666",
"66666666666666666666666666666666666666666666666666666666666666666666666666666666666666666666666666666666666666666",
"66666666666666666666666666666666666666666666666666666666666666666666666666666666666666666666666666666666666666666",
"66666666666666666666666666666666666666666666666666666666666666666666666666666666666666666666666666666666666666666",
"66666666666666666666666666666666666666666666666666666666666666666666666666666666666666666666666666666666666666666",
"66666666666666666666666666666666666666666666666666666666666666666666666666666666666666666666666666666666666666666",
"66666666666666666666666666666666666666666666666666666666666666666666666666666666666666666666666666666666666666666",
"66666666666666666666666666666666666666666666666666666666666666666666666666666666666666666666666666666666666666666",
"66666666666666666666666666666666666666666666666666666666666666666666666666666666666666666666666666666666666666666",
"66666666666666666666666666666666666666666666666666666666666666666666666666666666666666666666666666666666666666666",
"66666666666666666666666666666666666666666666666666666666666666666666666666666666666666666666666666666666666666666",
"66666666666666666666666666666666666666666666666666666666666666666666666666666666666666666666666666666666666666666",
"66666666666666666666666666666666666666666666666666666666666666666666666666666666666666666666666666666666666666666",
"66666666666666666666666666666666666666666666666666666666666666666666666666666666666666666666666666666666666666666",
"66666666666666666666666666666666666666666666666666666666666666666666666666666666666666666666666666666666666666666",
"66666666666666666666666666666666666666666666666666666666666666666666666666666666666666666666666666666666666666666",
"66666666666666666666666666666666666666666666666666666666666666666666666666666666666666666666666666666666666666666",
"66666666666666666666666666666666666666666666666666666666666666666666666666666666666666666666666666666666666666666",
"66666666666666666666666666666666666666666666666666666666666666666666666666666666666666666666666666666666666666666",
"66666666666666666666666666666666666666666666666666666666666666666666666666666666666666666666666666666666666666666",
"66666666666666666666666666666666666666666666666666666666666666666666666666666666666666666666666666666666666666666",
"66666666666666666666666666666666666666666666666666666666666666666666666666666666666666666666666666666666666666666",
"66666666666666666666666666666666666666666666666666666666666666666666666666666666666666666666666666666666666666666",
"66666666666666666666666666666666666666666666666666666666666666666666666666666666666666666666666666666666666666666",
"66666666666666666666666666666666666666666666666666666666666666666666666666666666666666666666666666666666666666666",
"66666666666666666666666666666666666666666666666666666666666666666666666666666666666666666666666666666666666666666",
"66666666666666666666666666666666666666666666666666666666666666666666666666666666666666666666666666666666666666666",
"66666666666666666666666666666666666666666666666666666666666666666666666666666666666666666666666666666666666666666",
"66666666666666666666666666666666666666666666666666666666666666666666666666666666666666666666666666666666666666666",
"66666666666666666666666666666666666666666666666666666666666666666666666666666666666666666666666666666666666666666",
"66666666666666666666666666666666666666666666666666666666666666666666666666666666666666666666666666666666666666666",
"66666666666666666666666666666666666666666666666666666666666666666666666666666666666666666666666666666666666666666",
"66666666666666666666666666666666666666666666666666666666666666666666666666666666666666666666666666666666666666666"
};
