/* XPM */
static char *result[] = {
/* columns rows colors chars-per-pixel */
"46 60 17 1 ",
"  c black",
". c #7B1029",
"X c #363243",
"o c #107B29",
"O c #734221",
"+ c #DE2929",
"@ c #A57B42",
"# c #42A529",
"$ c #10FF08",
"% c yellow",
"& c #DEAD52",
"* c #3152FF",
"= c #D6B58C",
"- c #BDFFA5",
"; c #FFE7BD",
": c white",
"> c None",
/* pixels */
">>>>>>>>>>>>>>>   ##########  >>>>>>>>>>>>>>>>",
">>>>>>>>>>>>>>>   ##########  >>>>>>>>>>>>>>>>",
">>>>>>>>>>>>>  ###$$$$$$$$$$##   >>>>>>>>>>>>>",
">>>>>>>>>>>>>  ###$$$$$$$$$$##   >>>>>>>>>>>>>",
">>>>>>>>>>>>>  ###$$$$$$$$$$##   >>>>>>>>>>>>>",
">>>>>>>>>>   ##$$$$$$$$$$$$$$$###  >>>>>>>>>>>",
">>>>>>>>>>   ##$$$$$$$$$$$$$$$###  >>>>>>>>>>>",
">>>>>>>>  ###$$$$$$$$$$$$$$$$$$$$##   >>>>>>>>",
">>>>>>>>  ###$$$$$$$$$$$$$$$$$$$$##   >>>>>>>>",
">>>>>>>>  ###$$$$$$$$$$$$$$$$$$$$##   >>>>>>>>",
">>>>>>>>  $$$@@%%%%%%%%%%%%%%%@@@$$   >>>>>>>>",
">>>>>>>>  $$$@@%%%%%%%%%%%%%%%@@@$$   >>>>>>>>",
">>>>>   ##@@@%%%%%%%%%%%%%%%%%%%%@@###  >>>>>>",
">>>>>   ##@@@%%%%%%%%%%%%%%%%%%%%@@###  >>>>>>",
">>>>>   ##@@@%%%%%%%%%%%%%%%%%%%%@@###  >>>>>>",
"@@@==OOOOO&&&%%&&&%%%%%%%&&&@@%%%%%OOOOO===@@@",
"@@@==OOOOO&&&%%&&&%%%%%%%&&&@@%%%%%OOOOO===@@@",
"OOO;;;;;@@%%%@@%%%%%%%%%%@@@==@@@%%@@@;;;;;OOO",
"OOO;;;;;@@%%%@@%%%%%%%%%%@@@==@@@%%@@@;;;;;OOO",
"OOO;;;;;@@%%%@@%%%%%%%%%%@@@==@@@%%@@@;;;;;OOO",
">>>OO===OO@@@&&%%%%%&&&OO===;;@@@&&@@@==OOO>>>",
">>>OO===OO@@@&&%%%%%&&&OO===;;@@@&&@@@==OOO>>>",
">>>>>OOO%%OOO&&&&&@@OOO==;;;;;===OO%%%OO>>>>>>",
">>>>>OOO%%OOO&&&&&@@OOO==;;;;;===OO%%%OO>>>>>>",
">>>>>OOO%%OOO&&&&&@@OOO==;;;;;===OO%%%OO>>>>>>",
">>>>>   %%@@@  @@@OO===;;===OO   @@%%%  >>>>>>",
">>>>>   %%@@@  @@@OO===;;===OO   @@%%%  >>>>>>",
">>>>>   &&OOO::***OO;;;;;OOO**:::OO&&&  >>>>>>",
">>>>>   &&OOO::***OO;;;;;OOO**:::OO&&&  >>>>>>",
">>>>>   &&OOO::***OO;;;;;OOO**:::OO&&&  >>>>>>",
">>>>>>>>     ;;***::;;;;;:::**;;;     >>>>>>>>",
">>>>>>>>     ;;***::;;;;;:::**;;;     >>>>>>>>",
">>>>>>>>>>   @@;;;;;;;;;;;;;;;@@@  >>>>>>>>>>>",
">>>>>>>>>>   @@;;;;;;;;;;;;;;;@@@  >>>>>>>>>>>",
">>>>>>>>  ---OOOOO==========OOOOO--   >>>>>>>>",
">>>>>>>>  ---OOOOO==========OOOOO--   >>>>>>>>",
">>>>>>>>  ---OOOOO==========OOOOO--   >>>>>>>>",
">>>>>   -----oo###############ooo-----  >>>>>>",
">>>>>   -----oo###############ooo-----  >>>>>>",
">>>  ;;;;;   OO###############OOO  ;;;;;   >>>",
">>>  ;;;;;   OO###############OOO  ;;;;;   >>>",
">>>  ;;;;;   OO###############OOO  ;;;;;   >>>",
">>>  ===;;ooo$$OOOOO%%%%%OOOOO$$$oo;;;==   >>>",
">>>  ===;;ooo$$OOOOO%%%%%OOOOO$$$oo;;;==   >>>",
">>>>>        $$$$$##%%%%%###$$$$$       >>>>>>",
">>>>>        $$$$$##%%%%%###$$$$$       >>>>>>",
">>>>>        $$$$$##%%%%%###$$$$$       >>>>>>",
">>>>>XXXXX     ###$$$$$$$$$$##     XXXXX>>>>>>",
">>>>>XXXXX     ###$$$$$$$$$$##     XXXXX>>>>>>",
">>>>>XXX  +++..               ...++   XX>>>>>>",
">>>>>XXX  +++..               ...++   XX>>>>>>",
">>>>>XXX  +++..               ...++   XX>>>>>>",
">>>>>XXX  +++++...  XXXXX   ..+++++   XX>>>>>>",
">>>>>XXX  +++++...  XXXXX   ..+++++   XX>>>>>>",
">>>>>>>>XX        XXXXXXXXXX       XXX>>>>>>>>",
">>>>>>>>XX        XXXXXXXXXX       XXX>>>>>>>>",
">>>>>>>>XX        XXXXXXXXXX       XXX>>>>>>>>",
">>>>>>>>>>>>>XXXXXXXXXXXXXXXXXXXX>>>>>>>>>>>>>",
">>>>>>>>>>>>>XXXXXXXXXXXXXXXXXXXX>>>>>>>>>>>>>",
">>>>>>>>>>>>>XXXXXXXXXXXXXXXXXXXX>>>>>>>>>>>>>"
};
