/* XPM */
static char *result[] = {
/* columns rows colors chars-per-pixel */
"46 60 17 1 ",
"  c black",
". c #7B1029",
"X c #107B29",
"o c #734221",
"O c #363243",
"+ c #DE2929",
"@ c #A57B42",
"# c #42A529",
"$ c #10FF08",
"% c yellow",
"& c #DEAD52",
"* c #3152FF",
"= c #D6B58C",
"- c #BDFFA5",
"; c #FFE7BD",
": c white",
"> c None",
/* pixels */
">>>>>>>>>>>>>>>   ##########  >>>>>>>>>>>>>>>>",
">>>>>>>>>>>>>>>   ##########  >>>>>>>>>>>>>>>>",
">>>>>>>>>>>>>  ###$$$$$$$$$$##   >>>>>>>>>>>>>",
">>>>>>>>>>>>>  ###$$$$$$$$$$##   >>>>>>>>>>>>>",
">>>>>>>>>>>>>  ###$$$$$$$$$$##   >>>>>>>>>>>>>",
">>>>>>>>>>   $$$$$$$$$$$$$$$$$$$$  >>>>>>>>>>>",
">>>>>>>>>>   $$$$$$$$$$$$$$$$$$$$  >>>>>>>>>>>",
">>>>>>>>  ###$$$$$$$$$$$$$$$$$$$$##   >>>>>>>>",
">>>>>>>>  ###$$$$$$$$$$$$$$$$$$$$##   >>>>>>>>",
">>>>>>>>  ###$$$$$$$$$$$$$$$$$$$$##   >>>>>>>>",
">>>>>   ##@@@&&%%%%%%%%%%%%%%%@@@$$###  >>>>>>",
">>>>>   ##@@@&&%%%%%%%%%%%%%%%@@@$$###  >>>>>>",
">>>>>   oo%%%%%%%%%%%%%%%%%%%%%%%@@###  >>>>>>",
">>>>>   oo%%%%%%%%%%%%%%%%%%%%%%%@@###  >>>>>>",
">>>>>   oo%%%%%%%%%%%%%%%%%%%%%%%@@###  >>>>>>",
"@@@==ooo&&%%%&&%%%%%%%%%%%%%@@%%%%%ooooo===@@@",
"@@@==ooo&&%%%&&%%%%%%%%%%%%%@@%%%%%ooooo===@@@",
"ooo;;@@@%%@@@%%%%%%%%%%&&@@@==@@@%%&&&;;;;;ooo",
"ooo;;@@@%%@@@%%%%%%%%%%&&@@@==@@@%%&&&;;;;;ooo",
"ooo;;@@@%%@@@%%%%%%%%%%&&@@@==@@@%%&&&;;;;;ooo",
">>>oo===oo&&&%%%%%%%&&&@@=====;;;&&@@@==ooo>>>",
">>>oo===oo&&&%%%%%%%&&&@@=====;;;&&@@@==ooo>>>",
">>>  ===@@@@@&&&&&&&@@@oo===;;===oo%%%oo>>>>>>",
">>>  ===@@@@@&&&&&&&@@@oo===;;===oo%%%oo>>>>>>",
">>>  ===@@@@@&&&&&&&@@@oo===;;===oo%%%oo>>>>>>",
">>>  ooo%%ooo  @@@@@ooo=====oo   @@%%%  >>>>>>",
">>>  ooo%%ooo  @@@@@ooo=====oo   @@%%%  >>>>>>",
">>>>>   &&ooo::***oo===;;ooo**:::oo&&&  >>>>>>",
">>>>>   &&ooo::***oo===;;ooo**:::oo&&&  >>>>>>",
">>>>>   &&ooo::***oo===;;ooo**:::oo&&&  >>>>>>",
">>>>>>>>     ;;***::;;;;;:::**;;;     >>>>>>>>",
">>>>>>>>     ;;***::;;;;;:::**;;;     >>>>>>>>",
">>>>>>>>>>   @@;;;;;;;;;;;;;;;@@@  >>>>>>>>>>>",
">>>>>>>>>>   @@;;;;;;;;;;;;;;;@@@  >>>>>>>>>>>",
">>>>>>>>  ---ooooo==========ooooo--   >>>>>>>>",
">>>>>>>>  ---ooooo==========ooooo--   >>>>>>>>",
">>>>>>>>  ---ooooo==========ooooo--   >>>>>>>>",
">>>     -----XX###############XXX-----     >>>",
">>>     -----XX###############XXX-----     >>>",
"   ;;;;;--   oo###############ooo  ---;;;;;   ",
"   ;;;;;--   oo###############ooo  ---;;;;;   ",
"   ;;;;;--   oo###############ooo  ---;;;;;   ",
"   =====  XXX$$ooooo%%%%%ooooo$$$XX   =====   ",
"   =====  XXX$$ooooo%%%%%ooooo$$$XX   =====   ",
">>>     OO   $$$$$##%%%%%###$$$$$  OOO     >>>",
">>>     OO   $$$$$##%%%%%###$$$$$  OOO     >>>",
">>>     OO   $$$$$##%%%%%###$$$$$  OOO     >>>",
">>>>>OOO       ###$$$$$$$$$$XX     OOOOO>>>>>>",
">>>>>OOO       ###$$$$$$$$$$XX     OOOOO>>>>>>",
">>>>>OOO  ooo++.....        oo   OOOOOOO>>>>>>",
">>>>>OOO  ooo++.....        oo   OOOOOOO>>>>>>",
">>>>>OOO  ooo++.....        oo   OOOOOOO>>>>>>",
">>>>>OOOOO   +++++  OOOOOOOO  OOOOOOOOOO>>>>>>",
">>>>>OOOOO   +++++  OOOOOOOO  OOOOOOOOOO>>>>>>",
">>>>>>>>OOOOO     OOOOOOOOOOOOOOOOOOOO>>>>>>>>",
">>>>>>>>OOOOO     OOOOOOOOOOOOOOOOOOOO>>>>>>>>",
">>>>>>>>OOOOO     OOOOOOOOOOOOOOOOOOOO>>>>>>>>",
">>>>>>>>>>>>>OOOOOOOOOOOOOOOOOOOO>>>>>>>>>>>>>",
">>>>>>>>>>>>>OOOOOOOOOOOOOOOOOOOO>>>>>>>>>>>>>",
">>>>>>>>>>>>>OOOOOOOOOOOOOOOOOOOO>>>>>>>>>>>>>"
};
