/* XPM */
static char *result[] = {
/* columns rows colors chars-per-pixel */
"46 64 17 1 ",
"  c black",
". c #7B1029",
"X c #363243",
"o c #107B29",
"O c #734221",
"+ c #DE2929",
"@ c #A57B42",
"# c #42A529",
"$ c #10FF08",
"% c yellow",
"& c #DEAD52",
"* c #3152FF",
"= c #D6B58C",
"- c #BDFFA5",
"; c #FFE7BD",
": c white",
"> c None",
/* pixels */
">>>>>>>>>>>>>>>   ##########  >>>>>>>>>>>>>>>>",
">>>>>>>>>>>>>>>   ##########  >>>>>>>>>>>>>>>>",
">>>>>>>>>>>>>  ###############   >>>>>>>>>>>>>",
">>>>>>>>>>>>>  ###############   >>>>>>>>>>>>>",
">>>>>>>>>>>>>  ###############   >>>>>>>>>>>>>",
">>>>>>>>>>   ##$$$$$$$$$$$$$$$###  >>>>>>>>>>>",
">>>>>>>>>>   ##$$$$$$$$$$$$$$$###  >>>>>>>>>>>",
">>>>>>>>  ###$$$$$$$$$$$$$$$$$$$$##   >>>>>>>>",
">>>>>>>>  ###$$$$$$$$$$$$$$$$$$$$##   >>>>>>>>",
">>>>>>>>  ###$$$$$$$$$$$$$$$$$$$$##   >>>>>>>>",
">>>>>>>>  $$$@@%%%%%%%%%%%%%%%@@@$$   >>>>>>>>",
">>>>>>>>  $$$@@%%%%%%%%%%%%%%%@@@$$   >>>>>>>>",
">>>>>   ##@@@%%%%%%%%%%%%%%%%%%%%==###  >>>>>>",
">>>>>   ##@@@%%%%%%%%%%%%%%%%%%%%==###  >>>>>>",
">>>>>   ##@@@%%%%%%%%%%%%%%%%%%%%==###  >>>>>>",
"@@@==OOOOO&&&%%%%%&&%%%%%%%%@@%%%%%OOOOO===@@@",
"@@@==OOOOO&&&%%%%%&&%%%%%%%%@@%%%%%OOOOO===@@@",
"OOO;;;;;@@%%%%%&&&%%%%%%%@@@==@@@%%@@@;;;;;OOO",
"OOO;;;;;@@%%%%%&&&%%%%%%%@@@==@@@%%@@@;;;;;OOO",
"OOO;;;;;@@%%%%%&&&%%%%%%%@@@==@@@%%@@@;;;;;OOO",
">>>OO;;;OO&&&@@&&&%%%%%%%@@@==;;;&&@@@==OOO>>>",
">>>OO;;;OO&&&@@&&&%%%%%%%@@@==;;;&&@@@==OOO>>>",
">>>>>   %%OOO@@&&&%%%%%&&@@@;;===OO%%%  >>>>>>",
">>>>>   %%OOO@@&&&%%%%%&&@@@;;===OO%%%  >>>>>>",
">>>>>   %%OOO@@&&&%%%%%&&@@@;;===OO%%%  >>>>>>",
">>>>>   %%@@@  @@@&&&&&OO===OO   @@%%%  >>>>>>",
">>>>>   %%@@@  @@@&&&&&OO===OO   @@%%%  >>>>>>",
">>>>>   &&OOO::***OOOOO;;OOO**:::OO&&&  >>>>>>",
">>>>>   &&OOO::***OOOOO;;OOO**:::OO&&&  >>>>>>",
">>>>>   &&OOO::***OOOOO;;OOO**:::OO&&&  >>>>>>",
">>>>>>>>  OOO;;***::;;;;;:::**;;;     >>>>>>>>",
">>>>>>>>  OOO;;***::;;;;;:::**;;;     >>>>>>>>",
">>>>>>>>>>   @@;;;;;;;;;;;;;;;@@@--===  >>>>>>",
">>>>>>>>>>   @@;;;;;;;;;;;;;;;@@@--===  >>>>>>",
">>>>>>>>>>   OOOOO==========OOOOO--@@@  >>>>>>",
">>>>>>>>>>   OOOOO==========OOOOO--@@@  >>>>>>",
">>>>>>>>>>   OOOOO==========OOOOO--@@@  >>>>>>",
">>>>>>>>>>   -----  ##########OOOoo   >>>>>>>>",
">>>>>>>>>>   -----  ##########OOOoo   >>>>>>>>",
">>>>>>>>  OOO-----  OOO%%%%%OO###  >>>>>>>>>>>",
">>>>>>>>  OOO-----  OOO%%%%%OO###  >>>>>>>>>>>",
">>>>>>>>  OOO-----  OOO%%%%%OO###  >>>>>>>>>>>",
">>>>>>>>  ===;;===oo$$$%%%%%$$$$$oo   >>>>>>>>",
">>>>>>>>  ===;;===oo$$$%%%%%$$$$$oo   >>>>>>>>",
">>>>>>>>  ;;;;;   ##$$$$$$$$$$###  >>>>>>>>>>>",
">>>>>>>>  ;;;;;   ##$$$$$$$$$$###  >>>>>>>>>>>",
">>>>>>>>  ;;;;;   ##$$$$$$$$$$###  >>>>>>>>>>>",
">>>>>>>>>>                         >>>>>>>>>>>",
">>>>>>>>>>                         >>>>>>>>>>>",
">>>>>>>>XXXXXXXXXXXXXXXXX   @@...  XXX>>>>>>>>",
">>>>>>>>XXXXXXXXXXXXXXXXX   @@...  XXX>>>>>>>>",
">>>>>>>>XXXXXXXXXXXXXXXXX   @@...  XXX>>>>>>>>",
">>>>>XXXXXXXXXXXXXXXXXXXX   ..+++..   XX>>>>>>",
">>>>>XXXXXXXXXXXXXXXXXXXX   ..+++..   XX>>>>>>",
">>>>>XXXXXXXXXXXXXXXXXXXX   +++++++   XX>>>>>>",
">>>>>XXXXXXXXXXXXXXXXXXXX   +++++++   XX>>>>>>",
">>>>>XXXXXXXXXXXXXXXXXXXX   +++++++   XX>>>>>>",
">>>>>XXXXXXXXXXXXXXXXXXXXXXX       XXXXX>>>>>>",
">>>>>XXXXXXXXXXXXXXXXXXXXXXX       XXXXX>>>>>>",
">>>>>>>>XXXXXXXXXXXXXXXXXXXXXXXXXXXXXX>>>>>>>>",
">>>>>>>>XXXXXXXXXXXXXXXXXXXXXXXXXXXXXX>>>>>>>>",
">>>>>>>>XXXXXXXXXXXXXXXXXXXXXXXXXXXXXX>>>>>>>>",
">>>>>>>>>>>>>XXXXXXXXXXXXXXXXXXXX>>>>>>>>>>>>>",
">>>>>>>>>>>>>XXXXXXXXXXXXXXXXXXXX>>>>>>>>>>>>>"
};
