/* XPM */
static char *result[] = {
/* columns rows colors chars-per-pixel */
"46 62 17 1 ",
"  c black",
". c #7B1029",
"X c #363243",
"o c #107B29",
"O c #734221",
"+ c #DE2929",
"@ c #A57B42",
"# c #42A529",
"$ c #10FF08",
"% c yellow",
"& c #DEAD52",
"* c #3152FF",
"= c #D6B58C",
"- c #BDFFA5",
"; c #FFE7BD",
": c white",
"> c None",
/* pixels */
">>>>>>>>>>>>>>>   ##########  >>>>>>>>>>>>>>>>",
">>>>>>>>>>>>>>>   ##########  >>>>>>>>>>>>>>>>",
">>>>>>>>>>>>>  $$$$$$$$$$$$$$$   >>>>>>>>>>>>>",
">>>>>>>>>>>>>  $$$$$$$$$$$$$$$   >>>>>>>>>>>>>",
">>>>>>>>>>>>>  $$$$$$$$$$$$$$$   >>>>>>>>>>>>>",
">>>>>>>>>>   $$$$$$$$$$$$$$$$$$$$  >>>>>>>>>>>",
">>>>>>>>>>   $$$$$$$$$$$$$$$$$$$$  >>>>>>>>>>>",
">>>>>>>>  ###$$$$$$$$$$$$$$$$$$$$##   >>>>>>>>",
">>>>>>>>  ###$$$$$$$$$$$$$$$$$$$$##   >>>>>>>>",
">>>>>>>>  ###$$$$$$$$$$$$$$$$$$$$##   >>>>>>>>",
">>>>>>>>  @@@%%%%%%%%%%%%%%%%%@@@$$   >>>>>>>>",
">>>>>>>>  @@@%%%%%%%%%%%%%%%%%@@@$$   >>>>>>>>",
">>>>>   @@%%%%%%%%%%%%%%%%%%%%%%%&&###  >>>>>>",
">>>>>   @@%%%%%%%%%%%%%%%%%%%%%%%&&###  >>>>>>",
">>>>>   @@%%%%%%%%%%%%%%%%%%%%%%%&&###  >>>>>>",
"@@@==OOO%%%%%&&%%%%%%%%&&@@@@@%%%%%OOOOO===@@@",
"@@@==OOO%%%%%&&%%%%%%%%&&@@@@@%%%%%OOOOO===@@@",
"OOO;;@@@%%&&&%%%%%%%&&&@@=====@@@%%@@@;;;;;OOO",
"OOO;;@@@%%&&&%%%%%%%&&&@@=====@@@%%@@@;;;;;OOO",
"OOO;;@@@%%&&&%%%%%%%&&&@@=====@@@%%@@@;;;;;OOO",
">>>OO&&&OO@@@%%%%%&&@@@==;;;;;;;;@@&&&==OOO>>>",
">>>OO&&&OO@@@%%%%%&&@@@==;;;;;;;;@@&&&==OOO>>>",
">>>>>   %%OOO&&&&&&&OOO==;;;;;===OO%%%  >>>>>>",
">>>>>   %%OOO&&&&&&&OOO==;;;;;===OO%%%  >>>>>>",
">>>>>   %%OOO&&&&&&&OOO==;;;;;===OO%%%  >>>>>>",
">>>>>   %%@@@  @@@@@===;;===OO   @@%%%  >>>>>>",
">>>>>   %%@@@  @@@@@===;;===OO   @@%%%  >>>>>>",
">>>>>   &&OOO::***OO===;;OOO**:::OO&&&  >>>>>>",
">>>>>   &&OOO::***OO===;;OOO**:::OO&&&  >>>>>>",
">>>>>   &&OOO::***OO===;;OOO**:::OO&&&  >>>>>>",
">>>>>>>>  @@@::***::;;;;;:::**;;;     >>>>>>>>",
">>>>>>>>  @@@::***::;;;;;:::**;;;     >>>>>>>>",
">>>>>>>>>>   @@===;;;;;;;;;;==@@@  OOO  >>>>>>",
">>>>>>>>>>   @@===;;;;;;;;;;==@@@  OOO  >>>>>>",
">>>>>>>>>>   OOOOO==========OOOOO--===;;   >>>",
">>>>>>>>>>   OOOOO==========OOOOO--===;;   >>>",
">>>>>>>>>>   OOOOO==========OOOOO--===;;   >>>",
">>>>>>>>  OOO--OOO  ##########ooo  ;;;;;   >>>",
">>>>>>>>  OOO--OOO  ##########ooo  ;;;;;   >>>",
">>>>>>>>  -----   oo##########OOO       >>>>>>",
">>>>>>>>  -----   oo##########OOO       >>>>>>",
">>>>>>>>  -----   oo##########OOO       >>>>>>",
">>>>>   ;;;;;  OOOOO%%%%%OOOOO###  >>>>>>>>>>>",
">>>>>   ;;;;;  OOOOO%%%%%OOOOO###  >>>>>>>>>>>",
">>>>>   ==;;;  #####%%%%%###$$$$$  >>>>>>>>>>>",
">>>>>   ==;;;  #####%%%%%###$$$$$  >>>>>>>>>>>",
">>>>>   ==;;;  #####%%%%%###$$$$$  >>>>>>>>>>>",
">>>>>          ###$$$$$$$$$$##   XXXXX>>>>>>>>",
">>>>>          ###$$$$$$$$$$##   XXXXX>>>>>>>>",
">>>>>XXXXXXXXXX             @@...  XXXXX>>>>>>",
">>>>>XXXXXXXXXX             @@...  XXXXX>>>>>>",
">>>>>XXXXXXXXXX             @@...  XXXXX>>>>>>",
">>>>>XXXXXXXXXXXXXXXXXXXX   ..+++..   XX>>>>>>",
">>>>>XXXXXXXXXXXXXXXXXXXX   ..+++..   XX>>>>>>",
">>>>>XXXXXXXXXXXXXXXXXXXX   +++++++   XX>>>>>>",
">>>>>XXXXXXXXXXXXXXXXXXXX   +++++++   XX>>>>>>",
">>>>>XXXXXXXXXXXXXXXXXXXX   +++++++   XX>>>>>>",
">>>>>>>>XXXXXXXXXXXXXXXXXXXX       XXX>>>>>>>>",
">>>>>>>>XXXXXXXXXXXXXXXXXXXX       XXX>>>>>>>>",
">>>>>>>>>>>>>XXXXXXXXXXXXXXXXXXXX>>>>>>>>>>>>>",
">>>>>>>>>>>>>XXXXXXXXXXXXXXXXXXXX>>>>>>>>>>>>>",
">>>>>>>>>>>>>XXXXXXXXXXXXXXXXXXXX>>>>>>>>>>>>>"
};
