/* XPM */
static char *result[] = {
/* columns rows colors chars-per-pixel */
"46 60 18 1 ",
"  c black",
". c #7B1029",
"X c #363243",
"o c #107B29",
"O c #734221",
"+ c #DE2929",
"@ c #A57B42",
"# c #42A529",
"$ c #10FF08",
"% c #363243",
"& c yellow",
"* c #DEAD52",
"= c #3152FF",
"- c #D6B58C",
"; c #BDFFA5",
": c #FFE7BD",
"> c white",
", c None",
/* pixels */
",,,,,,,,,,,,,,,   ##########  ,,,,,,,,,,,,,,,,",
",,,,,,,,,,,,,,,   ##########  ,,,,,,,,,,,,,,,,",
",,,,,,,,,,,,,,,   ##########  ,,,,,,,,,,,,,,,,",
",,,,,,,,,,,,,  ###$$$$$$$$$$##   ,,,,,,,,,,,,,",
",,,,,,,,,,,,,  ###$$$$$$$$$$##   ,,,,,,,,,,,,,",
",,,,,,,,,,   $$$$$$$$$$$$$$$$$$$$  ,,,,,,,,,,,",
",,,,,,,,,,   $$$$$$$$$$$$$$$$$$$$  ,,,,,,,,,,,",
",,,,,,,,,,   $$$$$$$$$$$$$$$$$$$$  ,,,,,,,,,,,",
",,,,,,,,  ###$$$$$$$$$$$$$$$$$$$$##   ,,,,,,,,",
",,,,,,,,  ###$$$$$$$$$$$$$$$$$$$$##   ,,,,,,,,",
",,,,,   ##@@@**&&&&&&&&&&&&&&&@@@$$###  ,,,,,,",
",,,,,   ##@@@**&&&&&&&&&&&&&&&@@@$$###  ,,,,,,",
",,,,,   ##@@@**&&&&&&&&&&&&&&&@@@$$###  ,,,,,,",
",,,,,   OO&&&&&&&&&&&&&&&&&&&&&&&@@###  ,,,,,,",
",,,,,   OO&&&&&&&&&&&&&&&&&&&&&&&@@###  ,,,,,,",
"@@@--OOO**&&&**&&&&&&&&&&&&&@@&&&&&OOOOO---@@@",
"@@@--OOO**&&&**&&&&&&&&&&&&&@@&&&&&OOOOO---@@@",
"@@@--OOO**&&&**&&&&&&&&&&&&&@@&&&&&OOOOO---@@@",
"OOO::@@@&&@@@&&&&&&&&&&**@@@--@@@&&@@@:::::OOO",
"OOO::@@@&&@@@&&&&&&&&&&**@@@--@@@&&@@@:::::OOO",
",,,OO---OO***&&&&&&&***@@-----:::**@@@--OOO,,,",
",,,OO---OO***&&&&&&&***@@-----:::**@@@--OOO,,,",
",,,OO---OO***&&&&&&&***@@-----:::**@@@--OOO,,,",
",,,  ---@@@@@*******@@@OO---::---OO&&&  ,,,,,,",
",,,  ---@@@@@*******@@@OO---::---OO&&&  ,,,,,,",
",,,  OOO&&OOO  @@@@@OOO-----OO   @@&&&  ,,,,,,",
",,,  OOO&&OOO  @@@@@OOO-----OO   @@&&&  ,,,,,,",
",,,  OOO&&OOO  @@@@@OOO-----OO   @@&&&  ,,,,,,",
",,,,,   **OOO>>===OO---::OOO==>>>OO***  ,,,,,,",
",,,,,   **OOO>>===OO---::OOO==>>>OO***  ,,,,,,",
",,,,,,,,OO@@@::===>>:::::>>>==:::     ,,,,,,,,",
",,,,,,,,OO@@@::===>>:::::>>>==:::     ,,,,,,,,",
",,,,,,,,,,   @@:::::::::::::::@@@  ,,,,,,,,,,,",
",,,,,,,,,,   @@:::::::::::::::@@@  ,,,,,,,,,,,",
",,,,,,,,,,   @@:::::::::::::::@@@  ,,,,,,,,,,,",
",,,,,,,,  ;;;OOOOO----------OOOOO;;   ,,,,,,,,",
",,,,,,,,  ;;;OOOOO----------OOOOO;;   ,,,,,,,,",
",,,     ;;;;;oo###############ooo;;;;;     ,,,",
",,,     ;;;;;oo###############ooo;;;;;     ,,,",
",,,     ;;;;;oo###############ooo;;;;;     ,,,",
"   :::::;;   OO###############OOO  ;;;:::::   ",
"   :::::;;   OO###############OOO  ;;;:::::   ",
"   -----  ###$$OOOOO&&&&&OOOOO$$$     -----   ",
"   -----  ###$$OOOOO&&&&&OOOOO$$$     -----   ",
"   -----  ###$$OOOOO&&&&&OOOOO$$$     -----   ",
",,,     XX   $$$$$##&&&&&###$$$$$  %%%     ,,,",
",,,     XX   $$$$$##&&&&&###$$$$$  %%%     ,,,",
",,,,,XXXXX        $$$$$$$$$$##        XX,,,,,,",
",,,,,XXXXX        $$$$$$$$$$##        XX,,,,,,",
",,,,,XXXXX        $$$$$$$$$$##        XX,,,,,,",
",,,,,XXXXXXXX  OOO       .....+++OO   XX,,,,,,",
",,,,,XXXXXXXX  OOO       .....+++OO   XX,,,,,,",
",,,,,XXXXXXXXXX   XXXXXXX   +++++  XXXXX,,,,,,",
",,,,,XXXXXXXXXX   XXXXXXX   +++++  XXXXX,,,,,,",
",,,,,XXXXXXXXXX   XXXXXXX   +++++  XXXXX,,,,,,",
",,,,,,,,XXXXXXXXXXXXXXXXXXXX     XXXXX,,,,,,,,",
",,,,,,,,XXXXXXXXXXXXXXXXXXXX     XXXXX,,,,,,,,",
",,,,,,,,,,,,,XXXXXXXXXXXXXXXXXXXX,,,,,,,,,,,,,",
",,,,,,,,,,,,,XXXXXXXXXXXXXXXXXXXX,,,,,,,,,,,,,",
",,,,,,,,,,,,,XXXXXXXXXXXXXXXXXXXX,,,,,,,,,,,,,"
};
