/* XPM */
static char *result[] = {
/* columns rows colors chars-per-pixel */
"46 62 16 1 ",
"  c black",
". c #7B1029",
"X c #363243",
"o c #107B29",
"O c #734221",
"+ c #A57B42",
"@ c #42A529",
"# c #10FF08",
"$ c yellow",
"% c #DEAD52",
"& c #3152FF",
"* c #D6B58C",
"= c #BDFFA5",
"- c #FFE7BD",
"; c white",
": c None",
/* pixels */
"::::::::::::::::::  @@@@@   ::::::::::::::::::",
"::::::::::::::::::  @@@@@   ::::::::::::::::::",
":::::::::::::     @@@@@@@@@@     :::::::::::::",
":::::::::::::     @@@@@@@@@@     :::::::::::::",
":::::::::::::     @@@@@@@@@@     :::::::::::::",
"::::::::::   @@###############@@@  :::::::::::",
"::::::::::   @@###############@@@  :::::::::::",
"::::::::::   ####################  :::::::::::",
"::::::::::   ####################  :::::::::::",
"::::::::::   ####################  :::::::::::",
"::::::::  @@@####################@@   ::::::::",
"::::::::  @@@####################@@   ::::::::",
"::::::::  ###++$$$$$$$$$$$$$$$+++##   ::::::::",
"::::::::  ###++$$$$$$$$$$$$$$$+++##   ::::::::",
"::::::::  ###++$$$$$$$$$$$$$$$+++##   ::::::::",
":::::   @@+++$$$$$$$$$$$$$$$$$$$$%%@@@  ::::::",
":::::   @@+++$$$$$$$$$$$$$$$$$$$$%%@@@  ::::::",
"+++**OOOOO%%%$$$$$$$$$$$$$$$++$$$$$OOOOO***+++",
"+++**OOOOO%%%$$$$$$$$$$$$$$$++$$$$$OOOOO***+++",
"+++**OOOOO%%%$$$$$$$$$$$$$$$++$$$$$OOOOO***+++",
"OOO-----++$$$$$%%%$$$$$$$+++**+++$$+++-----OOO",
"OOO-----++$$$$$%%%$$$$$$$+++**+++$$+++-----OOO",
":::OOOOO%%$$$%%%%%$$$$$$$+++**---%%+++**OOO:::",
":::OOOOO%%$$$%%%%%$$$$$$$+++**---%%+++**OOO:::",
":::OOOOO%%$$$%%%%%$$$$$$$+++**---%%+++**OOO:::",
":::  +++OO+++%%+++%%$$$$$OOO--***OO$$$++   :::",
":::  +++OO+++%%+++%%$$$$$OOO--***OO$$$++   :::",
":::  %%%$$+++  +++%%+++OO***OO   ++$$$%%   :::",
":::  %%%$$+++  +++%%+++OO***OO   ++$$$%%   :::",
":::  %%%$$+++  +++%%+++OO***OO   ++$$$%%   :::",
":::::   ++OOO;;&&&OOOOO**OOO&&;;;OO%%%  ::::::",
":::::   ++OOO;;&&&OOOOO**OOO&&;;;OO%%%  ::::::",
"::::::::  +++--&&&;;-----;;;&&---++   ::::::::",
"::::::::  +++--&&&;;-----;;;&&---++   ::::::::",
":::::   OO   ++---------------+++  :::::::::::",
":::::   OO   ++---------------+++  :::::::::::",
":::::   OO   ++---------------+++  :::::::::::",
":::  +++=====OOOOO**********OOOOO  :::::::::::",
":::  +++=====OOOOO**********OOOOO  :::::::::::",
":::  *****     ooo@@@@@@@@@@oo===  :::::::::::",
":::  *****     ooo@@@@@@@@@@oo===  :::::::::::",
":::  *****     ooo@@@@@@@@@@oo===  :::::::::::",
":::::        @@OOOOO$$$$$OOOOO=====   ::::::::",
":::::        @@OOOOO$$$$$OOOOO=====   ::::::::",
"::::::::  @@@#####@@$$$$$@@@  ===-----  ::::::",
"::::::::  @@@#####@@$$$$$@@@  ===-----  ::::::",
"::::::::  @@@#####@@$$$$$@@@  ===-----  ::::::",
"::::::::     ############@@@@@   **---  ::::::",
"::::::::     ############@@@@@   **---  ::::::",
":::::XXX  ...  @@@##########oo        XX::::::",
":::::XXX  ...  @@@##########oo        XX::::::",
":::::XXX  ...  @@@##########oo        XX::::::",
":::::XXXXX                    XXXXXXXXXX::::::",
":::::XXXXX                    XXXXXXXXXX::::::",
":::::XXXXXXXXXXXXXXXXXXXXXXXXXXXXXXXXXXX::::::",
":::::XXXXXXXXXXXXXXXXXXXXXXXXXXXXXXXXXXX::::::",
":::::XXXXXXXXXXXXXXXXXXXXXXXXXXXXXXXXXXX::::::",
"::::::::XXXXXXXXXXXXXXXXXXXXXXXXXXXXXX::::::::",
"::::::::XXXXXXXXXXXXXXXXXXXXXXXXXXXXXX::::::::",
":::::::::::::XXXXXXXXXXXXXXXXXXXX:::::::::::::",
":::::::::::::XXXXXXXXXXXXXXXXXXXX:::::::::::::",
":::::::::::::XXXXXXXXXXXXXXXXXXXX:::::::::::::"
};
