/* XPM */
static char *result[] = {
/* columns rows colors chars-per-pixel */
"46 64 17 1 ",
"  c black",
". c #7B1029",
"X c #363243",
"o c #107B29",
"O c #734221",
"+ c #DE2929",
"@ c #A57B42",
"# c #42A529",
"$ c #10FF08",
"% c yellow",
"& c #DEAD52",
"* c #3152FF",
"= c #D6B58C",
"- c #BDFFA5",
"; c #FFE7BD",
": c white",
"> c None",
/* pixels */
">>>>>>>>>>>>>>>>>>  #####   >>>>>>>>>>>>>>>>>>",
">>>>>>>>>>>>>>>>>>  #####   >>>>>>>>>>>>>>>>>>",
">>>>>>>>>>>>>  ###$$$$$$$$$$##   >>>>>>>>>>>>>",
">>>>>>>>>>>>>  ###$$$$$$$$$$##   >>>>>>>>>>>>>",
">>>>>>>>>>>>>  ###$$$$$$$$$$##   >>>>>>>>>>>>>",
">>>>>>>>>>   $$$$$$$$$$$$$$$$$$$$  >>>>>>>>>>>",
">>>>>>>>>>   $$$$$$$$$$$$$$$$$$$$  >>>>>>>>>>>",
">>>>>>>>  ###$$$$$$$$$$$$$$$$$$$$##   >>>>>>>>",
">>>>>>>>  ###$$$$$$$$$$$$$$$$$$$$##   >>>>>>>>",
">>>>>>>>  ###$$$$$$$$$$$$$$$$$$$$##   >>>>>>>>",
">>>>>>>>  $$$@@%%%%%%%%%%%%%%%@@@$$   >>>>>>>>",
">>>>>>>>  $$$@@%%%%%%%%%%%%%%%@@@$$   >>>>>>>>",
">>>>>   ##@@@%%%%%%%%%%%%%%%%%%%%&&###  >>>>>>",
">>>>>   ##@@@%%%%%%%%%%%%%%%%%%%%&&###  >>>>>>",
">>>>>   ##@@@%%%%%%%%%%%%%%%%%%%%&&###  >>>>>>",
"@@@==OOOOO%%%%%&&&%%%%%%%%%%@@%%%%%@@@OO===@@@",
"@@@==OOOOO%%%%%&&&%%%%%%%%%%@@%%%%%@@@OO===@@@",
"OOO;;;;;@@%%%&&%%%%%%%%%%@@@==@@@%%%%%@@;;;OOO",
"OOO;;;;;@@%%%&&%%%%%%%%%%@@@==@@@%%%%%@@;;;OOO",
"OOO;;;;;@@%%%&&%%%%%%%%%%@@@==@@@%%%%%@@;;;OOO",
">>>OO===@@%%%@@%%%%%%%%@@===;;;;;@@@@@==OOO>>>",
">>>OO===@@%%%@@%%%%%%%%@@===;;;;;@@@@@==OOO>>>",
">>>>>   OO&&&OO&&&&&&&&OO;;;;;===OO%%%  >>>>>>",
">>>>>   OO&&&OO&&&&&&&&OO;;;;;===OO%%%  >>>>>>",
">>>>>   OO&&&OO&&&&&&&&OO;;;;;===OO%%%  >>>>>>",
">>>>>   %%OOO  @@@&&OOO=====OO   @@%%%  >>>>>>",
">>>>>   %%OOO  @@@&&OOO=====OO   @@%%%  >>>>>>",
">>>>>   &&OOO::***OO===;;OOO**:::OO&&&  >>>>>>",
">>>>>   &&OOO::***OO===;;OOO**:::OO&&&  >>>>>>",
">>>>>   &&OOO::***OO===;;OOO**:::OO&&&  >>>>>>",
">>>>>>>>     ;;***::;;;;;:::**;;;     >>>>>>>>",
">>>>>>>>     ;;***::;;;;;:::**;;;     >>>>>>>>",
">>>>>   ==---@@;;;;;;;;;;;;;;;@@@  >>>>>>>>>>>",
">>>>>   ==---@@;;;;;;;;;;;;;;;@@@  >>>>>>>>>>>",
">>>>>   ==---OOOOO==========OOOOO  >>>>>>>>>>>",
">>>>>   ==---OOOOO==========OOOOO  >>>>>>>>>>>",
">>>>>   ==---OOOOO==========OOOOO  >>>>>>>>>>>",
">>>>>>>>       ##########   -----  >>>>>>>>>>>",
">>>>>>>>       ##########   -----  >>>>>>>>>>>",
">>>>>>>>>>   OO##########oooOO---OO   >>>>>>>>",
">>>>>>>>>>   OO##########oooOO---OO   >>>>>>>>",
">>>>>>>>>>   OO##########oooOO---OO   >>>>>>>>",
">>>>>>>>  ###$$OOOOO%%%%%OOO  ;;;;;   >>>>>>>>",
">>>>>>>>  ###$$OOOOO%%%%%OOO  ;;;;;   >>>>>>>>",
">>>>>>>>  ###$$$$$##%%%%%###  ;;;==   >>>>>>>>",
">>>>>>>>  ###$$$$$##%%%%%###  ;;;==   >>>>>>>>",
">>>>>>>>  ###$$$$$##%%%%%###  ;;;==   >>>>>>>>",
">>>>>>>>>>   ##$$$$$$$$$$###oo     >>>>>>>>>>>",
">>>>>>>>>>   ##$$$$$$$$$$###oo     >>>>>>>>>>>",
">>>>>>>>XX   ..@@@            XXXXXXXX>>>>>>>>",
">>>>>>>>XX   ..@@@            XXXXXXXX>>>>>>>>",
">>>>>>>>XX   ..@@@            XXXXXXXX>>>>>>>>",
">>>>>XXX  ...++...  XXXXXXXXXXXXXXXXXXXX>>>>>>",
">>>>>XXX  ...++...  XXXXXXXXXXXXXXXXXXXX>>>>>>",
">>>>>XXX  ++++++++  XXXXXXXXXXXXXXXXXXXX>>>>>>",
">>>>>XXX  ++++++++  XXXXXXXXXXXXXXXXXXXX>>>>>>",
">>>>>XXX  ++++++++  XXXXXXXXXXXXXXXXXXXX>>>>>>",
">>>>>XXXXX        XXXXXXXXXXXXXXXXXXXXXX>>>>>>",
">>>>>XXXXX        XXXXXXXXXXXXXXXXXXXXXX>>>>>>",
">>>>>>>>XXXXXXXXXXXXXXXXXXXXXXXXXXXXXX>>>>>>>>",
">>>>>>>>XXXXXXXXXXXXXXXXXXXXXXXXXXXXXX>>>>>>>>",
">>>>>>>>XXXXXXXXXXXXXXXXXXXXXXXXXXXXXX>>>>>>>>",
">>>>>>>>>>>>>XXXXXXXXXXXXXXXXXXXX>>>>>>>>>>>>>",
">>>>>>>>>>>>>XXXXXXXXXXXXXXXXXXXX>>>>>>>>>>>>>"
};
