/* XPM */
static char *result[] = {
/* columns rows colors chars-per-pixel */
"46 62 17 1 ",
"  c black",
". c #7B1029",
"X c #363243",
"o c #107B29",
"O c #734221",
"+ c #DE2929",
"@ c #A57B42",
"# c #42A529",
"$ c #10FF08",
"% c yellow",
"& c #DEAD52",
"* c #3152FF",
"= c #D6B58C",
"- c #BDFFA5",
"; c #FFE7BD",
": c white",
"> c None",
/* pixels */
">>>>>>>>>>>>>>>   ##########  >>>>>>>>>>>>>>>>",
">>>>>>>>>>>>>>>   ##########  >>>>>>>>>>>>>>>>",
">>>>>>>>>>>>>  $$$$$$$$$$$$$$$   >>>>>>>>>>>>>",
">>>>>>>>>>>>>  $$$$$$$$$$$$$$$   >>>>>>>>>>>>>",
">>>>>>>>>>>>>  $$$$$$$$$$$$$$$   >>>>>>>>>>>>>",
">>>>>>>>>>   $$$$$$$$$$$$$$$$$$$$  >>>>>>>>>>>",
">>>>>>>>>>   $$$$$$$$$$$$$$$$$$$$  >>>>>>>>>>>",
">>>>>>>>  ###$$$$$$$$$$$$$$$$$$$$##   >>>>>>>>",
">>>>>>>>  ###$$$$$$$$$$$$$$$$$$$$##   >>>>>>>>",
">>>>>>>>  ###$$$$$$$$$$$$$$$$$$$$##   >>>>>>>>",
">>>>>>>>  @@@%%%%%%%%%%%%%%%%%@@@$$   >>>>>>>>",
">>>>>>>>  @@@%%%%%%%%%%%%%%%%%@@@$$   >>>>>>>>",
">>>>>   @@%%%%%%%%%%%%%%%%%%%%%%%&&###  >>>>>>",
">>>>>   @@%%%%%%%%%%%%%%%%%%%%%%%&&###  >>>>>>",
">>>>>   @@%%%%%%%%%%%%%%%%%%%%%%%&&###  >>>>>>",
"@@@==OOO%%%%%&&%%%%%%%%&&@@@@@%%%%%OOOOO===@@@",
"@@@==OOO%%%%%&&%%%%%%%%&&@@@@@%%%%%OOOOO===@@@",
"OOO;;@@@%%&&&%%%%%%%&&&@@=====@@@%%@@@;;;;;OOO",
"OOO;;@@@%%&&&%%%%%%%&&&@@=====@@@%%@@@;;;;;OOO",
"OOO;;@@@%%&&&%%%%%%%&&&@@=====@@@%%@@@;;;;;OOO",
">>>OO===OO@@@%%%%%&&@@@==;;;;;;;;@@&&&==OOO>>>",
">>>OO===OO@@@%%%%%&&@@@==;;;;;;;;@@&&&==OOO>>>",
">>>>>   %%OOO&&&&&&&OOO==;;;;;===OO%%%  >>>>>>",
">>>>>   %%OOO&&&&&&&OOO==;;;;;===OO%%%  >>>>>>",
">>>>>   %%OOO&&&&&&&OOO==;;;;;===OO%%%  >>>>>>",
">>>>>   %%@@@  @@@@@===;;===OO   @@%%%  >>>>>>",
">>>>>   %%@@@  @@@@@===;;===OO   @@%%%  >>>>>>",
">>>>>   &&OOO::***OO===;;OOO**:::OO&&&  >>>>>>",
">>>>>   &&OOO::***OO===;;OOO**:::OO&&&  >>>>>>",
">>>>>   &&OOO::***OO===;;OOO**:::OO&&&  >>>>>>",
">>>>>>>>     ::***::;;;;;:::**;;;@@   >>>>>>>>",
">>>>>>>>     ::***::;;;;;:::**;;;@@   >>>>>>>>",
">>>>>   OO   OO===;;;;;;;;;;==@@@  >>>>>>>>>>>",
">>>>>   OO   OO===;;;;;;;;;;==@@@  >>>>>>>>>>>",
">>>  ;;;==---OOOOO==========OOOOO  >>>>>>>>>>>",
">>>  ;;;==---OOOOO==========OOOOO  >>>>>>>>>>>",
">>>  ;;;==---OOOOO==========OOOOO  >>>>>>>>>>>",
">>>  ;;;;;     ooo#######   OO---OO   >>>>>>>>",
">>>  ;;;;;     ooo#######   OO---OO   >>>>>>>>",
">>>>>        OO##########ooo  -----   >>>>>>>>",
">>>>>        OO##########ooo  -----   >>>>>>>>",
">>>>>        OO##########ooo  -----   >>>>>>>>",
">>>>>>>>>>   ##OOOOO%%%%%OOOOO   ;;;;;  >>>>>>",
">>>>>>>>>>   ##OOOOO%%%%%OOOOO   ;;;;;  >>>>>>",
">>>>>>>>>>   $$$$$##%%%%%#####   ;;===  >>>>>>",
">>>>>>>>>>   $$$$$##%%%%%#####   ;;===  >>>>>>",
">>>>>>>>>>   $$$$$##%%%%%#####   ;;===  >>>>>>",
">>>>>>>>XXXXX  ###$$$$$$$$$$##          >>>>>>",
">>>>>>>>XXXXX  ###$$$$$$$$$$##          >>>>>>",
">>>>>XXXXX   ..@@@            XXXXXXXXXX>>>>>>",
">>>>>XXXXX   ..@@@            XXXXXXXXXX>>>>>>",
">>>>>XXXXX   ..@@@            XXXXXXXXXX>>>>>>",
">>>>>XXX  ...++...  XXXXXXXXXXXXXXXXXXXX>>>>>>",
">>>>>XXX  ...++...  XXXXXXXXXXXXXXXXXXXX>>>>>>",
">>>>>XXX  ++++++++  XXXXXXXXXXXXXXXXXXXX>>>>>>",
">>>>>XXX  ++++++++  XXXXXXXXXXXXXXXXXXXX>>>>>>",
">>>>>XXX  ++++++++  XXXXXXXXXXXXXXXXXXXX>>>>>>",
">>>>>>>>XX        XXXXXXXXXXXXXXXXXXXX>>>>>>>>",
">>>>>>>>XX        XXXXXXXXXXXXXXXXXXXX>>>>>>>>",
">>>>>>>>>>>>>XXXXXXXXXXXXXXXXXXXX>>>>>>>>>>>>>",
">>>>>>>>>>>>>XXXXXXXXXXXXXXXXXXXX>>>>>>>>>>>>>",
">>>>>>>>>>>>>XXXXXXXXXXXXXXXXXXXX>>>>>>>>>>>>>"
};
