/* XPM */
static char *result[] = {
/* columns rows colors chars-per-pixel */
"64 64 11 1 ",
"  c black",
". c #701810",
"X c #A02818",
"o c #F85010",
"O c #D04020",
"+ c #F8B848",
"@ c #988888",
"# c #C0B0B0",
"$ c #E8D8D8",
"% c #F8F8F8",
"& c None",
/* pixels */
"&&&&&&&&&&&&&&&&&&&&&&&&&&&&&&&&&&&&&&&&OOOO&&&&&&&&&&&&&&&&&&&&",
"&&&&&&&&&&&&&&&&&&&&&&&&&&&&&&&&&&&&&&&&OOOO&&&&&&&&&&&&&&&&&&&&",
"&&&&&&&&&&&&&&&&&&&&&&&&&&&&&&&&&&&&&&&&OOOO&&&&&&&&&&&&&&&&&&&&",
"&&&&&&&&&&&&&&&&&&&&&&&&&&&&&&&&&&&&&OOOOOOO&&&&&&&&&&&&&&&&&&&&",
"&&&&&&&&&&&&&&&&&&&&&&&&&&&&&&&&&&&&&OOOOOOO&&&&&&&&&&&&&&&&&&&&",
"&&&&&&&&&&&&&&&&&&&&&&&&&&&&&&&&&&&&&OOOOOOO&&&&&&&&&&&&&&&&&&&&",
"&&&&&&&&&&&&&&&&&&&&&&&&&&&&&&&&&&&&&OOOOOOO&&&&&&&&&&&&&&&&&&&&",
"&&&&&&&&&&&&&&&&&&&&&&&&&&&&&&&&&&OOOOOOOOOO&&&&&&&&&&&&&&&&&&&&",
"&&&&&&&&&&&&&&&&&&&&&&&&&&&&&&&&&&OOOOOOOOOO&&&&&&&&&&&&&&&&&&&&",
"&&&&&&&&&&&&&&&&&&&&&&&&&&&&&&&&&&OOOOOOOOOO&&&&&&&&&&&&&&&&&&&&",
"&&&&&&&&&&&&&&&&&&&&&&&&&&&&&&OOOOoooOOOOOOO&&&&&&&&&&&&&&&&&&&&",
"&&&&&&&&&&&&&&&&&&&&&&&&&&&&&&OOOOoooOOOOOOO&&&&&&&&&&&&&&&&&&&&",
"&&&&&&&&&&&&&&&&&&&&&&&&&&&&&&OOOOoooOOOOOOO&&&&&&&&&&&&&&&&&&&&",
"&&&&&&&&&&&&&&&&&OOO&&&&&&&ooooooooooOOO&&&&&&&&&&&&&&&&&&&&&&&&",
"&&&&&&&&&&&&&&&&&OOO&&&&&&&ooooooooooOOO&&&&&&&&&&&&&&&&&&&&&&&&",
"&&&&&&&&&&&&&&&&&OOO&&&&&&&ooooooooooOOO&&&&&&&&&&&&&&&&&&&&&&&&",
"&&&&&&&&&&&&&&&&&OOO&&&&&&&ooooooooooOOO&&&&&&&&&&&&&&&&&&&&&&&&",
"&&&&&&&&&&&&&OOOOOOO&&&&&&&ooo+++++++OOO&&&&&&&&&&&&&&&&&&&&&OOO",
"&&&&&&&&&&&&&OOOOOOO&&&&&&&ooo+++++++OOO&&&&&&&&&&&&&&&&&&&&&OOO",
"&&&&&&&&&&&&&OOOOOOO&&&&&&&ooo+++++++OOO&&&&&&&&&&&&&&&&&&&&&OOO",
"&&&&&&&&&&OOOOOOOOOO&&&&###XXXoooooooXXX&&&&&&&&&&&&&&&&&OOOOOOO",
"&&&&&&&&&&OOOOOOOOOO&&&&###XXXoooooooXXX&&&&&&&&&&&&&&&&&OOOOOOO",
"&&&&&&&&&&OOOOOOOOOO&&&&###XXXoooooooXXX&&&&&&&&&&&&&&&&&OOOOOOO",
"&&&&&&&&&&OOOOOOOOOO&&&&###XXXoooooooXXX&&&&&&&&&&&&&&&&&OOOOOOO",
"&&&&&&&OOOoooOOOOOOO$$$$%%%%%%.......%%%$$$$###&&&&&&&OOOOOOOOOO",
"&&&&&&&OOOoooOOOOOOO$$$$%%%%%%.......%%%$$$$###&&&&&&&OOOOOOOOOO",
"&&&&&&&OOOoooOOOOOOO$$$$%%%%%%.......%%%$$$$###&&&&&&&OOOOOOOOOO",
"&&&ooooooooooOOOO$$$%%%%%%%%%%%%%%%%%%%%%%%%$$$&&&&OOOoooOOOOOOO",
"&&&ooooooooooOOOO$$$%%%%%%%%%%%%%%%%%%%%%%%%$$$&&&&OOOoooOOOOOOO",
"&&&ooooooooooOOOO$$$%%%%%%%%%%%%%%%%%%%%%%%%$$$&&&&OOOoooOOOOOOO",
"&&&oooo++++++OOOO$$$%%%%%%%%%%%%%%%%%%%%%%%%$$$ooooooooooOOOO&&&",
"&&&oooo++++++OOOO$$$%%%%%%%%%%%%%%%%%%%%%%%%$$$ooooooooooOOOO&&&",
"&&&oooo++++++OOOO$$$%%%%%%%%%%%%%%%%%%%%%%%%$$$ooooooooooOOOO&&&",
"&&&oooo++++++OOOO$$$%%%%%%%%%%%%%%%%%%%%%%%%$$$ooooooooooOOOO&&&",
"&&&XXXXooooooXXXX$$$%%%%%%%%%%%%%%%%%%%%%%%%$$$oooo++++++OOOO&&&",
"&&&XXXXooooooXXXX$$$%%%%%%%%%%%%%%%%%%%%%%%%$$$oooo++++++OOOO&&&",
"&&&XXXXooooooXXXX$$$%%%%%%%%%%%%%%%%%%%%%%%%$$$oooo++++++OOOO&&&",
"&&&&&&&......####$$$####$$$%%%%%%%%%%$$$####$$$XXXXooooooXXXX&&&",
"&&&&&&&......####$$$####$$$%%%%%%%%%%$$$####$$$XXXXooooooXXXX&&&",
"&&&&&&&......####$$$####$$$%%%%%%%%%%$$$####$$$XXXXooooooXXXX&&&",
"&&&&&&&&&&&&&####$$$    @@@$$$$$$$$$$@@@    $$$####......&&&&&&&",
"&&&&&&&&&&&&&####$$$    @@@$$$$$$$$$$@@@    $$$####......&&&&&&&",
"&&&&&&&&&&&&&####$$$    @@@$$$$$$$$$$@@@    $$$####......&&&&&&&",
"&&&&&&&&&&&&&####$$$    @@@$$$$$$$$$$@@@    $$$####......&&&&&&&",
"&&&&&&&&&&&&&    $$$    ...###$$$$###...    $$$    OOO&&&&&&&&&&",
"&&&&&&&&&&&&&    $$$    ...###$$$$###...    $$$    OOO&&&&&&&&&&",
"&&&&&&&&&&&&&    $$$    ...###$$$$###...    $$$    OOO&&&&&&&&&&",
"&&&&&&&&&&OOOoooo   $$$$$$$$$$@@@@$$$$$$$$$$   ++++OOO&&&&&&&&&&",
"&&&&&&&&&&OOOoooo   $$$$$$$$$$@@@@$$$$$$$$$$   ++++OOO&&&&&&&&&&",
"&&&&&&&&&&OOOoooo   $$$$$$$$$$@@@@$$$$$$$$$$   ++++OOO&&&&&&&&&&",
"&&&&&&&&&&OOOoooo   $$$$$$$$$$@@@@$$$$$$$$$$   ++++OOO&&&&&&&&&&",
"&&&&&&&&&&XXXoooo+++    $$$$$$$$$$$$$$$$    +++ooooOOO&&&&&&&&&&",
"&&&&&&&&&&XXXoooo+++    $$$$$$$$$$$$$$$$    +++ooooOOO&&&&&&&&&&",
"&&&&&&&&&&XXXoooo+++    $$$$$$$$$$$$$$$$    +++ooooOOO&&&&&&&&&&",
"&&&&&&&&&&...XXXXOOO    $$$   $$$$   $$$    OOOOOOOXXX&&&&&&&&&&",
"&&&&&&&&&&...XXXXOOO    $$$   $$$$   $$$    OOOOOOOXXX&&&&&&&&&&",
"&&&&&&&&&&...XXXXOOO    $$$   $$$$   $$$    OOOOOOOXXX&&&&&&&&&&",
"&&&&&&&&&&&&&....XXX    @@@   @@@@   @@@    XXX....&&&&&&&&&&&&&",
"&&&&&&&&&&&&&....XXX    @@@   @@@@   @@@    XXX....&&&&&&&&&&&&&",
"&&&&&&&&&&&&&....XXX    @@@   @@@@   @@@    XXX....&&&&&&&&&&&&&",
"&&&&&&&&&&&&&....XXX    @@@   @@@@   @@@    XXX....&&&&&&&&&&&&&",
"&&&&&&&&&&&&&&&&&&&&&&&&&&&&&&&&&&&&&&&&&&&&&&&&&&&&&&&&&&&&&&&&",
"&&&&&&&&&&&&&&&&&&&&&&&&&&&&&&&&&&&&&&&&&&&&&&&&&&&&&&&&&&&&&&&&",
"&&&&&&&&&&&&&&&&&&&&&&&&&&&&&&&&&&&&&&&&&&&&&&&&&&&&&&&&&&&&&&&&"
};
