/* XPM */
static char *result[] = {
/* columns rows colors chars-per-pixel */
"64 64 10 1 ",
"  c black",
". c #701810",
"X c #A02818",
"o c #F85010",
"O c #D04020",
"+ c #988888",
"@ c #C0B0B0",
"# c #E8D8D8",
"$ c #F8F8F8",
"% c None",
/* pixels */
"%%%%%%%%%%%%%%%%%%%%%%%%%%%%%%%%%%%%%%%%%%%%%%%%%%%%%%%%%%%%%%%%",
"%%%%%%%%%%%%%%%%%%%%%%%%%%%%%%%%%%%%%%%%%%%%%%%%%%%%%%%%%%%%%%%%",
"%%%%%%%%%%%%%%%%%%%%%%%%%%%%%%%%%%%%%%%%%%%%%%%%%%%%%%%%%%%%%%%%",
"%%%%%%%%%%%%%%%%%%%%%%%%%%%%%%%%%%%%%%%%%%%%%%%%%%%%%%%%%%%%%%%%",
"%%%%%%%%%%%%%%%%%%%%%%%%%%%%%%%%%%%%%%%%%%%%%%%%%%%%%%%%%%%%%%%%",
"%%%%%%%%%%%%%%%%%%%%%%%%%%%%%%%%%%%%%%%%%%%%%%%%%%%%%%%%%%%%%%%%",
"%%%%%%%%%%%%%%%%%%%%%%%%%%%%%%%%%%%%%%%%%%%%%%%%%%%%%%%%%%%%%%%%",
"%%%%%%%%%%%%%%%%%%%%%%%%XXX%%%XXXX%%%%%%%%%%%%%%%%%%%%%%%%%%%%%%",
"%%%%%%%%%%%%%%%%%%%%%%%%XXX%%%XXXX%%%%%%%%%%%%%%%%%%%%%%%%%%%%%%",
"%%%%%%%%%%%%%%%%%%%%%%%%XXX%%%XXXX%%%%%%%%%%%%%%%%%%%%%%%%%%%%%%",
"%%%%%%%%%%%%%%%%%%%%XXXXOOOXXX%%%%%%%%%%%%%%%%%%%%%%%%%%%%%%%%%%",
"%%%%%%%%%%%%%%%%%%%%XXXXOOOXXX%%%%%%%%%%%%%%%%%%%%%%%%%%%%%%%%%%",
"%%%%%%%%%%%%%%%%%%%%XXXXOOOXXX%%%%%%%%%%%%%%%%%%%%%%%%%%%%%%%%%%",
"%%%%%%%%%%%%%%%%%XXXoooooooOOO%%%%%%%%%%%%%%%%%%%%%%%%%%%%%%%%%%",
"%%%%%%%%%%%%%%%%%XXXoooooooOOO%%%%%%%%%%%%%%%%%%%%%%%%%%%%%%%%%%",
"%%%%%%%%%%%%%%%%%XXXoooooooOOO%%%%%%%%%%%%%%%%%%%%%%%%%%%%%%%%%%",
"%%%%%%%%%%%%%%%%%XXXoooooooOOO%%%%%%%%%%%%%%%%%%%%%%%%%%%%%%%%%%",
"%%%%%%%%%%%%%%%%%OOOOOOOoooOOOOOOO%%%%%%%%%%%%%%%%%XXX%%%XXXX%%%",
"%%%%%%%%%%%%%%%%%OOOOOOOoooOOOOOOO%%%%%%%%%%%%%%%%%XXX%%%XXXX%%%",
"%%%%%%%%%%%%%%%%%OOOOOOOoooOOOOOOO%%%%%%%%%%%%%%%%%XXX%%%XXXX%%%",
"%%%%%%%%%%%%%%%%%%%%....OOOOOOXXXX@@@@@@%%%%%%%XXXXOOOXXX%%%%%%%",
"%%%%%%%%%%%%%%%%%%%%....OOOOOOXXXX@@@@@@%%%%%%%XXXXOOOXXX%%%%%%%",
"%%%%%%%%%%%%%%%%%%%%....OOOOOOXXXX@@@@@@%%%%%%%XXXXOOOXXX%%%%%%%",
"%%%%%%%%%%%%%%%%%%%%....OOOOOOXXXX@@@@@@%%%%%%%XXXXOOOXXX%%%%%%%",
"%%%%%%%%%%%%%%%%%@@@####......$$$$$$$$$$####XXXoooooooOOO%%%%%%%",
"%%%%%%%%%%%%%%%%%@@@####......$$$$$$$$$$####XXXoooooooOOO%%%%%%%",
"%%%%%%%%%%%%%%%%%@@@####......$$$$$$$$$$####XXXoooooooOOO%%%%%%%",
"%%%%%%%XXX%%%XXXX###$$$$$$$$$$$$$$$$$$$$$$$$OOOOOOOoooOOOOOOO%%%",
"%%%%%%%XXX%%%XXXX###$$$$$$$$$$$$$$$$$$$$$$$$OOOOOOOoooOOOOOOO%%%",
"%%%%%%%XXX%%%XXXX###$$$$$$$$$$$$$$$$$$$$$$$$OOOOOOOoooOOOOOOO%%%",
"%%%XXXXOOOXXX++++###$$$$$$$$$$$$$$$$$$$$$$$$###....OOOOOOXXXX%%%",
"%%%XXXXOOOXXX++++###$$$$$$$$$$$$$$$$$$$$$$$$###....OOOOOOXXXX%%%",
"%%%XXXXOOOXXX++++###$$$$$$$$$$$$$$$$$$$$$$$$###....OOOOOOXXXX%%%",
"%%%XXXXOOOXXX++++###$$$$$$$$$$$$$$$$$$$$$$$$###....OOOOOOXXXX%%%",
"XXXoooooooOOO@@@@###$$$$$$$$$$$$$$$$$$$$$$$$###@@@@......%%%%%%%",
"XXXoooooooOOO@@@@###$$$$$$$$$$$$$$$$$$$$$$$$###@@@@......%%%%%%%",
"XXXoooooooOOO@@@@###$$$$$$$$$$$$$$$$$$$$$$$$###@@@@......%%%%%%%",
"OOOOOOOoooOOOOOOO###@@@@###$$$$$$$$$$###@@@@###@@@@%%%%%%%%%%%%%",
"OOOOOOOoooOOOOOOO###@@@@###$$$$$$$$$$###@@@@###@@@@%%%%%%%%%%%%%",
"OOOOOOOoooOOOOOOO###@@@@###$$$$$$$$$$###@@@@###@@@@%%%%%%%%%%%%%",
"%%%....OOOOOOXXXX###XXXX+++##########+++XXXX###@@@@%%%%%%%%%%%%%",
"%%%....OOOOOOXXXX###XXXX+++##########+++XXXX###@@@@%%%%%%%%%%%%%",
"%%%....OOOOOOXXXX###XXXX+++##########+++XXXX###@@@@%%%%%%%%%%%%%",
"%%%....OOOOOOXXXX###XXXX+++##########+++XXXX###@@@@%%%%%%%%%%%%%",
"%%%%%%%......    ###OOOOooo@@@####@@@oooOOOO###    XXX%%%%%%%%%%",
"%%%%%%%......    ###OOOOooo@@@####@@@oooOOOO###    XXX%%%%%%%%%%",
"%%%%%%%......    ###OOOOooo@@@####@@@oooOOOO###    XXX%%%%%%%%%%",
"%%%%%%%%%%%%%%%%%   ##########++++##########   OOOOOOO%%%%%%%%%%",
"%%%%%%%%%%%%%%%%%   ##########++++##########   OOOOOOO%%%%%%%%%%",
"%%%%%%%%%%%%%%%%%   ##########++++##########   OOOOOOO%%%%%%%%%%",
"%%%%%%%%%%%%%%%%%   ##########++++##########   OOOOOOO%%%%%%%%%%",
"%%%%%%%%%%%%%%%%%OOO    ################    oooooooXXX%%%%%%%%%%",
"%%%%%%%%%%%%%%%%%OOO    ################    oooooooXXX%%%%%%%%%%",
"%%%%%%%%%%%%%%%%%OOO    ################    oooooooXXX%%%%%%%%%%",
"%%%%%%%%%%%%%XXXXOOO    ###   ####   ###    XXX....%%%%%%%%%%%%%",
"%%%%%%%%%%%%%XXXXOOO    ###   ####   ###    XXX....%%%%%%%%%%%%%",
"%%%%%%%%%%%%%XXXXOOO    ###   ####   ###    XXX....%%%%%%%%%%%%%",
"%%%%%%%%%%%%%....XXX    +++   ++++   +++    %%%%%%%%%%%%%%%%%%%%",
"%%%%%%%%%%%%%....XXX    +++   ++++   +++    %%%%%%%%%%%%%%%%%%%%",
"%%%%%%%%%%%%%....XXX    +++   ++++   +++    %%%%%%%%%%%%%%%%%%%%",
"%%%%%%%%%%%%%....XXX    +++   ++++   +++    %%%%%%%%%%%%%%%%%%%%",
"%%%%%%%%%%%%%%%%%...XXXX...%%%%%%%%%%%%%%%%%%%%%%%%%%%%%%%%%%%%%",
"%%%%%%%%%%%%%%%%%...XXXX...%%%%%%%%%%%%%%%%%%%%%%%%%%%%%%%%%%%%%",
"%%%%%%%%%%%%%%%%%...XXXX...%%%%%%%%%%%%%%%%%%%%%%%%%%%%%%%%%%%%%"
};
