/* XPM */
static char *result[] = {
/* columns rows colors chars-per-pixel */
"64 64 11 1 ",
"  c black",
". c #701810",
"X c #A02818",
"o c #F85010",
"O c #D04020",
"+ c #F8B848",
"@ c #988888",
"# c #C0B0B0",
"$ c #E8D8D8",
"% c #F8F8F8",
"& c None",
/* pixels */
"&&&&&&&&&&&&&&&&&&&&&&&&&&&&&&&&&&&&&&&&&&&&&&&&&&&&&&&&&&&&&&&&",
"&&&&&&&&&&&&&&&&&&&&&&&&&&&&&&&&&&&&&&&&&&&&&&&&&&&&&&&&&&&&&&&&",
"&&&&&&&&&&&&&&&&&&&&&&&&&&&&&&&&&&&&&&&&&&&&&&&&&&&&&&&&&&&&&&&&",
"&&&&&&&&&&&&&&&&&&&&&&&&&&&OOO&&&&&&&&&&&&&&&&&&&&&&&&OOO&&&&&&&",
"&&&&&&&&&&&&&&&&&&&&&&&&&&&OOO&&&&&&&&&&&&&&&&&&&&&&&&OOO&&&&&&&",
"&&&&&&&&&&&&&&&&&&&&&&&&&&&OOO&&&&&&&&&&&&&&&&&&&&&&&&OOO&&&&&&&",
"&&&&&&&&&&&&&&&&&&&&&&&&&&&OOO&&&&&&&&&&&&&&&&&&&&&&&&OOO&&&&&&&",
"&&&&&&&&&&&&&&&&&&&&&&&&OOOOOO&&&&&&&&&&&&&&&&&&&&&OOOOOO&&&&&&&",
"&&&&&&&&&&&&&&&&&&&&&&&&OOOOOO&&&&&&&&&&&&&&&&&&&&&OOOOOO&&&&&&&",
"&&&&&&&&&&&&&&&&&&&&&&&&OOOOOO&&&&&&&&&&&&&&&&&&&&&OOOOOO&&&&&&&",
"&&&&&&&&&&&&&&&&&&&&OOOOOOOOOO&&&&&&&&&&&&&&&&&OOOOOOOOOO&&&&&&&",
"&&&&&&&&&&&&&&&&&&&&OOOOOOOOOO&&&&&&&&&&&&&&&&&OOOOOOOOOO&&&&&&&",
"&&&&&&&&&&&&&&&&&&&&OOOOOOOOOO&&&&&&&&&&&&&&&&&OOOOOOOOOO&&&&&&&",
"&&&&&&&&&&&&&&&&&OOOooooOOOOOO&&&&&&&&&&&&&&OOOooooOOOOOO&&&&&&&",
"&&&&&&&&&&&&&&&&&OOOooooOOOOOO&&&&&&&&&&&&&&OOOooooOOOOOO&&&&&&&",
"&&&&&&&&&&&&&&&&&OOOooooOOOOOO&&&&&&&&&&&&&&OOOooooOOOOOO&&&&&&&",
"&&&&&&&&&&&&&&&&&OOOooooOOOOOO&&&&&&&&&&&&&&OOOooooOOOOOO&&&&&&&",
"&&&&&&&&&&&&&oooooooooooOOO&&&&&&&&&&&&&oooooooooooOOO&&&&&&&&&&",
"&&&&&&&&&&&&&oooooooooooOOO&&&&&&&&&&&&&oooooooooooOOO&&&&&&&&&&",
"&&&&&&&&&&&&&oooooooooooOOO&&&&&&&&&&&&&oooooooooooOOO&&&&&&&&&&",
"&&&&&&&&&&&&&oooo+++++++OOO#############oooo+++++++OOO&&&&&&&&&&",
"&&&&&&&&&&&&&oooo+++++++OOO#############oooo+++++++OOO&&&&&&&&&&",
"&&&&&&&&&&&&&oooo+++++++OOO#############oooo+++++++OOO&&&&&&&&&&",
"&&&&&&&&&&&&&oooo+++++++OOO#############oooo+++++++OOO&&&&&&&&&&",
"&&&&&&&&&&&&&XXXXoooooooXXX%%%%%%%%%%%%%XXXXoooooooXXX&&&&&&&&&&",
"&&&&&&&&&&&&&XXXXoooooooXXX%%%%%%%%%%%%%XXXXoooooooXXX&&&&&&&&&&",
"&&&&&&&&&&&&&XXXXoooooooXXX%%%%%%%%%%%%%XXXXoooooooXXX&&&&&&&&&&",
"&&&&&&&&&&&&&OOOO.......%%%%%%%%%%%%%%%%%%%%.......OOO&&&&&&&&&&",
"&&&&&&&&&&&&&OOOO.......%%%%%%%%%%%%%%%%%%%%.......OOO&&&&&&&&&&",
"&&&&&&&&&&&&&OOOO.......%%%%%%%%%%%%%%%%%%%%.......OOO&&&&&&&&&&",
"&&&&&&&&&&OOO@@@@$$$%%%%%%%%%%%%%%%%%%%%%%%%$$$@@@@OOO&&&&&&&&&&",
"&&&&&&&&&&OOO@@@@$$$%%%%%%%%%%%%%%%%%%%%%%%%$$$@@@@OOO&&&&&&&&&&",
"&&&&&&&&&&OOO@@@@$$$%%%%%%%%%%%%%%%%%%%%%%%%$$$@@@@OOO&&&&&&&&&&",
"&&&&&&&&&&OOO@@@@$$$%%%%%%%%%%%%%%%%%%%%%%%%$$$@@@@OOO&&&&&&&&&&",
"&&&&&&&&&&OOO####$$$%%%%%%%%%%%%%%%%%%%%%%%%$$$####ooo&&&&&&&&&&",
"&&&&&&&&&&OOO####$$$%%%%%%%%%%%%%%%%%%%%%%%%$$$####ooo&&&&&&&&&&",
"&&&&&&&&&&OOO####$$$%%%%%%%%%%%%%%%%%%%%%%%%$$$####ooo&&&&&&&&&&",
"&&&&&&&OOOooo####$$$####$$$%%%%%%%%%%$$$####$$$####oooOOO&&&&&&&",
"&&&&&&&OOOooo####$$$####$$$%%%%%%%%%%$$$####$$$####oooOOO&&&&&&&",
"&&&&&&&OOOooo####$$$####$$$%%%%%%%%%%$$$####$$$####oooOOO&&&&&&&",
"&&&OOOOooo+++####$$$    @@@$$$$$$$$$$@@@    $$$####+++OOO&&&&&&&",
"&&&OOOOooo+++####$$$    @@@$$$$$$$$$$@@@    $$$####+++OOO&&&&&&&",
"&&&OOOOooo+++####$$$    @@@$$$$$$$$$$@@@    $$$####+++OOO&&&&&&&",
"&&&OOOOooo+++####$$$    @@@$$$$$$$$$$@@@    $$$####+++OOO&&&&&&&",
"&&&XXXXooo+++    $$$....OOO###$$$$###OOO....$$$    oooOOO&&&&&&&",
"&&&XXXXooo+++    $$$....OOO###$$$$###OOO....$$$    oooOOO&&&&&&&",
"&&&XXXXooo+++    $$$....OOO###$$$$###OOO....$$$    oooOOO&&&&&&&",
"&&&....XXXOOOOOOO   $$$$$$$$$$@@@@$$$$$$$$$$   OOOOOOOXXX&&&&&&&",
"&&&....XXXOOOOOOO   $$$$$$$$$$@@@@$$$$$$$$$$   OOOOOOOXXX&&&&&&&",
"&&&....XXXOOOOOOO   $$$$$$$$$$@@@@$$$$$$$$$$   OOOOOOOXXX&&&&&&&",
"&&&....XXXOOOOOOO   $$$$$$$$$$@@@@$$$$$$$$$$   OOOOOOOXXX&&&&&&&",
"&&&&&&&...XXX....&&&    $$$$$$$$$$$$$$$$    ...XXXX...&&&&&&&&&&",
"&&&&&&&...XXX....&&&    $$$$$$$$$$$$$$$$    ...XXXX...&&&&&&&&&&",
"&&&&&&&...XXX....&&&    $$$$$$$$$$$$$$$$    ...XXXX...&&&&&&&&&&",
"&&&&&&&&&&&&&&&&&&&&    $$$   $$$$   $$$    &&&&&&&&&&&&&&&&&&&&",
"&&&&&&&&&&&&&&&&&&&&    $$$   $$$$   $$$    &&&&&&&&&&&&&&&&&&&&",
"&&&&&&&&&&&&&&&&&&&&    $$$   $$$$   $$$    &&&&&&&&&&&&&&&&&&&&",
"&&&&&&&&&&&&&&&&&&&&    @@@   @@@@   @@@    &&&&&&&&&&&&&&&&&&&&",
"&&&&&&&&&&&&&&&&&&&&    @@@   @@@@   @@@    &&&&&&&&&&&&&&&&&&&&",
"&&&&&&&&&&&&&&&&&&&&    @@@   @@@@   @@@    &&&&&&&&&&&&&&&&&&&&",
"&&&&&&&&&&&&&&&&&&&&    @@@   @@@@   @@@    &&&&&&&&&&&&&&&&&&&&",
"&&&&&&&&&&&&&&&&&&&&&&&&...XXX....&&&&&&&&&&&&&&&&&&&&&&&&&&&&&&",
"&&&&&&&&&&&&&&&&&&&&&&&&...XXX....&&&&&&&&&&&&&&&&&&&&&&&&&&&&&&",
"&&&&&&&&&&&&&&&&&&&&&&&&...XXX....&&&&&&&&&&&&&&&&&&&&&&&&&&&&&&"
};
