/* XPM */
static char *result[] = {
/* columns rows colors chars-per-pixel */
"64 64 10 1 ",
"  c black",
". c #701810",
"X c #A02818",
"o c #F85010",
"O c #D04020",
"+ c #988888",
"@ c #C0B0B0",
"# c #E8D8D8",
"$ c #F8F8F8",
"% c None",
/* pixels */
"%%%%%%%%%%%%%%%%%%%%%%%%%%%%%%%%%%%%%%%%%%%%%%%%%%%%%%%%%%%%%%%%",
"%%%%%%%%%%%%%%%%%%%%%%%%%%%%%%%%%%%%%%%%%%%%%%%%%%%%%%%%%%%%%%%%",
"%%%%%%%%%%%%%%%%%%%%%%%%%%%%%%%%%%%%%%%%%%%%%%%%%%%%%%%%%%%%%%%%",
"%%%%%%%%%%%%%%%%%%%%%%%%%%%%%%%%%%%%%%%%%%%%%%%%%%%%%%%%%%%%%%%%",
"%%%%%%%%%%%%%%%%%%%%%%%%%%%%%%%%%%%%%%%%%%%%%%%%%%%%%%%%%%%%%%%%",
"%%%%%%%%%%%%%%%%%%%%%%%%%%%%%%%%%%%%%%%%%%%%%%%%%%%%%%%%%%%%%%%%",
"%%%%%%%%%%%%%%%%%%%%%%%%%%%%%%%%%%%%%%%%%%%%%%%%%%%%%%%%%%%%%%%%",
"%%%%%%%%%%%%%%%%%%%%%%%%%%%%%%%%%%%%%XXX%%%%XXX%%%%%%%%%%%%%%%%%",
"%%%%%%%%%%%%%%%%%%%%%%%%%%%%%%%%%%%%%XXX%%%%XXX%%%%%%%%%%%%%%%%%",
"%%%%%%%%%%%%%%%%%%%%%%%%%%%%%%%%%%%%%XXX%%%%XXX%%%%%%%%%%%%%%%%%",
"%%%%%%%%%%%%%%%%%%%%%%%%%%%%%%%%%%XXXOOOXXXX%%%%%%%%%%%%%%%%%%%%",
"%%%%%%%%%%%%%%%%%%%%%%%%%%%%%%%%%%XXXOOOXXXX%%%%%%%%%%%%%%%%%%%%",
"%%%%%%%%%%%%%%%%%%%%%%%%%%%%%%%%%%XXXOOOXXXX%%%%%%%%%%%%%%%%%%%%",
"%%%%%%%%%%%%%%%%%%%%%%%%%%%%%%XXXXooooooOOOO%%%%%%%%%%%%%%%%%%%%",
"%%%%%%%%%%%%%%%%%%%%%%%%%%%%%%XXXXooooooOOOO%%%%%%%%%%%%%%%%%%%%",
"%%%%%%%%%%%%%%%%%%%%%%%%%%%%%%XXXXooooooOOOO%%%%%%%%%%%%%%%%%%%%",
"%%%%%%%%%%%%%%%%%%%%%%%%%%%%%%XXXXooooooOOOO%%%%%%%%%%%%%%%%%%%%",
"%%%%%%%%%%XXX%%%%XXX%%%%%%%%%%OOOOOOOoooOOOOOOO%%%%%%%%%%%%%%%%%",
"%%%%%%%%%%XXX%%%%XXX%%%%%%%%%%OOOOOOOoooOOOOOOO%%%%%%%%%%%%%%%%%",
"%%%%%%%%%%XXX%%%%XXX%%%%%%%%%%OOOOOOOoooOOOOOOO%%%%%%%%%%%%%%%%%",
"%%%%%%%XXXOOOXXXX%%%%%%%@@@@@@@@@@...OOOOOOOXXX%%%%%%%%%%%%%%%%%",
"%%%%%%%XXXOOOXXXX%%%%%%%@@@@@@@@@@...OOOOOOOXXX%%%%%%%%%%%%%%%%%",
"%%%%%%%XXXOOOXXXX%%%%%%%@@@@@@@@@@...OOOOOOOXXX%%%%%%%%%%%%%%%%%",
"%%%%%%%XXXOOOXXXX%%%%%%%@@@@@@@@@@...OOOOOOOXXX%%%%%%%%%%%%%%%%%",
"%%%XXXXooooooOOOO@@@####$$$$$$$$$$$$$.......@@@%%%%%%%%%%%%%%%%%",
"%%%XXXXooooooOOOO@@@####$$$$$$$$$$$$$.......@@@%%%%%%%%%%%%%%%%%",
"%%%XXXXooooooOOOO@@@####$$$$$$$$$$$$$.......@@@%%%%%%%%%%%%%%%%%",
"%%%OOOOOOOoooOOOOOOO$$$$$$$$$$$$$$$$$$$$$$$$###%%%%%%%%%%%%%%%%%",
"%%%OOOOOOOoooOOOOOOO$$$$$$$$$$$$$$$$$$$$$$$$###%%%%%%%%%%%%%%%%%",
"%%%OOOOOOOoooOOOOOOO$$$$$$$$$$$$$$$$$$$$$$$$###%%%%%%%%%%%%%%%%%",
"%%%%%%%...OOOOOOOXXX$$$$$$$$$$$$$$$$$$$$$$$$###++++%%%OOO%%%%%%%",
"%%%%%%%...OOOOOOOXXX$$$$$$$$$$$$$$$$$$$$$$$$###++++%%%OOO%%%%%%%",
"%%%%%%%...OOOOOOOXXX$$$$$$$$$$$$$$$$$$$$$$$$###++++%%%OOO%%%%%%%",
"%%%%%%%...OOOOOOOXXX$$$$$$$$$$$$$$$$$$$$$$$$###++++%%%OOO%%%%%%%",
"%%%%%%%%%%.......###$$$$$$$$$$$$$$$$$$$$$$$$###@@@@XXXOOOXXXX%%%",
"%%%%%%%%%%.......###$$$$$$$$$$$$$$$$$$$$$$$$###@@@@XXXOOOXXXX%%%",
"%%%%%%%%%%.......###$$$$$$$$$$$$$$$$$$$$$$$$###@@@@XXXOOOXXXX%%%",
"%%%%%%%%%%%%%@@@@###@@@@###$$$$$$$$$$###@@@@###@@@@oooOOOOOOO%%%",
"%%%%%%%%%%%%%@@@@###@@@@###$$$$$$$$$$###@@@@###@@@@oooOOOOOOO%%%",
"%%%%%%%%%%%%%@@@@###@@@@###$$$$$$$$$$###@@@@###@@@@oooOOOOOOO%%%",
"%%%%%%%%%%%%%@@@@###    +++##########+++    ###@@@@ooooooXXXX%%%",
"%%%%%%%%%%%%%@@@@###    +++##########+++    ###@@@@ooooooXXXX%%%",
"%%%%%%%%%%%%%@@@@###    +++##########+++    ###@@@@ooooooXXXX%%%",
"%%%%%%%%%%%%%@@@@###    +++##########+++    ###@@@@ooooooXXXX%%%",
"%%%%%%%%%%OOO    ###    ...@@@####@@@...    ###    XXX...%%%%%%%",
"%%%%%%%%%%OOO    ###    ...@@@####@@@...    ###    XXX...%%%%%%%",
"%%%%%%%%%%OOO    ###    ...@@@####@@@...    ###    XXX...%%%%%%%",
"%%%%%%%XXXOOOoooo   ##########++++##########   %%%%%%%%%%%%%%%%%",
"%%%%%%%XXXOOOoooo   ##########++++##########   %%%%%%%%%%%%%%%%%",
"%%%%%%%XXXOOOoooo   ##########++++##########   %%%%%%%%%%%%%%%%%",
"%%%%%%%XXXOOOoooo   ##########++++##########   %%%%%%%%%%%%%%%%%",
"%%%%%%%...XXXooooooo    ################    %%%%%%%%%%%%%%%%%%%%",
"%%%%%%%...XXXooooooo    ################    %%%%%%%%%%%%%%%%%%%%",
"%%%%%%%...XXXooooooo    ################    %%%%%%%%%%%%%%%%%%%%",
"%%%%%%%%%%...XXXX...    ###   ####   ###    %%%%%%%%%%%%%%%%%%%%",
"%%%%%%%%%%...XXXX...    ###   ####   ###    %%%%%%%%%%%%%%%%%%%%",
"%%%%%%%%%%...XXXX...    ###   ####   ###    %%%%%%%%%%%%%%%%%%%%",
"%%%%%%%%%%%%%%%%%%%%    +++   ++++   +++    %%%%%%%%%%%%%%%%%%%%",
"%%%%%%%%%%%%%%%%%%%%    +++   ++++   +++    %%%%%%%%%%%%%%%%%%%%",
"%%%%%%%%%%%%%%%%%%%%    +++   ++++   +++    %%%%%%%%%%%%%%%%%%%%",
"%%%%%%%%%%%%%%%%%%%%    +++   ++++   +++    %%%%%%%%%%%%%%%%%%%%",
"%%%%%%%%%%%%%%%%%%%%%%%%%%%%%%....XXX...%%%%%%%%%%%%%%%%%%%%%%%%",
"%%%%%%%%%%%%%%%%%%%%%%%%%%%%%%....XXX...%%%%%%%%%%%%%%%%%%%%%%%%",
"%%%%%%%%%%%%%%%%%%%%%%%%%%%%%%....XXX...%%%%%%%%%%%%%%%%%%%%%%%%"
};
