/* XPM */
static char *result[] = {
/* columns rows colors chars-per-pixel */
"110 80 24 1 ",
"  c black",
". c #7B1029",
"X c #107B29",
"o c #7B5200",
"O c #734221",
"+ c #6B6B5A",
"@ c #DE2929",
"# c #A57B42",
"$ c #42A529",
"% c #10FF08",
"& c #363243",
"* c #BD8418",
"= c #EFBD21",
"- c yellow",
"; c #FFEF29",
": c #94947B",
"> c #DEAD52",
", c #D6B58C",
"< c #BDFFA5",
"1 c #C6C6AD",
"2 c #FFE7BD",
"3 c #EFEFD6",
"4 c white",
"5 c None",
/* pixels */
"55555555555555555555555555555555555555555555555555555555555555555555555555555555555555555555555555555555555555",
"55555555555555555555555555555555555555555555555555555555555555555555555555555555555555555555555555555555555555",
"55555555555555555555555555555555555555555555555555555555555555555555555555555555555555555555555555555555555555",
"55555555555555555555555555555555555555555555555555555555555555555555555555555555555555555555555555555555555555",
"55555555555555555555555555555555555555555555555555555555555555555555555555555555555555555555555555555555555555",
"55555555555555555555555555555555555555555555555555555555555555555555555555555555555555555555555555555555555555",
"55555555555555555555555555555555555555555555555555555555555555555555555555555555555555555555555555555555555555",
"55555555555555555555555555555555555555555555555555555555555555555555555555555555555555555555555555555555555555",
"55555555555555555555555555555555555555555555555555555555555555555555555555555555555555555555555555555555555555",
"55555555555555555555555555555555555555555555555555555555555555555555555555555555555555555555555555555555555555",
"55555555555555555555555555555555555555555555555555555555555555555555555555555555555555555555555555555555555555",
"55555555555555555555555555555555555555555555555555555555555555555555555555555555555555555555555555555555555555",
"55555555555555555555555555555555555555555555555555555555555555555555555555555555555555555555555555555555555555",
"55555555555555555555555555555555555555555555555555555555555555555555555555555555555555555555555555555555555555",
"55555555555555555555555555555555555555555555555555555555555555555555555555555555555555555555555555555555555555",
"55555555555555555555555555555555555555555555555555555555555555555555555555555555555555555555555555555555555555",
"5555555555555555555555555555555555555555555555555555555555OOO#########OO55555555555555555555555555555555555555",
"5555555555555555555555555555555555555555555555555555555555OOO#########OO55555555555555555555555555555555555555",
"5555555555555555555555555555555555555555555555555555555555OOO#########OO55555555555555555555555555555555555555",
"55555555555555555555555555555555555555555555555555555555  >>>--------------###55555555555555555555555555555555",
"55555555555555555555555555555555555555555555555555555555  >>>--------------###55555555555555555555555555555555",
"55555555555555555555555555555555555555555555555555555555  >>>--------------###55555555555555555555555555555555",
"55555555555555555555555555555555555555555555555555555   %%%%%%%%%%%%%%%%------###55555555555555555555555555555",
"55555555555555555555555555555555555555555555555555555   %%%%%%%%%%%%%%%%------###55555555555555555555555555555",
"55555555555555555555555555555555555555555555555555   %%%%%%%%%%%%%%%%%%%%%%>>>---OO555555555555555555555555555",
"55555555555555555555555555555555555555555555555555   %%%%%%%%%%%%%%%%%%%%%%>>>---OO555555555555555555555555555",
"55555555555555555555555555555555555555555555555555   %%%%%%%%%%%%%%%%%%%%%%>>>---OO555555555555555555555555555",
"55555555555555555555555555555555555555555555555   $$$%%%%%%%%%%%%%%%%%%%%%%$$$   ##555555555555555555555555555",
"55555555555555555555555555555555555555555555555   $$$%%%%%%%%%%%%%%%%%%%%%%$$$   ##555555555555555555555555555",
"55555555555555555555555555555555555555555555555   $$$%%%%%%%%%%%%%%%%%%%%%%$$$   ##555555555555555555555555555",
"55555555555555555555555555555555555555555555555   $$$%%%%%%%%%%%%%%%%%%%%%%$$$   55555555555555555555555555555",
"55555555555555555555555555555555555555555555555   $$$%%%%%%%%%%%%%%%%%%%%%%$$$   55555555555555555555555555555",
"55555555555555555555555555555555555555555555555   $$$%%%%%%%%%%%%%%%%%%%%%%$$$   55555555555555555555555555555",
"555555555551115555555555555555555555555555##,,,XXX$$$$$$%%%%%%%%%%%%%%%%$$$$$$XXX,,###555555555555555555555555",
"555555555551115555555555555555555555555555##,,,XXX$$$$$$%%%%%%%%%%%%%%%%$$$$$$XXX,,###555555555555555555555555",
"555555555551115555555555555555555555555OOO22222XXX$$$$$$%%%%%%%%%%%%%%%%$$$$$$XXX22222OOO555555555555555555555",
"555555555551115555555555555555555555555OOO22222XXX$$$$$$%%%%%%%%%%%%%%%%$$$$$$XXX22222OOO555555555555555555555",
"555555555551115555555555555555555555555OOO22222XXX$$$$$$%%%%%%%%%%%%%%%%$$$$$$XXX22222OOO555555555555555555555",
"555555551115555555555555555555555         OO###XXX$$$XXX$$%%%%%%%%%%%%$$XXX$$$XXX##OOO555555555555555555555555",
"555555551115555555555555555555555         OO###XXX$$$XXX$$%%%%%%%%%%%%$$XXX$$$XXX##OOO555555555555555555555555",
"555555551115555555555555555555555         OO###XXX$$$XXX$$%%%%%%%%%%%%$$XXX$$$XXX##OOO555555555555555555555555",
"5555555544455555555555555555555::555;;;===  OOOOOOXXX   $$$$$%%%%%%$$$$$   XXXOOOOO555555555555555555555555555",
"5555555544455555555555555555555::555;;;===  OOOOOOXXX   $$$$$%%%%%%$$$$$   XXXOOOOO555555555555555555555555555",
"5555555544455555555555555555555::555;;;===  OOOOOOXXX   $$$$$%%%%%%$$$$$   XXXOOOOO555555555555555555555555555",
"55555555111::::::::::::::11111144:::***;;;**   ---OOO   $$$$$$$$$$$$$$$$   OOO---  555555555555555555555555555",
"55555555111::::::::::::::11111144:::***;;;**   ---OOO   $$$$$$$$$$$$$$$$   OOO---  555555555555555555555555555",
"55555555111::::::::::::::11111144:::***;;;**   ---OOO   $$$$$$$$$$$$$$$$   OOO---  555555555555555555555555555",
"555:::113334444444444444444444444444===;;;;;      ###   XX$$$$$$$$$$$$XX   ###   55555555555555555555555555555",
"555:::113334444444444444444444444444===;;;;;      ###   XX$$$$$$$$$$$$XX   ###   55555555555555555555555555555",
":::333444444444444444444444444411;;;***ooo;;222<<<        $$$$$$$$$$$$        55555555555555555555555555555555",
":::333444444444444444444444444411;;;***ooo;;222<<<        $$$$$$$$$$$$        55555555555555555555555555555555",
":::333444444444444444444444444411;;;***ooo;;222<<<        $$$$$$$$$$$$        55555555555555555555555555555555",
"555:::443333333333333333333333333333===;;;;;222<<<<<<XXX  XXX$$$$$$XXX  XXX<<<   55555555555555555555555555555",
"555:::443333333333333333333333333333===;;;;;222<<<<<<XXX  XXX$$$$$$XXX  XXX<<<   55555555555555555555555555555",
"555:::443333333333333333333333333333===;;;;;222<<<<<<XXX  XXX$$$$$$XXX  XXX<<<   55555555555555555555555555555",
"55555544+++::::::::::::::11111144+++***;;;**         XXX$$   $$$$$$   $$XXX<<<<<<  555555555555555555555555555",
"55555544+++::::::::::::::11111144+++***;;;**         XXX$$   $$$$$$   $$XXX<<<<<<  555555555555555555555555555",
"55555544+++::::::::::::::11111144+++***;;;**         XXX$$   $$$$$$   $$XXX<<<<<<  555555555555555555555555555",
"5555554455555555555555555555555::555;;;===oo555555   OOO$$   XXXXXX   $$   <<<22222   555555555555555555555555",
"5555554455555555555555555555555::555;;;===oo555555   OOO$$   XXXXXX   $$   <<<22222   555555555555555555555555",
"5555554455555555555555555555555::555;;;===oo555555   OOO$$   XXXXXX   $$   <<<22222   555555555555555555555555",
"555555335555555555555555555555555   oooooo55555   $$$%%%OOOOO      OOOOO%%%   ,,,22   555555555555555555555555",
"555555335555555555555555555555555   oooooo55555   $$$%%%OOOOO      OOOOO%%%   ,,,22   555555555555555555555555",
"55555511555555555555555555555555555555555555555   XXX%%%%%%%%%%%%%%%%%%%%%%$$$     555555555555555555555555555",
"55555511555555555555555555555555555555555555555   XXX%%%%%%%%%%%%%%%%%%%%%%$$$     555555555555555555555555555",
"55555511555555555555555555555555555555555555555   XXX%%%%%%%%%%%%%%%%%%%%%%$$$     555555555555555555555555555",
"55555555555555555555555555555555555555555555&&&   ...   $$%%%%%%%%%%%%$$   ...   &&555555555555555555555555555",
"55555555555555555555555555555555555555555555&&&   ...   $$%%%%%%%%%%%%$$   ...   &&555555555555555555555555555",
"55555555555555555555555555555555555555555555&&&   ...   $$%%%%%%%%%%%%$$   ...   &&555555555555555555555555555",
"55555555555555555555555555555555555555555555&&&&&&   ...@@@@@      @@@@@...   &&&&&555555555555555555555555555",
"55555555555555555555555555555555555555555555&&&&&&   ...@@@@@      @@@@@...   &&&&&555555555555555555555555555",
"55555555555555555555555555555555555555555555&&&&&&   ...@@@@@      @@@@@...   &&&&&555555555555555555555555555",
"55555555555555555555555555555555555555555555&&&&&&&&&        &&&&&&        &&&&&&&&555555555555555555555555555",
"55555555555555555555555555555555555555555555&&&&&&&&&        &&&&&&        &&&&&&&&555555555555555555555555555",
"55555555555555555555555555555555555555555555555&&&&&&&&&&&&&&&&&&&&&&&&&&&&&&&&&&55555555555555555555555555555",
"55555555555555555555555555555555555555555555555&&&&&&&&&&&&&&&&&&&&&&&&&&&&&&&&&&55555555555555555555555555555",
"55555555555555555555555555555555555555555555555&&&&&&&&&&&&&&&&&&&&&&&&&&&&&&&&&&55555555555555555555555555555",
"55555555555555555555555555555555555555555555555555555&&&&&&&&&&&&&&&&&&&&&&55555555555555555555555555555555555",
"55555555555555555555555555555555555555555555555555555&&&&&&&&&&&&&&&&&&&&&&55555555555555555555555555555555555",
"55555555555555555555555555555555555555555555555555555&&&&&&&&&&&&&&&&&&&&&&55555555555555555555555555555555555"
};
