/* XPM */
static char *result[] = {
/* columns rows colors chars-per-pixel */
"110 80 23 1 ",
"  c black",
". c #7B1029",
"X c #107B29",
"o c #7B5200",
"O c #734221",
"+ c #DE2929",
"@ c #A57B42",
"# c #42A529",
"$ c #10FF08",
"% c #363243",
"& c #BD8418",
"* c #EFBD21",
"= c yellow",
"- c #FFEF29",
"; c #94947B",
": c #DEAD52",
"> c #D6B58C",
", c #BDFFA5",
"< c #C6C6AD",
"1 c #FFE7BD",
"2 c #EFEFD6",
"3 c white",
"4 c None",
/* pixels */
"44444444444444444444444444444444444444444444444444444444444444444444444444444444444444444444444444444444444444",
"444444444444444444444444444444444444;;;44444444444444444444444444444444444444444444444444444444444444444444444",
"444444444444444444444444444444444444;;;44444444444444444444444444444444444444444444444444444444444444444444444",
"444444444444444444444444444444444444333<<<44444444444444444444444444444444444444444444444444444444444444444444",
"444444444444444444444444444444444444333<<<44444444444444444444444444444444444444444444444444444444444444444444",
"444444444444444444444444444444444444333<<<44444444444444444444444444444444444444444444444444444444444444444444",
"444444444444444444444444444444444444333333<<;;4444444444444444444444444444444444444444444444444444444444444444",
"444444444444444444444444444444444444333333<<;;4444444444444444444444444444444444444444444444444444444444444444",
"4444444444444444444444444444444444;;22233322;;4444444444444444444444444444444444444444444444444444444444444444",
"4444444444444444444444444444444444;;22233322;;4444444444444444444444444444444444444444444444444444444444444444",
"4444444444444444444444444444444444;;22233333<<444<<22333333333333222224444444444444444444444444444444444444444",
"4444444444444444444444444444444444;;22233333<<444<<22333333333333222224444444444444444444444444444444444444444",
"4444444444444444444444444444444444;;22233333<<444<<22333333333333222224444444444444444444444444444444444444444",
"444444444444444444444444444444444444<<<3333322;;;333322222222<<<<444444444444444444444444444444444444444444444",
"444444444444444444444444444444444444<<<3333322;;;333322222222<<<<444444444444444444444444444444444444444444444",
"444444444444444444444444444444444444<<<3333322;;;333322222222<<<<444444444444444444444444444444444444444444444",
"4444444444444444444444444444444444;;<<<33333333333322<<<<<<444444444444444444444444444444444444444444444444444",
"4444444444444444444444444444444444;;<<<33333333333322<<<<<<444444444444444444444444444444444444444444444444444",
"444444444444444444444444444444444433333333333322222<<4444444444OO@@@@@OO44444444444444444444444444444444444444",
"444444444444444444444444444444444433333333333322222<<4444444444OO@@@@@OO44444444444444444444444444444444444444",
"4444444444444444444444444444444433333333333333333<<4444444444  ::=======:::44444444444444444444444444444444444",
"4444444444444444444444444444444433333333333333333<<4444444444  ::=======:::44444444444444444444444444444444444",
"4444444444444444444444444444433322<<222<<<333333322;;444444  $$$$$$$$$=====:::44444444444444444444444444444444",
"4444444444444444444444444444433322<<222<<<333333322;;444444  $$$$$$$$$=====:::44444444444444444444444444444444",
"4444444444444444444444444444433322<<222<<<333333322;;444444  $$$$$$$$$=====:::44444444444444444444444444444444",
"444444444444444444444444444334444444;;;2223333333<<44&&    $$$$$$$$$$$$$:::===44444444444444444444444444444444",
"444444444444444444444444444334444444;;;2223333333<<44&&    $$$$$$$$$$$$$:::===44444444444444444444444444444444",
"444444444444444444444444444444444444444;;;<<22---**&&  ####$$$$$$$$$$$$$$$$===@@444444444444444444444444444444",
"444444444444444444444444444444444444444;;;<<22---**&&  ####$$$$$$$$$$$$$$$$===@@444444444444444444444444444444",
"444444444444444444444444444444444444444   33**-------  $$$$$$$$$$$$$$$$$$$$###::444444444444444444444444444444",
"444444444444444444444444444444444444444   33**-------  $$$$$$$$$$$$$$$$$$$$###::444444444444444444444444444444",
"444444444444444444444444444444444444444   33**-------  $$$$$$$$$$$$$$$$$$$$###::444444444444444444444444444444",
"444444444444444444444444444444444444444   33**-------  $$$$$$$$$$$$$$$$$$$$###::444444444444444444444444444444",
"444444444444444444444444444444444444444ooo-------oo  ##$$$$$$$$$$$$$$$$$$$$###  444444444444444444444444444444",
"444444444444444444444444444444444444444ooo-------oo  ##$$$$$$$$$$$$$$$$$$$$###  444444444444444444444444444444",
"444444444444444444444444444444444444444ooo&&**---&&  ##$$$$$$$$$$$$$$$$$$$$###  444444444444444444444444444444",
"444444444444444444444444444444444444444ooo&&**---&&  ##$$$$$$$$$$$$$$$$$$$$###  444444444444444444444444444444",
"444444444444444444444444444444444444444444oooo@@@>>XX######$$$$$$$$$$$$$$$$###XX>>@@@4444444444444444444444444",
"444444444444444444444444444444444444444444oooo@@@>>XX######$$$$$$$$$$$$$$$$###XX>>@@@4444444444444444444444444",
"44444444444444444444444444444444444444444444OO11111XXXX####$$$$$$$$$$$$$###   XX11111OO44444444444444444444444",
"44444444444444444444444444444444444444444444OO11111XXXX####$$$$$$$$$$$$$###   XX11111OO44444444444444444444444",
"44444444444444444444444444444444444444444444OO11111XXXX####$$$$$$$$$$$$$###   XX11111OO44444444444444444444444",
"4444444444444444444444444444444444444444444444OOO@@  XX    ##$$$$$$$$$$$   ###XX@@OOO4444444444444444444444444",
"4444444444444444444444444444444444444444444444OOO@@  XX    ##$$$$$$$$$$$   ###XX@@OOO4444444444444444444444444",
"444444444444444444444444444444444444444444444444444OO      XX$$$$$$$$$XX   XXXOOOO4444444444444444444444444444",
"444444444444444444444444444444444444444444444444444OO      XX$$$$$$$$$XX   XXXOOOO4444444444444444444444444444",
"444444444444444444444444444444444444444444444444444OO,,,,,,  ##$$$$$##  XXXOOO==  4444444444444444444444444444",
"444444444444444444444444444444444444444444444444444OO,,,,,,  ##$$$$$##  XXXOOO==  4444444444444444444444444444",
"444444444444444444444444444444444444444444444444444  ,,,,,,  XX$$$$$XX          444444444444444444444444444444",
"444444444444444444444444444444444444444444444444444  ,,,,,,  XX$$$$$XX          444444444444444444444444444444",
"444444444444444444444444444444444444444444444444444  ,,,,,,  XX$$$$$XX          444444444444444444444444444444",
"444444444444444444444444444444444444444444444444444  ,,,,,,  XX$$$$$XX          444444444444444444444444444444",
"44444444444444444444444444444444444444444444444444444  OOOO##  #####  ,,,,,OOO    4444444444444444444444444444",
"44444444444444444444444444444444444444444444444444444  OOOO##  #####  ,,,,,OOO    4444444444444444444444444444",
"44444444444444444444444444444444444444444444444444444  XXXX####     ##XX,,,,,,1111   4444444444444444444444444",
"44444444444444444444444444444444444444444444444444444  XXXX####     ##XX,,,,,,1111   4444444444444444444444444",
"44444444444444444444444444444444444444444444444444444  XXXX##OOOOOOOOO     ,,,1111   4444444444444444444444444",
"44444444444444444444444444444444444444444444444444444  XXXX##OOOOOOOOO     ,,,1111   4444444444444444444444444",
"44444444444444444444444444444444444444444444444444444  XXXX##OOOOOOOOO     ,,,1111   4444444444444444444444444",
"44444444444444444444444444444444444444444444444444444  OOOOOO$$$$$$$$$##XXX       4444444444444444444444444444",
"44444444444444444444444444444444444444444444444444444  OOOOOO$$$$$$$$$##XXX       4444444444444444444444444444",
"444444444444444444444444444444444444444444444444444  XX####$$$$$$$$$$$#####   44444444444444444444444444444444",
"444444444444444444444444444444444444444444444444444  XX####$$$$$$$$$$$#####   44444444444444444444444444444444",
"44444444444444444444444444444444444444444444444444444  XXXXXX#########     44444444444444444444444444444444444",
"44444444444444444444444444444444444444444444444444444  XXXXXX#########     44444444444444444444444444444444444",
"444444444444444444444444444444444444444444444444444%%%%    ....     >>@@          4444444444444444444444444444",
"444444444444444444444444444444444444444444444444444%%%%    ....     >>@@          4444444444444444444444444444",
"444444444444444444444444444444444444444444444444444%%%%    ....     >>@@          4444444444444444444444444444",
"4444444444444444444444444444444444444444444444444%%%%%%%%%%    %%   ............  4444444444444444444444444444",
"4444444444444444444444444444444444444444444444444%%%%%%%%%%    %%   ............  4444444444444444444444444444",
"4444444444444444444444444444444444444444444444444%%%%%%%%%%    %%   ............  4444444444444444444444444444",
"4444444444444444444444444444444444444444444444444%%%%%%%%%%%%%%%%   ++++......  %%4444444444444444444444444444",
"4444444444444444444444444444444444444444444444444%%%%%%%%%%%%%%%%   ++++......  %%4444444444444444444444444444",
"4444444444444444444444444444444444444444444444444%%%%%%%%%%%%%%%%%%%          %%%%4444444444444444444444444444",
"4444444444444444444444444444444444444444444444444%%%%%%%%%%%%%%%%%%%          %%%%4444444444444444444444444444",
"444444444444444444444444444444444444444444444444444%%%%%%%%%%%%%%%%%%%%%%%%%%%%%444444444444444444444444444444",
"444444444444444444444444444444444444444444444444444%%%%%%%%%%%%%%%%%%%%%%%%%%%%%444444444444444444444444444444",
"444444444444444444444444444444444444444444444444444%%%%%%%%%%%%%%%%%%%%%%%%%%%%%444444444444444444444444444444",
"4444444444444444444444444444444444444444444444444444444%%%%%%%%%%%%%%%%%%%%44444444444444444444444444444444444",
"4444444444444444444444444444444444444444444444444444444%%%%%%%%%%%%%%%%%%%%44444444444444444444444444444444444"
};
