/* XPM */
static char *result[] = {
/* columns rows colors chars-per-pixel */
"110 80 20 1 ",
"  c black",
". c #7B1029",
"X c #107B29",
"o c #734221",
"O c #DE2929",
"+ c #A57B42",
"@ c #42A529",
"# c #10FF08",
"$ c #363243",
"% c yellow",
"& c #FFEF29",
"* c #94947B",
"= c #DEAD52",
"- c #D6B58C",
"; c #BDFFA5",
": c #C6C6AD",
"> c #FFE7BD",
", c #EFEFD6",
"< c white",
"1 c None",
/* pixels */
"1111111111111111111111111111111111111111111111111111111111***1111111111111111111111111111111111111111111111111",
"1111111111111111111111111111111111111111111111111111111111***1111111111111111111111111111111111111111111111111",
"1111111111111111111111111111111111111111111111111111111111***1111111111111111111111111111111111111111111111111",
"1111111111111111111111111111111111111111111111111111111***:::**11111111111111111111111111111111111111111111111",
"1111111111111111111111111111111111111111111111111111111***:::**11111111111111111111111111111111111111111111111",
"1111111111111111111111111111111111111111111111111111111:::<<<::**111111111111111111111111111111111111111111111",
"1111111111111111111111111111111111111111111111111111111<<<<<<,,::111111111111111111111111111111111111111111111",
"1111111111111111111111111111111111111111111111111111111<<<<<<,,::111111111111111111111111111111111111111111111",
"1111111111111111111111111111111111111111111111111111111<<<<<<,,::111111111111111111111111111111111111111111111",
"1111111111111111111111111111111111111111111111111111111<<<<<<,,::111111111111111111111111111111111111111111111",
"11111111111111111111111111111111111111111111111111111**<<<<<<,,<<,,,,,***1111111111111111111111111111111111111",
"11111111111111111111111111111111111111111111111***,,<<<<<<<<<<<<<<<<<<<<<<<,**11111111111111111111111111111111",
"11111111111111111111111111111111111111111111111***,,<<<<<<<<<<<<<<<<<<<<<<<,**11111111111111111111111111111111",
"111111111111111111111111111111111111111111***,,<<<<<,,,<<<<<<,,<<,,,,,,,,,,,<<<<<::111111111111111111111111111",
"111111111111111111111111111111111111111111***,,<<<<<,,,<<<<<<,,<<,,,,,,,,,,,<<<<<::111111111111111111111111111",
"111111111111111111111111111111111111111111***,,<<<<<,,,<<<<<<,,<<,,,,,,,,,,,<<<<<::111111111111111111111111111",
"11111111111111111111111111111111111111111111111111111,,<<<<<<,,,,,,::::::1111111111:::111111111111111111111111",
"11111111111111111111111111111111111111111111111111111,,<<<<<<,,,,,,::::::1111111111:::111111111111111111111111",
"11111111111111111111111111111111111111111111111111111,,<<<<<<,,oo+++++ooo1111111111111111111111111111111111111",
"11111111111111111111111111111111111111111111111111111,,<<<<<<,,oo+++++ooo1111111111111111111111111111111111111",
"11111111111111111111111111111111111111111111111111111,,<<<<<<  ==%%%%%%%%++11111111111111111111111111111111111",
"11111111111111111111111111111111111111111111111111111,,<<<<<<  ==%%%%%%%%++11111111111111111111111111111111111",
"11111111111111111111111111111111111111111111111111111,,<<<<<<  ==%%%%%%%%++11111111111111111111111111111111111",
"11111111111111111111111111111111111111111111111111111::<<<   #########%%%%%=1111111111111111111111111111111111",
"11111111111111111111111111111111111111111111111111111::<<<   #########%%%%%=1111111111111111111111111111111111",
"1111111111111111111111111111111111111111111111111111*<<   ###############%%%1111111111111111111111111111111111",
"1111111111111111111111111111111111111111111111111111*<<   ###############%%%1111111111111111111111111111111111",
"1111111111111111111111111111111111111111111111111111*<<   ###############%%%1111111111111111111111111111111111",
"11111111111111111111111111111111111111111111111111  1  ####################=++11111111111111111111111111111111",
"11111111111111111111111111111111111111111111111111  &  ####################@  11111111111111111111111111111111",
"11111111111111111111111111111111111111111111111111  &  ####################@  11111111111111111111111111111111",
"11111111111111111111111111111111111111111111111111  &  ####################@  11111111111111111111111111111111",
"11111111111111111111111111111111111111111111111111  &  ####################@  11111111111111111111111111111111",
"11111111111111111111111111111111111111111111111+++--X@@####################@XX---++111111111111111111111111111",
"11111111111111111111111111111111111111111111111+++--X@@####################@XX---++111111111111111111111111111",
"111111111111111111111111111111111111111111111oo>>>>>X@@####################@XX>>>>>ooo111111111111111111111111",
"111111111111111111111111111111111111111111111oo>>>>>X@@####################@XX>>>>>ooo111111111111111111111111",
"111111111111111111111111111111111111111111111oo>>>>>X@@####################@XX>>>>>ooo111111111111111111111111",
"111111111111111111111111111111111111111111111oo>>>>>X@@####################@XX>>>>>ooo111111111111111111111111",
"11111111111111111111111111111111111111111111111ooo++X  @@@###############@@ XX+++oo111111111111111111111111111",
"11111111111111111111111111111111111111111111111111ooo  XXX@@@@@####@@@@@@XX ooooo11111111111111111111111111111",
"11111111111111111111111111111111111111111111111111ooo  XXX@@@@@####@@@@@@XX ooooo11111111111111111111111111111",
"11111111111111111111111111111111111111111111111111ooo  XXX@@@@@####@@@@@@XX ooooo11111111111111111111111111111",
"11111111111111111111111111111111111111111111111111ooo  XXX@@@@@####@@@@@@XX ooooo11111111111111111111111111111",
"11111111111111111111111111111111111111111111111111  %oo   XXX@@@@@@@@@XXX  o%%   11111111111111111111111111111",
"11111111111111111111111111111111111111111111111111  %oo   XXX@@@@@@@@@XXX  o%%   11111111111111111111111111111",
"11111111111111111111111111111111111111111111111111111     XXX         XXX   1111111111111111111111111111111111",
"11111111111111111111111111111111111111111111111111111     XXX         XXX   1111111111111111111111111111111111",
"11111111111111111111111111111111111111111111111111111     XXX         XXX   1111111111111111111111111111111111",
"11111111111111111111111111111111111111111111111111111  XXX@@@@@@@@@@@@@@@;;o       111111111111111111111111111",
"11111111111111111111111111111111111111111111111111111  XXX@@@@@@@@@@@@@@@;;o       111111111111111111111111111",
"11111111111111111111111111111111111111111111111111111  XXX@@@@@@@@@@@@@@@;;;;;>>>>>   111111111111111111111111",
"11111111111111111111111111111111111111111111111111111  XXX@@@@@@@@@@@@@@@;;;;;>>>>>   111111111111111111111111",
"11111111111111111111111111111111111111111111111111111  XXX@@@@@@@@@@@@@@@;;;;;>>>>>   111111111111111111111111",
"11111111111111111111111111111111111111111111111111111  ooo@@@@@@@@@@@@XXX  o;;>>>>>   111111111111111111111111",
"11111111111111111111111111111111111111111111111111111  ooo@@@@@@@@@@@@XXX  o;;>>>>>   111111111111111111111111",
"1111111111111111111111111111111111111111111111111111 XX@@@ooooooooooooooo          111111111111111111111111111",
"1111111111111111111111111111111111111111111111111111 XX@@@ooooooooooooooo          111111111111111111111111111",
"1111111111111111111111111111111111111111111111111111 XX@@@ooooooooooooooo          111111111111111111111111111",
"1111111111111111111111111111111111111111111111111111 XX@@@ooooooooooooooo          111111111111111111111111111",
"1111111111111111111111111111111111111111111111111111 XX@@@############@@@XX 1111111111111111111111111111111111",
"11111111111111111111111111111111111111111111111111111     .....XX@@@@@@@@XX 1111111111111111111111111111111111",
"11111111111111111111111111111111111111111111111111111     .....XX@@@@@@@@XX 1111111111111111111111111111111111",
"1111111111111111111111111111111111111111111111111111111            ---+++  11111111111111111111111111111111111",
"1111111111111111111111111111111111111111111111111111111            ---+++  11111111111111111111111111111111111",
"1111111111111111111111111111111111111111111111111111111            ---+++  11111111111111111111111111111111111",
"1111111111111111111111111111111111111111111111111111$$$$$$$$$$$$$  ........      11111111111111111111111111111",
"1111111111111111111111111111111111111111111111111111$$$$$$$$$$$$$  ........      11111111111111111111111111111",
"11111111111111111111111111111111111111111111111111$$$$$$$$$$$$$$$  OOOOOO.....   11111111111111111111111111111",
"11111111111111111111111111111111111111111111111111$$$$$$$$$$$$$$$$$      ...  $$$11111111111111111111111111111",
"11111111111111111111111111111111111111111111111111$$$$$$$$$$$$$$$$$      ...  $$$11111111111111111111111111111",
"11111111111111111111111111111111111111111111111111$$$$$$$$$$$$$$$$$      ...  $$$11111111111111111111111111111",
"11111111111111111111111111111111111111111111111111$$$$$$$$$$$$$$$$$      ...  $$$11111111111111111111111111111",
"11111111111111111111111111111111111111111111111111$$$$$$$$$$$$$$$$$$$$$$$$$$$$$$$11111111111111111111111111111",
"1111111111111111111111111111111111111111111111111111$$$$$$$$$$$$$$$$$$$$$$$$$$11111111111111111111111111111111",
"1111111111111111111111111111111111111111111111111111$$$$$$$$$$$$$$$$$$$$$$$$$$11111111111111111111111111111111",
"1111111111111111111111111111111111111111111111111111111$$$$$$$$$$$$$$$$$$$$11111111111111111111111111111111111",
"1111111111111111111111111111111111111111111111111111111$$$$$$$$$$$$$$$$$$$$11111111111111111111111111111111111",
"1111111111111111111111111111111111111111111111111111111$$$$$$$$$$$$$$$$$$$$11111111111111111111111111111111111",
"11111111111111111111111111111111111111111111111111111111111111111111111111111111111111111111111111111111111111"
};
