/* XPM */
static char *result[] = {
/* columns rows colors chars-per-pixel */
"110 80 23 1 ",
"  c black",
". c #7B1029",
"X c #107B29",
"o c #7B5200",
"O c #734221",
"+ c #DE2929",
"@ c #A57B42",
"# c #42A529",
"$ c #10FF08",
"% c #363243",
"& c #BD8418",
"* c #EFBD21",
"= c yellow",
"- c #FFEF29",
"; c #94947B",
": c #DEAD52",
"> c #D6B58C",
", c #BDFFA5",
"< c #C6C6AD",
"1 c #FFE7BD",
"2 c #EFEFD6",
"3 c white",
"4 c None",
/* pixels */
"44444444444444444444444444444444444444444444444444444444444444444444444444444444444444444444444444444444444444",
"44444444444444444444444444444444444444444444444444444444444444444444444444444444444444444444444444444444444444",
"44444444444444444444444444444444444444444444444444444444444444444444444444444444444444444444444444444444444444",
"44444444444444444444444444444444444444444444444444444444444444444444444444444444444444444444444444444444444444",
"44444444444444444444444444444444444444444444444444444444444444444444444444444444444444444444444444444444444444",
"44444444444444444444444444444444444444444444444444444444444444444444444444444444444444444444444444444444444444",
"44444444444444444444444444444444444444444444444444444444444444444444444444444444444444444444444444444444444444",
"44444444444444444444444444444444444444444444444444444444444444444444444444444444444444444444444444444444444444",
"44444444444444444444444444444444444444444444444444444444444444444444444444444444444444444444444444444444444444",
"44444444444444444444444444444444444444444444444444444444444444444444444444444444444444444444444444444444444444",
"44444444444444444444444444444444444444444444444444444444444444444444444444444444444444444444444444444444444444",
"44444444444444444444444444444444444444444444444444444444444444444444444444444444444444444444444444444444444444",
"44444444444444444444444422244444444444444444444444444444444444444444444444444444444444444444444444444444444444",
"44444444444444444444444422244444444444444444444444444444444444444444444444444444444444444444444444444444444444",
"44444444444444444444444422244444444444444444444444444444444444444444444444444444444444444444444444444444444444",
"444444444444444444444<<<44444444444444444444444444444444444444444444444444444444444444444444444444444444444444",
"444444444444444444444<<<44444444444444444444444444444444444444444444444444444444444444444444444444444444444444",
"444444444444444444444<<<44444444444444444444444444444444444444444444444444444444444444444444444444444444444444",
"444444444444444444<<<22244444444444444444444444444444444444OO@@@@@@@@@@@OOO44444444444444444444444444444444444",
"444444444444444444<<<22244444444444444444444444444444444444OO@@@@@@@@@@@OOO44444444444444444444444444444444444",
"44444444444444444433344444444444444444444444444444444444   ::==============@@@44444444444444444444444444444444",
"44444444444444444433344444444444444444444444444444444444   ::==============@@@44444444444444444444444444444444",
"44444444444444444433344444444444444444444444444444444444   ::==============@@@44444444444444444444444444444444",
"44444444444444442233344444444444444444444444444444444   $$$$$$$$$$$$$$$$======@@@44444444444444444444444444444",
"44444444444444442233344444444444444444444444444444444   $$$$$$$$$$$$$$$$======@@@44444444444444444444444444444",
"44444444444444442233344444444444444444444444444444444   $$$$$$$$$$$$$$$$======@@@44444444444444444444444444444",
"4444444;;;;;;;;;33222;;;44444444444444444444444444   $$$$$$$$$$$$$$$$$$$$$$:::===OO444444444444444444444444444",
"4444444;;;;;;;;;33222;;;44444444444444444444444444   $$$$$$$$$$$$$$$$$$$$$$:::===OO444444444444444444444444444",
"4444444;;;;;;;;;33222;;;44444444444444444444444444   $$$$$$$$$$$$$$$$$$$$$$:::===OO444444444444444444444444444",
"44;;;2233333333322222<<<;;;44;;;;;;444     44444  ###$$$$$$$$$$$$$$$$$$$$$$###   ::444444444444444444444444444",
"44;;;2233333333322222<<<;;;44;;;;;;444     44444  ###$$$$$$$$$$$$$$$$$$$$$$###   ::444444444444444444444444444",
"44444;;2223333333333333333322222<<<ooo&&***  444  ######$$$$$$$$$$$$$$$$######   44444444444444444444444444444",
"44444;;2223333333333333333322222<<<ooo&&***  444  ######$$$$$$$$$$$$$$$$######   44444444444444444444444444444",
"44444;;2223333333333333333322222<<<ooo&&***  444  ######$$$$$$$$$$$$$$$$######   44444444444444444444444444444",
"4444444;;;2222222233333333333333333<<<--***@@>>>XXXXX###$$$$$$$$$$$$$$$$###XXXXXX>>@@@444444444444444444444444",
"4444444;;;2222222233333333333333333<<<--***@@>>>XXXXX###$$$$$$$$$$$$$$$$###XXXXXX>>@@@444444444444444444444444",
"4444444;;;2222222233333333333333333<<<--***@@>>>XXXXX###$$$$$$$$$$$$$$$$###XXXXXX>>@@@444444444444444444444444",
"4444444<<<333;;;<<22222222222333***-----OOO11111XX   ######$$$$$$$$$$$#####   XXX11111OOO444444444444444444444",
"4444444<<<333;;;<<22222222222333***-----OOO11111XX   ######$$$$$$$$$$$#####   XXX11111OOO444444444444444444444",
"4444444<<<333;;;<<22222222222333***-----OOO11111XX   ######$$$$$$$$$$$#####   XXX11111OOO444444444444444444444",
"444444422244444444;;;<<<22222222222---oo---OO@@@XX   XXX###$$$$$$$$$$$##XXX   XXX@@OOO444444444444444444444444",
"444444422244444444;;;<<<22222222222---oo---OO@@@XX   XXX###$$$$$$$$$$$##XXX   XXX@@OOO444444444444444444444444",
"444444433344444444444;;;<<<<<222<<<***--&&&44   OOXXX   #####$$$$$$#####   XXXOOOOO444444444444444444444444444",
"444444433344444444444;;;<<<<<222<<<***--&&&44   OOXXX   #####$$$$$$#####   XXXOOOOO444444444444444444444444444",
"444444433344444444444;;;<<<<<222<<<***--&&&44   OOXXX   #####$$$$$$#####   XXXOOOOO444444444444444444444444444",
"44444442224444444444444444444   ooo---**ooo     ==OOO   XXX##$$$$$$###XX   OOO===  444444444444444444444444444",
"44444442224444444444444444444   ooo---**ooo     ==OOO   XXX##$$$$$$###XX   OOO===  444444444444444444444444444",
"4444444;;;4444444444444444444444******oo   11111  OOOOOO   ###########  OOO:::   44444444444444444444444444444",
"4444444;;;4444444444444444444444******oo   11111  OOOOOO   ###########  OOO:::   44444444444444444444444444444",
"4444444;;;4444444444444444444444******oo   11111  OOOOOO   ###########  OOO:::   44444444444444444444444444444",
"4444444444444444444444444444444444444444   >>111,,,,,,,,   XX######XXX        44444444444444444444444444444444",
"4444444444444444444444444444444444444444   >>111,,,,,,,,   XX######XXX        44444444444444444444444444444444",
"4444444444444444444444444444444444444444444     ,,,,,XXX###  XXXXXX   XX,,,,,,     444444444444444444444444444",
"4444444444444444444444444444444444444444444     ,,,,,XXX###  XXXXXX   XX,,,,,,     444444444444444444444444444",
"4444444444444444444444444444444444444444444     ,,,,,XXX###  XXXXXX   XX,,,,,,     444444444444444444444444444",
"444444444444444444444444444444444444444444444444     XXX#####      #####,,,,,,11111   444444444444444444444444",
"444444444444444444444444444444444444444444444444     XXX#####      #####,,,,,,11111   444444444444444444444444",
"444444444444444444444444444444444444444444444444     XXX#####      #####,,,,,,11111   444444444444444444444444",
"44444444444444444444444444444444444444444444444444   OOOXXX###########XX   ,,,>>>11   444444444444444444444444",
"44444444444444444444444444444444444444444444444444   OOOXXX###########XX   ,,,>>>11   444444444444444444444444",
"44444444444444444444444444444444444444444444444444   OOOXXX###########XX   ,,,>>>11   444444444444444444444444",
"444444444444444444444444444444444444444444444444  ###$$$OOOOOOOOOOOOOOOOXXX        444444444444444444444444444",
"444444444444444444444444444444444444444444444444  ###$$$OOOOOOOOOOOOOOOOXXX        444444444444444444444444444",
"444444444444444444444444444444444444444444444444  XXX$$$$$$$$$$$$$$$$$$$XXXXXX   44444444444444444444444444444",
"444444444444444444444444444444444444444444444444  XXX$$$$$$$$$$$$$$$$$$$XXXXXX   44444444444444444444444444444",
"444444444444444444444444444444444444444444444444  XXX$$$$$$$$$$$$$$$$$$$XXXXXX   44444444444444444444444444444",
"444444444444444444444444444444444444444444444%%%  ...   ###$$$$$$$$$$$##   ...   %%444444444444444444444444444",
"444444444444444444444444444444444444444444444%%%  ...   ###$$$$$$$$$$$##   ...   %%444444444444444444444444444",
"444444444444444444444444444444444444444444444%%%  ...   ###$$$$$$$$$$$##   ...   %%444444444444444444444444444",
"444444444444444444444444444444444444444444444%%%%%   ...+++++      +++++...   %%%%%444444444444444444444444444",
"444444444444444444444444444444444444444444444%%%%%   ...+++++      +++++...   %%%%%444444444444444444444444444",
"444444444444444444444444444444444444444444444%%%%%   ...+++++      +++++...   %%%%%444444444444444444444444444",
"444444444444444444444444444444444444444444444%%%%%%%%        %%%%%%        %%%%%%%%444444444444444444444444444",
"444444444444444444444444444444444444444444444%%%%%%%%        %%%%%%        %%%%%%%%444444444444444444444444444",
"444444444444444444444444444444444444444444444444%%%%%%%%%%%%%%%%%%%%%%%%%%%%%%%%%44444444444444444444444444444",
"444444444444444444444444444444444444444444444444%%%%%%%%%%%%%%%%%%%%%%%%%%%%%%%%%44444444444444444444444444444",
"444444444444444444444444444444444444444444444444%%%%%%%%%%%%%%%%%%%%%%%%%%%%%%%%%44444444444444444444444444444",
"44444444444444444444444444444444444444444444444444444%%%%%%%%%%%%%%%%%%%%%%44444444444444444444444444444444444",
"44444444444444444444444444444444444444444444444444444%%%%%%%%%%%%%%%%%%%%%%44444444444444444444444444444444444",
"44444444444444444444444444444444444444444444444444444%%%%%%%%%%%%%%%%%%%%%%44444444444444444444444444444444444"
};
