/* XPM */
static char *result[] = {
/* columns rows colors chars-per-pixel */
"110 81 24 1 ",
"  c black",
". c #7B1029",
"X c #107B29",
"o c #7B5200",
"O c #734221",
"+ c #6B6B5A",
"@ c #DE2929",
"# c #A57B42",
"$ c #42A529",
"% c #10FF08",
"& c #363243",
"* c #BD8418",
"= c #EFBD21",
"- c yellow",
"; c #FFEF29",
": c #94947B",
"> c #DEAD52",
", c #D6B58C",
"< c #BDFFA5",
"1 c #C6C6AD",
"2 c #FFE7BD",
"3 c #EFEFD6",
"4 c white",
"5 c None",
/* pixels */
"55555555555555555555555555555555555555555555555555555555555555555555555555555555555555555555555555555555555555",
"55555555555555555555555555555555555555555555555555555555555555555555555555555555555555555555555555555555555555",
"55555555555555555555555555555555555555555555555555555555555555555555555555555555555555555555555555555555555555",
"55555555555555555555555555555555555555555555555555555555555555555555555555555555555555555555555555555555555555",
"55555555555555555555555555555555555555555555555555555555555555555555555555555555555555555555555555555555555555",
"55555555555555555555555555555555555555555555555555555555555555555555555555555555555555555555555555555555555555",
"55555555555555555555555555555555555555555555555555555555555555555555555555555555555555555555555555555555555555",
"55555555555555555555555555555555555555555555555555555555555555555555555555555555555555555555555555555555555555",
"55555555555555555555555555555555555555555555555555555555555555555555555555555555555555555555555555555555555555",
"55555555555555555555555555555555555555555533333111555555555555555555555555555555555555555555555555555555555555",
"55555555555555555555555555555555555555555533333111555555555555555555555555555555555555555555555555555555555555",
"55555555555555555555555555555555555555555533333111555555555555555555555555555555555555555555555555555555555555",
"55555555555555555555555555555555555555334444555555555555555555555555555555555555555555555555555555555555555555",
"55555555555555555555555555555555555555334444555555555555555555555555555555555555555555555555555555555555555555",
"55555555555555555555555555555555444444441155555555555555555555555555555555555555555555555555555555555555555555",
"55555555555555555555555555555555444444441155555555555555555555555555555555555555555555555555555555555555555555",
"55555555555555555555555555555555444444441155555555555555555555555555555555555555555555555555555555555555555555",
"555555555555555::::::::555555544444333115555555555555555555555555555555555555555555555555555555555555555555555",
"555555555555555111444443:::44444333111115555555555555555555555OO######OO55555555555555555555555555555555555555",
"555555555555555111444443:::44444333111115555555555555555555555OO######OO55555555555555555555555555555555555555",
"555555555555555111444443:::44444333111115555555555555555555555OO######OO55555555555555555555555555555555555555",
"555555555555555:::334444444444333331115555555555555555555555  >>-------->>>55555555555555555555555555555555555",
"555555555555555:::334444444444333331115555555555555555555555  >>-------->>>55555555555555555555555555555555555",
"555555555555555:::334444444444333331115555555555555555555555  >>-------->>>55555555555555555555555555555555555",
"5555555555555555551133344444443333311155555555555555555555  %%%%%%%%%%%%--->>>55555555555555555555555555555555",
"5555555555555555551133344444443333311155555555555555555555  %%%%%%%%%%%%--->>>55555555555555555555555555555555",
"55555555555555555555444433344444444111::555555555555555   %%%%%%%%%%%%%%%%%--->5555555555555555555555555555555",
"55555555555555555555444433344444444111::555555555555555   %%%%%%%%%%%%%%%%%--->5555555555555555555555555555555",
"55555555555555555555444433344444444111::555555555555555   %%%%%%%%%%%%%%%%%--->5555555555555555555555555555555",
"5555555555555555553344413333334444444433::55   55555   %%%%%%%%%%%%%%%%%%%%$$$-OOO5555555555555555555555555555",
"5555555555555555553344413333334444444433::55   55555   %%%%%%%%%%%%%%%%%%%%$$$-OOO5555555555555555555555555555",
"5555555555555555553344413333334444444433::55   55555   %%%%%%%%%%%%%%%%%%%%$$$-OOO5555555555555555555555555555",
"5555555555555555554433311113333344444444::**===   55   %%%%%%%%%%%%%%%%%%%%$$$>>>>5555555555555555555555555555",
"5555555555555555554433311113333344444444::**===   55   %%%%%%%%%%%%%%%%%%%%$$$>>>>5555555555555555555555555555",
"55555555555555511133555555511133333444**==;;===     $$$%%%%%%%%%%%%%%%%%%%%$$$ ###5555555555555555555555555555",
"55555555555555511133555555511133333444**==;;===     $$$%%%%%%%%%%%%%%%%%%%%$$$ ###5555555555555555555555555555",
"555555555555555444555555555:::44333333==oo;;***555  $$$$$$%%%%%%%%%%%%%%$$$$$$ 5555555555555555555555555555555",
"555555555555555444555555555:::44333333==oo;;***555  $$$$$$%%%%%%%%%%%%%%$$$$$$ 5555555555555555555555555555555",
"555555555555555333555555555555::+++ooo**;;;;###,,,XX$$$$$$%%%%%%%%%%%%%%$$$$$$X,,,##55555555555555555555555555",
"555555555555555333555555555555::+++ooo**;;;;###,,,XX$$$$$$%%%%%%%%%%%%%%$$$$$$X,,,##55555555555555555555555555",
"555555555555555333555555555555::+++ooo**;;;;###,,,XX$$$$$$%%%%%%%%%%%%%%$$$$$$X,,,##55555555555555555555555555",
"55555555555555555555555555555555***;;;;;;;OO222222XX$$$   $$%%%%%%%%%%$$   $$$X22222OOO55555555555555555555555",
"55555555555555555555555555555555***;;;;;;;OO222222XX$$$   $$%%%%%%%%%%$$   $$$X22222OOO55555555555555555555555",
"55555555555555555555555555555555***;;;;;;;OO222222XX$$$   $$%%%%%%%%%%$$   $$$X22222OOO55555555555555555555555",
"55555555555555555555555555555555ooo*****oo55OOO###XXXXX   XX%%%%%%%%%%XX   XXXX###OO55555555555555555555555555",
"55555555555555555555555555555555ooo*****oo55OOO###XXXXX   XX%%%%%%%%%%XX   XXXX###OO55555555555555555555555555",
"55555555555555555555555555555555555555555555   OOOOOXXXXXX  $$%%%%%$$$  XXXXXXOOOO5555555555555555555555555555",
"55555555555555555555555555555555555555555555   OOOOOXXXXXX  $$%%%%%$$$  XXXXXXOOOO5555555555555555555555555555",
"55555555555555555555555555555555555555555555   OOOOOXXXXXX  $$%%%%%$$$  XXXXXXOOOO5555555555555555555555555555",
"55555555555555555555555555555555555555555555   222--OOOXXX  $$%%%%%$$$  XXXOOO-   5555555555555555555555555555",
"55555555555555555555555555555555555555555555   222--OOOXXX  $$%%%%%$$$  XXXOOO-   5555555555555555555555555555",
"55555555555555555555555555555555555555555555   222--OOOXXX  $$%%%%%$$$  XXXOOO-   5555555555555555555555555555",
"55555555555555555555555555555555555555555555555   <<<<<     XX$$$$$XXX         5555555555555555555555555555555",
"55555555555555555555555555555555555555555555555   <<<<<     XX$$$$$XXX         5555555555555555555555555555555",
"55555555555555555555555555555555555555555555555555  <<<<<<XX  XXXXX   XX<<<<<<    5555555555555555555555555555",
"55555555555555555555555555555555555555555555555555  <<<<<<XX  XXXXX   XX<<<<<<    5555555555555555555555555555",
"5555555555555555555555555555555555555555555555555555   XXX$$$$     $$$$$<<<<<<2222  55555555555555555555555555",
"5555555555555555555555555555555555555555555555555555   XXX$$$$     $$$$$<<<<<<2222  55555555555555555555555555",
"5555555555555555555555555555555555555555555555555555   OOOXX$$$$$$$$$$XX      2,,,  55555555555555555555555555",
"5555555555555555555555555555555555555555555555555555   OOOXX$$$$$$$$$$XX      2,,,  55555555555555555555555555",
"5555555555555555555555555555555555555555555555555555   OOOXX$$$$$$$$$$XX      2,,,  55555555555555555555555555",
"55555555555555555555555555555555555555555555555555  $$$%%%OOOOOOOOOOOOOOXXXXXX    5555555555555555555555555555",
"55555555555555555555555555555555555555555555555555  $$$%%%OOOOOOOOOOOOOOXXXXXX    5555555555555555555555555555",
"55555555555555555555555555555555555555555555555555  $$$%%%OOOOOOOOOOOOOOXXXXXX    5555555555555555555555555555",
"55555555555555555555555555555555555555555555555555  XXX%%%%%%%%%%%%%%%$$XXX   55555555555555555555555555555555",
"55555555555555555555555555555555555555555555555555  XXX%%%%%%%%%%%%%%%$$XXX   55555555555555555555555555555555",
"55555555555555555555555555555555555555555555555555&&   $$$%%%%%%%%%$$$$$       5555555555555555555555555555555",
"55555555555555555555555555555555555555555555555555&&   $$$%%%%%%%%%$$$$$       5555555555555555555555555555555",
"55555555555555555555555555555555555555555555555555&&   $$$%%%%%%%%%$$$$$       5555555555555555555555555555555",
"55555555555555555555555555555555555555555555555&&&&&   ...@@@@     ........... &&&5555555555555555555555555555",
"55555555555555555555555555555555555555555555555&&&&&   ...@@@@     ........... &&&5555555555555555555555555555",
"55555555555555555555555555555555555555555555555&&&&&   ...@@@@     ........... &&&5555555555555555555555555555",
"55555555555555555555555555555555555555555555555&&&&&&&&       &&   @@@@@...   &&&&5555555555555555555555555555",
"55555555555555555555555555555555555555555555555&&&&&&&&&&&&&&&&&&&&        &&&&&&&5555555555555555555555555555",
"55555555555555555555555555555555555555555555555&&&&&&&&&&&&&&&&&&&&        &&&&&&&5555555555555555555555555555",
"55555555555555555555555555555555555555555555555&&&&&&&&&&&&&&&&&&&&        &&&&&&&5555555555555555555555555555",
"55555555555555555555555555555555555555555555555555&&&&&&&&&&&&&&&&&&&&&&&&&&&&&5555555555555555555555555555555",
"55555555555555555555555555555555555555555555555555&&&&&&&&&&&&&&&&&&&&&&&&&&&&&5555555555555555555555555555555",
"5555555555555555555555555555555555555555555555555555555&&&&&&&&&&&&&&&&&&&&55555555555555555555555555555555555",
"5555555555555555555555555555555555555555555555555555555&&&&&&&&&&&&&&&&&&&&55555555555555555555555555555555555",
"5555555555555555555555555555555555555555555555555555555&&&&&&&&&&&&&&&&&&&&55555555555555555555555555555555555"
};
