/* XPM */
static char *result[] = {
/* columns rows colors chars-per-pixel */
"64 64 11 1 ",
"  c black",
". c #183090",
"X c #2068C8",
"o c #708890",
"O c #28A0F0",
"+ c #48D0F8",
"@ c #A0B0C0",
"# c #A8E8F8",
"$ c #D0D8E8",
"% c #F8F8F8",
"& c None",
/* pixels */
"&&&&&&&&&&&&&&&&&&&&&&&&&&&&&&&&&&&&&&&&OOOO&&&&&&&&&&&&&&&&&&&&",
"&&&&&&&&&&&&&&&&&&&&&&&&&&&&&&&&&&&&&&&&OOOO&&&&&&&&&&&&&&&&&&&&",
"&&&&&&&&&&&&&&&&&&&&&&&&&&&&&&&&&&&&&&&&OOOO&&&&&&&&&&&&&&&&&&&&",
"&&&&&&&&&&&&&&&&&&&&&&&&&&&&&&&&&&&&&OOOOOOO&&&&&&&&&&&&&&&&&&&&",
"&&&&&&&&&&&&&&&&&&&&&&&&&&&&&&&&&&&&&OOOOOOO&&&&&&&&&&&&&&&&&&&&",
"&&&&&&&&&&&&&&&&&&&&&&&&&&&&&&&&&&&&&OOOOOOO&&&&&&&&&&&&&&&&&&&&",
"&&&&&&&&&&&&&&&&&&&&&&&&&&&&&&&&&&&&&OOOOOOO&&&&&&&&&&&&&&&&&&&&",
"&&&&&&&&&&&&&&&&&&&&&&&&&&&&&&&&&&OOOOOOOOOO&&&&&&&&&&&&&&&&&&&&",
"&&&&&&&&&&&&&&&&&&&&&&&&&&&&&&&&&&OOOOOOOOOO&&&&&&&&&&&&&&&&&&&&",
"&&&&&&&&&&&&&&&&&&&&&&&&&&&&&&&&&&OOOOOOOOOO&&&&&&&&&&&&&&&&&&&&",
"&&&&&&&&&&&&&&&&&&&&&&&&&&&&&&OOOO+++OOOOOOO&&&&&&&&&&&&&&&&&&&&",
"&&&&&&&&&&&&&&&&&&&&&&&&&&&&&&OOOO+++OOOOOOO&&&&&&&&&&&&&&&&&&&&",
"&&&&&&&&&&&&&&&&&&&&&&&&&&&&&&OOOO+++OOOOOOO&&&&&&&&&&&&&&&&&&&&",
"&&&&&&&&&&&&&&&&&OOO&&&&&&&++++++++++OOO&&&&&&&&&&&&&&&&&&&&&&&&",
"&&&&&&&&&&&&&&&&&OOO&&&&&&&++++++++++OOO&&&&&&&&&&&&&&&&&&&&&&&&",
"&&&&&&&&&&&&&&&&&OOO&&&&&&&++++++++++OOO&&&&&&&&&&&&&&&&&&&&&&&&",
"&&&&&&&&&&&&&&&&&OOO&&&&&&&++++++++++OOO&&&&&&&&&&&&&&&&&&&&&&&&",
"&&&&&&&&&&&&&OOOOOOO&&&&&&&+++#######OOO&&&&&&&&&&&&&&&&&&&&&OOO",
"&&&&&&&&&&&&&OOOOOOO&&&&&&&+++#######OOO&&&&&&&&&&&&&&&&&&&&&OOO",
"&&&&&&&&&&&&&OOOOOOO&&&&&&&+++#######OOO&&&&&&&&&&&&&&&&&&&&&OOO",
"&&&&&&&&&&OOOOOOOOOO&&&&@@@XXX+++++++XXX&&&&&&&&&&&&&&&&&OOOOOOO",
"&&&&&&&&&&OOOOOOOOOO&&&&@@@XXX+++++++XXX&&&&&&&&&&&&&&&&&OOOOOOO",
"&&&&&&&&&&OOOOOOOOOO&&&&@@@XXX+++++++XXX&&&&&&&&&&&&&&&&&OOOOOOO",
"&&&&&&&&&&OOOOOOOOOO&&&&@@@XXX+++++++XXX&&&&&&&&&&&&&&&&&OOOOOOO",
"&&&&&&&OOO+++OOOOOOO$$$$%%%%%%.......%%%$$$$@@@&&&&&&&OOOOOOOOOO",
"&&&&&&&OOO+++OOOOOOO$$$$%%%%%%.......%%%$$$$@@@&&&&&&&OOOOOOOOOO",
"&&&&&&&OOO+++OOOOOOO$$$$%%%%%%.......%%%$$$$@@@&&&&&&&OOOOOOOOOO",
"&&&++++++++++OOOO$$$%%%%%%%%%%%%%%%%%%%%%%%%$$$&&&&OOO+++OOOOOOO",
"&&&++++++++++OOOO$$$%%%%%%%%%%%%%%%%%%%%%%%%$$$&&&&OOO+++OOOOOOO",
"&&&++++++++++OOOO$$$%%%%%%%%%%%%%%%%%%%%%%%%$$$&&&&OOO+++OOOOOOO",
"&&&++++######OOOO$$$%%%%%%%%%%%%%%%%%%%%%%%%$$$++++++++++OOOO&&&",
"&&&++++######OOOO$$$%%%%%%%%%%%%%%%%%%%%%%%%$$$++++++++++OOOO&&&",
"&&&++++######OOOO$$$%%%%%%%%%%%%%%%%%%%%%%%%$$$++++++++++OOOO&&&",
"&&&++++######OOOO$$$%%%%%%%%%%%%%%%%%%%%%%%%$$$++++++++++OOOO&&&",
"&&&XXXX++++++XXXX$$$%%%%%%%%%%%%%%%%%%%%%%%%$$$++++######OOOO&&&",
"&&&XXXX++++++XXXX$$$%%%%%%%%%%%%%%%%%%%%%%%%$$$++++######OOOO&&&",
"&&&XXXX++++++XXXX$$$%%%%%%%%%%%%%%%%%%%%%%%%$$$++++######OOOO&&&",
"&&&&&&&......@@@@$$$@@@@$$$%%%%%%%%%%$$$@@@@$$$XXXX++++++XXXX&&&",
"&&&&&&&......@@@@$$$@@@@$$$%%%%%%%%%%$$$@@@@$$$XXXX++++++XXXX&&&",
"&&&&&&&......@@@@$$$@@@@$$$%%%%%%%%%%$$$@@@@$$$XXXX++++++XXXX&&&",
"&&&&&&&&&&&&&@@@@$$$    ooo$$$$$$$$$$ooo    $$$@@@@......&&&&&&&",
"&&&&&&&&&&&&&@@@@$$$    ooo$$$$$$$$$$ooo    $$$@@@@......&&&&&&&",
"&&&&&&&&&&&&&@@@@$$$    ooo$$$$$$$$$$ooo    $$$@@@@......&&&&&&&",
"&&&&&&&&&&&&&@@@@$$$    ooo$$$$$$$$$$ooo    $$$@@@@......&&&&&&&",
"&&&&&&&&&&&&&    $$$    ...@@@$$$$@@@...    $$$    OOO&&&&&&&&&&",
"&&&&&&&&&&&&&    $$$    ...@@@$$$$@@@...    $$$    OOO&&&&&&&&&&",
"&&&&&&&&&&&&&    $$$    ...@@@$$$$@@@...    $$$    OOO&&&&&&&&&&",
"&&&&&&&&&&OOO++++   $$$$$$$$$$oooo$$$$$$$$$$   ####OOO&&&&&&&&&&",
"&&&&&&&&&&OOO++++   $$$$$$$$$$oooo$$$$$$$$$$   ####OOO&&&&&&&&&&",
"&&&&&&&&&&OOO++++   $$$$$$$$$$oooo$$$$$$$$$$   ####OOO&&&&&&&&&&",
"&&&&&&&&&&OOO++++   $$$$$$$$$$oooo$$$$$$$$$$   ####OOO&&&&&&&&&&",
"&&&&&&&&&&XXX++++###    $$$$$$$$$$$$$$$$    ###++++OOO&&&&&&&&&&",
"&&&&&&&&&&XXX++++###    $$$$$$$$$$$$$$$$    ###++++OOO&&&&&&&&&&",
"&&&&&&&&&&XXX++++###    $$$$$$$$$$$$$$$$    ###++++OOO&&&&&&&&&&",
"&&&&&&&&&&...XXXXOOO    $$$   $$$$   $$$    OOOOOOOXXX&&&&&&&&&&",
"&&&&&&&&&&...XXXXOOO    $$$   $$$$   $$$    OOOOOOOXXX&&&&&&&&&&",
"&&&&&&&&&&...XXXXOOO    $$$   $$$$   $$$    OOOOOOOXXX&&&&&&&&&&",
"&&&&&&&&&&&&&....XXX    ooo   oooo   ooo    XXX....&&&&&&&&&&&&&",
"&&&&&&&&&&&&&....XXX    ooo   oooo   ooo    XXX....&&&&&&&&&&&&&",
"&&&&&&&&&&&&&....XXX    ooo   oooo   ooo    XXX....&&&&&&&&&&&&&",
"&&&&&&&&&&&&&....XXX    ooo   oooo   ooo    XXX....&&&&&&&&&&&&&",
"&&&&&&&&&&&&&&&&&&&&&&&&&&&&&&&&&&&&&&&&&&&&&&&&&&&&&&&&&&&&&&&&",
"&&&&&&&&&&&&&&&&&&&&&&&&&&&&&&&&&&&&&&&&&&&&&&&&&&&&&&&&&&&&&&&&",
"&&&&&&&&&&&&&&&&&&&&&&&&&&&&&&&&&&&&&&&&&&&&&&&&&&&&&&&&&&&&&&&&"
};
