/* XPM */
static char *result[] = {
/* columns rows colors chars-per-pixel */
"64 64 10 1 ",
"  c black",
". c #183090",
"X c #2068C8",
"o c #708890",
"O c #28A0F0",
"+ c #48D0F8",
"@ c #A0B0C0",
"# c #D0D8E8",
"$ c #F8F8F8",
"% c None",
/* pixels */
"%%%%%%%%%%%%%%%%%%%%%%%%%%%%%%%%%%%%%%%%%%%%%%%%%%%%%%%%%%%%%%%%",
"%%%%%%%%%%%%%%%%%%%%%%%%%%%%%%%%%%%%%%%%%%%%%%%%%%%%%%%%%%%%%%%%",
"%%%%%%%%%%%%%%%%%%%%%%%%%%%%%%%%%%%%%%%%%%%%%%%%%%%%%%%%%%%%%%%%",
"%%%%%%%%%%%%%%%%%%%%%%%%%%%%%%%%%%%%%%%%%%%%%%%%%%%%%%%%%%%%%%%%",
"%%%%%%%%%%%%%%%%%%%%%%%%%%%%%%%%%%%%%%%%%%%%%%%%%%%%%%%%%%%%%%%%",
"%%%%%%%%%%%%%%%%%%%%%%%%%%%%%%%%%%%%%%%%%%%%%%%%%%%%%%%%%%%%%%%%",
"%%%%%%%%%%%%%%%%%%%%%%%%%%%%%%%%%%%%%%%%%%%%%%%%%%%%%%%%%%%%%%%%",
"%%%%%%%%%%%%%%%%%%%%%%%%XXX%%%XXXX%%%%%%%%%%%%%%%%%%%%%%%%%%%%%%",
"%%%%%%%%%%%%%%%%%%%%%%%%XXX%%%XXXX%%%%%%%%%%%%%%%%%%%%%%%%%%%%%%",
"%%%%%%%%%%%%%%%%%%%%%%%%XXX%%%XXXX%%%%%%%%%%%%%%%%%%%%%%%%%%%%%%",
"%%%%%%%%%%%%%%%%%%%%XXXXOOOXXX%%%%%%%%%%%%%%%%%%%%%%%%%%%%%%%%%%",
"%%%%%%%%%%%%%%%%%%%%XXXXOOOXXX%%%%%%%%%%%%%%%%%%%%%%%%%%%%%%%%%%",
"%%%%%%%%%%%%%%%%%%%%XXXXOOOXXX%%%%%%%%%%%%%%%%%%%%%%%%%%%%%%%%%%",
"%%%%%%%%%%%%%%%%%XXX+++++++OOO%%%%%%%%%%%%%%%%%%%%%%%%%%%%%%%%%%",
"%%%%%%%%%%%%%%%%%XXX+++++++OOO%%%%%%%%%%%%%%%%%%%%%%%%%%%%%%%%%%",
"%%%%%%%%%%%%%%%%%XXX+++++++OOO%%%%%%%%%%%%%%%%%%%%%%%%%%%%%%%%%%",
"%%%%%%%%%%%%%%%%%XXX+++++++OOO%%%%%%%%%%%%%%%%%%%%%%%%%%%%%%%%%%",
"%%%%%%%%%%%%%%%%%OOOOOOO+++OOOOOOO%%%%%%%%%%%%%%%%%XXX%%%XXXX%%%",
"%%%%%%%%%%%%%%%%%OOOOOOO+++OOOOOOO%%%%%%%%%%%%%%%%%XXX%%%XXXX%%%",
"%%%%%%%%%%%%%%%%%OOOOOOO+++OOOOOOO%%%%%%%%%%%%%%%%%XXX%%%XXXX%%%",
"%%%%%%%%%%%%%%%%%%%%....OOOOOOXXXX@@@@@@%%%%%%%XXXXOOOXXX%%%%%%%",
"%%%%%%%%%%%%%%%%%%%%....OOOOOOXXXX@@@@@@%%%%%%%XXXXOOOXXX%%%%%%%",
"%%%%%%%%%%%%%%%%%%%%....OOOOOOXXXX@@@@@@%%%%%%%XXXXOOOXXX%%%%%%%",
"%%%%%%%%%%%%%%%%%%%%....OOOOOOXXXX@@@@@@%%%%%%%XXXXOOOXXX%%%%%%%",
"%%%%%%%%%%%%%%%%%@@@####......$$$$$$$$$$####XXX+++++++OOO%%%%%%%",
"%%%%%%%%%%%%%%%%%@@@####......$$$$$$$$$$####XXX+++++++OOO%%%%%%%",
"%%%%%%%%%%%%%%%%%@@@####......$$$$$$$$$$####XXX+++++++OOO%%%%%%%",
"%%%%%%%XXX%%%XXXX###$$$$$$$$$$$$$$$$$$$$$$$$OOOOOOO+++OOOOOOO%%%",
"%%%%%%%XXX%%%XXXX###$$$$$$$$$$$$$$$$$$$$$$$$OOOOOOO+++OOOOOOO%%%",
"%%%%%%%XXX%%%XXXX###$$$$$$$$$$$$$$$$$$$$$$$$OOOOOOO+++OOOOOOO%%%",
"%%%XXXXOOOXXXoooo###$$$$$$$$$$$$$$$$$$$$$$$$###....OOOOOOXXXX%%%",
"%%%XXXXOOOXXXoooo###$$$$$$$$$$$$$$$$$$$$$$$$###....OOOOOOXXXX%%%",
"%%%XXXXOOOXXXoooo###$$$$$$$$$$$$$$$$$$$$$$$$###....OOOOOOXXXX%%%",
"%%%XXXXOOOXXXoooo###$$$$$$$$$$$$$$$$$$$$$$$$###....OOOOOOXXXX%%%",
"XXX+++++++OOO@@@@###$$$$$$$$$$$$$$$$$$$$$$$$###@@@@......%%%%%%%",
"XXX+++++++OOO@@@@###$$$$$$$$$$$$$$$$$$$$$$$$###@@@@......%%%%%%%",
"XXX+++++++OOO@@@@###$$$$$$$$$$$$$$$$$$$$$$$$###@@@@......%%%%%%%",
"OOOOOOO+++OOOOOOO###@@@@###$$$$$$$$$$###@@@@###@@@@%%%%%%%%%%%%%",
"OOOOOOO+++OOOOOOO###@@@@###$$$$$$$$$$###@@@@###@@@@%%%%%%%%%%%%%",
"OOOOOOO+++OOOOOOO###@@@@###$$$$$$$$$$###@@@@###@@@@%%%%%%%%%%%%%",
"%%%....OOOOOOXXXX###XXXXooo##########oooXXXX###@@@@%%%%%%%%%%%%%",
"%%%....OOOOOOXXXX###XXXXooo##########oooXXXX###@@@@%%%%%%%%%%%%%",
"%%%....OOOOOOXXXX###XXXXooo##########oooXXXX###@@@@%%%%%%%%%%%%%",
"%%%....OOOOOOXXXX###XXXXooo##########oooXXXX###@@@@%%%%%%%%%%%%%",
"%%%%%%%......    ###OOOO+++@@@####@@@+++OOOO###    XXX%%%%%%%%%%",
"%%%%%%%......    ###OOOO+++@@@####@@@+++OOOO###    XXX%%%%%%%%%%",
"%%%%%%%......    ###OOOO+++@@@####@@@+++OOOO###    XXX%%%%%%%%%%",
"%%%%%%%%%%%%%%%%%   ##########oooo##########   OOOOOOO%%%%%%%%%%",
"%%%%%%%%%%%%%%%%%   ##########oooo##########   OOOOOOO%%%%%%%%%%",
"%%%%%%%%%%%%%%%%%   ##########oooo##########   OOOOOOO%%%%%%%%%%",
"%%%%%%%%%%%%%%%%%   ##########oooo##########   OOOOOOO%%%%%%%%%%",
"%%%%%%%%%%%%%%%%%OOO    ################    +++++++XXX%%%%%%%%%%",
"%%%%%%%%%%%%%%%%%OOO    ################    +++++++XXX%%%%%%%%%%",
"%%%%%%%%%%%%%%%%%OOO    ################    +++++++XXX%%%%%%%%%%",
"%%%%%%%%%%%%%XXXXOOO    ###   ####   ###    XXX....%%%%%%%%%%%%%",
"%%%%%%%%%%%%%XXXXOOO    ###   ####   ###    XXX....%%%%%%%%%%%%%",
"%%%%%%%%%%%%%XXXXOOO    ###   ####   ###    XXX....%%%%%%%%%%%%%",
"%%%%%%%%%%%%%....XXX    ooo   oooo   ooo    %%%%%%%%%%%%%%%%%%%%",
"%%%%%%%%%%%%%....XXX    ooo   oooo   ooo    %%%%%%%%%%%%%%%%%%%%",
"%%%%%%%%%%%%%....XXX    ooo   oooo   ooo    %%%%%%%%%%%%%%%%%%%%",
"%%%%%%%%%%%%%....XXX    ooo   oooo   ooo    %%%%%%%%%%%%%%%%%%%%",
"%%%%%%%%%%%%%%%%%...XXXX...%%%%%%%%%%%%%%%%%%%%%%%%%%%%%%%%%%%%%",
"%%%%%%%%%%%%%%%%%...XXXX...%%%%%%%%%%%%%%%%%%%%%%%%%%%%%%%%%%%%%",
"%%%%%%%%%%%%%%%%%...XXXX...%%%%%%%%%%%%%%%%%%%%%%%%%%%%%%%%%%%%%"
};
