/* XPM */
static char *result[] = {
/* columns rows colors chars-per-pixel */
"64 64 11 1 ",
"  c black",
". c #183090",
"X c #2068C8",
"o c #708890",
"O c #28A0F0",
"+ c #48D0F8",
"@ c #A0B0C0",
"# c #A8E8F8",
"$ c #D0D8E8",
"% c #F8F8F8",
"& c None",
/* pixels */
"&&&&&&&&&&&&&&&&&&&&&&&&&&&&&&&&&&&&&&&&&&&&&&&&&&&&&&&&&&&&&&&&",
"&&&&&&&&&&&&&&&&&&&&&&&&&&&&&&&&&&&&&&&&&&&&&&&&&&&&&&&&&&&&&&&&",
"&&&&&&&&&&&&&&&&&&&&&&&&&&&&&&&&&&&&&&&&&&&&&&&&&&&&&&&&&&&&&&&&",
"&&&&&&&&&&&&&&&&&&&&&&&&&&&OOO&&&&&&&&&&&&&&&&&&&&&&&&OOO&&&&&&&",
"&&&&&&&&&&&&&&&&&&&&&&&&&&&OOO&&&&&&&&&&&&&&&&&&&&&&&&OOO&&&&&&&",
"&&&&&&&&&&&&&&&&&&&&&&&&&&&OOO&&&&&&&&&&&&&&&&&&&&&&&&OOO&&&&&&&",
"&&&&&&&&&&&&&&&&&&&&&&&&&&&OOO&&&&&&&&&&&&&&&&&&&&&&&&OOO&&&&&&&",
"&&&&&&&&&&&&&&&&&&&&&&&&OOOOOO&&&&&&&&&&&&&&&&&&&&&OOOOOO&&&&&&&",
"&&&&&&&&&&&&&&&&&&&&&&&&OOOOOO&&&&&&&&&&&&&&&&&&&&&OOOOOO&&&&&&&",
"&&&&&&&&&&&&&&&&&&&&&&&&OOOOOO&&&&&&&&&&&&&&&&&&&&&OOOOOO&&&&&&&",
"&&&&&&&&&&&&&&&&&&&&OOOOOOOOOO&&&&&&&&&&&&&&&&&OOOOOOOOOO&&&&&&&",
"&&&&&&&&&&&&&&&&&&&&OOOOOOOOOO&&&&&&&&&&&&&&&&&OOOOOOOOOO&&&&&&&",
"&&&&&&&&&&&&&&&&&&&&OOOOOOOOOO&&&&&&&&&&&&&&&&&OOOOOOOOOO&&&&&&&",
"&&&&&&&&&&&&&&&&&OOO++++OOOOOO&&&&&&&&&&&&&&OOO++++OOOOOO&&&&&&&",
"&&&&&&&&&&&&&&&&&OOO++++OOOOOO&&&&&&&&&&&&&&OOO++++OOOOOO&&&&&&&",
"&&&&&&&&&&&&&&&&&OOO++++OOOOOO&&&&&&&&&&&&&&OOO++++OOOOOO&&&&&&&",
"&&&&&&&&&&&&&&&&&OOO++++OOOOOO&&&&&&&&&&&&&&OOO++++OOOOOO&&&&&&&",
"&&&&&&&&&&&&&+++++++++++OOO&&&&&&&&&&&&&+++++++++++OOO&&&&&&&&&&",
"&&&&&&&&&&&&&+++++++++++OOO&&&&&&&&&&&&&+++++++++++OOO&&&&&&&&&&",
"&&&&&&&&&&&&&+++++++++++OOO&&&&&&&&&&&&&+++++++++++OOO&&&&&&&&&&",
"&&&&&&&&&&&&&++++#######OOO@@@@@@@@@@@@@++++#######OOO&&&&&&&&&&",
"&&&&&&&&&&&&&++++#######OOO@@@@@@@@@@@@@++++#######OOO&&&&&&&&&&",
"&&&&&&&&&&&&&++++#######OOO@@@@@@@@@@@@@++++#######OOO&&&&&&&&&&",
"&&&&&&&&&&&&&++++#######OOO@@@@@@@@@@@@@++++#######OOO&&&&&&&&&&",
"&&&&&&&&&&&&&XXXX+++++++XXX%%%%%%%%%%%%%XXXX+++++++XXX&&&&&&&&&&",
"&&&&&&&&&&&&&XXXX+++++++XXX%%%%%%%%%%%%%XXXX+++++++XXX&&&&&&&&&&",
"&&&&&&&&&&&&&XXXX+++++++XXX%%%%%%%%%%%%%XXXX+++++++XXX&&&&&&&&&&",
"&&&&&&&&&&&&&OOOO.......%%%%%%%%%%%%%%%%%%%%.......OOO&&&&&&&&&&",
"&&&&&&&&&&&&&OOOO.......%%%%%%%%%%%%%%%%%%%%.......OOO&&&&&&&&&&",
"&&&&&&&&&&&&&OOOO.......%%%%%%%%%%%%%%%%%%%%.......OOO&&&&&&&&&&",
"&&&&&&&&&&OOOoooo$$$%%%%%%%%%%%%%%%%%%%%%%%%$$$ooooOOO&&&&&&&&&&",
"&&&&&&&&&&OOOoooo$$$%%%%%%%%%%%%%%%%%%%%%%%%$$$ooooOOO&&&&&&&&&&",
"&&&&&&&&&&OOOoooo$$$%%%%%%%%%%%%%%%%%%%%%%%%$$$ooooOOO&&&&&&&&&&",
"&&&&&&&&&&OOOoooo$$$%%%%%%%%%%%%%%%%%%%%%%%%$$$ooooOOO&&&&&&&&&&",
"&&&&&&&&&&OOO@@@@$$$%%%%%%%%%%%%%%%%%%%%%%%%$$$@@@@+++&&&&&&&&&&",
"&&&&&&&&&&OOO@@@@$$$%%%%%%%%%%%%%%%%%%%%%%%%$$$@@@@+++&&&&&&&&&&",
"&&&&&&&&&&OOO@@@@$$$%%%%%%%%%%%%%%%%%%%%%%%%$$$@@@@+++&&&&&&&&&&",
"&&&&&&&OOO+++@@@@$$$@@@@$$$%%%%%%%%%%$$$@@@@$$$@@@@+++OOO&&&&&&&",
"&&&&&&&OOO+++@@@@$$$@@@@$$$%%%%%%%%%%$$$@@@@$$$@@@@+++OOO&&&&&&&",
"&&&&&&&OOO+++@@@@$$$@@@@$$$%%%%%%%%%%$$$@@@@$$$@@@@+++OOO&&&&&&&",
"&&&OOOO+++###@@@@$$$    ooo$$$$$$$$$$ooo    $$$@@@@###OOO&&&&&&&",
"&&&OOOO+++###@@@@$$$    ooo$$$$$$$$$$ooo    $$$@@@@###OOO&&&&&&&",
"&&&OOOO+++###@@@@$$$    ooo$$$$$$$$$$ooo    $$$@@@@###OOO&&&&&&&",
"&&&OOOO+++###@@@@$$$    ooo$$$$$$$$$$ooo    $$$@@@@###OOO&&&&&&&",
"&&&XXXX+++###    $$$....OOO@@@$$$$@@@OOO....$$$    +++OOO&&&&&&&",
"&&&XXXX+++###    $$$....OOO@@@$$$$@@@OOO....$$$    +++OOO&&&&&&&",
"&&&XXXX+++###    $$$....OOO@@@$$$$@@@OOO....$$$    +++OOO&&&&&&&",
"&&&....XXXOOOOOOO   $$$$$$$$$$oooo$$$$$$$$$$   OOOOOOOXXX&&&&&&&",
"&&&....XXXOOOOOOO   $$$$$$$$$$oooo$$$$$$$$$$   OOOOOOOXXX&&&&&&&",
"&&&....XXXOOOOOOO   $$$$$$$$$$oooo$$$$$$$$$$   OOOOOOOXXX&&&&&&&",
"&&&....XXXOOOOOOO   $$$$$$$$$$oooo$$$$$$$$$$   OOOOOOOXXX&&&&&&&",
"&&&&&&&...XXX....&&&    $$$$$$$$$$$$$$$$    ...XXXX...&&&&&&&&&&",
"&&&&&&&...XXX....&&&    $$$$$$$$$$$$$$$$    ...XXXX...&&&&&&&&&&",
"&&&&&&&...XXX....&&&    $$$$$$$$$$$$$$$$    ...XXXX...&&&&&&&&&&",
"&&&&&&&&&&&&&&&&&&&&    $$$   $$$$   $$$    &&&&&&&&&&&&&&&&&&&&",
"&&&&&&&&&&&&&&&&&&&&    $$$   $$$$   $$$    &&&&&&&&&&&&&&&&&&&&",
"&&&&&&&&&&&&&&&&&&&&    $$$   $$$$   $$$    &&&&&&&&&&&&&&&&&&&&",
"&&&&&&&&&&&&&&&&&&&&    ooo   oooo   ooo    &&&&&&&&&&&&&&&&&&&&",
"&&&&&&&&&&&&&&&&&&&&    ooo   oooo   ooo    &&&&&&&&&&&&&&&&&&&&",
"&&&&&&&&&&&&&&&&&&&&    ooo   oooo   ooo    &&&&&&&&&&&&&&&&&&&&",
"&&&&&&&&&&&&&&&&&&&&    ooo   oooo   ooo    &&&&&&&&&&&&&&&&&&&&",
"&&&&&&&&&&&&&&&&&&&&&&&&...XXX....&&&&&&&&&&&&&&&&&&&&&&&&&&&&&&",
"&&&&&&&&&&&&&&&&&&&&&&&&...XXX....&&&&&&&&&&&&&&&&&&&&&&&&&&&&&&",
"&&&&&&&&&&&&&&&&&&&&&&&&...XXX....&&&&&&&&&&&&&&&&&&&&&&&&&&&&&&"
};
