/* XPM */
static char *result[] = {
/* columns rows colors chars-per-pixel */
"64 64 10 1 ",
"  c black",
". c #183090",
"X c #2068C8",
"o c #708890",
"O c #28A0F0",
"+ c #48D0F8",
"@ c #A0B0C0",
"# c #D0D8E8",
"$ c #F8F8F8",
"% c None",
/* pixels */
"%%%%%%%%%%%%%%%%%%%%%%%%%%%%%%%%%%%%%%%%%%%%%%%%%%%%%%%%%%%%%%%%",
"%%%%%%%%%%%%%%%%%%%%%%%%%%%%%%%%%%%%%%%%%%%%%%%%%%%%%%%%%%%%%%%%",
"%%%%%%%%%%%%%%%%%%%%%%%%%%%%%%%%%%%%%%%%%%%%%%%%%%%%%%%%%%%%%%%%",
"%%%%%%%%%%%%%%%%%%%%%%%%%%%%%%%%%%%%%%%%%%%%%%%%%%%%%%%%%%%%%%%%",
"%%%%%%%%%%%%%%%%%%%%%%%%%%%%%%%%%%%%%%%%%%%%%%%%%%%%%%%%%%%%%%%%",
"%%%%%%%%%%%%%%%%%%%%%%%%%%%%%%%%%%%%%%%%%%%%%%%%%%%%%%%%%%%%%%%%",
"%%%%%%%%%%%%%%%%%%%%%%%%%%%%%%%%%%%%%%%%%%%%%%%%%%%%%%%%%%%%%%%%",
"%%%%%%%%%%%%%%%%%%%%%%%%%%%%%%%%%%%%%XXX%%%%XXX%%%%%%%%%%%%%%%%%",
"%%%%%%%%%%%%%%%%%%%%%%%%%%%%%%%%%%%%%XXX%%%%XXX%%%%%%%%%%%%%%%%%",
"%%%%%%%%%%%%%%%%%%%%%%%%%%%%%%%%%%%%%XXX%%%%XXX%%%%%%%%%%%%%%%%%",
"%%%%%%%%%%%%%%%%%%%%%%%%%%%%%%%%%%XXXOOOXXXX%%%%%%%%%%%%%%%%%%%%",
"%%%%%%%%%%%%%%%%%%%%%%%%%%%%%%%%%%XXXOOOXXXX%%%%%%%%%%%%%%%%%%%%",
"%%%%%%%%%%%%%%%%%%%%%%%%%%%%%%%%%%XXXOOOXXXX%%%%%%%%%%%%%%%%%%%%",
"%%%%%%%%%%%%%%%%%%%%%%%%%%%%%%XXXX++++++OOOO%%%%%%%%%%%%%%%%%%%%",
"%%%%%%%%%%%%%%%%%%%%%%%%%%%%%%XXXX++++++OOOO%%%%%%%%%%%%%%%%%%%%",
"%%%%%%%%%%%%%%%%%%%%%%%%%%%%%%XXXX++++++OOOO%%%%%%%%%%%%%%%%%%%%",
"%%%%%%%%%%%%%%%%%%%%%%%%%%%%%%XXXX++++++OOOO%%%%%%%%%%%%%%%%%%%%",
"%%%%%%%%%%XXX%%%%XXX%%%%%%%%%%OOOOOOO+++OOOOOOO%%%%%%%%%%%%%%%%%",
"%%%%%%%%%%XXX%%%%XXX%%%%%%%%%%OOOOOOO+++OOOOOOO%%%%%%%%%%%%%%%%%",
"%%%%%%%%%%XXX%%%%XXX%%%%%%%%%%OOOOOOO+++OOOOOOO%%%%%%%%%%%%%%%%%",
"%%%%%%%XXXOOOXXXX%%%%%%%@@@@@@@@@@...OOOOOOOXXX%%%%%%%%%%%%%%%%%",
"%%%%%%%XXXOOOXXXX%%%%%%%@@@@@@@@@@...OOOOOOOXXX%%%%%%%%%%%%%%%%%",
"%%%%%%%XXXOOOXXXX%%%%%%%@@@@@@@@@@...OOOOOOOXXX%%%%%%%%%%%%%%%%%",
"%%%%%%%XXXOOOXXXX%%%%%%%@@@@@@@@@@...OOOOOOOXXX%%%%%%%%%%%%%%%%%",
"%%%XXXX++++++OOOO@@@####$$$$$$$$$$$$$.......@@@%%%%%%%%%%%%%%%%%",
"%%%XXXX++++++OOOO@@@####$$$$$$$$$$$$$.......@@@%%%%%%%%%%%%%%%%%",
"%%%XXXX++++++OOOO@@@####$$$$$$$$$$$$$.......@@@%%%%%%%%%%%%%%%%%",
"%%%OOOOOOO+++OOOOOOO$$$$$$$$$$$$$$$$$$$$$$$$###%%%%%%%%%%%%%%%%%",
"%%%OOOOOOO+++OOOOOOO$$$$$$$$$$$$$$$$$$$$$$$$###%%%%%%%%%%%%%%%%%",
"%%%OOOOOOO+++OOOOOOO$$$$$$$$$$$$$$$$$$$$$$$$###%%%%%%%%%%%%%%%%%",
"%%%%%%%...OOOOOOOXXX$$$$$$$$$$$$$$$$$$$$$$$$###oooo%%%OOO%%%%%%%",
"%%%%%%%...OOOOOOOXXX$$$$$$$$$$$$$$$$$$$$$$$$###oooo%%%OOO%%%%%%%",
"%%%%%%%...OOOOOOOXXX$$$$$$$$$$$$$$$$$$$$$$$$###oooo%%%OOO%%%%%%%",
"%%%%%%%...OOOOOOOXXX$$$$$$$$$$$$$$$$$$$$$$$$###oooo%%%OOO%%%%%%%",
"%%%%%%%%%%.......###$$$$$$$$$$$$$$$$$$$$$$$$###@@@@XXXOOOXXXX%%%",
"%%%%%%%%%%.......###$$$$$$$$$$$$$$$$$$$$$$$$###@@@@XXXOOOXXXX%%%",
"%%%%%%%%%%.......###$$$$$$$$$$$$$$$$$$$$$$$$###@@@@XXXOOOXXXX%%%",
"%%%%%%%%%%%%%@@@@###@@@@###$$$$$$$$$$###@@@@###@@@@+++OOOOOOO%%%",
"%%%%%%%%%%%%%@@@@###@@@@###$$$$$$$$$$###@@@@###@@@@+++OOOOOOO%%%",
"%%%%%%%%%%%%%@@@@###@@@@###$$$$$$$$$$###@@@@###@@@@+++OOOOOOO%%%",
"%%%%%%%%%%%%%@@@@###    ooo##########ooo    ###@@@@++++++XXXX%%%",
"%%%%%%%%%%%%%@@@@###    ooo##########ooo    ###@@@@++++++XXXX%%%",
"%%%%%%%%%%%%%@@@@###    ooo##########ooo    ###@@@@++++++XXXX%%%",
"%%%%%%%%%%%%%@@@@###    ooo##########ooo    ###@@@@++++++XXXX%%%",
"%%%%%%%%%%OOO    ###    ...@@@####@@@...    ###    XXX...%%%%%%%",
"%%%%%%%%%%OOO    ###    ...@@@####@@@...    ###    XXX...%%%%%%%",
"%%%%%%%%%%OOO    ###    ...@@@####@@@...    ###    XXX...%%%%%%%",
"%%%%%%%XXXOOO++++   ##########oooo##########   %%%%%%%%%%%%%%%%%",
"%%%%%%%XXXOOO++++   ##########oooo##########   %%%%%%%%%%%%%%%%%",
"%%%%%%%XXXOOO++++   ##########oooo##########   %%%%%%%%%%%%%%%%%",
"%%%%%%%XXXOOO++++   ##########oooo##########   %%%%%%%%%%%%%%%%%",
"%%%%%%%...XXX+++++++    ################    %%%%%%%%%%%%%%%%%%%%",
"%%%%%%%...XXX+++++++    ################    %%%%%%%%%%%%%%%%%%%%",
"%%%%%%%...XXX+++++++    ################    %%%%%%%%%%%%%%%%%%%%",
"%%%%%%%%%%...XXXX...    ###   ####   ###    %%%%%%%%%%%%%%%%%%%%",
"%%%%%%%%%%...XXXX...    ###   ####   ###    %%%%%%%%%%%%%%%%%%%%",
"%%%%%%%%%%...XXXX...    ###   ####   ###    %%%%%%%%%%%%%%%%%%%%",
"%%%%%%%%%%%%%%%%%%%%    ooo   oooo   ooo    %%%%%%%%%%%%%%%%%%%%",
"%%%%%%%%%%%%%%%%%%%%    ooo   oooo   ooo    %%%%%%%%%%%%%%%%%%%%",
"%%%%%%%%%%%%%%%%%%%%    ooo   oooo   ooo    %%%%%%%%%%%%%%%%%%%%",
"%%%%%%%%%%%%%%%%%%%%    ooo   oooo   ooo    %%%%%%%%%%%%%%%%%%%%",
"%%%%%%%%%%%%%%%%%%%%%%%%%%%%%%....XXX...%%%%%%%%%%%%%%%%%%%%%%%%",
"%%%%%%%%%%%%%%%%%%%%%%%%%%%%%%....XXX...%%%%%%%%%%%%%%%%%%%%%%%%",
"%%%%%%%%%%%%%%%%%%%%%%%%%%%%%%....XXX...%%%%%%%%%%%%%%%%%%%%%%%%"
};
