/* XPM */
static char *result[] = {
/* columns rows colors chars-per-pixel */
"18 18 5 1 ",
"  c black",
". c #706060",
"X c #C0B0B0",
"o c #F8F8F8",
"O c None",
/* pixels */
"OO...........OOOOO",
"OO...........OOOOO",
"..XXooooooo.....OO",
"..XXooooooo.....OO",
"..ooooo  oooo   OO",
"..ooooo  oooo   OO",
"..ooooo  oooo   OO",
"..ooooo  oooo   OO",
"..ooooo  oooo   OO",
"..ooooo  oooo   OO",
"..ooooo  oooo   OO",
"..ooooo  oooo   OO",
"..ooooo  oooo   OO",
"....ooooooo..   OO",
"....ooooooo..   OO",
"....ooooooo..   OO",
"OO           OOOOO",
"OO           OOOOO"
};
