/* XPM */
static char *result[] = {
/* columns rows colors chars-per-pixel */
"18 18 4 1 ",
"  c black",
". c #706060",
"X c #F8F8F8",
"o c None",
/* pixels */
"................  ",
"................  ",
"..XXXXXXXXXXXXXX  ",
"..XXXXXXXXXXXXXX  ",
"..XXXXX         ..",
"..XXXXX         ..",
"..XXXXX         ..",
"..XXXXXXXXXXX   ..",
"..XXXXXXXXXXX   ..",
"           XXXXX  ",
"           XXXXX  ",
"  XXXXX    XXXXX  ",
"  XXXXX    XXXXX  ",
"..  XXXXXXXXX   ..",
"..  XXXXXXXXX   ..",
"..  XXXXXXXXX   ..",
"oo..         ...oo",
"oo..         ...oo"
};
