/* XPM */
static char *result[] = {
/* columns rows colors chars-per-pixel */
"18 18 3 1 ",
"  c black",
". c #F8F8F8",
"X c None",
/* pixels */
"XXXXXXXXXXXXXXXXXX",
"XXXXXXXXXXXXXXXXXX",
"             XXXXX",
"             XXXXX",
"  ..     ..  XXXXX",
"  ..     ..  XXXXX",
"  ..     ..  XXXXX",
"    .....    XXXXX",
"    .....    XXXXX",
"    .....    XXXXX",
"    .....    XXXXX",
"  ..     ..  XXXXX",
"  ..     ..  XXXXX",
"             XXXXX",
"             XXXXX",
"             XXXXX",
"XXXXXXXXXXXXXXXXXX",
"XXXXXXXXXXXXXXXXXX"
};
