/* XPM */
static char *result[] = {
/* columns rows colors chars-per-pixel */
"23 18 13 1 ",
"  c black",
". c #107828",
"X c #704020",
"o c #A07840",
"O c #40A028",
"+ c #10F808",
"@ c #F8F800",
"# c #D8A850",
"$ c #3050F8",
"% c #D0B088",
"& c #F8E0B8",
"* c #F8F8F8",
"= c None",
/* pixels */
"======  ..OOO.   ======",
"===== O+++++++++O =====",
"=====.+++++++++++.=====",
"=====.+++++++++++.=====",
"==   o#@@@@@@@@@@#  ===",
"==   o#@@@@@@@@@@#  ===",
"=oXXX#@#@@@##ooo#oXXoo=",
"X&&&&@#@@@#XX%&&o@&&&&X",
"= ###X##XXX%%&&&%o%%  =",
"= ###X##XXX%%&&&%o%%  =",
"==   X XXX%&&%XX X  ===",
"==   o*$XX&&&X$$*o  ===",
"===== &$**&&&*$$& =====",
"===== o&&&&&&&&&o =====",
"===== o&&&&&&&&&o =====",
"===== o&&&&&&&&&o =====",
"======  %%&&&%   ======",
"========      ========="
};
