/* XPM */
static char *result[] = {
/* columns rows colors chars-per-pixel */
"17 18 7 1 ",
"  c black",
". c #506068",
"X c #708890",
"o c #A0B0C0",
"O c #D0D8E8",
"+ c #F8F8F8",
"@ c None",
/* pixels */
"@@@           @@@",
"@  XXO+++++OXX  @",
"@  XXO+++++OXX  @",
" XX+++++++++++XX ",
" OOoo +++++ ooOO ",
" OOoo +++++ ooOO ",
" ++   +++++   ++ ",
" ++   +++++   ++ ",
" OO  .++X++.  OO ",
" OO+++XX.XX+++OO ",
" XXOO+++++++OOXX ",
" XXOO+++++++OOXX ",
"@  ..XoooooX..  @",
"@@@           @@@",
"@@@           @@@",
"@@@  +XX+XX+  @@@",
"@@@  +XX+XX+  @@@",
"@@@           @@@"
};
