/* XPM */
static char *result[] = {
/* columns rows colors chars-per-pixel */
"96 110 24 1 ",
"  c black",
". c #7B1029",
"X c #107B29",
"o c #734221",
"O c #6B6B5A",
"+ c #DE2929",
"@ c #A57B42",
"# c #42A529",
"$ c #10FF08",
"% c #363243",
"& c #BD8418",
"* c #EFBD21",
"= c yellow",
"- c #FFEF29",
"; c #94947B",
": c #DEAD52",
"> c #3152FF",
", c #D6B58C",
"< c #BDFFA5",
"1 c #C6C6AD",
"2 c #FFE7BD",
"3 c #EFEFD6",
"4 c white",
"5 c None",
/* pixels */
"555555555555555555555555555555555555555555555555555555555555555555555555555555555555555555555555",
"555555555555555555555555555555555555555555555555555555555555555555555555555555555555555555555555",
"555555555555555555555555555555555555555555555555555555555555555555555555555555555555555555555555",
"555555555555555555555555555555555555555555555555555555555555555555555555555555555555555555555555",
"555555555555555555555555555555555555555555555555555555555555555555555555555555555555555555555555",
"555555555555555555555555555555555555555555555555555555555555555555555555555555555555555555555555",
"555555555555555555555555555555555555555555555555555555555555555555555555555555555555555555555555",
"555555555555555555555555555555555555555555555555555555555555555555555555555555555555555555555555",
"555555555555555555555555555555555555555555555555555555555555555555555555555555555555555555555555",
"555555555555555555555555555555555555555555555555555555555555555555555555555555555555555555555555",
"555555555555555555555555555555555555555555555555555555555555555555555555555555555555555555555555",
"555555555555555555555555555555555555555555555555555555555555555555555555555555555555555555555555",
"555555555555555555555555555555555555555555555555555555555555555555555555555555555555555555555555",
"555555555555555555555555555555555555555555555555555555555555555555555555555555555555555555555555",
"555555555555555555555555555555555555555555555555555555555555555555555555555555555555555555555555",
"555555555555555555555555555555555555555555555555555555555555555555555555555555555555555555555555",
"555555555555555555555555555555555555555555555555555555555555555555555555555555555555555555555555",
"555555555555555555555555555555555555555555555555555555555555555555555555555555555555555555555555",
"555555555555555555555555555555555555555555555555555555555555555555555555555555555555555555555555",
"555555555555555555555555555555555555555555555555555555555555533555555555555555555555555555555555",
"555555555555555555555555555555555555555555555555555555555555533555555555555555555555555555555555",
"555555555555555555555555555555555555555555555555555555555555533555555555555555555555555555555555",
"555555555555555555555555555555555555555555555555555555555555555133333555555555555555555555555555",
"555555555555555555555555555555555555555555555555555555555555555133333555555555555555555555555555",
"555555555555555555555555555555555555555555555555555555555555555133333555555555555555555555555555",
"555555555555555555555555555555555555555555555555555555555555555133333555555555555555555555555555",
"555555555555555555555555555555555555555555555555555555555555555533333455555555555555555555555555",
"555555555555555555555555555555555555555555555555555555555555555533333455555555555555555555555555",
"555555555555555555555555555555555555555555555555555555555555555511111344555555555555555555555555",
"555555555555555555555555555555555555555555555555555555555555555511111344555555555555555555555555",
"555555555555555555555555555555555555555555555555555555555555555555555144333555555555555555555555",
"555555555555555555555555555555555555555555555555555555555555555555555144333555555555555555555555",
"555555555555555555555555555555555555555555555555555555555555555555555144333555555555555555555555",
"555555555555555555555555555555555555###$$$$$$$$#o===:::@@555555555555133444333555555555555555555",
"555555555555555555555555555555555555###$$$$$$$$#o===:::@@555555555555133444333555555555555555555",
"555555555555555555555555555555555555###$$$$$$$$#o===:::@@555555555555133444333555555555555555555",
"55555555555555555555555555555###$$$$$$$$$$$$$$$$=========@@@@55555555533444444555555555555555555",
"55555555555555555555555555555###$$$$$$$$$$$$$$$$=========@@@@55555555533444444555555555555555555",
"55555555555555555555555555555###$$$$$$$$$$$$$$$$=========@@@@55555555533444444555555555555555555",
"555555555555555555555555##$$$$$$$$$$$$$$$$$$$$$::::::::======@@555555511444444555555555555555555",
"5555555555555555555XXX#######$$$$$$$$$$$$$$$$$$==@@@@@@::====@@555555511333444555555555555555555",
"555555555555555555X#############$$$$$$$$$$$$=====@@@,,,oo::::oo555555511333444333555555555555555",
"555555555555555555X#############$$$$$$$$$$$$=====@@@,,,oo::::oo555555511333444333555555555555555",
"555555555555555555X#############$$$$$$$$$$$$=====@@@,,,oo::::oo555555511333444333555555555555555",
"5555555555555555XX##################$$$$$$======@,,,,,,oooooo&&555555111333444333555555555555555",
"5555555555555555XX##################$$$$$$======@,,,,,,oooooo&&555555111333444333555555555555555",
"5555555555555555XX##################$$$$$$======@,,,,,,oooooo&&555555111333444333555555555555555",
"55555555555555  XX        XXXXXXXXX####XXXoo@@@,2   ooo  ----OO1333333333333333333333333OOO55555",
"55555555555555  XX        XXXXXXXXX####XXXoo@@@,2   ooo  ----OO1333333333333333333333333OOO55555",
"55555555555555  XX        XXXXXXXXX####XXXoo@@@,2   ooo  ----OO1333333333333333333333333OOO55555",
"55555555555555    55555555   XXXXXX2222,,,oo:::@2444>>>,,    ---333333444444444444444444;;;55555",
"55555555555555    55555555   XXXXXX2222,,,oo:::@2444>>>,,    ---333333444444444444444444;;;55555",
"55555555555555    55555555   XXXXXX2222,,,oo:::@2444>>>,,    ---333333444444444444444444;;;55555",
"55555555555555    55555555   XXXXXX2222,,,oo:::@2444>>>,,    ---333333444444444444444444;;;55555",
"55555555555555    55555555   XXXXXX2222,,,oo:::@2444>>>,,    ---333333444444444444444444;;;55555",
"55555555555555555555555555555555    @@@   ==ooo,2222,,,  ------344444433111111;;;555555555555555",
"55555555555555555555555555555555    @@@   ==ooo,2222,,,  ------344444433111111;;;555555555555555",
"55555555555555555555555555555555    @@@   ==ooo,2222,,,  ------344444433111111;;;555555555555555",
"55555555555555555555555555555555===:      ==ooo,,,,,     ----&& 33333155555555333555555555555555",
"55555555555555555555555555555555===:      ==ooo,,,,,     ----&& 33333155555555333555555555555555",
"55555555555555555555555555555555===:      ==ooo,,,,,     ----&& 33333155555555333555555555555555",
"55555555555555555555555555555555===:      ==ooo,,,,,     ----&& 33333155555555333555555555555555",
"55555555555555555555555555      ###$###XXXXX        22222    **&55555555555555333555555555555555",
"55555555555555555555555555      ###$###XXXXX        22222    **&55555555555555333555555555555555",
"555555555555555555555555  $$$$$$ooo$$$$###<<<<<<<<<<22222       55555555555555333555555555555555",
"555555555555555555555555  $$$$$$oooo$$$###oo<<<<<ooo     555555555555555555555333555555555555555",
"555555555555555555555555  $$$$$$oooo$$$###oo<<<<<ooo     555555555555555555555333555555555555555",
"555555555555555555555555  $$$$$$oooo$$$###oo<<<<<ooo     555555555555555555555333555555555555555",
"555555555555555555555555  $$$$$$oooo$$$###oo<<<<<ooo     555555555555555555555333555555555555555",
"5555555555555555555%%%%%        $$$$$$$$$$##XXX 555555555555555555555555555555555555555555555555",
"5555555555555555555%%%%%        $$$$$$$$$$##XXX 555555555555555555555555555555555555555555555555",
"555555555555555555%%%%%%  +++...   #$$$###XX           55555555555555555555555555555555555555555",
"555555555555555555%%%%%%  +++...   #$$$###XX           55555555555555555555555555555555555555555",
"555555555555555555%%%%%%  +++...   #$$$###XX           55555555555555555555555555555555555555555",
"555555555555555555%%%%%%%%                  .....++++++  555555555555555555555555555555555555555",
"555555555555555555%%%%%%%%                  .....++++++  555555555555555555555555555555555555555",
"555555555555555555%%%%%%%%                  .....++++++  555555555555555555555555555555555555555",
"555555555555555555%%%%%%%%%%%%%%%%%%%%%%%%      +++++++  555555555555555555555555555555555555555",
"555555555555555555%%%%%%%%%%%%%%%%%%%%%%%%      +++++++  555555555555555555555555555555555555555",
"555555555555555555%%%%%%%%%%%%%%%%%%%%%%%%      +++++++  555555555555555555555555555555555555555",
"555555555555555555%%%%%%%%%%%%%%%%%%%%%%%%      +++++++  555555555555555555555555555555555555555",
"555555555555555555555555%%%%%%%%%%%%%%%%%%%%5555555555555555555555555555555555555555555555555555",
"555555555555555555555555%%%%%%%%%%%%%%%%%%%%5555555555555555555555555555555555555555555555555555",
"555555555555555555555555555555555555555555555555555555555555555555555555555555555555555555555555",
"555555555555555555555555555555555555555555555555555555555555555555555555555555555555555555555555",
"555555555555555555555555555555555555555555555555555555555555555555555555555555555555555555555555",
"555555555555555555555555555555555555555555555555555555555555555555555555555555555555555555555555",
"555555555555555555555555555555555555555555555555555555555555555555555555555555555555555555555555",
"555555555555555555555555555555555555555555555555555555555555555555555555555555555555555555555555",
"555555555555555555555555555555555555555555555555555555555555555555555555555555555555555555555555",
"555555555555555555555555555555555555555555555555555555555555555555555555555555555555555555555555",
"555555555555555555555555555555555555555555555555555555555555555555555555555555555555555555555555",
"555555555555555555555555555555555555555555555555555555555555555555555555555555555555555555555555",
"555555555555555555555555555555555555555555555555555555555555555555555555555555555555555555555555",
"555555555555555555555555555555555555555555555555555555555555555555555555555555555555555555555555",
"555555555555555555555555555555555555555555555555555555555555555555555555555555555555555555555555",
"555555555555555555555555555555555555555555555555555555555555555555555555555555555555555555555555",
"555555555555555555555555555555555555555555555555555555555555555555555555555555555555555555555555",
"555555555555555555555555555555555555555555555555555555555555555555555555555555555555555555555555",
"555555555555555555555555555555555555555555555555555555555555555555555555555555555555555555555555",
"555555555555555555555555555555555555555555555555555555555555555555555555555555555555555555555555",
"555555555555555555555555555555555555555555555555555555555555555555555555555555555555555555555555",
"555555555555555555555555555555555555555555555555555555555555555555555555555555555555555555555555",
"555555555555555555555555555555555555555555555555555555555555555555555555555555555555555555555555",
"555555555555555555555555555555555555555555555555555555555555555555555555555555555555555555555555",
"555555555555555555555555555555555555555555555555555555555555555555555555555555555555555555555555",
"555555555555555555555555555555555555555555555555555555555555555555555555555555555555555555555555",
"555555555555555555555555555555555555555555555555555555555555555555555555555555555555555555555555",
"555555555555555555555555555555555555555555555555555555555555555555555555555555555555555555555555",
"555555555555555555555555555555555555555555555555555555555555555555555555555555555555555555555555"
};
