/* XPM */
static char *result[] = {
/* columns rows colors chars-per-pixel */
"96 110 25 1 ",
"  c black",
". c #7B1029",
"X c #107B29",
"o c #7B5200",
"O c #734221",
"+ c #6B6B5A",
"@ c #DE2929",
"# c #A57B42",
"$ c #42A529",
"% c #10FF08",
"& c #363243",
"* c #BD8418",
"= c #EFBD21",
"- c yellow",
"; c #FFEF29",
": c #94947B",
"> c #DEAD52",
", c #3152FF",
"< c #D6B58C",
"1 c #BDFFA5",
"2 c #C6C6AD",
"3 c #FFE7BD",
"4 c #EFEFD6",
"5 c white",
"6 c None",
/* pixels */
"666666666666666666666666666666666666666666666666666666666666666666666666666666666666666666666666",
"666666666666666666666666666666666666666666666666666666666666666666666666666666666666666666666666",
"666666666666666666666666666666666666666666666666666666666666666666666666666666666666666666666666",
"666666666666666666666666666666666666666666666666666666666666666666666666666666666666666666666666",
"666666666666666666666666666666666666666666666666666666666666666666666666666666666666666666666666",
"666666666666666666666666666666666666666666666666666666666666666666666666666666666666666666666666",
"666666666666666666666666666666666666666666666666666666666666666666666666666666666666666666666666",
"666666666666666666666666666666666666666666666666666666666666666666666666666666666666666666666666",
"666666666666666666666666666666666666666666666666666666666666666666666666666666666666666666666666",
"666666666666666666666666666666666666666666666666666666666666666666666666666666666666666666666666",
"666666666666666666666666666666666666666666666666666666666666666666666666666666666666666666666666",
"666666666666666666666666666666666666666666666666666666666666666666666666666666666666666666666666",
"666666666666666666666666666666666666666666666666666666666666666666666666666666666666666666666666",
"666666666666666666666666666666666666666666666666666666666666666666666666666666666666666666666666",
"666666666666666666666666666666666666666666666666666666666666666666666666666666666666666666666666",
"666666666666666666666666666666666666666666666666666666666666666666666666666666666666666666666666",
"666666666666666666666666666666666666666666666666666666666666666666666666666666666666666666666666",
"666666666666666666666666666666666666666666666666666666666666666666666666666666666666666666666666",
"666666666666666666666666666666666666666666666666666666666666666666666666666666666666666666666666",
"666666666666666666666666666666666666666666666666666666666666666666666666666666666666666666666666",
"666666666666666666666666666666666666666666666666666666666666666666666666666666666666666666666666",
"666666666666666666666666666666666666666666666666666666666666666666666666666666666666666666666666",
"6666666666666666666$$$$$$$%%%%%%$$$OOOO#####6666666666666666666666666666666666666666666666666666",
"6666666666666666666$$$$$$$%%%%%%$$$OOOO#####6666666666666666666666666666666666666666666666666666",
"6666666666666666666$$$$$$$%%%%%%$$$OOOO#####6666666666666666666666666666666666666666666666666666",
"6666666666666666666$$$$$$$%%%%%%$$$OOOO#####6666666666666666666666666666666666666666666666666666",
"6666666666666666666$$$$$$$%%%%%%$$$OOOO#####6666666666666666666666666666666666666666666666666666",
"666666666666666666$%%%%%%%%%%%%%%%%%%%%----->>>#666666666666666666666666666666666666666666666666",
"666666666666666666$%%%%%%%%%%%%%%%%%%%%----->>>#666666666666666666666666666666666666666666666666",
"666666666666XXX%%%%%%%%%%%%%%%%%%%%>>>>>>>>>----#66666666666666666666666666666666666666666666666",
"666666666XXX%%%%%%%%%%%%%%%%%%%%%%%------###>>>--#####666666666666666666666666666666666666666666",
"666666666XXX%%%%%%%%%%%%%%%%%%%%%%%------###>>>--#####666666666666666666666666666666666666666666",
"666666666XXX%%%%%%%%%%%%%%%%%%%%%%%------###>>>--#####666666666666666666666666666666666666666666",
"666666666XXX%%%%%%%%%%%%%%%%%%%%%%%------###>>>--#####666666666666666666666666666666666666666666",
"666666666XXX%%%%%%%%%%%%%%%%%%%%%%%------###>>>--#####666666666666666666666666666666666666666666",
"666666XXX$$$$$$%%%%%%%%%%%%%%%%%-------##<<<OOO>-OOOOO666666666666666666666666666666666666666666",
"666666$$$$$$$$$$$$$$$$$$%%%%%%%%-------<<333<<<OO66666666666666666666666666666666666666666666666",
"666666$$$$$$$$$$$$$$$$$$%%%%%%%%-------<<333<<<OO66666666666666666666666666666666666666666666666",
"666666$$$$$$$$$$$$$$$$$$%%%%%%%%-------<<333<<<OO66666666666666666666666666666666666666666666666",
"666666$$$$$$$$$$$$$$$$$$%%%%%%%%-------<<333<<<OO66666666666666666666666666666666666666666666666",
"666666$$$$$$$$$$$$$$$$$$%%%%%%%%-------<<333<<<OO66666666666666666666666666666666666666666666666",
"66666 $$$XXXXXXXXXXXXXXX$$XXXOOO###<<<<33   OOO 666666666666666666666666666666666666666666666666",
"66666 $$$XXXXXXXXXXXXXXX$$XXXOOO###<<<<33   OOO 666666666666666666666666666666666666666666666666",
"66666 $$$XXXXXXXXXXXXXXX$$XXXOOO###<<<<33   OOO 666666666666666666666666666666666666666666666666",
"66666 $$$XXXXXXXXXXXXXXX$$XXXOOO###<<<<33   OOO 666666666666666666666666666666666666666666666666",
"66666 $$$XXXXXXXXXXXXXXX$$XXXOOO###<<<<33   OOO 666666666666666666666666666666666666666666666666",
"     $XXX      XXX 3333333<<<OOO>>>####33555,,,< 66666666666666666666666666666666666666666666666",
"     $XXX      XXX 3333333<<<OOO>>>####33555,,,< 66666666666666666666666666666666666666666666666",
"     X   666666    #####33333   ---OOOO33555,,,< 66666666666666666666666666666666666666666666666",
"     X   666666    #####33333   ---OOOO33555,,,< 66666666666666666666666666666666666666666666666",
"     X   666666    #####33333   ---OOOO33555,,,< 66666666666666666666666666666666666666666666666",
"66666 666666666666      ##<<<   ---OOOO33333<<< 666666666666666666666666666666666666666666666666",
"66666 666666666666      ##<<<   ---OOOO33333<<< 666666666666666666666666666666666666666666666666",
"66666 666666666666      ##<<<   ---OOOO33333<<< 666666666666666666666666666666666666666666666666",
"66666 666666666666      ##<<<   ---OOOO33333<<< 666666666666666666666666666666666666666666666666",
"666666666666666666->>>>>        ---OOOO<<<<<   6666666666666666666666666666666666666666666666666",
"666666666666666666->>>>>        ---OOOO<<<<<   6666666666666666666666666666666666666666666666666",
"6666666666666666666     XX$$$   >>>         6666666666666666666666666666666666666666666666666666",
"6666666666666666666     XX$$$   >>>         6666666666666666666666666666666666666666666666666666",
"6666666666666666666     XX$$$   >>>         6666666666666666666666666666666666666666666666666666",
"6666666666666666666     XX$$$   >>>         6666666666666666666666666666666666666666666666666666",
"6666666666666666666     $$111111       $$   6666666666666666666666666666666666666666666666666666",
"6666666666666666666     $$111111       $$   6666666666666666666666666666666666666666666666666666",
"666666666666666666 $$$$$  111111111OOOO  ---   6666666666666666666666666666666666666666666666666",
"666666666666666666 $$$$$  111111111OOOO  ---   6666666666666666666666666666666666666666666666666",
"666666666666666666 $$$$$  111111111OOOO  ---   6666666666666666666666666666666666666666666666666",
"666666666666666   $OOOOOOO   111111333333   $$$ 666666666666666666666666666666666666666666666666",
"666666666666666   $OOOOOOO   111111333333   $$$ 666666666666666666666666666666666666666666666666",
"666666666666666   $OOOOOOO   111111333333   $$$ 666666666666666666666666666666666666666666666666",
"666666666666666   $%%%%%%%%%%      333333   $$$ &66666      666666666666666666666622666666666666",
"666666666666666&&& $$$$$%%%%%%%%$$$            &o*****======   666666666666666666644666666666666",
"666666666666666&&& $$$$$%%%%%%%%$$$            &o*****======   666666666666666666644666666666666",
"666666666666666&&& $$$$$%%%%%%%%$$$            &o*****======   666666666666666666644666666666666",
"666666666666666&&& $$$$$%%%%%%%%$$$            &o*****======   666666666666666666644666666666666",
"666666666666666&&&&                ....@@   &&&o;;;;;;;;;***666666666666666666665544666666666666",
"666666666666666&&&&                ....@@   &&&o;;;;;;;;;***666666666666666666665544666666666666",
"666666666666666&&&&&&&&&        ...@@@@@@   ooo;;ooooo===::::::666666666666666225566666666666666",
"666666666666666&&&&&&&&&        ...@@@@@@   ooo;;ooooo===::::::666666666666666225566666666666666",
"666666666666666&&&&&&&&&        ...@@@@@@   ooo;;ooooo===::::::666666666666666225566666666666666",
"666666666666666666&&&&&&&&&&&&&&         &&&***;*=====***555444::::66666:::222554466666666666666",
"666666666666666666&&&&&&&&&&&&&&         &&&***;*=====***555444::::66666:::222554466666666666666",
"666666666666666666&&&&&&&&&&&&&&         &&&***;*=====***555444::::66666:::222554466666666666666",
"666666666666666666666666&&&&&&&&&&&&&&&&&&&&***;o44444555555555222222222222444556666666666666666",
"666666666666666666666666&&&&&&&&&&&&&&&&&&&&***;o44444555555555222222222222444556666666666666666",
"66666666666666666666666666666666666666666666ooo*+44444444555555555544444444555556666666666666666",
"66666666666666666666666666666666666666666666ooo*+44444444555555555544444444555556666666666666666",
"66666666666666666666666666666666666666666666ooo*+44444444555555555544444444555556666666666666666",
"66666666666666666666666666666666666666666666ooo*+44444444555555555544444444555556666666666666666",
"666666666666666666666666666666666666666666666666:55555444444555555544444555555666666666666666666",
"666666666666666666666666666666666666666666666666:55555444444555555544444555555666666666666666666",
"666666666666666666666666666666666666666666666666:55555444444555555544444555555666666666666666666",
"6666666666666666666666666666666666666666666666666:::::222444444555555555555666666666666666666666",
"6666666666666666666666666666666666666666666666666:::::222444444555555555555666666666666666666666",
"6666666666666666666666666666666666666666666666666:::::222444444555555555555666666666666666666666",
"6666666666666666666666666666666666666666666666666:::::222444444555555555555666666666666666666666",
"6666666666666666666666666666666666666666666666666:::::222444444555555555555666666666666666666666",
"666666666666666666666666666666666666666666666666666666666222222555555555444666666666666666666666",
"666666666666666666666666666666666666666666666666666666666222222555555555444666666666666666666666",
"666666666666666666666666666666666666666666666666666666666444555555544455555:::666666666666666666",
"666666666666666666666666666666666666666666666666666666666444555555544455555:::666666666666666666",
"666666666666666666666666666666666666666666666666666666666444555555544455555:::666666666666666666",
"666666666666666666666666666666666666666666666666666666444555444666622244555:::666666666666666666",
"666666666666666666666666666666666666666666666666666666444555444666622244555:::666666666666666666",
"666666666666666666666666666666666666666666666666666666444555444666622244555:::666666666666666666",
"6666666666666666666666666666666666666666666666664555552226666666666666::222:::666666666666666666",
"6666666666666666666666666666666666666666666666664555552226666666666666::222:::666666666666666666",
"666666666666666666666666666666666666666666666666666666666666666666666666666666666666666666666666",
"666666666666666666666666666666666666666666666666666666666666666666666666666666666666666666666666",
"666666666666666666666666666666666666666666666666666666666666666666666666666666666666666666666666",
"666666666666666666666666666666666666666666666666666666666666666666666666666666666666666666666666"
};
