/* XPM */
static char *result[] = {
/* columns rows colors chars-per-pixel */
"96 110 25 1 ",
"  c black",
". c #7B1029",
"X c #107B29",
"o c #7B5200",
"O c #734221",
"+ c #6B6B5A",
"@ c #DE2929",
"# c #A57B42",
"$ c #42A529",
"% c #10FF08",
"& c #363243",
"* c #BD8418",
"= c #EFBD21",
"- c yellow",
"; c #FFEF29",
": c #94947B",
"> c #DEAD52",
", c #3152FF",
"< c #D6B58C",
"1 c #BDFFA5",
"2 c #C6C6AD",
"3 c #FFE7BD",
"4 c #EFEFD6",
"5 c white",
"6 c None",
/* pixels */
"666666666666666666666666666666666666666666666666666666666666666666666666666666666666666666666666",
"666666666666666666666666666666666666666666666666666666666666666666666666666666666666666666666666",
"666666666666666666666666666666666666666666666666666666666666666666666666666666666666666666666666",
"666666666666666666666666666666666666666666666666666666666666666666666666666666666666666666666666",
"666666666666666666666666666666666666666666666666666666666666666666666666666666666666666666666666",
"666666666666666666666666666666666666666666666666666666666666666666666666666666666666666666666666",
"666666666666666666666666666666666666666666666666666666666666666666666666666666666666666666666666",
"666666666666666666666666666666666666666666666666666666666666666666666666666666666666666666666666",
"666666666666666666666666666666666666666666666666666666666666666666666666666666666666666666666666",
"666666666666666666666666666666666666666666666666666666666666666666666666666666666666666666666666",
"666666666666666666666666666666666666666666666666666666666666666666666666666666666666666666666666",
"666666666666666666666666666666666666666666666666666666666666666666666666666666666666666666666666",
"666666666666666666666666666666666666666666666666666666666666666666666666666666666666666666666666",
"666666666666666666666666666666666666666666666666666666666666666666666666666666666666666666666666",
"666666666666666666666666666666666666666666666666666666666666666666666666666666666666666666666666",
"666666666666666666666666666666666666666666666666666666666666666666666666666666666666666666666666",
"666666666666666666666666666666666666666666666666666666666666666666666666666666666666666666666666",
"666666666666666666666666666666666666666666666666666666666666666666666666666666666666666666666666",
"666666666666666666666666666666666666666666666666666666666666666666666666666666666666666666666666",
"666666666666666666666666666666666666666666666666666666666666666666666666666666666666666666666666",
"666666666666666666666666666666666666666666666666666666666666666666666666666666666666666666666666",
"666666666666666666666666666666666666666666666666666666666666666666666666666666666666666666666666",
"666666666666666666666666666666666666666666666666666666666666666666666666666666666666666666666666",
"666666666666666666666666666666666666666666666666666666666666666666666666666666666666666666666666",
"666666666666666666666666666666666666666666666666666666666666666666666666666666666666666666666666",
"666666666666666666666666666666666666666666666666666666666666666666666666666666666666666666666666",
"666666666666666666666666666666666666666666666666666666666666666666666666666666666666666666666666",
"666666666666666666666666666666666666666666666666666666666666666666666666666666666666666666666666",
"666666666666666666666666666666666666666666666666666666666666666666666666666666666666666666666666",
"666666666666666666666666666666666666666666666666666666666666666666666666666666666666666666666666",
"666666666666666666666666666666666666666666666666666666666666666666666666666666666666666666666666",
"666666666666666666666666666666666666666666666666666666666666666666666666666666666666666666666666",
"666666666666666666666666666666666666666666666666666666666666666666666666666666666666666666666666",
"666666666666666666666666666666666666666666666666666666666666666666666666666666666666666666666666",
"666666666666666666666666666666666666666666666666666666666666666666666666666666666666666666666666",
"666666666666666666666666666666666666666666666666666666666666666666666666666666666666666666666666",
"666666666666666666666666666666666666666666666666666666666666666666666666666666666666666666666666",
"666666666666666666666666666666666666666666666666666666666666666666666666666666666666666666666666",
"666666666666666666666666666666666666666666666666666666666666666666666666666666666666666666666666",
"666666666666666666666666666666666666666$$$%%%%%%%$$$OOO##666666666666666666666666666666666666666",
"666666666666666666666666666666666666666$$$%%%%%%%$$$OOO##666666666666666666666666666666666666666",
"666666666666666666666666666$$$$$%%%%%%%%%%%%%%%%%>>>>>>--------#66666666442666666666666666666666",
"666666666666666666666666666$$$$$%%%%%%%%%%%%%%%%%>>>>>>--------#66666666442666666666666666666666",
"666666666666666666666666XX$$$$$$%%%%%%%%%%%%%%%%-------##>>>----###66666665666666666666666666666",
"666666666666666666666666XX$$$$$$%%%%%%%%%%%%%%%%-------##>>>----###66666665666666666666666666666",
"666666666666666666666666XX$$$$$$%%%%%%%%%%%%%%%%-------##>>>----###66666665666666666666666666666",
"666666666666666666666XXX$$$$$$$$$$$$$$$%%%%%%%%%-------<<OOO>>>-OOO66666665:::666666666666666666",
"6666666666666666666  XXXXXXXXXXX$$$$$$$$$$$$$$$>----###<<<<<OOO#66666666664444666666666666666666",
"6666666666666666666  XXXXXXXXXXX$$$$$$$$$$$$$$$>----###<<<<<OOO#66666666664444666666666666666666",
"6666666666666666666  XXXXXXXXXXX$$$$$$$$$$$$$$$>----###<<<<<OOO#66666666664444666666666666666666",
"666666666666666666 XX           XXXXXXX$$$$$$$$#->>>33333<<<   666666666664555666666666666666666",
"666666666666666666 XX           XXXXXXX$$$$$$$$#->>>33333<<<   666666666664555666666666666666666",
"666666666666666666 XX           XXXXXXX$$$$$$$$#->>>33333<<<   666666666664555666666666666666666",
"666666666666666666   66666666666XXXXXXXXXXXXXXXO#333333  OOO   666666666224555::6666666666666666",
"666666666666666666   66666666666XXXXXXXXXXXXXXXO#333333  OOO   666666666224555::6666666666666666",
"66666666666666666666666666666666   XXXX33333333O-###33355,,,<<<oooo  666224555446666666666666666",
"66666666666666666666666666666666   XXXX33333333O-###33355,,,<<<oooo  666224555446666666666666666",
"66666666666666666666666666666666   XXXX33333333O-###33355,,,<<<oooo  666224555446666666666666666",
"66666666666666666666666666666666666    ###33333 -OOO33355,,,ooo=;;;66:::444555446666666666666666",
"66666666666666666666666666666666666    ###33333 -OOO33355,,,ooo=;;;66:::444555446666666666666666",
"66666666666666666666666666666666666    ###33333 -OOO33355,,,ooo=;;;66:::444555446666666666666666",
"66666666666666666666666666666666666----   ##### -OOO33333<<<***;***++55544444455::::222266666666",
"66666666666666666666666666666666       XXX                  ;;;;===44444444444554444444422266666",
"66666666666666666666666666666666       XXX                  ;;;;===44444444444554444444422266666",
"666666666666666666666666666     %%%OOOO$$$XXXXX1111111133333;;;o;;;;;2225555555555555555555:::::",
"666666666666666666666666666     %%%OOOO$$$XXXXX1111111133333;;;o;;;;;2225555555555555555555:::::",
"666666666666666666666666666     %%%OOOO$$$XXXXX1111111133333;;;o;;;;;2225555555555555555555:::::",
"666666666666666666666666666     %%%OOOO$$$XXXXX1111111133333;;;o;;;;;2225555555555555555555:::::",
"666666666666666666666666666     %%%OOOO%%%$$$$$1111111133333;;;;===55555555555555555555522266666",
"666666666666666666666&&&&& OOOOO   %%%%OOOOOOOOO-   66666666   =;;;66:::664555666666666666666666",
"666666666666666666666&&&&& OOOOO   %%%%OOOOOOOOO-   66666666   =;;;66:::664555666666666666666666",
"666666666666666666666&&&&& OOOOO   %%%%OOOOOOOOO-   66666666   =;;;66:::664555666666666666666666",
"666666666666666666666&&&&& OOOOO   %%%%OOOOOOOOO-   66666666   =;;;66:::664555666666666666666666",
"666666666666666666666&&&&& OOOOO   %%%%OOOOOOOOO-   66666666   =;;;66:::664555666666666666666666",
"6666666666666666666&&&&&&& ........    %%%%%%%%$X      66666666      666665444666666666666666666",
"6666666666666666666&&&&&&&&               $$$$$X ...@@@  666666666666666665:::666666666666666666",
"6666666666666666666&&&&&&&&               $$$$$X ...@@@  666666666666666665:::666666666666666666",
"6666666666666666666&&&&&&&&&&&&&&&&&&&&&&&      .@@@@@@  666666666666666664666666666666666666666",
"6666666666666666666&&&&&&&&&&&&&&&&&&&&&&&      .@@@@@@  666666666666666664666666666666666666666",
"6666666666666666666&&&&&&&&&&&&&&&&&&&&&&&      .@@@@@@  666666666666666664666666666666666666666",
"6666666666666666666&&&&&&&&&&&&&&&&&&&&&&&      .@@@@@@  666666666666666664666666666666666666666",
"66666666666666666666666666&&&&&&&&&&&&&&&&&&&&&6666666666666666666666666666666666666666666666666",
"66666666666666666666666666&&&&&&&&&&&&&&&&&&&&&6666666666666666666666666666666666666666666666666",
"666666666666666666666666666666666666666666666666666666666666666666666666666666666666666666666666",
"666666666666666666666666666666666666666666666666666666666666666666666666666666666666666666666666",
"666666666666666666666666666666666666666666666666666666666666666666666666666666666666666666666666",
"666666666666666666666666666666666666666666666666666666666666666666666666666666666666666666666666",
"666666666666666666666666666666666666666666666666666666666666666666666666666666666666666666666666",
"666666666666666666666666666666666666666666666666666666666666666666666666666666666666666666666666",
"666666666666666666666666666666666666666666666666666666666666666666666666666666666666666666666666",
"666666666666666666666666666666666666666666666666666666666666666666666666666666666666666666666666",
"666666666666666666666666666666666666666666666666666666666666666666666666666666666666666666666666",
"666666666666666666666666666666666666666666666666666666666666666666666666666666666666666666666666",
"666666666666666666666666666666666666666666666666666666666666666666666666666666666666666666666666",
"666666666666666666666666666666666666666666666666666666666666666666666666666666666666666666666666",
"666666666666666666666666666666666666666666666666666666666666666666666666666666666666666666666666",
"666666666666666666666666666666666666666666666666666666666666666666666666666666666666666666666666",
"666666666666666666666666666666666666666666666666666666666666666666666666666666666666666666666666",
"666666666666666666666666666666666666666666666666666666666666666666666666666666666666666666666666",
"666666666666666666666666666666666666666666666666666666666666666666666666666666666666666666666666",
"666666666666666666666666666666666666666666666666666666666666666666666666666666666666666666666666",
"666666666666666666666666666666666666666666666666666666666666666666666666666666666666666666666666",
"666666666666666666666666666666666666666666666666666666666666666666666666666666666666666666666666",
"666666666666666666666666666666666666666666666666666666666666666666666666666666666666666666666666",
"666666666666666666666666666666666666666666666666666666666666666666666666666666666666666666666666",
"666666666666666666666666666666666666666666666666666666666666666666666666666666666666666666666666",
"666666666666666666666666666666666666666666666666666666666666666666666666666666666666666666666666",
"666666666666666666666666666666666666666666666666666666666666666666666666666666666666666666666666",
"666666666666666666666666666666666666666666666666666666666666666666666666666666666666666666666666",
"666666666666666666666666666666666666666666666666666666666666666666666666666666666666666666666666"
};
