/* XPM */
static char *result[] = {
/* columns rows colors chars-per-pixel */
"96 110 24 1 ",
"  c black",
". c #7B1029",
"X c #107B29",
"o c #7B5200",
"O c #734221",
"+ c #DE2929",
"@ c #A57B42",
"# c #42A529",
"$ c #10FF08",
"% c #363243",
"& c #BD8418",
"* c #EFBD21",
"= c yellow",
"- c #FFEF29",
"; c #94947B",
": c #DEAD52",
"> c #3152FF",
", c #D6B58C",
"< c #BDFFA5",
"1 c #C6C6AD",
"2 c #FFE7BD",
"3 c #EFEFD6",
"4 c white",
"5 c None",
/* pixels */
"555555555555555555555555555555553333555555555555555555555555555555555555555555555555555555555555",
"555555555555555555555555555555553333555555555555555555555555555555555555555555555555555555555555",
"555555555555555555555555555555553333555555555555555555555555555555555555555555555555555555555555",
"555555555555555555555555555555553333555555555555555555555555555555555555555555555555555555555555",
"555555555555555555555555555555555555333333444444311155555555555555555555555555555555555555555555",
"555555555555555555555555555555555555333333444444311155555555555555555555555555555555555555555555",
"555555555555555555555555555555555555555111333333444444433111155555555555555555555555555555555555",
"555555555555555555555555555555555555555111333333444444433111155555555555555555555555555555555555",
"555555555555555555555555555555555555555111333333444444433111155555555555555555555555555555555555",
"555555555555555555555555555555555555555555555551333344444444433555555555555555555555555555555555",
"555555555555555555555555555555555555555555555551333344444444433555555555555555555555555555555555",
"555555555555555555555555555555555555555555555551333344444444433555555555555555555555555555555555",
"555555555555555555555555555555555555555555555555133333344444444311111555555555555555555555555555",
"555555555555555555555555555555555555555555555555133333344444444311111555555555555555555555555555",
"555555555555555555555555555555555555555555555555555511133444444444444444;;3334;;;555555555555555",
"555555555555555555555555555555555555555555555555555511133444444444444444;;3334;;;555555555555555",
"555555555555555555555555555555555555555555555555555511133444444444444444;;3334;;;555555555555555",
"555555555555555555555555555555555555555555555555555511133444444444444444;;3334;;;555555555555555",
"555555555555555555555555555555555555555555555555555511133444444444444444;;3334;;;555555555555555",
"555555555555555555555555555555555555555555555555555511133333344444444333334444;;;555555555555555",
"555555555555555555555555555555555555555555555555555555533333344433333333334443555555555555555555",
"555555555555555555555555555555555555555555555555555555533333344433333333334443555555555555555555",
"55555555555555555555555555555555555555555555555555555551133334433333333344444;555555555555555555",
"55555555555555555555555555555555555555555555555555555551133334433333333344444;555555555555555555",
"55555555555555555555555555555555555555555555555555555551133334433333333344444;555555555555555555",
"55555555555555555555555555555555555555555555555555555551133334433333333344444;555555555555555555",
"555555555555555555555555555#####$$$$$$$###OOOOO@@55555511333344433333444443334555555555555555555",
"555555555555555555555555555#####$$$$$$$###OOOOO@@55555511333344433333444443334555555555555555555",
"555555555555555555555555$$$$$$$$$$$$$$$$$$=======:::@@@5544443334444444433;;;3111555555555555555",
"555555555555555555555555$$$$$$$$$$$$$$$$$$=======:::@@@5544443334444444433;;;3111555555555555555",
"555555555555555555###$$$$$$$$$$$$$$$$$$$$$::::::====:::@@333333444444333;;5555333555555555555555",
"555555555555555555###$$$$$$$$$$$$$$$$$$$$$::::::====:::@@333333444444333;;5555333555555555555555",
"555555555555555555###$$$$$$$$$$$$$$$$$$$$$::::::====:::@@333333444444333;;5555333555555555555555",
"555555555555555555###$$$$$$$$$$$$$$$$$$$$$::::::====:::@@333333444444333;;5555333555555555555555",
"5555555555555555XX###$$$$$$$$$$$$$$$===========@:======@@111133444444111555555555555555555555555",
"5555555555555555XX###$$$$$$$$$$$$$$$===========@:======@@111133444444111555555555555555555555555",
"55555555555555XX########$$$$$$$$$=========@@@@@,O::::::OO----**344444;;;555555555555555555555555",
"55555555555555XX########$$$$$$$$$=========@@@@@,O::::::OO----**344444;;;555555555555555555555555",
"55555555555555XX########$$$$$$$$$=========@@@@@,O::::::OO----**344444;;;555555555555555555555555",
"55555555555555XX########$$$$$$$$$=========@@@@@,O::::::OO----**344444;;;555555555555555555555555",
"555555555555  #############$$$$$$======@@@,,,,,,,OOOOOO&&oooo**;55555555555555555555555555555555",
"555555555555  ##XXXXXXXX#########@@@:::,,,,,,,,2,OOOooo**------&ooooo   555555555555555555555555",
"555555555555  ##XXXXXXXX#########@@@:::,,,,,,,,2,OOOooo**------&ooooo   555555555555555555555555",
"555555555555  ##XXXXXXXX#########@@@:::,,,,,,,,2,OOOooo**------&ooooo   555555555555555555555555",
"55555555    ##XX     XXX########XOOO@@@,,,22222 O   555oo&&&&---*****   555555555555555555555555",
"55555555    ##XX     XXX########XOOO@@@,,,22222 O   555oo&&&&---*****   555555555555555555555555",
"55555555    ##XX     XXX########XOOO@@@,,,22222 O   555oo&&&&---*****   555555555555555555555555",
"55555555    XX  55555   22222222,OOO,,,@@@222224>,,,     5555        555555555555555555555555555",
"55555555    XX  55555   22222222,OOO,,,@@@222224>,,,     5555        555555555555555555555555555",
"55555555      5555555555@@@222222   ===OOO222224>,,,   22    55555555555555555555555555555555555",
"55555555      5555555555@@@222222   ===OOO222224>,,,   22    55555555555555555555555555555555555",
"55555555      5555555555@@@222222   ===OOO222224>,,,   22    55555555555555555555555555555555555",
"55555555      5555555555@@@222222   ===OOO222224>,,,   22    55555555555555555555555555555555555",
"555555555555555555555555        @   ===OOO222222,   22222    55555555555555555555555555555555555",
"555555555555555555555555        @   ===OOO222222,   22222    55555555555555555555555555555555555",
"555555555555555555555555===:::::                O<<<222  555555555555555555555555555555555555555",
"555555555555555555555555===:::::                O<<<222  555555555555555555555555555555555555555",
"555555555555555555555555===:::::                O<<<222  555555555555555555555555555555555555555",
"555555555555555555555555   XXXXX#XXXXXX<<<<<<<<<<<<<   55555555555555555555555555555555555555555",
"555555555555555555555555   XXXXX#XXXXXX<<<<<<<<<<<<<   55555555555555555555555555555555555555555",
"555555555555555555555555   XXXXX#XXXXXX<<<<<<<<<<<<<   55555555555555555555555555555555555555555",
"555555555555555555555555   XXXXX#XXXXXX<<<<<<<<<<<<<   55555555555555555555555555555555555555555",
"555555555555555555555   ###OOOOOO######         555555555555555555555555555555555555555555555555",
"555555555555555555555   ###OOOOOO######         555555555555555555555555555555555555555555555555",
"555555555555555555555   ###OOOOOO######         555555555555555555555555555555555555555555555555",
"555555555555555555555555###$$$$$$OOOOOOOOOOOOOO= 55555555555555555555555555555555555555555555555",
"555555555555555555555555###$$$$$$OOOOOOOOOOOOOO= 55555555555555555555555555555555555555555555555",
"555555555555555555555555###$$$$$$OOOOOOOOOOOOOO= 55555555555555555555555555555555555555555555555",
"555555555555555555555555###$$$$$$OOOOOOOOOOOOOO= 55555555555555555555555555555555555555555555555",
"5555555555555555%%%%%%%%+++..... $$$$$$$$$XXXXX        55555555555555555555555555555555555555555",
"5555555555555555%%%%%%%%+++..... $$$$$$$$$XXXXX        55555555555555555555555555555555555555555",
"5555555555555555%%%%%%%%+++..... $$$$$$$$$XXXXX        55555555555555555555555555555555555555555",
"5555555555555555%%%%%%%%+++..... $$$$$$$$$XXXXX        55555555555555555555555555555555555555555",
"5555555555555555%%%%%%%%+++..... $$$$$$$$$XXXXX        55555555555555555555555555555555555555555",
"5555555555555555%%%%%%%%                  .......++++++  555555555555555555555555555555555555555",
"5555555555555555%%%%%%%%%%%%%%%%%%%%%%%         +++++++  555555555555555555555555555555555555555",
"5555555555555555%%%%%%%%%%%%%%%%%%%%%%%         +++++++  555555555555555555555555555555555555555",
"5555555555555555%%%%%%%%%%%%%%%%%%%%%%%         +++++++  555555555555555555555555555555555555555",
"5555555555555555%%%%%%%%%%%%%%%%%%%%%%%         +++++++  555555555555555555555555555555555555555",
"5555555555555555%%%%%%%%%%%%%%%%%%%%%%%         +++++++  555555555555555555555555555555555555555",
"555555555555555555%%%%%%%%%%%%%%%%%%%%%%%%%%%%%%       55555555555555555555555555555555555555555",
"555555555555555555555555%%%%%%%%%%%%%%%%%%%%%%%5555555555555555555555555555555555555555555555555",
"555555555555555555555555%%%%%%%%%%%%%%%%%%%%%%%5555555555555555555555555555555555555555555555555",
"555555555555555555555555555555555555555555555555555555555555555555555555555555555555555555555555",
"555555555555555555555555555555555555555555555555555555555555555555555555555555555555555555555555",
"555555555555555555555555555555555555555555555555555555555555555555555555555555555555555555555555",
"555555555555555555555555555555555555555555555555555555555555555555555555555555555555555555555555",
"555555555555555555555555555555555555555555555555555555555555555555555555555555555555555555555555",
"555555555555555555555555555555555555555555555555555555555555555555555555555555555555555555555555",
"555555555555555555555555555555555555555555555555555555555555555555555555555555555555555555555555",
"555555555555555555555555555555555555555555555555555555555555555555555555555555555555555555555555",
"555555555555555555555555555555555555555555555555555555555555555555555555555555555555555555555555",
"555555555555555555555555555555555555555555555555555555555555555555555555555555555555555555555555",
"555555555555555555555555555555555555555555555555555555555555555555555555555555555555555555555555",
"555555555555555555555555555555555555555555555555555555555555555555555555555555555555555555555555",
"555555555555555555555555555555555555555555555555555555555555555555555555555555555555555555555555",
"555555555555555555555555555555555555555555555555555555555555555555555555555555555555555555555555",
"555555555555555555555555555555555555555555555555555555555555555555555555555555555555555555555555",
"555555555555555555555555555555555555555555555555555555555555555555555555555555555555555555555555",
"555555555555555555555555555555555555555555555555555555555555555555555555555555555555555555555555",
"555555555555555555555555555555555555555555555555555555555555555555555555555555555555555555555555",
"555555555555555555555555555555555555555555555555555555555555555555555555555555555555555555555555",
"555555555555555555555555555555555555555555555555555555555555555555555555555555555555555555555555",
"555555555555555555555555555555555555555555555555555555555555555555555555555555555555555555555555",
"555555555555555555555555555555555555555555555555555555555555555555555555555555555555555555555555",
"555555555555555555555555555555555555555555555555555555555555555555555555555555555555555555555555",
"555555555555555555555555555555555555555555555555555555555555555555555555555555555555555555555555",
"555555555555555555555555555555555555555555555555555555555555555555555555555555555555555555555555",
"555555555555555555555555555555555555555555555555555555555555555555555555555555555555555555555555",
"555555555555555555555555555555555555555555555555555555555555555555555555555555555555555555555555"
};
