/* XPM */
static char *result[] = {
/* columns rows colors chars-per-pixel */
"96 110 24 1 ",
"  c black",
". c #7B1029",
"X c #107B29",
"o c #7B5200",
"O c #734221",
"+ c #DE2929",
"@ c #A57B42",
"# c #42A529",
"$ c #10FF08",
"% c #363243",
"& c #BD8418",
"* c #EFBD21",
"= c yellow",
"- c #FFEF29",
"; c #94947B",
": c #DEAD52",
"> c #3152FF",
", c #D6B58C",
"< c #BDFFA5",
"1 c #C6C6AD",
"2 c #FFE7BD",
"3 c #EFEFD6",
"4 c white",
"5 c None",
/* pixels */
"555555555555555555555555555555555555555555555555555555555555555555555555555555555555555555555555",
"555555555555555555555555555555555555555555555555555555555555555555555555555555555555555555555555",
"555555555555555555555555555555555555555555555555555555555555555555555555555555555555555555555555",
"555555555555555555555555555555555555555555555555555555555555555555555555555555555555555555555555",
"555555555555555555555555555555555555555555555555555555555555555555555555555555555555555555555555",
"555555555555555555555555555555555555555555555555555555555555555555555555555555555555555555555555",
"555555555555555555555555555555555555555555555555555555555555555555555555555555555555555555555555",
"555555555555555555555555555555555555555555555555555555555555555555555555555555555555555555555555",
"555555555555555555555555555555555555555555555555555555555555555555555555555555555555555555555555",
"555555555555555555555555555555555555555555555555555555555555555555555555555555555555555555555555",
"555555555555555555555555555555555555555555555555555555555555555555555555555555555555555555555555",
"555555555555555555555555555555555555555555555555555555555555555555555555555555555555555555555555",
"555555555555555555555555555555555555555555555555555555555555555555555555555555555555555555555555",
"555555555555555555555555555555555555555555555555555555555555555555555555555555555555555555555555",
"555555555555555555555555555555555555555555555555555555555555555555555555555555555555555555555555",
"555555555555555555555555555555555555555555555555555555555555555555555555555555555555555555555555",
"555555555555555555555555555555555555555555555555555555555555555555555555555555555555555555555555",
"555555555555555555555555555555555555555555555555555555555555555555555555555555555555555555555555",
"555555555555555555555555555555555555555555555555555555555555555555555555555555555555555555555555",
"555555555555555555555555555555555555555555555555555555555555555555555555555555555555555555555555",
"555555555555555555555555555555555555555555555555555555555555555555555555555555555555555555555555",
"555555555555555555555555555555555555555555555555555555555555555555555555555555555555555555555555",
"555555555555555555555555555555555555555555555555555555555555555555555555555555555555555555555555",
"555555555555555555555555555555555555555555555555555555555555555555555555555555555555555555555555",
"555555555555555555555555555555555555555555555555555555555555555555555555555555555555555555555555",
"555555555555555555555555555555555555555555555555555555555555555555555555555555555555555555555555",
"555555555555555555555555555555555555555555555555555555555555555555555555555555555555555555555555",
"555555555555555555555555555555555555555555555555555555555555555555555555555555555555555555555555",
"555555555555555555555555555555555555555555555555555555555555555555555555555555555555555555555555",
"555555555555555555555555555555555555555555555555555555555555555555555555555555555555555555555555",
"555555555555555555555555555555555555555555555555555555555555555555555555555555555555555555555555",
"555555555555555555555555555555555555555555555555555555555555555555555555555555555555555555555555",
"555555555555555555555555555555555555555555555555555555555555555555555555555555555555555555555555",
"555555555555555555555555555555555555555555555555555555555555555555555555555555555555555555555555",
"555555555555555555555555555555555555555555555555555555555555555555555555555555555555555555555555",
"555555555555555555555555555555555555555555555555555555555555555555555555555555555555555555555555",
"555555555555555555555555555555555###$$$$$$$$$$$#O@@@@@555555555555555555555555555555555555555555",
"555555555555555555555555555555555###$$$$$$$$$$$#O@@@@@555555555555555555555555555555555555555555",
"555555555555555555555555555555555###$$$$$$$$$$$#O@@@@@555555555555555555555555555555555555555555",
"555555555555555555555555555555555###$$$$$$$$$$$#O@@@@@555555555555555555555555555555555555555555",
"55555555555555555555555555555###$$$$$$$$$$$$$$$$======:::@@@555555555555555555555555555555555555",
"5555555555555555555555XX########$$$$$$$$$$$$$$$==@@@@@:::===@55555555555555555555555555555555555",
"5555555555555555555555XX########$$$$$$$$$$$$$$$==@@@@@:::===@55555555555555555555555555555555555",
"5555555555555555555555XX########$$$$$$$$$$$$$$$==@@@@@:::===@55555555555555555555555555555555555",
"5555555555555555555555XX########$$$$$$$$$$$$$$$==@@@@@:::===@55555555555555555555555555555555555",
"5555555555555555555555XX########$$$$$$$$$$$$$$$==@@@@@:::===@55555555555555555555555555555555555",
"5555555555555555555XXX##############$$$$$$$$=====,,,,,OOO:::O55555555555555555555555555555555555",
"555555555555555555 #########################=====22222,,,OOO555555555555555555555555555555555555",
"555555555555555555 #########################=====22222,,,OOO555555555555555555555555555555555555",
"5555555555555555  #XXXXXXXXXXXXX############@@@=,22222,,,   555555555555555555553555555555555555",
"5555555555555555  #XXXXXXXXXXXXX############@@@=,22222,,,   555555555555555555553555555555555555",
"5555555555555555  #XXXXXXXXXXXXX############@@@=,22222,,,   555555555555555555553555555555555555",
"5555555555555555  #XXXXXXXXXXXXX############@@@=,22222,,,   555555555555555555553555555555555555",
"55555555555555  XXX       XXXXXXXXXXXXX##XXXOOO@2     OOO   555555555555555555553555555555555555",
"55555555555555  XXX       XXXXXXXXXXXXX##XXXOOO@2     OOO   555555555555555555553555555555555555",
"55555555555555     5555555      X   22222,,,OOO:@44444>>>,,, 55555555555555555;;4555555555555555",
"55555555555555  5555555555555555    @@@22222   =O44444>>>,,, 55555555555555555114555555555555555",
"55555555555555  5555555555555555    @@@22222   =O44444>>>,,, 55555555555555555114555555555555555",
"55555555555555  5555555555555555    @@@22222   =O44444>>>,,, 55555555555555555114555555555555555",
"55555555555555  5555555555555555    @@@22222   =O44444>>>,,, 55555555555555555114555555555555555",
"55555555555555  5555555555555555    @@@22222   =O44444>>>,,, 55555555555555555114555555555555555",
"55555555555555555555555555555555=:::   @@,,,   =O22222,,,   555555555555555555334555555555555555",
"555555555555555555555555555555555   ###        =O,,,,,   555         555555;;;334555555555555555",
"555555555555555555555555555555555   ###        =O,,,,,   555         555555;;;334555555555555555",
"55555555555555555555555555555    ########XXX   :      555555&***---&&555555111334555555555555555",
"55555555555555555555555555555    ########XXX   :      555555&***---&&555555111334555555555555555",
"55555555555555555555555555555    ########XXX   :      555555&***---&&555555111334555555555555555",
"55555555555555555555555555555    ########XXX   :      555555&***---&&555555111334555555555555555",
"55555555555555555555555555   $$$O$$$#####<<<<<<O 55555555555----&&&55;;;551333443555555555555555",
"5555555555555555555555%%%%   XXX$$$$OOOOO   OOO<<22222&&&----------44444443444;;5555555555555555",
"5555555555555555555555%%%%   XXX$$$$OOOOO   OOO<<22222&&&----------44444443444;;5555555555555555",
"5555555555555555555555%%%%   XXX$$$$OOOOO   OOO<<22222&&&----------44444443444;;5555555555555555",
"5555555555555555555555%%%%   XXX$$$$OOOOO   OOO<<22222&&&----------44444443444;;5555555555555555",
"5555555555555555555555%%%%   XXX$$$$OOOOO   OOO<<22222&&&----------44444443444;;5555555555555555",
"5555555555555555555%%%%%%%%%%    XXX########XXX .     ooo&&&-44411144444444444444333111555555555",
"5555555555555555555%%%%%%%%%%    XXX########XXX .     ooo&&&-44411144444444444444333111555555555",
"5555555555555555555%%%%%%%%%%    XXX########XXX .     ooo&&&-44411144444444444444333111555555555",
"5555555555555555555%%%%%%%%%%%%%%%%%        ...++55555555oooo   ;;;33111444444444444444155555555",
"5555555555555555555%%%%%%%%%%%%%%%%%        ...++55555555oooo   ;;;33111444444444444444155555555",
"5555555555555555555%%%%%%%%%%%%%%%%%        ...++55555555oooo   ;;;33111444444444444444155555555",
"5555555555555555555%%%%%%%%%%%%%%%%%        ...++55555555oooo   ;;;33111444444444444444155555555",
"55555555555555555555555555%%%%%%%%%%%%%%%%%%%%%5555555555555555555555111444;;;55;;;;555555555555",
"55555555555555555555555555%%%%%%%%%%%%%%%%%%%%%5555555555555555555555111444;;;55;;;;555555555555",
"555555555555555555555555555555555555555555555555555555555555555555555333445555555555555555555555",
"555555555555555555555555555555555555555555555555555555555555555555555333445555555555555555555555",
"555555555555555555555555555555555555555555555555555555555555555555555333445555555555555555555555",
"555555555555555555555555555555555555555555555555555555555555555555555333445555555555555555555555",
"555555555555555555555555555555555555555555555555555555555555555555555333445555555555555555555555",
"555555555555555555555555555555555555555555555555555555555555555555544555555555555555555555555555",
"555555555555555555555555555555555555555555555555555555555555555555544555555555555555555555555555",
"555555555555555555555555555555555555555555555555555555555555555555544555555555555555555555555555",
"555555555555555555555555555555555555555555555555555555555555555555555555555555555555555555555555",
"555555555555555555555555555555555555555555555555555555555555555555555555555555555555555555555555",
"555555555555555555555555555555555555555555555555555555555555555555555555555555555555555555555555",
"555555555555555555555555555555555555555555555555555555555555555555555555555555555555555555555555",
"555555555555555555555555555555555555555555555555555555555555555555555555555555555555555555555555",
"555555555555555555555555555555555555555555555555555555555555555555555555555555555555555555555555",
"555555555555555555555555555555555555555555555555555555555555555555555555555555555555555555555555",
"555555555555555555555555555555555555555555555555555555555555555555555555555555555555555555555555",
"555555555555555555555555555555555555555555555555555555555555555555555555555555555555555555555555",
"555555555555555555555555555555555555555555555555555555555555555555555555555555555555555555555555",
"555555555555555555555555555555555555555555555555555555555555555555555555555555555555555555555555",
"555555555555555555555555555555555555555555555555555555555555555555555555555555555555555555555555",
"555555555555555555555555555555555555555555555555555555555555555555555555555555555555555555555555",
"555555555555555555555555555555555555555555555555555555555555555555555555555555555555555555555555",
"555555555555555555555555555555555555555555555555555555555555555555555555555555555555555555555555",
"555555555555555555555555555555555555555555555555555555555555555555555555555555555555555555555555",
"555555555555555555555555555555555555555555555555555555555555555555555555555555555555555555555555",
"555555555555555555555555555555555555555555555555555555555555555555555555555555555555555555555555",
"555555555555555555555555555555555555555555555555555555555555555555555555555555555555555555555555"
};
