/* XPM */
static char *result[] = {
/* columns rows colors chars-per-pixel */
"96 110 23 1 ",
"  c black",
". c #107B29",
"X c #7B5200",
"o c #734221",
"O c #6B6B5A",
"+ c #A57B42",
"@ c #42A529",
"# c #10FF08",
"$ c #363243",
"% c #BD8418",
"& c #EFBD21",
"* c yellow",
"= c #FFEF29",
"- c #94947B",
"; c #DEAD52",
": c #3152FF",
"> c #D6B58C",
", c #BDFFA5",
"< c #C6C6AD",
"1 c #FFE7BD",
"2 c #EFEFD6",
"3 c white",
"4 c None",
/* pixels */
"444444444444444444444444444444444444444444444444444444444444444444444444444444444444444444444444",
"444444444444444444444444444444444444444444444444444444444444444444444444444444444444444444444444",
"444444444444444444444444444444444444444444444444444444444444444444444444444444444444444444444444",
"444444444444444444444444444444444444444444444444444444444444444444444444444444444444444444444444",
"444444444444444444444444444444444444444444444444444444444444444444444444444444444444444444444444",
"444444444444444444444444444444444444444444444444444444444444444444444444444444444444444444444444",
"444444444444444444444444444444444444444444444444444444444444444444444444444444444444444444444444",
"444444444444444444444444444444444444444444444444444444444444444444444444444444444444444444444444",
"444444444444444444444444444444444444444444444444444444444444444444444444444444444444444444444444",
"444444444444444444444444444444444444444444444444444444444444444444444444444444444444444444444444",
"444444444444444444444444444444444444444444444444444444444444444444444444444444444444444444444444",
"444444444444444444444444444444444444444444444444444444444444444444444444444444444444444444444444",
"444444444444444444444444444444444444444444444444444444444444444444444444444444444444444444444444",
"444444444444444444444444444444444444444444444444444444444444444444444444444444444444444444444444",
"444444444444444444444444444444444444444444444444444444444444444444444444444444444444444444444444",
"444444444444444444444444444444444444444444444444444444444444444444444444444444444444444444444444",
"444444444444444444444444444444444444444444444444444444444444444444444444444444444444444444444444",
"444444444444444444444444444444444444444444444444444444444444444444444444444444444444444444444444",
"444444444444444444444444444444444444444444444444444444444444444444444444444444444444444444444444",
"444444444444444444444444444444444444444444444444444444444444444444444444444444444444444444444444",
"444444444444444444444444444444444444444444444444444444444444444444444444444444444444444444444444",
"444444444444444444444444444444444444444444444444444444444444444444444444444444444444444444444444",
"444444444444444444444444444444444444444444444444444444444444444444444444444444444444444444444444",
"444444444444444444444444444444444444444444444444444444444444444444444444444444444444444444444444",
"444444444444444444444444444444444444444444444444444444444444444444444444444444444444444444444444",
"444444444444444444444444444444444444444444444444444444444444444444444444444444444444444444444444",
"444444444444444444444444@@##########@@@ooo+++++4444444444444444444444444444444444444444444444444",
"444444444444444444444444@@##########@@@ooo+++++4444444444444444444444444444444444444444444444444",
"444444444444444444@@@@@@###############********;444444444444444444444444444444444444444444444444",
"444444444444444444@@@@@@###############********;444444444444444444444444444444444444444444444444",
"444444444444444444@@@@@@###############********;444444444444444444444444444444444444444444444444",
"444444444444444444@@@###############;;;;;;******+44444444444444444444444444444444444444444444444",
"444444444444444444@@@###############;;;;;;******+44444444444444444444444444444444444444444444444",
"444444444444444...@@@@@@############******+++++;*+++++444444444444444444444444444444444444444444",
"444444444444444...@@@@@@############******+++++;*+++++444444444444444444444444444444444444444444",
"444444444444444...@@@@@@############******+++++;*+++++444444444444444444444444444444444444444444",
"444444444444444...@@@@@@@@#######*********>>>>>o*ooooo444444444444444444444444444444444444444444",
"444444444444444...@@@@@@@@#######*********>>>>>o*ooooo444444444444444444444444444444444444444444",
"444444444444444...@@@@@@@@#######*********>>>>>o*ooooo444444444444444444444444444444444444444444",
"444444444444...@@@@@@@@@@@@@@@@@@******+++>>>>>>+44444444444444444444444444444444444444444444444",
"444444444444...@@@@@@@@@@@@@@@@@@******+++>>>>>>+44444444444444444444444444444444444444444444444",
"444444444444   @@@   .....@@@...o+++***111     o444444444444444444444444444444444444444444444444",
"444444444444   @@@   .....@@@...o+++***111     o444444444444444444444444444444444444444444444444",
"444444444444   @@@   .....@@@...o+++***111     o444444444444444444444444444444444444444444444444",
"444444444444   @@@   .....@@@...o+++***111     o444444444444444444444444444444444444444444444444",
"444444444444   @@@   .....@@@...o+++***111     o444444444444444444444444444444444444444444444444",
"444444444444   @@@   ...11111>>>o;;;+++11133333: 44444444444444444444444444444444444444444444444",
"444444444444   @@@444   ++111111 ***ooo11133333: 44444444444444444444444444444444444444444444444",
"444444444444   @@@444   ++111111 ***ooo11133333: 44444444444444444444444444444444444444444444444",
"444444444444   ...444     +++>>> ***ooo11111111>444444444444444444444444444444444444444444444444",
"444444444444   ...444     +++>>> ***ooo11111111>444444444444444444444444444444444444444444444444",
"444444444444   ...444     +++>>> ***ooo11111111>444444444444444444444444444444444444444444444444",
"444444444444   ...444     +++>>> ***ooo11111111>444444444444444444444444444444444444444444444444",
"444444444444444   444***;;       ***ooo>>>>>>>> 444444444444444444444444444444444444444444444444",
"444444444444444   444***;;       ***ooo>>>>>>>> 444444444444444444444444444444444444444444444444",
"444444444444444444444444  ...@@@ ;;;   ...     4444444444444444444444444444444444444444444444444",
"444444444444444444444444  ...@@@ ;;;   ...     4444444444444444444444444444444444444444444444444",
"444444444444444444444444  ...@@@ ;;;   ...     4444444444444444444444444444444444444444444444444",
"444444444444444444444444  ...@@@ ;;;   ...     4444444444444444444444444444444444444444444444444",
"444444444444444444444444  @@@   o   @@@@@@@@@@@ 444444444444444444444444444444444444444444444444",
"444444444444444444444444  @@@   o   @@@@@@@@@@@ 444444444444444444444444444444444444444444444444",
"444444444444444444444444  @@@   o   @@@@@@@@@@@ 444444444444444444444444444444444444444444444444",
"444444444444444444444   @@ooo   ,,,,   oooooooo*444444444444444444444444444444444444444444444444",
"444444444444444444444   @@ooo   ,,,,   oooooooo*444444444444444444444444444444444444444444444444",
"444444444444444444444   @@ooo   ,,,,   oooooooo*444444444444444444444444444444444444444444444444",
"444444444444444444444   @@ooo   ,,,,   oooooooo*444444444444444444444444444444444444444444444444",
"444444444444444444444   @@ooo   ,,,,   oooooooo*444444444444444444444444444444444444444444444444",
"444444444444444444444   @@###   ,,,,   #########444444444444444444444444444444444444444444444444",
"444444444444444444444   @@###   ,,,,   #########444444444444444444444444444444444444444444444444",
"444444444444444444$$$$$$$$XXX%%%=======%%%     $$$$$$$444444444444444444444444444444444444444444",
"444444444444444444$$$$$$$$XXX%%%=======%%%     $$$$$$$444444444444444444444444444444444444444444",
"444444444444444444$$$$$$$$XXX%%%=======%%%     $$$$$$$444444444444444444444444444444444444444444",
"444444444444444444$$$$$$$$XXX%%%=======%%%     $$$$$$$444444444444444444444444444444444444444444",
"444444444444444444$$$$$$$$XXX%%%=======%%%     $$$$$$$444444444444444444444444444444444444444444",
"444444444444444444$$$$$$XX===%%%&%%%&&&%%%===== $$$$$$444444444444444444444444444444444444444444",
"444444444444444444$$$$$$XX===%%%&%%%&&&%%%===== $$$$$$444444444444444444444444444444444444444444",
"444444444444444444$$$$$$XX===%%%&%%%&&&%%%===== $$$$$$444444444444444444444444444444444444444444",
"444444444444444444444$$$  $$$OOO2===333---      $44444444444444444444444444444444444444444444444",
"444444444444444444444$$$  $$$OOO2===333---      $44444444444444444444444444444444444444444444444",
"444444444444444444444$$$  $$$OOO2===333---      $44444444444444444444444444444444444444444444444",
"444444444444444444444$$$  $$$OOO2===333---      $44444444444444444444444444444444444444444444444",
"44444444444444444444444444---3332<<<333333-----$444444444444444444444444444444444444444444444444",
"44444444444444444444444444---3332<<<333333-----$444444444444444444444444444444444444444444444444",
"44444444444444444444444444444<<<2333333<<<444444444444444444444444444444444444444444444444444444",
"44444444444444444444444444444<<<2333333<<<444444444444444444444444444444444444444444444444444444",
"44444444444444444444444444444<<<2333333<<<444444444444444444444444444444444444444444444444444444",
"44444444444444444444444444444<<<2333333<<<444444444444444444444444444444444444444444444444444444",
"44444444444444444444444444444<<<2333333<<<444444444444444444444444444444444444444444444444444444",
"44444444444444444444444444444---2333333---444444444444444444444444444444444444444444444444444444",
"44444444444444444444444444444---2333333---444444444444444444444444444444444444444444444444444444",
"44444444444444444444444444444---2333333---444444444444444444444444444444444444444444444444444444",
"44444444444444444444444444444---2333333---444444444444444444444444444444444444444444444444444444",
"44444444444444444444444444444---2333333---444444444444444444444444444444444444444444444444444444",
"44444444444444444444444444444---2333333---444444444444444444444444444444444444444444444444444444",
"44444444444444444444444444444---2333333---444444444444444444444444444444444444444444444444444444",
"44444444444444444444444444444---2333333---444444444444444444444444444444444444444444444444444444",
"44444444444444444444444444444---2333333---444444<44444444444444444444444444444444444444444444444",
"44444444444444444444444444444---2333333---444444<44444444444444444444444444444444444444444444444",
"44444444444444444444444444444OOO2333333<<<33333<444444444444444444444444444444444444444444444444",
"44444444444444444444444444444OOO2333333<<<33333<444444444444444444444444444444444444444444444444",
"44444444444444444444444444444OOO2333333<<<33333<444444444444444444444444444444444444444444444444",
"44444444444444444444444444444OOO2333333<<<33333<444444444444444444444444444444444444444444444444",
"444444444444444444444<<<223333333333<<<444444444444444444444444444444444444444444444444444444444",
"444444444444444444444<<<223333333333<<<444444444444444444444444444444444444444444444444444444444",
"44444444444444444444444444444444-<<<---444444444444444444444444444444444444444444444444444444444",
"444444444444444444444444444444444---444444444444444444444444444444444444444444444444444444444444",
"444444444444444444444444444444444---444444444444444444444444444444444444444444444444444444444444",
"444444444444444444444444444444444---444444444444444444444444444444444444444444444444444444444444",
"444444444444444444444444444444444---444444444444444444444444444444444444444444444444444444444444",
"444444444444444444444444444444444---444444444444444444444444444444444444444444444444444444444444"
};
