/* XPM */
static char *result[] = {
/* columns rows colors chars-per-pixel */
"96 110 24 1 ",
"  c black",
". c #7B1029",
"X c #107B29",
"o c #7B5200",
"O c #734221",
"+ c #DE2929",
"@ c #A57B42",
"# c #42A529",
"$ c #10FF08",
"% c #363243",
"& c #BD8418",
"* c #EFBD21",
"= c yellow",
"- c #FFEF29",
"; c #94947B",
": c #DEAD52",
"> c #3152FF",
", c #D6B58C",
"< c #BDFFA5",
"1 c #C6C6AD",
"2 c #FFE7BD",
"3 c #EFEFD6",
"4 c white",
"5 c None",
/* pixels */
"555555555555555555555555555555555555555555555555555555555555333355555555555555555555555555555555",
"555555555555555555555555555555555555555555555555555555555555333355555555555555555555555555555555",
"555555555555555555555555555555555555555555555555555555555555333355555555555555555555555555555555",
"555555555555555555555555555555555555555555555555555555555555333355555555555555555555555555555555",
"555555555555555555555555555555555555555555551113444444333333555555555555555555555555555555555555",
"555555555555555555555555555555555555555555551113444444333333555555555555555555555555555555555555",
"555555555555555555555555555555555551111334444444333333111555555555555555555555555555555555555555",
"555555555555555555555555555555555551111334444444333333111555555555555555555555555555555555555555",
"555555555555555555555555555555555551111334444444333333111555555555555555555555555555555555555555",
"555555555555555555555555555555555334444444443333155555555555555555555555555555555555555555555555",
"555555555555555555555555555555555334444444443333155555555555555555555555555555555555555555555555",
"555555555555555555555555555555555334444444443333155555555555555555555555555555555555555555555555",
"555555555555555555555555555111113444444443333331555555555555555555555555555555555555555555555555",
"555555555555555555555555555111113444444443333331555555555555555555555555555555555555555555555555",
"555555555555555;;;4333;;444444444444444331115555555555555555555555555555555555555555555555555555",
"555555555555555;;;4333;;444444444444444331115555555555555555555555555555555555555555555555555555",
"555555555555555;;;4333;;444444444444444331115555555555555555555555555555555555555555555555555555",
"555555555555555;;;4333;;444444444444444331115555555555555555555555555555555555555555555555555555",
"555555555555555;;;4333;;444444444444444331115555555555555555555555555555555555555555555555555555",
"555555555555555;;;444433333444444443333331115555555555555555555555555555555555555555555555555555",
"555555555555555555344433333333334443333335555555555555555555555555555555555555555555555555555555",
"555555555555555555344433333333334443333335555555555555555555555555555555555555555555555555555555",
"555555555555555555;44444333333333443333115555555555555555555555555555555555555555555555555555555",
"555555555555555555;44444333333333443333115555555555555555555555555555555555555555555555555555555",
"555555555555555555;44444333333333443333115555555555555555555555555555555555555555555555555555555",
"555555555555555555;44444333333333443333115555555555555555555555555555555555555555555555555555555",
"55555555555555555543334444433333444333311555555@@OOOOO###$$$$$$$#####555555555555555555555555555",
"55555555555555555543334444433333444333311555555@@OOOOO###$$$$$$$#####555555555555555555555555555",
"5555555555555551113;;;3344444444333444455@@@:::=======$$$$$$$$$$$$$$$$$$555555555555555555555555",
"5555555555555551113;;;3344444444333444455@@@:::=======$$$$$$$$$$$$$$$$$$555555555555555555555555",
"5555555555555553335555;;333444444333333@@:::====::::::$$$$$$$$$$$$$$$$$$$$$###555555555555555555",
"5555555555555553335555;;333444444333333@@:::====::::::$$$$$$$$$$$$$$$$$$$$$###555555555555555555",
"5555555555555553335555;;333444444333333@@:::====::::::$$$$$$$$$$$$$$$$$$$$$###555555555555555555",
"5555555555555553335555;;333444444333333@@:::====::::::$$$$$$$$$$$$$$$$$$$$$###555555555555555555",
"555555555555555555555555111444444331111@@======:@===========$$$$$$$$$$$$$$$###XX5555555555555555",
"555555555555555555555555111444444331111@@======:@===========$$$$$$$$$$$$$$$###XX5555555555555555",
"555555555555555555555555;;;444443**----OO::::::O,@@@@@=========$$$$$$$$$########XX55555555555555",
"555555555555555555555555;;;444443**----OO::::::O,@@@@@=========$$$$$$$$$########XX55555555555555",
"555555555555555555555555;;;444443**----OO::::::O,@@@@@=========$$$$$$$$$########XX55555555555555",
"555555555555555555555555;;;444443**----OO::::::O,@@@@@=========$$$$$$$$$########XX55555555555555",
"55555555555555555555555555555555;**oooo&&OOOOOO,,,,,,,@@@======$$$$$$#############  555555555555",
"555555555555555555555555   ooooo&------**oooOOO,2,,,,,,,,:::@@@#########XXXXXXXX##  555555555555",
"555555555555555555555555   ooooo&------**oooOOO,2,,,,,,,,:::@@@#########XXXXXXXX##  555555555555",
"555555555555555555555555   ooooo&------**oooOOO,2,,,,,,,,:::@@@#########XXXXXXXX##  555555555555",
"555555555555555555555555   *****---&&&&oo555   O 22222,,,@@@OOOX########XXX     XX##    55555555",
"555555555555555555555555   *****---&&&&oo555   O 22222,,,@@@OOOX########XXX     XX##    55555555",
"555555555555555555555555   *****---&&&&oo555   O 22222,,,@@@OOOX########XXX     XX##    55555555",
"555555555555555555555555555        5555     ,,,>422222@@@,,,OOO,22222222   55555  XX    55555555",
"555555555555555555555555555        5555     ,,,>422222@@@,,,OOO,22222222   55555  XX    55555555",
"55555555555555555555555555555555555    22   ,,,>422222OOO===   222222@@@5555555555      55555555",
"55555555555555555555555555555555555    22   ,,,>422222OOO===   222222@@@5555555555      55555555",
"55555555555555555555555555555555555    22   ,,,>422222OOO===   222222@@@5555555555      55555555",
"55555555555555555555555555555555555    22   ,,,>422222OOO===   222222@@@5555555555      55555555",
"55555555555555555555555555555555555    22222   ,222222OOO===   @        555555555555555555555555",
"55555555555555555555555555555555555    22222   ,222222OOO===   @        555555555555555555555555",
"555555555555555555555555555555555555555  222<<<O                :::::===555555555555555555555555",
"555555555555555555555555555555555555555  222<<<O                :::::===555555555555555555555555",
"555555555555555555555555555555555555555  222<<<O                :::::===555555555555555555555555",
"55555555555555555555555555555555555555555   <<<<<<<<<<<<<XXXXXX#XXXXX   555555555555555555555555",
"55555555555555555555555555555555555555555   <<<<<<<<<<<<<XXXXXX#XXXXX   555555555555555555555555",
"55555555555555555555555555555555555555555   <<<<<<<<<<<<<XXXXXX#XXXXX   555555555555555555555555",
"55555555555555555555555555555555555555555   <<<<<<<<<<<<<XXXXXX#XXXXX   555555555555555555555555",
"555555555555555555555555555555555555555555555555         ######OOOOOO###   555555555555555555555",
"555555555555555555555555555555555555555555555555         ######OOOOOO###   555555555555555555555",
"555555555555555555555555555555555555555555555555         ######OOOOOO###   555555555555555555555",
"55555555555555555555555555555555555555555555555 =OOOOOOOOOOOOOO$$$$$$###555555555555555555555555",
"55555555555555555555555555555555555555555555555 =OOOOOOOOOOOOOO$$$$$$###555555555555555555555555",
"55555555555555555555555555555555555555555555555 =OOOOOOOOOOOOOO$$$$$$###555555555555555555555555",
"55555555555555555555555555555555555555555555555 =OOOOOOOOOOOOOO$$$$$$###555555555555555555555555",
"55555555555555555555555555555555555555555        XXXXX$$$$$$$$$ .....+++%%%%%%%%5555555555555555",
"55555555555555555555555555555555555555555        XXXXX$$$$$$$$$ .....+++%%%%%%%%5555555555555555",
"55555555555555555555555555555555555555555        XXXXX$$$$$$$$$ .....+++%%%%%%%%5555555555555555",
"55555555555555555555555555555555555555555        XXXXX$$$$$$$$$ .....+++%%%%%%%%5555555555555555",
"55555555555555555555555555555555555555555        XXXXX$$$$$$$$$ .....+++%%%%%%%%5555555555555555",
"555555555555555555555555555555555555555  ++++++.......                  %%%%%%%%5555555555555555",
"555555555555555555555555555555555555555  +++++++         %%%%%%%%%%%%%%%%%%%%%%%5555555555555555",
"555555555555555555555555555555555555555  +++++++         %%%%%%%%%%%%%%%%%%%%%%%5555555555555555",
"555555555555555555555555555555555555555  +++++++         %%%%%%%%%%%%%%%%%%%%%%%5555555555555555",
"555555555555555555555555555555555555555  +++++++         %%%%%%%%%%%%%%%%%%%%%%%5555555555555555",
"555555555555555555555555555555555555555  +++++++         %%%%%%%%%%%%%%%%%%%%%%%5555555555555555",
"55555555555555555555555555555555555555555       %%%%%%%%%%%%%%%%%%%%%%%%%%%%%%555555555555555555",
"5555555555555555555555555555555555555555555555555%%%%%%%%%%%%%%%%%%%%%%%555555555555555555555555",
"5555555555555555555555555555555555555555555555555%%%%%%%%%%%%%%%%%%%%%%%555555555555555555555555",
"555555555555555555555555555555555555555555555555555555555555555555555555555555555555555555555555",
"555555555555555555555555555555555555555555555555555555555555555555555555555555555555555555555555",
"555555555555555555555555555555555555555555555555555555555555555555555555555555555555555555555555",
"555555555555555555555555555555555555555555555555555555555555555555555555555555555555555555555555",
"555555555555555555555555555555555555555555555555555555555555555555555555555555555555555555555555",
"555555555555555555555555555555555555555555555555555555555555555555555555555555555555555555555555",
"555555555555555555555555555555555555555555555555555555555555555555555555555555555555555555555555",
"555555555555555555555555555555555555555555555555555555555555555555555555555555555555555555555555",
"555555555555555555555555555555555555555555555555555555555555555555555555555555555555555555555555",
"555555555555555555555555555555555555555555555555555555555555555555555555555555555555555555555555",
"555555555555555555555555555555555555555555555555555555555555555555555555555555555555555555555555",
"555555555555555555555555555555555555555555555555555555555555555555555555555555555555555555555555",
"555555555555555555555555555555555555555555555555555555555555555555555555555555555555555555555555",
"555555555555555555555555555555555555555555555555555555555555555555555555555555555555555555555555",
"555555555555555555555555555555555555555555555555555555555555555555555555555555555555555555555555",
"555555555555555555555555555555555555555555555555555555555555555555555555555555555555555555555555",
"555555555555555555555555555555555555555555555555555555555555555555555555555555555555555555555555",
"555555555555555555555555555555555555555555555555555555555555555555555555555555555555555555555555",
"555555555555555555555555555555555555555555555555555555555555555555555555555555555555555555555555",
"555555555555555555555555555555555555555555555555555555555555555555555555555555555555555555555555",
"555555555555555555555555555555555555555555555555555555555555555555555555555555555555555555555555",
"555555555555555555555555555555555555555555555555555555555555555555555555555555555555555555555555",
"555555555555555555555555555555555555555555555555555555555555555555555555555555555555555555555555",
"555555555555555555555555555555555555555555555555555555555555555555555555555555555555555555555555",
"555555555555555555555555555555555555555555555555555555555555555555555555555555555555555555555555",
"555555555555555555555555555555555555555555555555555555555555555555555555555555555555555555555555",
"555555555555555555555555555555555555555555555555555555555555555555555555555555555555555555555555"
};
