/* XPM */
static char *result[] = {
/* columns rows colors chars-per-pixel */
"96 110 25 1 ",
"  c black",
". c #7B1029",
"X c #107B29",
"o c #7B5200",
"O c #734221",
"+ c #6B6B5A",
"@ c #DE2929",
"# c #A57B42",
"$ c #42A529",
"% c #10FF08",
"& c #363243",
"* c #BD8418",
"= c #EFBD21",
"- c yellow",
"; c #FFEF29",
": c #94947B",
"> c #DEAD52",
", c #3152FF",
"< c #D6B58C",
"1 c #BDFFA5",
"2 c #C6C6AD",
"3 c #FFE7BD",
"4 c #EFEFD6",
"5 c white",
"6 c None",
/* pixels */
"666666666666666666666666666666666666666666666666666666666666666666666666666666666666666666666666",
"666666666666666666666666666666666666666666666666666666666666666666666666666666666666666666666666",
"666666666666666666666666666666666666666666666666666666666666666666666666666666666666666666666666",
"666666666666666666666666666666666666666666666666666666666666666666666666666666666666666666666666",
"666666666666666666666666666666666666666666666666666666666666666666666666666666666666666666666666",
"666666666666666666666666666666666666666666666666666666666666666666666666666666666666666666666666",
"666666666666666666666666666666666666666666666666666666666666666666666666666666666666666666666666",
"666666666666666666666666666666666666666666666666666666666666666666666666666666666666666666666666",
"666666666666666666666666666666666666666666666666666666666666666666666666666666666666666666666666",
"666666666666666666666666666666666666666666666666666666666666666666666666666666666666666666666666",
"666666666666666666666666666666666666666666666666666666666666666666666666666666666666666666666666",
"666666666666666666666666666666666666666666666666666666666666666666666666666666666666666666666666",
"666666666666666666666666666666666666666666666666666666666666666666666666666666666666666666666666",
"666666666666666666666666666666666666666666666666666666666666666666666666666666666666666666666666",
"666666666666666666666666666666666666666666666666666666666666666666666666666666666666666666666666",
"666666666666666666666666666666666666666666666666666666666666666666666666666666666666666666666666",
"666666666666666666666666666666666666666666666666666666666666666666666666666666666666666666666666",
"666666666666666666666666666666666666666666666666666666666666666666666666666666666666666666666666",
"666666666666666666666666666666666666666666666666666666666666666666666666666666666666666666666666",
"666666666666666666666666666666666666666666666666666666666666666666666666666666666666666666666666",
"666666666666666666666666666666666666666666666666666666666666666666666666666666666666666666666666",
"666666666666666666666666666666666666666666666666666666666666666666666666666666666666666666666666",
"6666666666666666666666666666666666666666666666666666#####OOOO$$$%%%%%%$$$$$$$6666666666666666666",
"6666666666666666666666666666666666666666666666666666#####OOOO$$$%%%%%%$$$$$$$6666666666666666666",
"6666666666666666666666666666666666666666666666666666#####OOOO$$$%%%%%%$$$$$$$6666666666666666666",
"6666666666666666666666666666666666666666666666666666#####OOOO$$$%%%%%%$$$$$$$6666666666666666666",
"6666666666666666666666666666666666666666666666666666#####OOOO$$$%%%%%%$$$$$$$6666666666666666666",
"666666666666666666666666666666666666666666666666#>>>-----%%%%%%%%%%%%%%%%%%%%$666666666666666666",
"666666666666666666666666666666666666666666666666#>>>-----%%%%%%%%%%%%%%%%%%%%$666666666666666666",
"66666666666666666666666666666666666666666666666#---->>>>>>>>>%%%%%%%%%%%%%%%%%%%%XXX666666666666",
"666666666666666666666666666666666666666666#####-->>>###------%%%%%%%%%%%%%%%%%%%%%%%XXX666666666",
"666666666666666666666666666666666666666666#####-->>>###------%%%%%%%%%%%%%%%%%%%%%%%XXX666666666",
"666666666666666666666666666666666666666666#####-->>>###------%%%%%%%%%%%%%%%%%%%%%%%XXX666666666",
"666666666666666666666666666666666666666666#####-->>>###------%%%%%%%%%%%%%%%%%%%%%%%XXX666666666",
"666666666666666666666666666666666666666666#####-->>>###------%%%%%%%%%%%%%%%%%%%%%%%XXX666666666",
"666666666666666666666666666666666666666666OOOOO->OOO<<<##-------%%%%%%%%%%%%%%%%%$$$$$$XXX666666",
"66666666666666666666666666666666666666666666666OO<<<333<<-------%%%%%%%%$$$$$$$$$$$$$$$$$$666666",
"66666666666666666666666666666666666666666666666OO<<<333<<-------%%%%%%%%$$$$$$$$$$$$$$$$$$666666",
"66666666666666666666666666666666666666666666666OO<<<333<<-------%%%%%%%%$$$$$$$$$$$$$$$$$$666666",
"66666666666666666666666666666666666666666666666OO<<<333<<-------%%%%%%%%$$$$$$$$$$$$$$$$$$666666",
"66666666666666666666666666666666666666666666666OO<<<333<<-------%%%%%%%%$$$$$$$$$$$$$$$$$$666666",
"666666666666666666666666666666666666666666666666 OOO   33<<<<###OOOXXX$$XXXXXXXXXXXXXXX$$$ 66666",
"666666666666666666666666666666666666666666666666 OOO   33<<<<###OOOXXX$$XXXXXXXXXXXXXXX$$$ 66666",
"666666666666666666666666666666666666666666666666 OOO   33<<<<###OOOXXX$$XXXXXXXXXXXXXXX$$$ 66666",
"666666666666666666666666666666666666666666666666 OOO   33<<<<###OOOXXX$$XXXXXXXXXXXXXXX$$$ 66666",
"666666666666666666666666666666666666666666666666 OOO   33<<<<###OOOXXX$$XXXXXXXXXXXXXXX$$$ 66666",
"66666666666666666666666666666666666666666666666 <,,,55533####>>>OOO<<<3333333 XXX      XXX$     ",
"66666666666666666666666666666666666666666666666 <,,,55533####>>>OOO<<<3333333 XXX      XXX$     ",
"66666666666666666666666666666666666666666666666 <,,,55533OOOO---   33333#####    666666   X     ",
"66666666666666666666666666666666666666666666666 <,,,55533OOOO---   33333#####    666666   X     ",
"66666666666666666666666666666666666666666666666 <,,,55533OOOO---   33333#####    666666   X     ",
"666666666666666666666666666666666666666666666666 <<<33333OOOO---   <<<##      666666666666 66666",
"666666666666666666666666666666666666666666666666 <<<33333OOOO---   <<<##      666666666666 66666",
"666666666666666666666666666666666666666666666666 <<<33333OOOO---   <<<##      666666666666 66666",
"666666666666666666666666666666666666666666666666 <<<33333OOOO---   <<<##      666666666666 66666",
"6666666666666666666666666666666666666666666666666   <<<<<OOOO---        >>>>>-666666666666666666",
"6666666666666666666666666666666666666666666666666   <<<<<OOOO---        >>>>>-666666666666666666",
"6666666666666666666666666666666666666666666666666666         >>>   $$$XX     6666666666666666666",
"6666666666666666666666666666666666666666666666666666         >>>   $$$XX     6666666666666666666",
"6666666666666666666666666666666666666666666666666666         >>>   $$$XX     6666666666666666666",
"6666666666666666666666666666666666666666666666666666         >>>   $$$XX     6666666666666666666",
"6666666666666666666666666666666666666666666666666666   $$       111111$$     6666666666666666666",
"6666666666666666666666666666666666666666666666666666   $$       111111$$     6666666666666666666",
"6666666666666666666666666666666666666666666666666   ---  OOOO111111111  $$$$$ 666666666666666666",
"6666666666666666666666666666666666666666666666666   ---  OOOO111111111  $$$$$ 666666666666666666",
"6666666666666666666666666666666666666666666666666   ---  OOOO111111111  $$$$$ 666666666666666666",
"666666666666666666666666666666666666666666666666 $$$   333333111111   OOOOOOO$   666666666666666",
"666666666666666666666666666666666666666666666666 $$$   333333111111   OOOOOOO$   666666666666666",
"666666666666666666666666666666666666666666666666 $$$   333333111111   OOOOOOO$   666666666666666",
"666666666666226666666666666666666666      66666& $$$   333333      %%%%%%%%%%$   666666666666666",
"666666666666446666666666666666666   ======*****o&            $$$%%%%%%%%$$$$$ &&&666666666666666",
"666666666666446666666666666666666   ======*****o&            $$$%%%%%%%%$$$$$ &&&666666666666666",
"666666666666446666666666666666666   ======*****o&            $$$%%%%%%%%$$$$$ &&&666666666666666",
"666666666666446666666666666666666   ======*****o&            $$$%%%%%%%%$$$$$ &&&666666666666666",
"666666666666445566666666666666666666***;;;;;;;;;o&&&   @@....                &&&&666666666666666",
"666666666666445566666666666666666666***;;;;;;;;;o&&&   @@....                &&&&666666666666666",
"666666666666665522666666666666666::::::===ooooo;;ooo   @@@@@@...        &&&&&&&&&666666666666666",
"666666666666665522666666666666666::::::===ooooo;;ooo   @@@@@@...        &&&&&&&&&666666666666666",
"666666666666665522666666666666666::::::===ooooo;;ooo   @@@@@@...        &&&&&&&&&666666666666666",
"666666666666664455222:::66666::::444555***=====*;***&&&         &&&&&&&&&&&&&&666666666666666666",
"666666666666664455222:::66666::::444555***=====*;***&&&         &&&&&&&&&&&&&&666666666666666666",
"666666666666664455222:::66666::::444555***=====*;***&&&         &&&&&&&&&&&&&&666666666666666666",
"66666666666666665544422222222222255555555544444o;***&&&&&&&&&&&&&&&&&&&&666666666666666666666666",
"66666666666666665544422222222222255555555544444o;***&&&&&&&&&&&&&&&&&&&&666666666666666666666666",
"66666666666666665555544444444555555555544444444+*ooo66666666666666666666666666666666666666666666",
"66666666666666665555544444444555555555544444444+*ooo66666666666666666666666666666666666666666666",
"66666666666666665555544444444555555555544444444+*ooo66666666666666666666666666666666666666666666",
"66666666666666665555544444444555555555544444444+*ooo66666666666666666666666666666666666666666666",
"66666666666666666655555544444555555544444455555:666666666666666666666666666666666666666666666666",
"66666666666666666655555544444555555544444455555:666666666666666666666666666666666666666666666666",
"66666666666666666655555544444555555544444455555:666666666666666666666666666666666666666666666666",
"666666666666666666666555555555555444444222:::::6666666666666666666666666666666666666666666666666",
"666666666666666666666555555555555444444222:::::6666666666666666666666666666666666666666666666666",
"666666666666666666666555555555555444444222:::::6666666666666666666666666666666666666666666666666",
"666666666666666666666555555555555444444222:::::6666666666666666666666666666666666666666666666666",
"666666666666666666666555555555555444444222:::::6666666666666666666666666666666666666666666666666",
"666666666666666666666444555555555222222666666666666666666666666666666666666666666666666666666666",
"666666666666666666666444555555555222222666666666666666666666666666666666666666666666666666666666",
"666666666666666666:::555554445555555444666666666666666666666666666666666666666666666666666666666",
"666666666666666666:::555554445555555444666666666666666666666666666666666666666666666666666666666",
"666666666666666666:::555554445555555444666666666666666666666666666666666666666666666666666666666",
"666666666666666666:::555442226666444555444666666666666666666666666666666666666666666666666666666",
"666666666666666666:::555442226666444555444666666666666666666666666666666666666666666666666666666",
"666666666666666666:::555442226666444555444666666666666666666666666666666666666666666666666666666",
"666666666666666666:::222::6666666666666222555554666666666666666666666666666666666666666666666666",
"666666666666666666:::222::6666666666666222555554666666666666666666666666666666666666666666666666",
"666666666666666666666666666666666666666666666666666666666666666666666666666666666666666666666666",
"666666666666666666666666666666666666666666666666666666666666666666666666666666666666666666666666",
"666666666666666666666666666666666666666666666666666666666666666666666666666666666666666666666666",
"666666666666666666666666666666666666666666666666666666666666666666666666666666666666666666666666"
};
