/* XPM */
static char *result[] = {
/* columns rows colors chars-per-pixel */
"96 110 20 1 ",
"  c black",
". c #7B1029",
"X c #107B29",
"o c #734221",
"O c #6B6B5A",
"+ c #DE2929",
"@ c #A57B42",
"# c #42A529",
"$ c #10FF08",
"% c #363243",
"& c yellow",
"* c #94947B",
"= c #DEAD52",
"- c #D6B58C",
"; c #BDFFA5",
": c #C6C6AD",
"> c #FFE7BD",
", c #EFEFD6",
"< c white",
"1 c None",
/* pixels */
"1111111111111111111111111111111111111111111111111111111111111111***11111111111111111111111111111",
"1111111111111111111111111111111111111111111111111111111111111111***11111111111111111111111111111",
"1111111111111111111111111111111111111111111111111111111111111111***11111111111111111111111111111",
"1111111111111111111111111111111111111111111111111111111111111111***11111111111111111111111111111",
"1111111111111111111111111111111111111111111111111111111111111***,,,***11111111111111111111111111",
"1111111111111111111111111111111111111111111111111111111111111***,,,***11111111111111111111111111",
"1111111111111111111111111111111111111111111111111111111111111:::<<<:::11111111111111111111111111",
"1111111111111111111111111111111111111111111111111111111111111:::<<<:::11111111111111111111111111",
"1111111111111111111111111111111111111111111111111111111111111:::<<<:::11111111111111111111111111",
"111111111111111111111111111111111111111111111111111111111OOOO,,,<<<,,,OO111111111111111111111111",
"111111111111111111111111111111111111111111111111111111111OOOO,,,<<<,,,OO111111111111111111111111",
"111111111111111111111111111111111111111111111111111111111OOOO,,,<<<,,,OO111111111111111111111111",
"111111111111111111111111111111111111111111111111111111111****<<<<<<,,,**111111111111111111111111",
"111111111111111111111111111111111111111111111111111111111****<<<<<<,,,**111111111111111111111111",
"111111111111111111111111111111111111111111111111111111111****<<<<<<,,,**111111111111111111111111",
"111111111111111111111111111111111111111111111111111111111****<<<<<<,,,**111111111111111111111111",
"111111111111111111111111111111111111111111111111111111111****<<<<<<,,,**111111111111111111111111",
"111111111111111111111111111111111111111111111111111111111****<<<<<<,,,**111111111111111111111111",
"111111111111111111111111111111111111111111111111111111111****<<<<<<,,,**111111111111111111111111",
"111111111111111111111111111111111111111111111111111111111****<<<<<<,,,**111111111111111111111111",
"111111111111111111111111111111111111111111111111111111111****<<<<<<,,,**111111111111111111111111",
"111111111111111111111111111111111111111111111111111111111****<<<<<<,,,**111111111111111111111111",
"111111111111111111111111111111111111111111111111111111111::::<<<<<<,,,::111111111111111111111111",
"111111111111111111111111111111111111111111111111111111111::::<<<<<<,,,::111111111111111111111111",
"111111111111111111111111111111111111111111111111111111111::::<<<<<<,,,::111111111111111111111111",
"111111111111111111111111111111111111111111111111111111111::::<<<<<<,,,::111111111111111111111111",
"1111111111111111111111111111111111111111111111111111111@@oooo###$$$$$$##111111111111111111111111",
"1111111111111111111111111111111111111111111111111111111@@oooo###$$$$$$##111111111111111111111111",
"1111111111111111111111111111111111111111111111111@@@@@&&&$$$$$$$$$$$$$$$$$$###111111111111111111",
"1111111111111111111111111111111111111111111111111@@@@@&&&$$$$$$$$$$$$$$$$$$###111111111111111111",
"111111111111111111111111111111111111111111111111@&&&&&=$$$$$$$$$$$$$$$$$$$$$$$111111111111111111",
"111111111111111111111111111111111111111111111111@&&&&&=$$$$$$$$$$$$$$$$$$$$$$$111111111111111111",
"111111111111111111111111111111111111111111111111@&&&&&=$$$$$$$$$$$$$$$$$$$$$$$111111111111111111",
"111111111111111111111111111111111111111111111111o======$$$$$$$$$$$$$$$$$$$$$$$###111111111111111",
"111111111111111111111111111111111111111111111111o======$$$$$$$$$$$$$$$$$$$$$$$###111111111111111",
"111111111111111111111111111111111111111111111111o======$$$$$$$$$$$$$$$$$$$$$$$###111111111111111",
"1111111111111111111111111111111111111111111111111@@@@@&##$$$$$$$$$$$$$$$$$$$$$$$$XXX111111111111",
"1111111111111111111111111111111111111111111111111@@@@@&##$$$$$$$$$$$$$$$$$$$$$$$$XXX111111111111",
"1111111111111111111111111111111111111111111111111@@@@@&##$$$$$$$$$$$$$$$$$$$$$$$$XXX111111111111",
"111111111111111111111111111111111111111111111111 -----&&&#######$$$$$$$$$$$$$$$$$###XXX111111111",
"111111111111111111111111111111111111111111111111 -----&&&#######$$$$$$$$$$$$$$$$$###XXX111111111",
"111111111111111111111111111111111111111111111111@>>>>>@@@>>>>ooo#######################XXX111111",
"111111111111111111111111111111111111111111111111@>>>>>@@@>>>>ooo#######################XXX111111",
"111111111111111111111111111111111111111111111111@>>>>>@@@>>>>ooo#######################XXX111111",
"111111111111111111111111111111111111111111111111@>>>>>@@@>>>>ooo#######################XXX111111",
"111111111111111111111111111111111111111111111111@>>>>>@@@>>>>ooo#######################XXX111111",
"111111111111111111111111111111111111111111111111@>>>>>&oo>>>>oooXXX########XXX#########XXX111111",
"111111111111111111111111111111111111111111111111o-----&  ----      XXX##XXX   #########XXX111111",
"111111111111111111111111111111111111111111111111o-----&  ----      XXX##XXX   #########XXX111111",
"111111111111111111111111111111111111111111111111o-----&  ----      XXX##XXX   #########XXX111111",
"111111111111111111111111111111111111111111111111o-----&  ----      XXX##XXX   #########XXX111111",
"111111111111111111111111111111111111111111111111o-----&  ----      XXX##XXX   #########XXX111111",
"111111111111111111111111111111111111111111111111      =      @@@======XXXXXXXXXXX###XXX   111111",
"111111111111111111111111111111111111111111111111 ;;;;;             ===&&===      XXX   111111111",
"111111111111111111111111111111111111111111111111 ;;;;;             ===&&===      XXX   111111111",
"111111111111111111111111111111111111111111111111 ;;;;;;;;    XXXXXX     &&&      XXX   111111111",
"111111111111111111111111111111111111111111111111 ;;;;;;;;    XXXXXX     &&&      XXX   111111111",
"111111111111111111111111111111111111111111111111 ;;;;;;;;    XXXXXX     &&&      XXX   111111111",
"1111111111111111111111111111111111111111111111111     ;;;XXXX#########XX   ;;;111   111111111111",
"1111111111111111111111111111111111111111111111111     ;;;XXXX#########XX   ;;;111   111111111111",
"1111111111111111111111111111111111111111111111111     ;;;XXXX#########XX   ;;;111   111111111111",
"1111111111111111111111111111111111111111111111111     ;;;XXXX#########XX   ;;;111   111111111111",
"111111111111111111111111111111111111111111111111111111   #############XX   ;;;111111111111111111",
"111111111111111111111111111111111111111111111111111111   #############XX   ;;;111111111111111111",
"1111111111111111111111111111111111111111111111111     o############oooooXXX   111111111111111111",
"1111111111111111111111111111111111111111111111111     o############oooooXXX   111111111111111111",
"1111111111111111111111111111111111111111111111111     o############oooooXXX   111111111111111111",
"1111111111111111111111111111111111111111111111111     o############oooooXXX   111111111111111111",
"1111111111111111111111111111111111111111111111111     #oooooooooooo$$$#####XXX111111111111111111",
"11111111111111111111111111111111111111111111111%%     X$$$$$$$$$$$$$$$$$###   111111111111111111",
"11111111111111111111111111111111111111111111111%%     X$$$$$$$$$$$$$$$$$###   111111111111111111",
"11111111111111111111111111111111111111111111%%%%%%%%%% $$$$$$$$$$$$###++   %%%111111111111111111",
"11111111111111111111111111111111111111111111%%%%%%%%%% $$$$$$$$$$$$###++   %%%111111111111111111",
"11111111111111111111111111111111111111111111%%%%%%%%%% $$$$$$$$$$$$###++   %%%111111111111111111",
"11111111111111111111111111111111111111111111%%%%%     +                 %%%%%%111111111111111111",
"11111111111111111111111111111111111111111111%%%%%     +++....      %%%%%%%%%%%111111111111111111",
"11111111111111111111111111111111111111111111%%%%%     +++....      %%%%%%%%%%%111111111111111111",
"11111111111111111111111111111111111111111111%%%%%     +++....      %%%%%%%%%%%111111111111111111",
"11111111111111111111111111111111111111111111%%%%%     +++....      %%%%%%%%%%%111111111111111111",
"11111111111111111111111111111111111111111111%%%%%     +++....      %%%%%%%%%%%111111111111111111",
"11111111111111111111111111111111111111111111111%%%%%%%       %%%%%%%%%%%%%%%%%111111111111111111",
"1111111111111111111111111111111111111111111111111%%%%%%%%%%%%%%%%%%%%%%%111111111111111111111111",
"1111111111111111111111111111111111111111111111111%%%%%%%%%%%%%%%%%%%%%%%111111111111111111111111",
"111111111111111111111111111111111111111111111111111111111111111111111111111111111111111111111111",
"111111111111111111111111111111111111111111111111111111111111111111111111111111111111111111111111",
"111111111111111111111111111111111111111111111111111111111111111111111111111111111111111111111111",
"111111111111111111111111111111111111111111111111111111111111111111111111111111111111111111111111",
"111111111111111111111111111111111111111111111111111111111111111111111111111111111111111111111111",
"111111111111111111111111111111111111111111111111111111111111111111111111111111111111111111111111",
"111111111111111111111111111111111111111111111111111111111111111111111111111111111111111111111111",
"111111111111111111111111111111111111111111111111111111111111111111111111111111111111111111111111",
"111111111111111111111111111111111111111111111111111111111111111111111111111111111111111111111111",
"111111111111111111111111111111111111111111111111111111111111111111111111111111111111111111111111",
"111111111111111111111111111111111111111111111111111111111111111111111111111111111111111111111111",
"111111111111111111111111111111111111111111111111111111111111111111111111111111111111111111111111",
"111111111111111111111111111111111111111111111111111111111111111111111111111111111111111111111111",
"111111111111111111111111111111111111111111111111111111111111111111111111111111111111111111111111",
"111111111111111111111111111111111111111111111111111111111111111111111111111111111111111111111111",
"111111111111111111111111111111111111111111111111111111111111111111111111111111111111111111111111",
"111111111111111111111111111111111111111111111111111111111111111111111111111111111111111111111111",
"111111111111111111111111111111111111111111111111111111111111111111111111111111111111111111111111",
"111111111111111111111111111111111111111111111111111111111111111111111111111111111111111111111111",
"111111111111111111111111111111111111111111111111111111111111111111111111111111111111111111111111",
"111111111111111111111111111111111111111111111111111111111111111111111111111111111111111111111111",
"111111111111111111111111111111111111111111111111111111111111111111111111111111111111111111111111",
"111111111111111111111111111111111111111111111111111111111111111111111111111111111111111111111111",
"111111111111111111111111111111111111111111111111111111111111111111111111111111111111111111111111",
"111111111111111111111111111111111111111111111111111111111111111111111111111111111111111111111111",
"111111111111111111111111111111111111111111111111111111111111111111111111111111111111111111111111",
"111111111111111111111111111111111111111111111111111111111111111111111111111111111111111111111111"
};
