/* XPM */
static char *result[] = {
/* columns rows colors chars-per-pixel */
"96 110 24 1 ",
"  c black",
". c #7B1029",
"X c #107B29",
"o c #734221",
"O c #6B6B5A",
"+ c #DE2929",
"@ c #A57B42",
"# c #42A529",
"$ c #10FF08",
"% c #363243",
"& c #BD8418",
"* c #EFBD21",
"= c yellow",
"- c #FFEF29",
"; c #94947B",
": c #DEAD52",
"> c #3152FF",
", c #D6B58C",
"< c #BDFFA5",
"1 c #C6C6AD",
"2 c #FFE7BD",
"3 c #EFEFD6",
"4 c white",
"5 c None",
/* pixels */
"555555555555555555555555555555555555555555555555555555555555555555555555555555555555555555555555",
"555555555555555555555555555555555555555555555555555555555555555555555555555555555555555555555555",
"555555555555555555555555555555555555555555555555555555555555555555555555555555555555555555555555",
"555555555555555555555555555555555555555555555555555555555555555555555555555555555555555555555555",
"555555555555555555555555555555555555555555555555555555555555555555555555555555555555555555555555",
"555555555555555555555555555555555555555555555555555555555555555555555555555555555555555555555555",
"555555555555555555555555555555555555555555555555555555555555555555555555555555555555555555555555",
"555555555555555555555555555555555555555555555555555555555555555555555555555555555555555555555555",
"555555555555555555555555555555555555555555555555555555555555555555555555555555555555555555555555",
"555555555555555555555555555555555555555555555555555555555555555555555555555555555555555555555555",
"555555555555555555555555555555555555555555555555555555555555555555555555555555555555555555555555",
"555555555555555555555555555555555555555555555555555555555555555555555555555555555555555555555555",
"555555555555555555555555555555555555555555555555555555555555555555555555555555555555555555555555",
"555555555555555555555555555555555555555555555555555555555555555555555555555555555555555555555555",
"555555555555555555555555555555555555555555555555555555555555555555555555555555555555555555555555",
"555555555555555555555555555555555555555555555555555555555555555555555555555555555555555555555555",
"555555555555555555555555555555555555555555555555555555555555555555555555555555555555555555555555",
"555555555555555555555555555555555555555555555555555555555555555555555555555555555555555555555555",
"555555555555555555555555555555555555555555555555555555555555555555555555555555555555555555555555",
"555555555555555555555555555555555335555555555555555555555555555555555555555555555555555555555555",
"555555555555555555555555555555555335555555555555555555555555555555555555555555555555555555555555",
"555555555555555555555555555555555335555555555555555555555555555555555555555555555555555555555555",
"555555555555555555555555555333331555555555555555555555555555555555555555555555555555555555555555",
"555555555555555555555555555333331555555555555555555555555555555555555555555555555555555555555555",
"555555555555555555555555555333331555555555555555555555555555555555555555555555555555555555555555",
"555555555555555555555555555333331555555555555555555555555555555555555555555555555555555555555555",
"555555555555555555555555554333335555555555555555555555555555555555555555555555555555555555555555",
"555555555555555555555555554333335555555555555555555555555555555555555555555555555555555555555555",
"555555555555555555555555443111115555555555555555555555555555555555555555555555555555555555555555",
"555555555555555555555555443111115555555555555555555555555555555555555555555555555555555555555555",
"555555555555555555555333441555555555555555555555555555555555555555555555555555555555555555555555",
"555555555555555555555333441555555555555555555555555555555555555555555555555555555555555555555555",
"555555555555555555555333441555555555555555555555555555555555555555555555555555555555555555555555",
"555555555555555555333444331555555555555@@:::===o#$$$$$$$$###555555555555555555555555555555555555",
"555555555555555555333444331555555555555@@:::===o#$$$$$$$$###555555555555555555555555555555555555",
"555555555555555555333444331555555555555@@:::===o#$$$$$$$$###555555555555555555555555555555555555",
"55555555555555555544444433555555555@@@@=========$$$$$$$$$$$$$$$$###55555555555555555555555555555",
"55555555555555555544444433555555555@@@@=========$$$$$$$$$$$$$$$$###55555555555555555555555555555",
"55555555555555555544444433555555555@@@@=========$$$$$$$$$$$$$$$$###55555555555555555555555555555",
"555555555555555555444444115555555@@======::::::::$$$$$$$$$$$$$$$$$$$$$##555555555555555555555555",
"555555555555555555444333115555555@@====::@@@@@@==$$$$$$$$$$$$$$$$$$#######XXX5555555555555555555",
"555555555555555333444333115555555oo::::oo,,,@@@=====$$$$$$$$$$$$#############X555555555555555555",
"555555555555555333444333115555555oo::::oo,,,@@@=====$$$$$$$$$$$$#############X555555555555555555",
"555555555555555333444333115555555oo::::oo,,,@@@=====$$$$$$$$$$$$#############X555555555555555555",
"555555555555555333444333111555555&&oooooo,,,,,,@======$$$$$$##################XX5555555555555555",
"555555555555555333444333111555555&&oooooo,,,,,,@======$$$$$$##################XX5555555555555555",
"555555555555555333444333111555555&&oooooo,,,,,,@======$$$$$$##################XX5555555555555555",
"55555OOO3333333333333333333333331OO----  ooo   2,@@@ooXXX####XXXXXXXXX        XX  55555555555555",
"55555OOO3333333333333333333333331OO----  ooo   2,@@@ooXXX####XXXXXXXXX        XX  55555555555555",
"55555OOO3333333333333333333333331OO----  ooo   2,@@@ooXXX####XXXXXXXXX        XX  55555555555555",
"55555;;;444444444444444444333333---    ,,>>>4442@:::oo,,,2222XXXXXX   55555555    55555555555555",
"55555;;;444444444444444444333333---    ,,>>>4442@:::oo,,,2222XXXXXX   55555555    55555555555555",
"55555;;;444444444444444444333333---    ,,>>>4442@:::oo,,,2222XXXXXX   55555555    55555555555555",
"55555;;;444444444444444444333333---    ,,>>>4442@:::oo,,,2222XXXXXX   55555555    55555555555555",
"55555;;;444444444444444444333333---    ,,>>>4442@:::oo,,,2222XXXXXX   55555555    55555555555555",
"555555555555555;;;111111334444443------  ,,,2222,ooo==   @@@    55555555555555555555555555555555",
"555555555555555;;;111111334444443------  ,,,2222,ooo==   @@@    55555555555555555555555555555555",
"555555555555555;;;111111334444443------  ,,,2222,ooo==   @@@    55555555555555555555555555555555",
"55555555555555533355555555133333 &&----     ,,,,,ooo==      :===55555555555555555555555555555555",
"55555555555555533355555555133333 &&----     ,,,,,ooo==      :===55555555555555555555555555555555",
"55555555555555533355555555133333 &&----     ,,,,,ooo==      :===55555555555555555555555555555555",
"55555555555555533355555555133333 &&----     ,,,,,ooo==      :===55555555555555555555555555555555",
"55555555555555533355555555555555&**    22222        XXXXX###$###      55555555555555555555555555",
"55555555555555533355555555555555&**    22222        XXXXX###$###      55555555555555555555555555",
"55555555555555533355555555555555       22222<<<<<<<<<<###$$$$ooo$$$$$$  555555555555555555555555",
"555555555555555333555555555555555555555     ooo<<<<<oo###$$$oooo$$$$$$  555555555555555555555555",
"555555555555555333555555555555555555555     ooo<<<<<oo###$$$oooo$$$$$$  555555555555555555555555",
"555555555555555333555555555555555555555     ooo<<<<<oo###$$$oooo$$$$$$  555555555555555555555555",
"555555555555555333555555555555555555555     ooo<<<<<oo###$$$oooo$$$$$$  555555555555555555555555",
"555555555555555555555555555555555555555555555555 XXX##$$$$$$$$$$        %%%%%5555555555555555555",
"555555555555555555555555555555555555555555555555 XXX##$$$$$$$$$$        %%%%%5555555555555555555",
"55555555555555555555555555555555555555555           XX###$$$#   ...+++  %%%%%%555555555555555555",
"55555555555555555555555555555555555555555           XX###$$$#   ...+++  %%%%%%555555555555555555",
"55555555555555555555555555555555555555555           XX###$$$#   ...+++  %%%%%%555555555555555555",
"555555555555555555555555555555555555555  ++++++.....                  %%%%%%%%555555555555555555",
"555555555555555555555555555555555555555  ++++++.....                  %%%%%%%%555555555555555555",
"555555555555555555555555555555555555555  ++++++.....                  %%%%%%%%555555555555555555",
"555555555555555555555555555555555555555  +++++++      %%%%%%%%%%%%%%%%%%%%%%%%555555555555555555",
"555555555555555555555555555555555555555  +++++++      %%%%%%%%%%%%%%%%%%%%%%%%555555555555555555",
"555555555555555555555555555555555555555  +++++++      %%%%%%%%%%%%%%%%%%%%%%%%555555555555555555",
"555555555555555555555555555555555555555  +++++++      %%%%%%%%%%%%%%%%%%%%%%%%555555555555555555",
"5555555555555555555555555555555555555555555555555555%%%%%%%%%%%%%%%%%%%%555555555555555555555555",
"5555555555555555555555555555555555555555555555555555%%%%%%%%%%%%%%%%%%%%555555555555555555555555",
"555555555555555555555555555555555555555555555555555555555555555555555555555555555555555555555555",
"555555555555555555555555555555555555555555555555555555555555555555555555555555555555555555555555",
"555555555555555555555555555555555555555555555555555555555555555555555555555555555555555555555555",
"555555555555555555555555555555555555555555555555555555555555555555555555555555555555555555555555",
"555555555555555555555555555555555555555555555555555555555555555555555555555555555555555555555555",
"555555555555555555555555555555555555555555555555555555555555555555555555555555555555555555555555",
"555555555555555555555555555555555555555555555555555555555555555555555555555555555555555555555555",
"555555555555555555555555555555555555555555555555555555555555555555555555555555555555555555555555",
"555555555555555555555555555555555555555555555555555555555555555555555555555555555555555555555555",
"555555555555555555555555555555555555555555555555555555555555555555555555555555555555555555555555",
"555555555555555555555555555555555555555555555555555555555555555555555555555555555555555555555555",
"555555555555555555555555555555555555555555555555555555555555555555555555555555555555555555555555",
"555555555555555555555555555555555555555555555555555555555555555555555555555555555555555555555555",
"555555555555555555555555555555555555555555555555555555555555555555555555555555555555555555555555",
"555555555555555555555555555555555555555555555555555555555555555555555555555555555555555555555555",
"555555555555555555555555555555555555555555555555555555555555555555555555555555555555555555555555",
"555555555555555555555555555555555555555555555555555555555555555555555555555555555555555555555555",
"555555555555555555555555555555555555555555555555555555555555555555555555555555555555555555555555",
"555555555555555555555555555555555555555555555555555555555555555555555555555555555555555555555555",
"555555555555555555555555555555555555555555555555555555555555555555555555555555555555555555555555",
"555555555555555555555555555555555555555555555555555555555555555555555555555555555555555555555555",
"555555555555555555555555555555555555555555555555555555555555555555555555555555555555555555555555",
"555555555555555555555555555555555555555555555555555555555555555555555555555555555555555555555555",
"555555555555555555555555555555555555555555555555555555555555555555555555555555555555555555555555",
"555555555555555555555555555555555555555555555555555555555555555555555555555555555555555555555555",
"555555555555555555555555555555555555555555555555555555555555555555555555555555555555555555555555",
"555555555555555555555555555555555555555555555555555555555555555555555555555555555555555555555555"
};
