/* XPM */
static char *result[] = {
/* columns rows colors chars-per-pixel */
"96 110 24 1 ",
"  c black",
". c #7B1029",
"X c #107B29",
"o c #7B5200",
"O c #734221",
"+ c #DE2929",
"@ c #A57B42",
"# c #42A529",
"$ c #10FF08",
"% c #363243",
"& c #BD8418",
"* c #EFBD21",
"= c yellow",
"- c #FFEF29",
"; c #94947B",
": c #DEAD52",
"> c #3152FF",
", c #D6B58C",
"< c #BDFFA5",
"1 c #C6C6AD",
"2 c #FFE7BD",
"3 c #EFEFD6",
"4 c white",
"5 c None",
/* pixels */
"555555555555555555555555555555555555555555555555555555555555555555555555555555555555555555555555",
"555555555555555555555555555555555555555555555555555555555555555555555555555555555555555555555555",
"555555555555555555555555555555555555555555555555555555555555555555555555555555555555555555555555",
"555555555555555555555555555555555555555555555555555555555555555555555555555555555555555555555555",
"555555555555555555555555555555555555555555555555555555555555555555555555555555555555555555555555",
"555555555555555555555555555555555555555555555555555555555555555555555555555555555555555555555555",
"555555555555555555555555555555555555555555555555555555555555555555555555555555555555555555555555",
"555555555555555555555555555555555555555555555555555555555555555555555555555555555555555555555555",
"555555555555555555555555555555555555555555555555555555555555555555555555555555555555555555555555",
"555555555555555555555555555555555555555555555555555555555555555555555555555555555555555555555555",
"555555555555555555555555555555555555555555555555555555555555555555555555555555555555555555555555",
"555555555555555555555555555555555555555555555555555555555555555555555555555555555555555555555555",
"555555555555555555555555555555555555555555555555555555555555555555555555555555555555555555555555",
"555555555555555555555555555555555555555555555555555555555555555555555555555555555555555555555555",
"555555555555555555555555555555555555555555555555555555555555555555555555555555555555555555555555",
"555555555555555555555555555555555555555555555555555555555555555555555555555555555555555555555555",
"555555555555555555555555555555555555555555555555555555555555555555555555555555555555555555555555",
"555555555555555555555555555555555555555555555555555555555555555555555555555555555555555555555555",
"555555555555555555555555555555555555555555555555555555555555555555555555555555555555555555555555",
"555555555555555555555555555555555555555555555555555555555555555555555555555555555555555555555555",
"555555555555555555555555555555555555555555555555555555555555555555555555555555555555555555555555",
"555555555555555555555555555555555555555555555555555555555555555555555555555555555555555555555555",
"555555555555555555555555555555555555555555555555555555555555555555555555555555555555555555555555",
"555555555555555555555555555555555555555555555555555555555555555555555555555555555555555555555555",
"555555555555555555555555555555555555555555555555555555555555555555555555555555555555555555555555",
"555555555555555555555555555555555555555555555555555555555555555555555555555555555555555555555555",
"555555555555555555555555555555555555555555555555555555555555555555555555555555555555555555555555",
"555555555555555555555555555555555555555555555555555555555555555555555555555555555555555555555555",
"555555555555555555555555555555555555555555555555555555555555555555555555555555555555555555555555",
"555555555555555555555555555555555555555555555555555555555555555555555555555555555555555555555555",
"555555555555555555555555555555555555555555555555555555555555555555555555555555555555555555555555",
"555555555555555555555555555555555555555555555555555555555555555555555555555555555555555555555555",
"555555555555555555555555555555555555555555555555555555555555555555555555555555555555555555555555",
"555555555555555555555555555555555555555555555555555555555555555555555555555555555555555555555555",
"555555555555555555555555555555555555555555555555555555555555555555555555555555555555555555555555",
"555555555555555555555555555555555555555555555555555555555555555555555555555555555555555555555555",
"555555555555555555555555555555555555555555@@@@@O#$$$$$$$$$$$###555555555555555555555555555555555",
"555555555555555555555555555555555555555555@@@@@O#$$$$$$$$$$$###555555555555555555555555555555555",
"555555555555555555555555555555555555555555@@@@@O#$$$$$$$$$$$###555555555555555555555555555555555",
"555555555555555555555555555555555555555555@@@@@O#$$$$$$$$$$$###555555555555555555555555555555555",
"555555555555555555555555555555555555@@@:::======$$$$$$$$$$$$$$$$###55555555555555555555555555555",
"55555555555555555555555555555555555@===:::@@@@@==$$$$$$$$$$$$$$$########XX5555555555555555555555",
"55555555555555555555555555555555555@===:::@@@@@==$$$$$$$$$$$$$$$########XX5555555555555555555555",
"55555555555555555555555555555555555@===:::@@@@@==$$$$$$$$$$$$$$$########XX5555555555555555555555",
"55555555555555555555555555555555555@===:::@@@@@==$$$$$$$$$$$$$$$########XX5555555555555555555555",
"55555555555555555555555555555555555@===:::@@@@@==$$$$$$$$$$$$$$$########XX5555555555555555555555",
"55555555555555555555555555555555555O:::OOO,,,,,=====$$$$$$$$##############XXX5555555555555555555",
"555555555555555555555555555555555555OOO,,,22222=====######################### 555555555555555555",
"555555555555555555555555555555555555OOO,,,22222=====######################### 555555555555555555",
"555555555555555355555555555555555555   ,,,22222,=@@@############XXXXXXXXXXXXX#  5555555555555555",
"555555555555555355555555555555555555   ,,,22222,=@@@############XXXXXXXXXXXXX#  5555555555555555",
"555555555555555355555555555555555555   ,,,22222,=@@@############XXXXXXXXXXXXX#  5555555555555555",
"555555555555555355555555555555555555   ,,,22222,=@@@############XXXXXXXXXXXXX#  5555555555555555",
"555555555555555355555555555555555555   OOO     2@OOOXXX##XXXXXXXXXXXXX       XXX  55555555555555",
"555555555555555355555555555555555555   OOO     2@OOOXXX##XXXXXXXXXXXXX       XXX  55555555555555",
"5555555555555554;;55555555555555555 ,,,>>>44444@:OOO,,,22222   X      5555555     55555555555555",
"55555555555555541155555555555555555 ,,,>>>44444O=   22222@@@    5555555555555555  55555555555555",
"55555555555555541155555555555555555 ,,,>>>44444O=   22222@@@    5555555555555555  55555555555555",
"55555555555555541155555555555555555 ,,,>>>44444O=   22222@@@    5555555555555555  55555555555555",
"55555555555555541155555555555555555 ,,,>>>44444O=   22222@@@    5555555555555555  55555555555555",
"55555555555555541155555555555555555 ,,,>>>44444O=   22222@@@    5555555555555555  55555555555555",
"555555555555555433555555555555555555   ,,,22222O=   ,,,@@   :::=55555555555555555555555555555555",
"555555555555555433;;;555555         555   ,,,,,O=        ###   555555555555555555555555555555555",
"555555555555555433;;;555555         555   ,,,,,O=        ###   555555555555555555555555555555555",
"555555555555555433111555555&&---***&555555      :   XXX########    55555555555555555555555555555",
"555555555555555433111555555&&---***&555555      :   XXX########    55555555555555555555555555555",
"555555555555555433111555555&&---***&555555      :   XXX########    55555555555555555555555555555",
"555555555555555433111555555&&---***&555555      :   XXX########    55555555555555555555555555555",
"555555555555555344333155;;;55&&&----55555555555 O<<<<<<#####$$$O$$$   55555555555555555555555555",
"5555555555555555;;44434444444----------&&&22222<<OOO   OOOOO$$$$XXX   %%%%5555555555555555555555",
"5555555555555555;;44434444444----------&&&22222<<OOO   OOOOO$$$$XXX   %%%%5555555555555555555555",
"5555555555555555;;44434444444----------&&&22222<<OOO   OOOOO$$$$XXX   %%%%5555555555555555555555",
"5555555555555555;;44434444444----------&&&22222<<OOO   OOOOO$$$$XXX   %%%%5555555555555555555555",
"5555555555555555;;44434444444----------&&&22222<<OOO   OOOOO$$$$XXX   %%%%5555555555555555555555",
"55555555511133344444444444444111444-&&&ooo     . XXX########XXX    %%%%%%%%%%5555555555555555555",
"55555555511133344444444444444111444-&&&ooo     . XXX########XXX    %%%%%%%%%%5555555555555555555",
"55555555511133344444444444444111444-&&&ooo     . XXX########XXX    %%%%%%%%%%5555555555555555555",
"55555555144444444444444411133;;;   oooo55555555++...        %%%%%%%%%%%%%%%%%5555555555555555555",
"55555555144444444444444411133;;;   oooo55555555++...        %%%%%%%%%%%%%%%%%5555555555555555555",
"55555555144444444444444411133;;;   oooo55555555++...        %%%%%%%%%%%%%%%%%5555555555555555555",
"55555555144444444444444411133;;;   oooo55555555++...        %%%%%%%%%%%%%%%%%5555555555555555555",
"555555555555;;;;55;;;4441115555555555555555555555%%%%%%%%%%%%%%%%%%%%%55555555555555555555555555",
"555555555555;;;;55;;;4441115555555555555555555555%%%%%%%%%%%%%%%%%%%%%55555555555555555555555555",
"555555555555555555555544333555555555555555555555555555555555555555555555555555555555555555555555",
"555555555555555555555544333555555555555555555555555555555555555555555555555555555555555555555555",
"555555555555555555555544333555555555555555555555555555555555555555555555555555555555555555555555",
"555555555555555555555544333555555555555555555555555555555555555555555555555555555555555555555555",
"555555555555555555555544333555555555555555555555555555555555555555555555555555555555555555555555",
"555555555555555555555555555445555555555555555555555555555555555555555555555555555555555555555555",
"555555555555555555555555555445555555555555555555555555555555555555555555555555555555555555555555",
"555555555555555555555555555445555555555555555555555555555555555555555555555555555555555555555555",
"555555555555555555555555555555555555555555555555555555555555555555555555555555555555555555555555",
"555555555555555555555555555555555555555555555555555555555555555555555555555555555555555555555555",
"555555555555555555555555555555555555555555555555555555555555555555555555555555555555555555555555",
"555555555555555555555555555555555555555555555555555555555555555555555555555555555555555555555555",
"555555555555555555555555555555555555555555555555555555555555555555555555555555555555555555555555",
"555555555555555555555555555555555555555555555555555555555555555555555555555555555555555555555555",
"555555555555555555555555555555555555555555555555555555555555555555555555555555555555555555555555",
"555555555555555555555555555555555555555555555555555555555555555555555555555555555555555555555555",
"555555555555555555555555555555555555555555555555555555555555555555555555555555555555555555555555",
"555555555555555555555555555555555555555555555555555555555555555555555555555555555555555555555555",
"555555555555555555555555555555555555555555555555555555555555555555555555555555555555555555555555",
"555555555555555555555555555555555555555555555555555555555555555555555555555555555555555555555555",
"555555555555555555555555555555555555555555555555555555555555555555555555555555555555555555555555",
"555555555555555555555555555555555555555555555555555555555555555555555555555555555555555555555555",
"555555555555555555555555555555555555555555555555555555555555555555555555555555555555555555555555",
"555555555555555555555555555555555555555555555555555555555555555555555555555555555555555555555555",
"555555555555555555555555555555555555555555555555555555555555555555555555555555555555555555555555",
"555555555555555555555555555555555555555555555555555555555555555555555555555555555555555555555555",
"555555555555555555555555555555555555555555555555555555555555555555555555555555555555555555555555"
};
