/* XPM */
static char *result[] = {
/* columns rows colors chars-per-pixel */
"96 110 25 1 ",
"  c black",
". c #7B1029",
"X c #107B29",
"o c #7B5200",
"O c #734221",
"+ c #6B6B5A",
"@ c #DE2929",
"# c #A57B42",
"$ c #42A529",
"% c #10FF08",
"& c #363243",
"* c #BD8418",
"= c #EFBD21",
"- c yellow",
"; c #FFEF29",
": c #94947B",
"> c #DEAD52",
", c #3152FF",
"< c #D6B58C",
"1 c #BDFFA5",
"2 c #C6C6AD",
"3 c #FFE7BD",
"4 c #EFEFD6",
"5 c white",
"6 c None",
/* pixels */
"666666666666666666666666666666666666666666666666666666666666666666666666666666666666666666666666",
"666666666666666666666666666666666666666666666666666666666666666666666666666666666666666666666666",
"666666666666666666666666666666666666666666666666666666666666666666666666666666666666666666666666",
"666666666666666666666666666666666666666666666666666666666666666666666666666666666666666666666666",
"666666666666666666666666666666666666666666666666666666666666666666666666666666666666666666666666",
"666666666666666666666666666666666666666666666666666666666666666666666666666666666666666666666666",
"666666666666666666666666666666666666666666666666666666666666666666666666666666666666666666666666",
"666666666666666666666666666666666666666666666666666666666666666666666666666666666666666666666666",
"666666666666666666666666666666666666666666666666666666666666666666666666666666666666666666666666",
"666666666666666666666666666666666666666666666666666666666666666666666666666666666666666666666666",
"666666666666666666666666666666666666666666666666666666666666666666666666666666666666666666666666",
"666666666666666666666666666666666666666666666666666666666666666666666666666666666666666666666666",
"666666666666666666666666666666666666666666666666666666666666666666666666666666666666666666666666",
"666666666666666666666666666666666666666666666666666666666666666666666666666666666666666666666666",
"666666666666666666666666666666666666666666666666666666666666666666666666666666666666666666666666",
"666666666666666666666666666666666666666666666666666666666666666666666666666666666666666666666666",
"666666666666666666666666666666666666666666666666666666666666666666666666666666666666666666666666",
"666666666666666666666666666666666666666666666666666666666666666666666666666666666666666666666666",
"666666666666666666666666666666666666666666666666666666666666666666666666666666666666666666666666",
"666666666666666666666666666666666666666666666666666666666666666666666666666666666666666666666666",
"666666666666666666666666666666666666666666666666666666666666666666666666666666666666666666666666",
"666666666666666666666666666666666666666666666666666666666666666666666666666666666666666666666666",
"666666666666666666666666666666666666666666666666666666666666666666666666666666666666666666666666",
"666666666666666666666666666666666666666666666666666666666666666666666666666666666666666666666666",
"666666666666666666666666666666666666666666666666666666666666666666666666666666666666666666666666",
"666666666666666666666666666666666666666666666666666666666666666666666666666666666666666666666666",
"666666666666666666666666666666666666666666666666666666666666666666666666666666666666666666666666",
"666666666666666666666666666666666666666666666666666666666666666666666666666666666666666666666666",
"666666666666666666666666666666666666666666666666666666666666666666666666666666666666666666666666",
"666666666666666666666666666666666666666666666666666666666666666666666666666666666666666666666666",
"666666666666666666666666666666666666666666666666666666666666666666666666666666666666666666666666",
"666666666666666666666666666666666666666666666666666666666666666666666666666666666666666666666666",
"666666666666666666666666666666666666666666666666666666666666666666666666666666666666666666666666",
"666666666666666666666666666666666666666666666666666666666666666666666666666666666666666666666666",
"666666666666666666666666666666666666666666666666666666666666666666666666666666666666666666666666",
"666666666666666666666666666666666666666666666666666666666666666666666666666666666666666666666666",
"666666666666666666666666666666666666666666666666666666666666666666666666666666666666666666666666",
"666666666666666666666666666666666666666666666666666666666666666666666666666666666666666666666666",
"666666666666666666666666666666666666666666666666666666666666666666666666666666666666666666666666",
"666666666666666666666666666666666666666##OOO$$$%%%%%%%$$$666666666666666666666666666666666666666",
"666666666666666666666666666666666666666##OOO$$$%%%%%%%$$$666666666666666666666666666666666666666",
"66666666666666666666624466666666#-------->>>>>>%%%%%%%%%%%%%%%%%$$$$$666666666666666666666666666",
"66666666666666666666624466666666#-------->>>>>>%%%%%%%%%%%%%%%%%$$$$$666666666666666666666666666",
"66666666666666666666656666666###---->>>##-------%%%%%%%%%%%%%%%%$$$$$$XX666666666666666666666666",
"66666666666666666666656666666###---->>>##-------%%%%%%%%%%%%%%%%$$$$$$XX666666666666666666666666",
"66666666666666666666656666666###---->>>##-------%%%%%%%%%%%%%%%%$$$$$$XX666666666666666666666666",
"666666666666666666:::56666666OOO->>>OOO<<-------%%%%%%%%%$$$$$$$$$$$$$$$XXX666666666666666666666",
"66666666666666666644446666666666#OOO<<<<<###---->$$$$$$$$$$$$$$$XXXXXXXXXXX  6666666666666666666",
"66666666666666666644446666666666#OOO<<<<<###---->$$$$$$$$$$$$$$$XXXXXXXXXXX  6666666666666666666",
"66666666666666666644446666666666#OOO<<<<<###---->$$$$$$$$$$$$$$$XXXXXXXXXXX  6666666666666666666",
"666666666666666666555466666666666   <<<33333>>>-#$$$$$$$$XXXXXXX           XX 666666666666666666",
"666666666666666666555466666666666   <<<33333>>>-#$$$$$$$$XXXXXXX           XX 666666666666666666",
"666666666666666666555466666666666   <<<33333>>>-#$$$$$$$$XXXXXXX           XX 666666666666666666",
"6666666666666666::555422666666666   OOO  333333#OXXXXXXXXXXXXXXX66666666666   666666666666666666",
"6666666666666666::555422666666666   OOO  333333#OXXXXXXXXXXXXXXX66666666666   666666666666666666",
"666666666666666644555422666  oooo<<<,,,55333###-O33333333XXXX   66666666666666666666666666666666",
"666666666666666644555422666  oooo<<<,,,55333###-O33333333XXXX   66666666666666666666666666666666",
"666666666666666644555422666  oooo<<<,,,55333###-O33333333XXXX   66666666666666666666666666666666",
"666666666666666644555444:::66;;;=ooo,,,55333OOO- 33333###    66666666666666666666666666666666666",
"666666666666666644555444:::66;;;=ooo,,,55333OOO- 33333###    66666666666666666666666666666666666",
"666666666666666644555444:::66;;;=ooo,,,55333OOO- 33333###    66666666666666666666666666666666666",
"666666662222::::55444444555++***;***<<<33333OOO- #####   ----66666666666666666666666666666666666",
"66666222444444445544444444444===;;;;                  XXX       66666666666666666666666666666666",
"66666222444444445544444444444===;;;;                  XXX       66666666666666666666666666666666",
":::::5555555555555555555222;;;;;o;;;3333311111111XXXXX$$$OOOO%%%     666666666666666666666666666",
":::::5555555555555555555222;;;;;o;;;3333311111111XXXXX$$$OOOO%%%     666666666666666666666666666",
":::::5555555555555555555222;;;;;o;;;3333311111111XXXXX$$$OOOO%%%     666666666666666666666666666",
":::::5555555555555555555222;;;;;o;;;3333311111111XXXXX$$$OOOO%%%     666666666666666666666666666",
"66666222555555555555555555555===;;;;3333311111111$$$$$%%%OOOO%%%     666666666666666666666666666",
"666666666666666666555466:::66;;;=   66666666   -OOOOOOOOO%%%%   OOOOO &&&&&666666666666666666666",
"666666666666666666555466:::66;;;=   66666666   -OOOOOOOOO%%%%   OOOOO &&&&&666666666666666666666",
"666666666666666666555466:::66;;;=   66666666   -OOOOOOOOO%%%%   OOOOO &&&&&666666666666666666666",
"666666666666666666555466:::66;;;=   66666666   -OOOOOOOOO%%%%   OOOOO &&&&&666666666666666666666",
"666666666666666666555466:::66;;;=   66666666   -OOOOOOOOO%%%%   OOOOO &&&&&666666666666666666666",
"666666666666666666444566666      66666666      X$%%%%%%%%    ........ &&&&&&&6666666666666666666",
"666666666666666666:::566666666666666666  @@@... X$$$$$               &&&&&&&&6666666666666666666",
"666666666666666666:::566666666666666666  @@@... X$$$$$               &&&&&&&&6666666666666666666",
"666666666666666666666466666666666666666  @@@@@@.      &&&&&&&&&&&&&&&&&&&&&&&6666666666666666666",
"666666666666666666666466666666666666666  @@@@@@.      &&&&&&&&&&&&&&&&&&&&&&&6666666666666666666",
"666666666666666666666466666666666666666  @@@@@@.      &&&&&&&&&&&&&&&&&&&&&&&6666666666666666666",
"666666666666666666666466666666666666666  @@@@@@.      &&&&&&&&&&&&&&&&&&&&&&&6666666666666666666",
"6666666666666666666666666666666666666666666666666&&&&&&&&&&&&&&&&&&&&&66666666666666666666666666",
"6666666666666666666666666666666666666666666666666&&&&&&&&&&&&&&&&&&&&&66666666666666666666666666",
"666666666666666666666666666666666666666666666666666666666666666666666666666666666666666666666666",
"666666666666666666666666666666666666666666666666666666666666666666666666666666666666666666666666",
"666666666666666666666666666666666666666666666666666666666666666666666666666666666666666666666666",
"666666666666666666666666666666666666666666666666666666666666666666666666666666666666666666666666",
"666666666666666666666666666666666666666666666666666666666666666666666666666666666666666666666666",
"666666666666666666666666666666666666666666666666666666666666666666666666666666666666666666666666",
"666666666666666666666666666666666666666666666666666666666666666666666666666666666666666666666666",
"666666666666666666666666666666666666666666666666666666666666666666666666666666666666666666666666",
"666666666666666666666666666666666666666666666666666666666666666666666666666666666666666666666666",
"666666666666666666666666666666666666666666666666666666666666666666666666666666666666666666666666",
"666666666666666666666666666666666666666666666666666666666666666666666666666666666666666666666666",
"666666666666666666666666666666666666666666666666666666666666666666666666666666666666666666666666",
"666666666666666666666666666666666666666666666666666666666666666666666666666666666666666666666666",
"666666666666666666666666666666666666666666666666666666666666666666666666666666666666666666666666",
"666666666666666666666666666666666666666666666666666666666666666666666666666666666666666666666666",
"666666666666666666666666666666666666666666666666666666666666666666666666666666666666666666666666",
"666666666666666666666666666666666666666666666666666666666666666666666666666666666666666666666666",
"666666666666666666666666666666666666666666666666666666666666666666666666666666666666666666666666",
"666666666666666666666666666666666666666666666666666666666666666666666666666666666666666666666666",
"666666666666666666666666666666666666666666666666666666666666666666666666666666666666666666666666",
"666666666666666666666666666666666666666666666666666666666666666666666666666666666666666666666666",
"666666666666666666666666666666666666666666666666666666666666666666666666666666666666666666666666",
"666666666666666666666666666666666666666666666666666666666666666666666666666666666666666666666666",
"666666666666666666666666666666666666666666666666666666666666666666666666666666666666666666666666",
"666666666666666666666666666666666666666666666666666666666666666666666666666666666666666666666666",
"666666666666666666666666666666666666666666666666666666666666666666666666666666666666666666666666",
"666666666666666666666666666666666666666666666666666666666666666666666666666666666666666666666666"
};
